; OM File Header - Saved 2025/02/06 19:00:18
; (7.06 :patc (om-make-point 129 153) (om-make-point 0 0) (om-make-point 200 301) "non documentation" 183 0 nil "2025/02/06 19:00:18")
; End File Header
(in-package :om)(load-lib-for (quote nil))(setf *om-current-persistent* (om-load-patch1 "get-data" (quote ((om-load-boxcall (quote bastype) "aux" (quote t) (quote nil) (om-make-point 26 106) (om-make-point 52 28) "Data" "\"Data\"" nil) (om-load-boxcall (quote genfun) "INFILE" (quote infile) (quote ((om-load-inputfun (quote input-funbox) "no documentation" "NAME" nil) (om-load-inputfun (quote input-keyword) "Choose from this list (:unix :subdirs)" "Keyword input" (quote :subdirs)))) (om-make-point 12 136) nil nil nil nil 1) (om-load-boxout "output" 0 (om-make-point 3 227) (quote ((om-load-inputfun (quote input-funbox) "out" "out" nil))) nil nil) (om-load-boxin "input" 0 (om-make-point 5 45) "no documentation" "name" "moai-small" nil))) (quote ((3 0 1 0 nil 0) (0 0 1 1 nil 0) (1 0 2 0 nil 0))) nil 6.0401))
