; OM File Header - Saved 2025/02/06 18:22:39
; (6.0602 :patc (om-make-point 226 10) (om-make-point 330 135) (om-make-point 1026 526) "" 183 0 nil "2025/02/06 18:22:39")
; End File Header
; External resources 
; (list (list (quote :sound) "../../../out-files/buzfl-1_D.aiff" "../../../out-files/buzfl-1_C.aiff" "../../../out-files/buzfl-1_B.aiff" "../../../out-files/buzfl-1_A.aiff"))
(in-package :om)(load-lib-for (quote ("OMChroma")))(setf *om-current-persistent* (om-load-patch1 "buzfl-1" (quote ((om-load-boxcomment "comment 48" (om-make-point 27 213) (quote "|$|$|$|$$$") "" (om-make-point 481 35) nil (om-make-color 1.0 0.0 0.0) (om-make-font "Verdana" 36.0 :family "Verdana" :style (quote (:plain)) :mode (quote nil))) (om-load-boxcall (quote bastype) "aux 36" (quote t) (quote nil) (om-make-point 615 389) (om-make-point 41 30) 100 "100" nil) (om-load-boxcall (quote bastype) "aux 35" (quote t) (quote nil) (om-make-point 793 280) (om-make-point 38 30) 0.1 "0.1" nil) (om-load-boxcall (quote bastype) "aux 34" (quote t) (quote nil) (om-make-point 739 280) (om-make-point 52 30) 1.001 "1.001" nil) (om-load-editor-box1 "BPF 6" (quote bpf) (quote ((om-load-inputfun (quote input-funbox) "object" "self" nil) (om-load-inputfun (quote input-funbox) "X coordinates (list)" "x-points" (list 0 100)) (om-load-inputfun (quote input-funbox) "Y coordinates (list)" "y-points" (list 0 100)) (om-load-inputfun (quote input-funbox) "precision (integer) [0 - 10]" "decimals" 0))) (om-make-point 866 383) (om-make-point 43 42) (let ((newobj (when (find-class (quote bpf) nil) (let ((newbpf (simple-bpf-from-list (quote (0 100)) (quote (0 10)) (quote bpf) 0))) (setf (bpfcolor newbpf) (om-make-color 0 0 0)) (set-name newbpf nil) newbpf)))) newobj) "x" nil (pairlis (quote (picture winpos winsize)) (list nil (om-make-point 10 40) (om-make-point 335 275))) t nil nil nil) (om-load-boxcall (quote bastype) "aux 33" (quote t) (quote nil) (om-make-point 575 322) (om-make-point 27 30) 3 "3" nil) (om-load-boxcall (quote genfun) "ARITHM-SER 2" (quote arithm-ser) (quote ((om-load-inputfun (quote input-funbox) "begin" "BEGIN" 0) (om-load-inputfun (quote input-funbox) "end " "END" 10) (om-load-inputfun (quote input-funbox) "step" "STEP" 1))) (om-make-point 729 311) nil nil nil nil 1) (om-load-boxcall (quote bastype) "aux 32" (quote t) (quote nil) (om-make-point 681 280) (om-make-point 52 30) 0.001 "0.001" nil) (om-load-boxcall (quote bastype) "aux 31" (quote t) (quote nil) (om-make-point 657 389) (om-make-point 48 30) 1000 "1000" nil) (om-load-boxcall (quote bastype) "aux 30" (quote t) (quote nil) (om-make-point 826 389) (om-make-point 38 30) 0.8 "0.8" nil) (om-load-boxcomment "comment 47" (om-make-point 48 34) (quote "freq") "" (om-make-point 656 363) nil (om-make-color 1.0 0.0 0.0) (om-make-font "Verdana" 14.0 :family "Verdana" :style (quote (:bold)) :mode (quote nil))) (om-load-boxcomment "comment 46" (om-make-point 44 88) (quote "D") "" (om-make-point 512 297) nil (om-make-color 1.0 0.0 0.011788845) (om-make-font "Verdana" 36.0 :family "Verdana" :style (quote (:bold)) :mode (quote nil))) (om-load-boxcall (quote bastype) "aux 29" (quote t) (quote nil) (om-make-point 791 389) (om-make-point 27 30) 1 "1" nil) (om-load-boxcomment "comment 45" (om-make-point 51 34) (quote "durs") "" (om-make-point 566 298) nil (om-make-color 1.0 0.0 0.0) (om-make-font "Verdana" 14.0 :family "Verdana" :style (quote (:bold)) :mode (quote nil))) (om-load-boxcall (quote abstraction) "C#ed 4" (om-load-patch-abs1 "C#ed" (quote ((om-load-boxout "output 2" 1 (om-make-point 127 369) (quote ((om-load-inputfun (quote input-funbox) "" "out" nil))) "edel" nil) (om-load-boxcall (quote lispfun) "LENGTH" (quote length) (quote ((om-load-inputfun (quote input-funbox) "SEQUENCE" "SEQUENCE" nil))) (om-make-point 45 326) nil nil nil nil 1) (om-load-boxin "length" 1 (om-make-point 111 12) "" "length" nil nil) (om-load-boxcall (quote genfun) "OM*" (quote om*) (quote ((om-load-inputfun (quote input-funbox) "number or list" "ARG1" 0) (om-load-inputfun (quote input-funbox) "number or list" "ARG2" 0))) (om-make-point 137 204) nil nil nil nil 1) (om-load-boxcall (quote bastype) "aux 2" (quote t) (quote nil) (om-make-point 159 94) (om-make-point 27 30) 1 "1" nil) (om-load-boxcall (quote genfun) "OM-" (quote om-) (quote ((om-load-inputfun (quote input-funbox) "number or list" "ARG1" 0) (om-load-inputfun (quote input-funbox) "number or list" "ARG2" 0))) (om-make-point 136 144) nil nil nil nil 1) (om-load-boxcall (quote lispfun) "LENGTH" (quote length) (quote ((om-load-inputfun (quote input-funbox) "SEQUENCE" "SEQUENCE" nil))) (om-make-point 109 80) nil nil nil nil 1) (om-load-boxin "durs" 0 (om-make-point 200 139) "" "durs" nil nil) (om-load-boxout "output" 0 (om-make-point 43 374) (quote ((om-load-inputfun (quote input-funbox) "" "out" nil))) "length" nil) (om-load-boxcall (quote bastype) "aux" (quote t) (quote nil) (om-make-point 103 222) (om-make-point 27 30) 0 "0" nil) (om-load-boxcall (quote genfun) "ARITHM-SER" (quote arithm-ser) (quote ((om-load-inputfun (quote input-funbox) "begin" "BEGIN" 0) (om-load-inputfun (quote input-funbox) "end " "END" 10) (om-load-inputfun (quote input-funbox) "step" "STEP" 1))) (om-make-point 111 265) nil nil nil nil 1))) (quote ((10 0 0 0 nil 0) (10 0 1 0 nil 0) (5 0 3 0 nil 0) (7 0 3 1 nil 0) (6 0 5 0 nil 0) (4 0 5 1 nil 0) (2 0 6 0 nil 0) (1 0 8 0 nil 0) (9 0 10 0 nil 0) (3 0 10 1 nil 0) (7 0 10 2 nil 0))) 6.060017 nil "" (om-make-point 200 200) (om-make-point 500 400)) (quote ((om-load-inputfun (quote input-funbox) "" "durs" nil) (om-load-inputfun (quote input-funbox) "" "length" nil))) (om-make-point 567 353) nil nil nil "C#ed") (om-load-boxcomment "comment 44" (om-make-point 47 30) (quote "bzm") "" (om-make-point 823 363) nil (om-make-color 1.0 0.0 0.0) (om-make-font "Verdana" 14.0 :family "Verdana" :style (quote (:bold)) :mode (quote nil))) (om-load-boxcomment "comment 43" (om-make-point 48 34) (quote "aenv") "" (om-make-point 705 363) nil (om-make-color 1.0 0.0 0.0) (om-make-font "Verdana" 14.0 :family "Verdana" :style (quote (:bold)) :mode (quote nil))) (om-load-boxcomment "comment 42" (om-make-point 40 31) (quote "bzl") "" (om-make-point 750 363) nil (om-make-color 1.0 0.0 0.0) (om-make-font "Verdana" 14.0 :family "Verdana" :style (quote (:bold)) :mode (quote nil))) (om-load-editor-box1 "buzfl-1_D.aiff" (quote sound) (quote ((om-load-inputfun (quote input-funbox) "object" "self" nil) (om-load-inputfun (quote input-funbox) "a track index for multichannel mixing" "tracknum" 1) (om-load-inputfun (quote input-funbox) "a list of markers (s)" "markers" nil))) (om-make-point 517 429) (om-make-point 50 59) (let ((newobj (let ((thesound (load-sound (om-make-pathname :directory (quote (:relative "out-files")) :device :unspecific :host :unspecific :name "buzfl-1_D" :type "aiff") 1))) (when thesound (setf (markers thesound) (quote nil))) thesound))) (load-port-info newobj (quote nil)) (init-mus-color newobj (quote nil)) (set-extra-pairs newobj (quote nil)) (set-patch-pairs newobj (quote nil)) (set-name newobj "buzfl-1_D.aiff") (set-tonalite newobj nil) newobj) nil nil (pairlis (quote (palette-mode scale show-stems obj-mode score-mode winpos winsize mode grillestep notechancolor? zoom player inport outport deltapict cmnpref staff fontsize approx)) (list 0 nil (quote t) 1 0 (om-make-point 298 388) (om-make-point 875 640) 0 1000 nil 1 (quote :libaudio) 0 nil (om-make-point 0 0) (let ((newobj (make-instance (quote edition-values)))) (setf (paper-size newobj) (om-make-point 600 800)) (setf (top-margin newobj) 2) (setf (left-margin newobj) 1) (setf (right-margin newobj) 1) (setf (bottom-margin newobj) 1) (setf (orientation newobj) nil) (setf (scale newobj) nil) (setf (system-space newobj) (quote (1))) (setf (system-color newobj) (quote nil)) (setf (line-space newobj) 1) (setf (title newobj) nil) (setf (show-title? newobj) nil) (setf (show-page? newobj) nil) (setf (sheet-id newobj) nil) (setf (page-mode newobj) nil) newobj) (quote g) 24 2)) t nil nil nil) (om-load-boxcall (quote abstraction) "Synt 4" (om-load-patch-abs1 "Synt" (quote ((om-load-boxcall (quote bastype) "aux" (quote t) (quote nil) (om-make-point 91 101) (om-make-point 84 30) "buzfl-1_D" "\"buzfl-1_D\"" nil) (om-load-boxin "OMCh" 0 (om-make-point 31 69) "" "OMCh" nil nil) (om-load-boxout "output" 0 (om-make-point 55 205) (quote ((om-load-inputfun (quote input-funbox) "" "out" nil))) nil nil) (om-load-boxcall (quote genfun) "SYNTHESIZE" (quote synthesize) (quote ((om-load-inputfun (quote input-funbox) "something to synthesize..." "ELEMENTS" nil) (om-load-inputkeyword (quote input-keyword) "" "name" (quote :name) nil nil))) (om-make-point 45 143) nil nil nil nil 1))) (quote ((3 0 2 0 nil 0) (1 0 3 0 nil 0) (0 0 3 1 nil 0))) 6.060017 nil "" (om-make-point 200 200) (om-make-point 500 400)) (quote ((om-load-inputfun (quote input-funbox) "" "fm-1" nil))) (om-make-point 505 359) (om-make-point 51 67) nil nil "Synt") (om-load-boxcall (quote bastype) "aux 28" (quote t) (quote nil) (om-make-point 755 389) (om-make-point 27 30) 1 "1" nil) (om-load-editor-box1 "BPF 5" (quote bpf) (quote ((om-load-inputfun (quote input-funbox) "object" "self" nil) (om-load-inputfun (quote input-funbox) "X coordinates (list)" "x-points" (list 0 100)) (om-load-inputfun (quote input-funbox) "Y coordinates (list)" "y-points" (list 0 100)) (om-load-inputfun (quote input-funbox) "precision (integer) [0 - 10]" "decimals" 0))) (om-make-point 708 386) (om-make-point 41 38) (let ((newobj (when (find-class (quote bpf) nil) (let ((newbpf (simple-bpf-from-list (quote (0 5 95 100)) (quote (0 10 10 0)) (quote bpf) 0))) (setf (bpfcolor newbpf) (om-make-color 0 0 0)) (set-name newbpf nil) newbpf)))) newobj) "x" nil (pairlis (quote (picture winpos winsize)) (list nil (om-make-point 10 40) (om-make-point 335 275))) t nil nil nil) (om-load-boxcomment "comment 41" (om-make-point 40 31) (quote "bzh") "" (om-make-point 786 363) nil (om-make-color 1.0 0.0 0.0) (om-make-font "Verdana" 14.0 :family "Verdana" :style (quote (:bold)) :mode (quote nil))) (om-load-boxcomment "comment 40" (om-make-point 49 51) (quote "bzm$env") "" (om-make-point 867 345) nil (om-make-color 1.0 0.0 0.0) (om-make-font "Verdana" 14.0 :family "Verdana" :style (quote (:bold)) :mode (quote nil))) (om-load-editor-box1 "BZFL-1 4" (quote bzfl-1) (quote ((om-load-inputfun (quote input-funbox) "Synthesis event" "self" nil) (om-load-inputfun (quote input-funbox) "Number of components [int]" "numcols" 1) (om-load-inputfun (quote input-funbox) "Event offset [s]" "action-time" 0) (om-load-inputfun (quote input-funbox) "A lambda function applied to each component" "user-fun" nil) (om-load-inputkeyword (quote editor-keyword) "" "e-dels" (quote :e-dels) nil nil) (om-load-inputkeyword (quote editor-keyword) "" "durs" (quote :durs) nil nil) (om-load-inputkeyword (quote editor-keyword) "" "amp" (quote :amp) nil nil) (om-load-inputkeyword (quote editor-keyword) "" "f0" (quote :f0) nil nil) (om-load-inputkeyword (quote editor-keyword) "" "freq" (quote :freq) nil nil) (om-load-inputkeyword (quote editor-keyword) "" "aenv" (quote :aenv) nil nil) (om-load-inputkeyword (quote editor-keyword) "" "bzl" (quote :bzl) nil nil) (om-load-inputkeyword (quote editor-keyword) "" "bzh" (quote :bzh) nil nil) (om-load-inputkeyword (quote editor-keyword) "" "bzm" (quote :bzm) nil nil) (om-load-inputkeyword (quote editor-keyword) "" "bzmenv" (quote :bzmenv) nil nil) (om-load-inputkeyword (quote editor-keyword) "" "win" (quote :win) nil nil) (om-load-inputkeyword (quote editor-keyword) "" "wout" (quote :wout) nil nil))) (om-make-point 572 428) (om-make-point 385 61) (let ((rep (if (find-class (quote bzfl-1) nil) (let ((rep (make-instance (quote bzfl-1) :numcols 11))) (when (member (quote e-dels) (get-init-slots-of-class (quote bzfl-1)) :key (quote car)) (setf (slot-value rep (quote e-dels)) (list 0 3 6 9 12 15 18 21 24 27 30))) (when (member (quote durs) (get-init-slots-of-class (quote bzfl-1)) :key (quote car)) (setf (slot-value rep (quote durs)) 3)) (when (member (quote amp) (get-init-slots-of-class (quote bzfl-1)) :key (quote car)) (setf (slot-value rep (quote amp)) -6.0)) (when (member (quote f0) (get-init-slots-of-class (quote bzfl-1)) :key (quote car)) (setf (slot-value rep (quote f0)) 100)) (when (member (quote freq) (get-init-slots-of-class (quote bzfl-1)) :key (quote car)) (setf (slot-value rep (quote freq)) 1000)) (when (member (quote aenv) (get-init-slots-of-class (quote bzfl-1)) :key (quote car)) (setf (slot-value rep (quote aenv)) (let ((newobj (when (find-class (quote bpf) nil) (let ((newbpf (simple-bpf-from-list (quote (0 5 95 100)) (quote (0 10 10 0)) (quote bpf) 0))) (setf (bpfcolor newbpf) (om-make-color 0 0 0)) (set-name newbpf nil) newbpf)))) newobj))) (when (member (quote bzl) (get-init-slots-of-class (quote bzfl-1)) :key (quote car)) (setf (slot-value rep (quote bzl)) 1)) (when (member (quote bzh) (get-init-slots-of-class (quote bzfl-1)) :key (quote car)) (setf (slot-value rep (quote bzh)) 1)) (when (member (quote bzm) (get-init-slots-of-class (quote bzfl-1)) :key (quote car)) (setf (slot-value rep (quote bzm)) 0.8)) (when (member (quote bzmenv) (get-init-slots-of-class (quote bzfl-1)) :key (quote car)) (setf (slot-value rep (quote bzmenv)) (let ((newobj (when (find-class (quote bpf) nil) (let ((newbpf (simple-bpf-from-list (quote (0 100)) (quote (0 10)) (quote bpf) 0))) (setf (bpfcolor newbpf) (om-make-color 0 0 0)) (set-name newbpf nil) newbpf)))) newobj))) (when (member (quote win) (get-init-slots-of-class (quote bzfl-1)) :key (quote car)) (setf (slot-value rep (quote win)) 0.03)) (when (member (quote wout) (get-init-slots-of-class (quote bzfl-1)) :key (quote car)) (setf (slot-value rep (quote wout)) (list 0.001 0.101 0.201 0.301 0.401 0.501 0.601 0.70100004 0.80100006 0.9010001 1.001))) (setf (lcontrols rep) (list)) (setf (action-time rep) 0) (setf (data rep) (list (list 0 3 6 9 12 15 18 21 24 27 30) (list 3 3 3 3 3 3 3 3 3 3 3) (list -6.0 -6.0 -6.0 -6.0 -6.0 -6.0 -6.0 -6.0 -6.0 -6.0 -6.0) (list 100 100 100 100 100 100 100 100 100 100 100) (list 1000 1000 1000 1000 1000 1000 1000 1000 1000 1000 1000) (list (let ((newobj (when (find-class (quote gen07) nil) (let ((newbpf (simple-bpf-from-list (quote (0 5 95 100)) (quote (0 10 10 0)) (quote gen07) 0))) (setf (bpfcolor newbpf) (om-make-color 0 0 0)) (set-name newbpf nil) newbpf)))) (setf (stime newobj) 0) (setf (size newobj) 513) (setf (id newobj) "?") newobj) (let ((newobj (when (find-class (quote gen07) nil) (let ((newbpf (simple-bpf-from-list (quote (0 5 95 100)) (quote (0 10 10 0)) (quote gen07) 0))) (setf (bpfcolor newbpf) (om-make-color 0 0 0)) (set-name newbpf nil) newbpf)))) (setf (stime newobj) 0) (setf (size newobj) 513) (setf (id newobj) "?") newobj) (let ((newobj (when (find-class (quote gen07) nil) (let ((newbpf (simple-bpf-from-list (quote (0 5 95 100)) (quote (0 10 10 0)) (quote gen07) 0))) (setf (bpfcolor newbpf) (om-make-color 0 0 0)) (set-name newbpf nil) newbpf)))) (setf (stime newobj) 0) (setf (size newobj) 513) (setf (id newobj) "?") newobj) (let ((newobj (when (find-class (quote gen07) nil) (let ((newbpf (simple-bpf-from-list (quote (0 5 95 100)) (quote (0 10 10 0)) (quote gen07) 0))) (setf (bpfcolor newbpf) (om-make-color 0 0 0)) (set-name newbpf nil) newbpf)))) (setf (stime newobj) 0) (setf (size newobj) 513) (setf (id newobj) "?") newobj) (let ((newobj (when (find-class (quote gen07) nil) (let ((newbpf (simple-bpf-from-list (quote (0 5 95 100)) (quote (0 10 10 0)) (quote gen07) 0))) (setf (bpfcolor newbpf) (om-make-color 0 0 0)) (set-name newbpf nil) newbpf)))) (setf (stime newobj) 0) (setf (size newobj) 513) (setf (id newobj) "?") newobj) (let ((newobj (when (find-class (quote gen07) nil) (let ((newbpf (simple-bpf-from-list (quote (0 5 95 100)) (quote (0 10 10 0)) (quote gen07) 0))) (setf (bpfcolor newbpf) (om-make-color 0 0 0)) (set-name newbpf nil) newbpf)))) (setf (stime newobj) 0) (setf (size newobj) 513) (setf (id newobj) "?") newobj) (let ((newobj (when (find-class (quote gen07) nil) (let ((newbpf (simple-bpf-from-list (quote (0 5 95 100)) (quote (0 10 10 0)) (quote gen07) 0))) (setf (bpfcolor newbpf) (om-make-color 0 0 0)) (set-name newbpf nil) newbpf)))) (setf (stime newobj) 0) (setf (size newobj) 513) (setf (id newobj) "?") newobj) (let ((newobj (when (find-class (quote gen07) nil) (let ((newbpf (simple-bpf-from-list (quote (0 5 95 100)) (quote (0 10 10 0)) (quote gen07) 0))) (setf (bpfcolor newbpf) (om-make-color 0 0 0)) (set-name newbpf nil) newbpf)))) (setf (stime newobj) 0) (setf (size newobj) 513) (setf (id newobj) "?") newobj) (let ((newobj (when (find-class (quote gen07) nil) (let ((newbpf (simple-bpf-from-list (quote (0 5 95 100)) (quote (0 10 10 0)) (quote gen07) 0))) (setf (bpfcolor newbpf) (om-make-color 0 0 0)) (set-name newbpf nil) newbpf)))) (setf (stime newobj) 0) (setf (size newobj) 513) (setf (id newobj) "?") newobj) (let ((newobj (when (find-class (quote gen07) nil) (let ((newbpf (simple-bpf-from-list (quote (0 5 95 100)) (quote (0 10 10 0)) (quote gen07) 0))) (setf (bpfcolor newbpf) (om-make-color 0 0 0)) (set-name newbpf nil) newbpf)))) (setf (stime newobj) 0) (setf (size newobj) 513) (setf (id newobj) "?") newobj) (let ((newobj (when (find-class (quote gen07) nil) (let ((newbpf (simple-bpf-from-list (quote (0 5 95 100)) (quote (0 10 10 0)) (quote gen07) 0))) (setf (bpfcolor newbpf) (om-make-color 0 0 0)) (set-name newbpf nil) newbpf)))) (setf (stime newobj) 0) (setf (size newobj) 513) (setf (id newobj) "?") newobj)) (list 1 1 1 1 1 1 1 1 1 1 1) (list 1 1 1 1 1 1 1 1 1 1 1) (list 0.8 0.8 0.8 0.8 0.8 0.8 0.8 0.8 0.8 0.8 0.8) (list (let ((newobj (when (find-class (quote gen07) nil) (let ((newbpf (simple-bpf-from-list (quote (0 100)) (quote (0 10)) (quote gen07) 0))) (setf (bpfcolor newbpf) (om-make-color 0 0 0)) (set-name newbpf nil) newbpf)))) (setf (stime newobj) 0) (setf (size newobj) 513) (setf (id newobj) "?") newobj) (let ((newobj (when (find-class (quote gen07) nil) (let ((newbpf (simple-bpf-from-list (quote (0 100)) (quote (0 10)) (quote gen07) 0))) (setf (bpfcolor newbpf) (om-make-color 0 0 0)) (set-name newbpf nil) newbpf)))) (setf (stime newobj) 0) (setf (size newobj) 513) (setf (id newobj) "?") newobj) (let ((newobj (when (find-class (quote gen07) nil) (let ((newbpf (simple-bpf-from-list (quote (0 100)) (quote (0 10)) (quote gen07) 0))) (setf (bpfcolor newbpf) (om-make-color 0 0 0)) (set-name newbpf nil) newbpf)))) (setf (stime newobj) 0) (setf (size newobj) 513) (setf (id newobj) "?") newobj) (let ((newobj (when (find-class (quote gen07) nil) (let ((newbpf (simple-bpf-from-list (quote (0 100)) (quote (0 10)) (quote gen07) 0))) (setf (bpfcolor newbpf) (om-make-color 0 0 0)) (set-name newbpf nil) newbpf)))) (setf (stime newobj) 0) (setf (size newobj) 513) (setf (id newobj) "?") newobj) (let ((newobj (when (find-class (quote gen07) nil) (let ((newbpf (simple-bpf-from-list (quote (0 100)) (quote (0 10)) (quote gen07) 0))) (setf (bpfcolor newbpf) (om-make-color 0 0 0)) (set-name newbpf nil) newbpf)))) (setf (stime newobj) 0) (setf (size newobj) 513) (setf (id newobj) "?") newobj) (let ((newobj (when (find-class (quote gen07) nil) (let ((newbpf (simple-bpf-from-list (quote (0 100)) (quote (0 10)) (quote gen07) 0))) (setf (bpfcolor newbpf) (om-make-color 0 0 0)) (set-name newbpf nil) newbpf)))) (setf (stime newobj) 0) (setf (size newobj) 513) (setf (id newobj) "?") newobj) (let ((newobj (when (find-class (quote gen07) nil) (let ((newbpf (simple-bpf-from-list (quote (0 100)) (quote (0 10)) (quote gen07) 0))) (setf (bpfcolor newbpf) (om-make-color 0 0 0)) (set-name newbpf nil) newbpf)))) (setf (stime newobj) 0) (setf (size newobj) 513) (setf (id newobj) "?") newobj) (let ((newobj (when (find-class (quote gen07) nil) (let ((newbpf (simple-bpf-from-list (quote (0 100)) (quote (0 10)) (quote gen07) 0))) (setf (bpfcolor newbpf) (om-make-color 0 0 0)) (set-name newbpf nil) newbpf)))) (setf (stime newobj) 0) (setf (size newobj) 513) (setf (id newobj) "?") newobj) (let ((newobj (when (find-class (quote gen07) nil) (let ((newbpf (simple-bpf-from-list (quote (0 100)) (quote (0 10)) (quote gen07) 0))) (setf (bpfcolor newbpf) (om-make-color 0 0 0)) (set-name newbpf nil) newbpf)))) (setf (stime newobj) 0) (setf (size newobj) 513) (setf (id newobj) "?") newobj) (let ((newobj (when (find-class (quote gen07) nil) (let ((newbpf (simple-bpf-from-list (quote (0 100)) (quote (0 10)) (quote gen07) 0))) (setf (bpfcolor newbpf) (om-make-color 0 0 0)) (set-name newbpf nil) newbpf)))) (setf (stime newobj) 0) (setf (size newobj) 513) (setf (id newobj) "?") newobj) (let ((newobj (when (find-class (quote gen07) nil) (let ((newbpf (simple-bpf-from-list (quote (0 100)) (quote (0 10)) (quote gen07) 0))) (setf (bpfcolor newbpf) (om-make-color 0 0 0)) (set-name newbpf nil) newbpf)))) (setf (stime newobj) 0) (setf (size newobj) 513) (setf (id newobj) "?") newobj)) (list 0.03 0.03 0.03 0.03 0.03 0.03 0.03 0.03 0.03 0.03 0.03) (list 0.001 0.101 0.201 0.301 0.401 0.501 0.601 0.70100004 0.80100006 0.9010001 1.001))) rep)))) (setf (precision rep) (list 3)) rep) nil nil (pairlis (quote (panel-list cur-group-ind show-opt-fields color-list winsize winpos)) (list (list (list "All open" (list 0 (quote t)) (list 1 (quote t)) (list 2 (quote t)) (list 3 (quote t)) (list 4 (quote t)) (list 5 (quote t)) (list 6 (quote t)) (list 7 (quote t)) (list 8 (quote t)) (list 9 (quote t)) (list 10 (quote t)) (list 11 (quote t))) (list "All close" (list 0 nil) (list 1 nil) (list 2 nil) (list 3 nil) (list 4 nil) (list 5 nil) (list 6 nil) (list 7 nil) (list 8 nil) (list 9 nil) (list 10 nil) (list 11 nil))) 0 (quote t) (list (om-make-color 0 0 0) (om-make-color 0 0 0) (om-make-color 0 0 0) (om-make-color 0 0 0) (om-make-color 0 0 0) (om-make-color 0 0 0) (om-make-color 0 0 0) (om-make-color 0 0 0) (om-make-color 0 0 0) (om-make-color 0 0 0) (om-make-color 0 0 0) (om-make-color 0 0 0)) (om-make-point 500 280) (om-make-point 10 40))) nil nil nil nil) (om-load-boxcomment "comment 39" (om-make-point 40 31) (quote "f0") "" (om-make-point 616 363) nil (om-make-color 1.0 0.0 0.0) (om-make-font "Verdana" 14.0 :family "Verdana" :style (quote (:bold)) :mode (quote nil))) (om-load-boxcomment "comment 38" (om-make-point 47 30) (quote "win") "" (om-make-point 919 362) nil (om-make-color 1.0 0.0 0.0) (om-make-font "Verdana" 14.0 :family "Verdana" :style (quote (:bold)) :mode (quote nil))) (om-load-boxcall (quote bastype) "aux 18" (quote t) (quote nil) (om-make-point 920 389) (om-make-point 45 30) 0.03 "0.03" nil) (om-load-boxcomment "comment 37" (om-make-point 47 30) (quote "wout") "" (om-make-point 739 256) nil (om-make-color 1.0 0.0 0.0) (om-make-font "Verdana" 14.0 :family "Verdana" :style (quote (:bold)) :mode (quote nil))) (om-load-editor-box1 "BPF 4" (quote bpf) (quote ((om-load-inputfun (quote input-funbox) "object" "self" nil) (om-load-inputfun (quote input-funbox) "X coordinates (list)" "x-points" (list 0 100)) (om-load-inputfun (quote input-funbox) "Y coordinates (list)" "y-points" (list 0 100)) (om-load-inputfun (quote input-funbox) "precision (integer) [0 - 10]" "decimals" 0))) (om-make-point 822 132) (om-make-point 43 42) (let ((newobj (when (find-class (quote bpf) nil) (let ((newbpf (simple-bpf-from-list (quote (0 100)) (quote (0 10)) (quote bpf) 0))) (setf (bpfcolor newbpf) (om-make-color 0 0 0)) (set-name newbpf nil) newbpf)))) newobj) "x" nil (pairlis (quote (picture winpos winsize)) (list nil (om-make-point 10 40) (om-make-point 335 275))) t nil nil nil) (om-load-editor-box1 "BPF 2" (quote bpf) (quote ((om-load-inputfun (quote input-funbox) "object" "self" nil) (om-load-inputfun (quote input-funbox) "X coordinates (list)" "x-points" (list 0 100)) (om-load-inputfun (quote input-funbox) "Y coordinates (list)" "y-points" (list 0 100)) (om-load-inputfun (quote input-funbox) "precision (integer) [0 - 10]" "decimals" 0))) (om-make-point 342 132) (om-make-point 43 42) (let ((newobj (when (find-class (quote bpf) nil) (let ((newbpf (simple-bpf-from-list (quote (0 100)) (quote (0 10)) (quote bpf) 0))) (setf (bpfcolor newbpf) (om-make-color 0 0 0)) (set-name newbpf nil) newbpf)))) newobj) "x" nil (pairlis (quote (picture winpos winsize)) (list nil (om-make-point 10 40) (om-make-point 335 275))) t nil nil nil) (om-load-editor-box1 "BPF 34" (quote bpf) (quote ((om-load-inputfun (quote input-funbox) "object" "self" nil) (om-load-inputfun (quote input-funbox) "X coordinates (list)" "x-points" (list 0 100)) (om-load-inputfun (quote input-funbox) "Y coordinates (list)" "y-points" (list 0 100)) (om-load-inputfun (quote input-funbox) "precision (integer) [0 - 10]" "decimals" 0))) (om-make-point 372 379) (om-make-point 43 42) (let ((newobj (when (find-class (quote bpf) nil) (let ((newbpf (simple-bpf-from-list (quote (0 100)) (quote (0 10)) (quote bpf) 0))) (setf (bpfcolor newbpf) (om-make-color 0 0 0)) (set-name newbpf nil) newbpf)))) newobj) "x" nil (pairlis (quote (picture winpos winsize)) (list nil (om-make-point 10 40) (om-make-point 335 275))) t nil nil nil) (om-load-boxcall (quote genfun) "ARITHM-SER" (quote arithm-ser) (quote ((om-load-inputfun (quote input-funbox) "begin" "BEGIN" 0) (om-load-inputfun (quote input-funbox) "end " "END" 10) (om-load-inputfun (quote input-funbox) "step" "STEP" 1))) (om-make-point 235 307) nil nil nil nil 1) (om-load-boxcall (quote bastype) "aux 27" (quote t) (quote nil) (om-make-point 189 276) (om-make-point 52 30) 0.001 "0.001" nil) (om-load-boxcall (quote bastype) "aux 26" (quote t) (quote nil) (om-make-point 246 276) (om-make-point 52 30) 1.001 "1.001" nil) (om-load-boxcall (quote bastype) "aux 25" (quote t) (quote nil) (om-make-point 301 276) (om-make-point 38 30) 0.1 "0.1" nil) (om-load-boxcall (quote bastype) "aux 24" (quote t) (quote nil) (om-make-point 332 385) (om-make-point 38 30) 0.8 "0.8" nil) (om-load-boxcomment "comment 36" (om-make-point 48 34) (quote "freq") "" (om-make-point 162 359) nil (om-make-color 1.0 0.0 0.0) (om-make-font "Verdana" 14.0 :family "Verdana" :style (quote (:bold)) :mode (quote nil))) (om-load-boxcall (quote bastype) "aux 23" (quote t) (quote nil) (om-make-point 121 385) (om-make-point 41 30) 100 "100" nil) (om-load-boxcomment "comment 35" (om-make-point 44 88) (quote "C") "" (om-make-point 20 295) nil (om-make-color 1.0 0.0 0.011788845) (om-make-font "Verdana" 36.0 :family "Verdana" :style (quote (:bold)) :mode (quote nil))) (om-load-boxcall (quote bastype) "aux 22" (quote t) (quote nil) (om-make-point 163 385) (om-make-point 48 30) 1000 "1000" nil) (om-load-boxcall (quote bastype) "aux 21" (quote t) (quote nil) (om-make-point 297 385) (om-make-point 27 30) 1 "1" nil) (om-load-boxcomment "comment 34" (om-make-point 51 34) (quote "durs") "" (om-make-point 72 294) nil (om-make-color 1.0 0.0 0.0) (om-make-font "Verdana" 14.0 :family "Verdana" :style (quote (:bold)) :mode (quote nil))) (om-load-boxcall (quote bastype) "aux 20" (quote t) (quote nil) (om-make-point 81 318) (om-make-point 27 30) 3 "3" nil) (om-load-boxcall (quote abstraction) "C#ed 3" (om-load-patch-abs1 "C#ed" (quote ((om-load-boxout "output 2" 1 (om-make-point 127 369) (quote ((om-load-inputfun (quote input-funbox) "" "out" nil))) "edel" nil) (om-load-boxcall (quote lispfun) "LENGTH" (quote length) (quote ((om-load-inputfun (quote input-funbox) "SEQUENCE" "SEQUENCE" nil))) (om-make-point 45 326) nil nil nil nil 1) (om-load-boxin "length" 1 (om-make-point 111 12) "" "length" nil nil) (om-load-boxcall (quote genfun) "OM*" (quote om*) (quote ((om-load-inputfun (quote input-funbox) "number or list" "ARG1" 0) (om-load-inputfun (quote input-funbox) "number or list" "ARG2" 0))) (om-make-point 137 204) nil nil nil nil 1) (om-load-boxcall (quote bastype) "aux 2" (quote t) (quote nil) (om-make-point 159 94) (om-make-point 27 30) 1 "1" nil) (om-load-boxcall (quote genfun) "OM-" (quote om-) (quote ((om-load-inputfun (quote input-funbox) "number or list" "ARG1" 0) (om-load-inputfun (quote input-funbox) "number or list" "ARG2" 0))) (om-make-point 136 144) nil nil nil nil 1) (om-load-boxcall (quote lispfun) "LENGTH" (quote length) (quote ((om-load-inputfun (quote input-funbox) "SEQUENCE" "SEQUENCE" nil))) (om-make-point 109 80) nil nil nil nil 1) (om-load-boxin "durs" 0 (om-make-point 200 139) "" "durs" nil nil) (om-load-boxout "output" 0 (om-make-point 43 374) (quote ((om-load-inputfun (quote input-funbox) "" "out" nil))) "length" nil) (om-load-boxcall (quote bastype) "aux" (quote t) (quote nil) (om-make-point 103 222) (om-make-point 27 30) 0 "0" nil) (om-load-boxcall (quote genfun) "ARITHM-SER" (quote arithm-ser) (quote ((om-load-inputfun (quote input-funbox) "begin" "BEGIN" 0) (om-load-inputfun (quote input-funbox) "end " "END" 10) (om-load-inputfun (quote input-funbox) "step" "STEP" 1))) (om-make-point 111 265) nil nil nil nil 1))) (quote ((10 0 0 0 nil 0) (10 0 1 0 nil 0) (5 0 3 0 nil 0) (7 0 3 1 nil 0) (6 0 5 0 nil 0) (4 0 5 1 nil 0) (2 0 6 0 nil 0) (1 0 8 0 nil 0) (9 0 10 0 nil 0) (3 0 10 1 nil 0) (7 0 10 2 nil 0))) 6.060017 nil "" (om-make-point 200 200) (om-make-point 500 400)) (quote ((om-load-inputfun (quote input-funbox) "" "durs" nil) (om-load-inputfun (quote input-funbox) "" "length" nil))) (om-make-point 73 349) nil nil nil "C#ed") (om-load-boxcomment "comment 33" (om-make-point 47 30) (quote "bzm") "" (om-make-point 329 359) nil (om-make-color 1.0 0.0 0.0) (om-make-font "Verdana" 14.0 :family "Verdana" :style (quote (:bold)) :mode (quote nil))) (om-load-boxcomment "comment 32" (om-make-point 48 34) (quote "aenv") "" (om-make-point 211 359) nil (om-make-color 1.0 0.0 0.0) (om-make-font "Verdana" 14.0 :family "Verdana" :style (quote (:bold)) :mode (quote nil))) (om-load-boxcomment "comment 31" (om-make-point 40 31) (quote "bzl") "" (om-make-point 256 359) nil (om-make-color 1.0 0.0 0.0) (om-make-font "Verdana" 14.0 :family "Verdana" :style (quote (:bold)) :mode (quote nil))) (om-load-editor-box1 "buzfl-1_C.aiff" (quote sound) (quote ((om-load-inputfun (quote input-funbox) "object" "self" nil) (om-load-inputfun (quote input-funbox) "a track index for multichannel mixing" "tracknum" 1) (om-load-inputfun (quote input-funbox) "a list of markers (s)" "markers" nil))) (om-make-point 24 425) (om-make-point 50 59) (let ((newobj (let ((thesound (load-sound (om-make-pathname :directory (quote (:relative "out-files")) :device :unspecific :host :unspecific :name "buzfl-1_C" :type "aiff") 1))) (when thesound (setf (markers thesound) (quote nil))) thesound))) (load-port-info newobj (quote nil)) (init-mus-color newobj (quote nil)) (set-extra-pairs newobj (quote nil)) (set-patch-pairs newobj (quote nil)) (set-name newobj "buzfl-1_C.aiff") (set-tonalite newobj nil) newobj) nil nil (pairlis (quote (palette-mode scale show-stems obj-mode score-mode winpos winsize mode grillestep notechancolor? zoom player inport outport deltapict cmnpref staff fontsize approx)) (list 0 nil (quote t) 1 0 (om-make-point 298 388) (om-make-point 875 640) 0 1000 nil 1 (quote :libaudio) 0 nil (om-make-point 0 0) (let ((newobj (make-instance (quote edition-values)))) (setf (paper-size newobj) (om-make-point 600 800)) (setf (top-margin newobj) 2) (setf (left-margin newobj) 1) (setf (right-margin newobj) 1) (setf (bottom-margin newobj) 1) (setf (orientation newobj) nil) (setf (scale newobj) nil) (setf (system-space newobj) (quote (1))) (setf (system-color newobj) (quote nil)) (setf (line-space newobj) 1) (setf (title newobj) nil) (setf (show-title? newobj) nil) (setf (show-page? newobj) nil) (setf (sheet-id newobj) nil) (setf (page-mode newobj) nil) newobj) (quote g) 24 2)) t nil nil nil) (om-load-boxcall (quote abstraction) "Synt 3" (om-load-patch-abs1 "Synt" (quote ((om-load-boxcall (quote bastype) "aux" (quote t) (quote nil) (om-make-point 91 101) (om-make-point 84 30) "buzfl-1_C" "\"buzfl-1_C\"" nil) (om-load-boxin "OMCh" 0 (om-make-point 31 69) "" "OMCh" nil nil) (om-load-boxout "output" 0 (om-make-point 55 205) (quote ((om-load-inputfun (quote input-funbox) "" "out" nil))) nil nil) (om-load-boxcall (quote genfun) "SYNTHESIZE" (quote synthesize) (quote ((om-load-inputfun (quote input-funbox) "something to synthesize..." "ELEMENTS" nil) (om-load-inputkeyword (quote input-keyword) "" "name" (quote :name) nil nil))) (om-make-point 45 143) nil nil nil nil 1))) (quote ((3 0 2 0 nil 0) (1 0 3 0 nil 0) (0 0 3 1 nil 0))) 6.060017 nil "" (om-make-point 200 200) (om-make-point 500 400)) (quote ((om-load-inputfun (quote input-funbox) "" "fm-1" nil))) (om-make-point 12 355) (om-make-point 51 67) nil nil "Synt") (om-load-boxcall (quote bastype) "aux 19" (quote t) (quote nil) (om-make-point 261 385) (om-make-point 27 30) 1 "1" nil) (om-load-editor-box1 "BPF 3" (quote bpf) (quote ((om-load-inputfun (quote input-funbox) "object" "self" nil) (om-load-inputfun (quote input-funbox) "X coordinates (list)" "x-points" (list 0 100)) (om-load-inputfun (quote input-funbox) "Y coordinates (list)" "y-points" (list 0 100)) (om-load-inputfun (quote input-funbox) "precision (integer) [0 - 10]" "decimals" 0))) (om-make-point 214 382) (om-make-point 41 38) (let ((newobj (when (find-class (quote bpf) nil) (let ((newbpf (simple-bpf-from-list (quote (0 5 95 100)) (quote (0 10 10 0)) (quote bpf) 0))) (setf (bpfcolor newbpf) (om-make-color 0 0 0)) (set-name newbpf nil) newbpf)))) newobj) "x" nil (pairlis (quote (picture winpos winsize)) (list nil (om-make-point 10 40) (om-make-point 335 275))) t nil nil nil) (om-load-boxcomment "comment 30" (om-make-point 40 31) (quote "bzh") "" (om-make-point 292 359) nil (om-make-color 1.0 0.0 0.0) (om-make-font "Verdana" 14.0 :family "Verdana" :style (quote (:bold)) :mode (quote nil))) (om-load-boxcomment "comment 29" (om-make-point 49 51) (quote "bzm$env") "" (om-make-point 373 341) nil (om-make-color 1.0 0.0 0.0) (om-make-font "Verdana" 14.0 :family "Verdana" :style (quote (:bold)) :mode (quote nil))) (om-load-editor-box1 "BZFL-1 3" (quote bzfl-1) (quote ((om-load-inputfun (quote input-funbox) "Synthesis event" "self" nil) (om-load-inputfun (quote input-funbox) "Number of components [int]" "numcols" 1) (om-load-inputfun (quote input-funbox) "Event offset [s]" "action-time" 0) (om-load-inputfun (quote input-funbox) "A lambda function applied to each component" "user-fun" nil) (om-load-inputkeyword (quote editor-keyword) "" "e-dels" (quote :e-dels) nil nil) (om-load-inputkeyword (quote editor-keyword) "" "durs" (quote :durs) nil nil) (om-load-inputkeyword (quote editor-keyword) "" "amp" (quote :amp) nil nil) (om-load-inputkeyword (quote editor-keyword) "" "f0" (quote :f0) nil nil) (om-load-inputkeyword (quote editor-keyword) "" "freq" (quote :freq) nil nil) (om-load-inputkeyword (quote editor-keyword) "" "aenv" (quote :aenv) nil nil) (om-load-inputkeyword (quote editor-keyword) "" "bzl" (quote :bzl) nil nil) (om-load-inputkeyword (quote editor-keyword) "" "bzh" (quote :bzh) nil nil) (om-load-inputkeyword (quote editor-keyword) "" "bzm" (quote :bzm) nil nil) (om-load-inputkeyword (quote editor-keyword) "" "bzmenv" (quote :bzmenv) nil nil) (om-load-inputkeyword (quote editor-keyword) "" "win" (quote :win) nil nil) (om-load-inputkeyword (quote editor-keyword) "" "wout" (quote :wout) nil nil))) (om-make-point 78 424) (om-make-point 385 61) (let ((rep (if (find-class (quote bzfl-1) nil) (let ((rep (make-instance (quote bzfl-1) :numcols 11))) (when (member (quote e-dels) (get-init-slots-of-class (quote bzfl-1)) :key (quote car)) (setf (slot-value rep (quote e-dels)) (list 0 3 6 9 12 15 18 21 24 27 30))) (when (member (quote durs) (get-init-slots-of-class (quote bzfl-1)) :key (quote car)) (setf (slot-value rep (quote durs)) 3)) (when (member (quote amp) (get-init-slots-of-class (quote bzfl-1)) :key (quote car)) (setf (slot-value rep (quote amp)) -6.0)) (when (member (quote f0) (get-init-slots-of-class (quote bzfl-1)) :key (quote car)) (setf (slot-value rep (quote f0)) 100)) (when (member (quote freq) (get-init-slots-of-class (quote bzfl-1)) :key (quote car)) (setf (slot-value rep (quote freq)) 1000)) (when (member (quote aenv) (get-init-slots-of-class (quote bzfl-1)) :key (quote car)) (setf (slot-value rep (quote aenv)) (let ((newobj (when (find-class (quote bpf) nil) (let ((newbpf (simple-bpf-from-list (quote (0 5 95 100)) (quote (0 10 10 0)) (quote bpf) 0))) (setf (bpfcolor newbpf) (om-make-color 0 0 0)) (set-name newbpf nil) newbpf)))) newobj))) (when (member (quote bzl) (get-init-slots-of-class (quote bzfl-1)) :key (quote car)) (setf (slot-value rep (quote bzl)) 1)) (when (member (quote bzh) (get-init-slots-of-class (quote bzfl-1)) :key (quote car)) (setf (slot-value rep (quote bzh)) 1)) (when (member (quote bzm) (get-init-slots-of-class (quote bzfl-1)) :key (quote car)) (setf (slot-value rep (quote bzm)) 0.8)) (when (member (quote bzmenv) (get-init-slots-of-class (quote bzfl-1)) :key (quote car)) (setf (slot-value rep (quote bzmenv)) (let ((newobj (when (find-class (quote bpf) nil) (let ((newbpf (simple-bpf-from-list (quote (0 100)) (quote (0 10)) (quote bpf) 0))) (setf (bpfcolor newbpf) (om-make-color 0 0 0)) (set-name newbpf nil) newbpf)))) newobj))) (when (member (quote win) (get-init-slots-of-class (quote bzfl-1)) :key (quote car)) (setf (slot-value rep (quote win)) (list 0.001 0.101 0.201 0.301 0.401 0.501 0.601 0.70100004 0.80100006 0.9010001 1.001))) (when (member (quote wout) (get-init-slots-of-class (quote bzfl-1)) :key (quote car)) (setf (slot-value rep (quote wout)) 0.07)) (setf (lcontrols rep) (list)) (setf (action-time rep) 0) (setf (data rep) (list (list 0 3 6 9 12 15 18 21 24 27 30) (list 3 3 3 3 3 3 3 3 3 3 3) (list -6.0 -6.0 -6.0 -6.0 -6.0 -6.0 -6.0 -6.0 -6.0 -6.0 -6.0) (list 100 100 100 100 100 100 100 100 100 100 100) (list 1000 1000 1000 1000 1000 1000 1000 1000 1000 1000 1000) (list (let ((newobj (when (find-class (quote gen07) nil) (let ((newbpf (simple-bpf-from-list (quote (0 5 95 100)) (quote (0 10 10 0)) (quote gen07) 0))) (setf (bpfcolor newbpf) (om-make-color 0 0 0)) (set-name newbpf nil) newbpf)))) (setf (stime newobj) 0) (setf (size newobj) 513) (setf (id newobj) "?") newobj) (let ((newobj (when (find-class (quote gen07) nil) (let ((newbpf (simple-bpf-from-list (quote (0 5 95 100)) (quote (0 10 10 0)) (quote gen07) 0))) (setf (bpfcolor newbpf) (om-make-color 0 0 0)) (set-name newbpf nil) newbpf)))) (setf (stime newobj) 0) (setf (size newobj) 513) (setf (id newobj) "?") newobj) (let ((newobj (when (find-class (quote gen07) nil) (let ((newbpf (simple-bpf-from-list (quote (0 5 95 100)) (quote (0 10 10 0)) (quote gen07) 0))) (setf (bpfcolor newbpf) (om-make-color 0 0 0)) (set-name newbpf nil) newbpf)))) (setf (stime newobj) 0) (setf (size newobj) 513) (setf (id newobj) "?") newobj) (let ((newobj (when (find-class (quote gen07) nil) (let ((newbpf (simple-bpf-from-list (quote (0 5 95 100)) (quote (0 10 10 0)) (quote gen07) 0))) (setf (bpfcolor newbpf) (om-make-color 0 0 0)) (set-name newbpf nil) newbpf)))) (setf (stime newobj) 0) (setf (size newobj) 513) (setf (id newobj) "?") newobj) (let ((newobj (when (find-class (quote gen07) nil) (let ((newbpf (simple-bpf-from-list (quote (0 5 95 100)) (quote (0 10 10 0)) (quote gen07) 0))) (setf (bpfcolor newbpf) (om-make-color 0 0 0)) (set-name newbpf nil) newbpf)))) (setf (stime newobj) 0) (setf (size newobj) 513) (setf (id newobj) "?") newobj) (let ((newobj (when (find-class (quote gen07) nil) (let ((newbpf (simple-bpf-from-list (quote (0 5 95 100)) (quote (0 10 10 0)) (quote gen07) 0))) (setf (bpfcolor newbpf) (om-make-color 0 0 0)) (set-name newbpf nil) newbpf)))) (setf (stime newobj) 0) (setf (size newobj) 513) (setf (id newobj) "?") newobj) (let ((newobj (when (find-class (quote gen07) nil) (let ((newbpf (simple-bpf-from-list (quote (0 5 95 100)) (quote (0 10 10 0)) (quote gen07) 0))) (setf (bpfcolor newbpf) (om-make-color 0 0 0)) (set-name newbpf nil) newbpf)))) (setf (stime newobj) 0) (setf (size newobj) 513) (setf (id newobj) "?") newobj) (let ((newobj (when (find-class (quote gen07) nil) (let ((newbpf (simple-bpf-from-list (quote (0 5 95 100)) (quote (0 10 10 0)) (quote gen07) 0))) (setf (bpfcolor newbpf) (om-make-color 0 0 0)) (set-name newbpf nil) newbpf)))) (setf (stime newobj) 0) (setf (size newobj) 513) (setf (id newobj) "?") newobj) (let ((newobj (when (find-class (quote gen07) nil) (let ((newbpf (simple-bpf-from-list (quote (0 5 95 100)) (quote (0 10 10 0)) (quote gen07) 0))) (setf (bpfcolor newbpf) (om-make-color 0 0 0)) (set-name newbpf nil) newbpf)))) (setf (stime newobj) 0) (setf (size newobj) 513) (setf (id newobj) "?") newobj) (let ((newobj (when (find-class (quote gen07) nil) (let ((newbpf (simple-bpf-from-list (quote (0 5 95 100)) (quote (0 10 10 0)) (quote gen07) 0))) (setf (bpfcolor newbpf) (om-make-color 0 0 0)) (set-name newbpf nil) newbpf)))) (setf (stime newobj) 0) (setf (size newobj) 513) (setf (id newobj) "?") newobj) (let ((newobj (when (find-class (quote gen07) nil) (let ((newbpf (simple-bpf-from-list (quote (0 5 95 100)) (quote (0 10 10 0)) (quote gen07) 0))) (setf (bpfcolor newbpf) (om-make-color 0 0 0)) (set-name newbpf nil) newbpf)))) (setf (stime newobj) 0) (setf (size newobj) 513) (setf (id newobj) "?") newobj)) (list 1 1 1 1 1 1 1 1 1 1 1) (list 1 1 1 1 1 1 1 1 1 1 1) (list 0.8 0.8 0.8 0.8 0.8 0.8 0.8 0.8 0.8 0.8 0.8) (list (let ((newobj (when (find-class (quote gen07) nil) (let ((newbpf (simple-bpf-from-list (quote (0 100)) (quote (0 10)) (quote gen07) 0))) (setf (bpfcolor newbpf) (om-make-color 0 0 0)) (set-name newbpf nil) newbpf)))) (setf (stime newobj) 0) (setf (size newobj) 513) (setf (id newobj) "?") newobj) (let ((newobj (when (find-class (quote gen07) nil) (let ((newbpf (simple-bpf-from-list (quote (0 100)) (quote (0 10)) (quote gen07) 0))) (setf (bpfcolor newbpf) (om-make-color 0 0 0)) (set-name newbpf nil) newbpf)))) (setf (stime newobj) 0) (setf (size newobj) 513) (setf (id newobj) "?") newobj) (let ((newobj (when (find-class (quote gen07) nil) (let ((newbpf (simple-bpf-from-list (quote (0 100)) (quote (0 10)) (quote gen07) 0))) (setf (bpfcolor newbpf) (om-make-color 0 0 0)) (set-name newbpf nil) newbpf)))) (setf (stime newobj) 0) (setf (size newobj) 513) (setf (id newobj) "?") newobj) (let ((newobj (when (find-class (quote gen07) nil) (let ((newbpf (simple-bpf-from-list (quote (0 100)) (quote (0 10)) (quote gen07) 0))) (setf (bpfcolor newbpf) (om-make-color 0 0 0)) (set-name newbpf nil) newbpf)))) (setf (stime newobj) 0) (setf (size newobj) 513) (setf (id newobj) "?") newobj) (let ((newobj (when (find-class (quote gen07) nil) (let ((newbpf (simple-bpf-from-list (quote (0 100)) (quote (0 10)) (quote gen07) 0))) (setf (bpfcolor newbpf) (om-make-color 0 0 0)) (set-name newbpf nil) newbpf)))) (setf (stime newobj) 0) (setf (size newobj) 513) (setf (id newobj) "?") newobj) (let ((newobj (when (find-class (quote gen07) nil) (let ((newbpf (simple-bpf-from-list (quote (0 100)) (quote (0 10)) (quote gen07) 0))) (setf (bpfcolor newbpf) (om-make-color 0 0 0)) (set-name newbpf nil) newbpf)))) (setf (stime newobj) 0) (setf (size newobj) 513) (setf (id newobj) "?") newobj) (let ((newobj (when (find-class (quote gen07) nil) (let ((newbpf (simple-bpf-from-list (quote (0 100)) (quote (0 10)) (quote gen07) 0))) (setf (bpfcolor newbpf) (om-make-color 0 0 0)) (set-name newbpf nil) newbpf)))) (setf (stime newobj) 0) (setf (size newobj) 513) (setf (id newobj) "?") newobj) (let ((newobj (when (find-class (quote gen07) nil) (let ((newbpf (simple-bpf-from-list (quote (0 100)) (quote (0 10)) (quote gen07) 0))) (setf (bpfcolor newbpf) (om-make-color 0 0 0)) (set-name newbpf nil) newbpf)))) (setf (stime newobj) 0) (setf (size newobj) 513) (setf (id newobj) "?") newobj) (let ((newobj (when (find-class (quote gen07) nil) (let ((newbpf (simple-bpf-from-list (quote (0 100)) (quote (0 10)) (quote gen07) 0))) (setf (bpfcolor newbpf) (om-make-color 0 0 0)) (set-name newbpf nil) newbpf)))) (setf (stime newobj) 0) (setf (size newobj) 513) (setf (id newobj) "?") newobj) (let ((newobj (when (find-class (quote gen07) nil) (let ((newbpf (simple-bpf-from-list (quote (0 100)) (quote (0 10)) (quote gen07) 0))) (setf (bpfcolor newbpf) (om-make-color 0 0 0)) (set-name newbpf nil) newbpf)))) (setf (stime newobj) 0) (setf (size newobj) 513) (setf (id newobj) "?") newobj) (let ((newobj (when (find-class (quote gen07) nil) (let ((newbpf (simple-bpf-from-list (quote (0 100)) (quote (0 10)) (quote gen07) 0))) (setf (bpfcolor newbpf) (om-make-color 0 0 0)) (set-name newbpf nil) newbpf)))) (setf (stime newobj) 0) (setf (size newobj) 513) (setf (id newobj) "?") newobj)) (list 0.001 0.101 0.201 0.301 0.401 0.501 0.601 0.70100004 0.80100006 0.9010001 1.001) (list 0.07 0.07 0.07 0.07 0.07 0.07 0.07 0.07 0.07 0.07 0.07))) rep)))) (setf (precision rep) (list 3)) rep) nil nil (pairlis (quote (panel-list cur-group-ind show-opt-fields color-list winsize winpos)) (list (list (list "All open" (list 0 (quote t)) (list 1 (quote t)) (list 2 (quote t)) (list 3 (quote t)) (list 4 (quote t)) (list 5 (quote t)) (list 6 (quote t)) (list 7 (quote t)) (list 8 (quote t)) (list 9 (quote t)) (list 10 (quote t)) (list 11 (quote t))) (list "All close" (list 0 nil) (list 1 nil) (list 2 nil) (list 3 nil) (list 4 nil) (list 5 nil) (list 6 nil) (list 7 nil) (list 8 nil) (list 9 nil) (list 10 nil) (list 11 nil))) 0 (quote t) (list (om-make-color 0 0 0) (om-make-color 0 0 0) (om-make-color 0 0 0) (om-make-color 0 0 0) (om-make-color 0 0 0) (om-make-color 0 0 0) (om-make-color 0 0 0) (om-make-color 0 0 0) (om-make-color 0 0 0) (om-make-color 0 0 0) (om-make-color 0 0 0) (om-make-color 0 0 0)) (om-make-point 500 280) (om-make-point 10 40))) nil nil nil nil) (om-load-boxcomment "comment 28" (om-make-point 40 31) (quote "f0") "" (om-make-point 122 359) nil (om-make-color 1.0 0.0 0.0) (om-make-font "Verdana" 14.0 :family "Verdana" :style (quote (:bold)) :mode (quote nil))) (om-load-boxcomment "comment 27" (om-make-point 47 30) (quote "win") "" (om-make-point 250 253) nil (om-make-color 1.0 0.0 0.0) (om-make-font "Verdana" 14.0 :family "Verdana" :style (quote (:bold)) :mode (quote nil))) (om-load-boxcall (quote bastype) "aux 17" (quote t) (quote nil) (om-make-point 426 385) (om-make-point 45 30) 0.07 "0.07" nil) (om-load-boxcomment "comment 20" (om-make-point 47 30) (quote "wout") "" (om-make-point 423 358) nil (om-make-color 1.0 0.0 0.0) (om-make-font "Verdana" 14.0 :family "Verdana" :style (quote (:bold)) :mode (quote nil))) (om-load-boxcomment "comment 26" (om-make-point 44 88) (quote "B") "" (om-make-point 510 47) nil (om-make-color 1.0 0.0 0.011788845) (om-make-font "Verdana" 36.0 :family "Verdana" :style (quote (:bold)) :mode (quote nil))) (om-load-boxcall (quote bastype) "aux 16" (quote t) (quote nil) (om-make-point 616 70) (om-make-point 258 30) (list 200 400 600 800 1000 1200 1400 1600) "(200 400 600 800 1000 1200 1400 1600) " nil) (om-load-boxcall (quote bastype) "aux 15" (quote t) (quote nil) (om-make-point 614 137) (om-make-point 41 30) 200 "200" nil) (om-load-boxcall (quote bastype) "aux 14" (quote t) (quote nil) (om-make-point 746 137) (om-make-point 27 30) 1 "1" nil) (om-load-boxcomment "comment 25" (om-make-point 51 34) (quote "durs") "" (om-make-point 565 46) nil (om-make-color 1.0 0.0 0.0) (om-make-font "Verdana" 14.0 :family "Verdana" :style (quote (:bold)) :mode (quote nil))) (om-load-boxcall (quote bastype) "aux 13" (quote t) (quote nil) (om-make-point 574 70) (om-make-point 27 30) 3 "3" nil) (om-load-boxcall (quote abstraction) "C#ed 2" (om-load-patch-abs1 "C#ed" (quote ((om-load-boxout "output 2" 1 (om-make-point 127 369) (quote ((om-load-inputfun (quote input-funbox) "" "out" nil))) "edel" nil) (om-load-boxcall (quote lispfun) "LENGTH" (quote length) (quote ((om-load-inputfun (quote input-funbox) "SEQUENCE" "SEQUENCE" nil))) (om-make-point 45 326) nil nil nil nil 1) (om-load-boxin "length" 1 (om-make-point 111 12) "" "length" nil nil) (om-load-boxcall (quote genfun) "OM*" (quote om*) (quote ((om-load-inputfun (quote input-funbox) "number or list" "ARG1" 0) (om-load-inputfun (quote input-funbox) "number or list" "ARG2" 0))) (om-make-point 137 204) nil nil nil nil 1) (om-load-boxcall (quote bastype) "aux 2" (quote t) (quote nil) (om-make-point 159 94) (om-make-point 27 30) 1 "1" nil) (om-load-boxcall (quote genfun) "OM-" (quote om-) (quote ((om-load-inputfun (quote input-funbox) "number or list" "ARG1" 0) (om-load-inputfun (quote input-funbox) "number or list" "ARG2" 0))) (om-make-point 136 144) nil nil nil nil 1) (om-load-boxcall (quote lispfun) "LENGTH" (quote length) (quote ((om-load-inputfun (quote input-funbox) "SEQUENCE" "SEQUENCE" nil))) (om-make-point 109 80) nil nil nil nil 1) (om-load-boxin "durs" 0 (om-make-point 200 139) "" "durs" nil nil) (om-load-boxout "output" 0 (om-make-point 43 374) (quote ((om-load-inputfun (quote input-funbox) "" "out" nil))) "length" nil) (om-load-boxcall (quote bastype) "aux" (quote t) (quote nil) (om-make-point 103 222) (om-make-point 27 30) 0 "0" nil) (om-load-boxcall (quote genfun) "ARITHM-SER" (quote arithm-ser) (quote ((om-load-inputfun (quote input-funbox) "begin" "BEGIN" 0) (om-load-inputfun (quote input-funbox) "end " "END" 10) (om-load-inputfun (quote input-funbox) "step" "STEP" 1))) (om-make-point 111 265) nil nil nil nil 1))) (quote ((10 0 0 0 nil 0) (10 0 1 0 nil 0) (5 0 3 0 nil 0) (7 0 3 1 nil 0) (6 0 5 0 nil 0) (4 0 5 1 nil 0) (2 0 6 0 nil 0) (1 0 8 0 nil 0) (9 0 10 0 nil 0) (3 0 10 1 nil 0) (7 0 10 2 nil 0))) 6.060017 nil "" (om-make-point 200 200) (om-make-point 500 400)) (quote ((om-load-inputfun (quote input-funbox) "" "durs" nil) (om-load-inputfun (quote input-funbox) "" "length" nil))) (om-make-point 566 101) nil nil nil "C#ed") (om-load-boxcomment "comment 24" (om-make-point 48 34) (quote "freq") "" (om-make-point 727 45) nil (om-make-color 1.0 0.0 0.0) (om-make-font "Verdana" 14.0 :family "Verdana" :style (quote (:bold)) :mode (quote nil))) (om-load-boxcomment "comment 23" (om-make-point 47 30) (quote "bzm") "" (om-make-point 778 111) nil (om-make-color 1.0 0.0 0.0) (om-make-font "Verdana" 14.0 :family "Verdana" :style (quote (:bold)) :mode (quote nil))) (om-load-boxcomment "comment 22" (om-make-point 48 34) (quote "aenv") "" (om-make-point 660 111) nil (om-make-color 1.0 0.0 0.0) (om-make-font "Verdana" 14.0 :family "Verdana" :style (quote (:bold)) :mode (quote nil))) (om-load-boxcomment "comment 21" (om-make-point 40 31) (quote "bzl") "" (om-make-point 705 111) nil (om-make-color 1.0 0.0 0.0) (om-make-font "Verdana" 14.0 :family "Verdana" :style (quote (:bold)) :mode (quote nil))) (om-load-editor-box1 "buzfl-1_B.aiff" (quote sound) (quote ((om-load-inputfun (quote input-funbox) "object" "self" nil) (om-load-inputfun (quote input-funbox) "a track index for multichannel mixing" "tracknum" 1) (om-load-inputfun (quote input-funbox) "a list of markers (s)" "markers" nil))) (om-make-point 516 177) (om-make-point 50 59) (let ((newobj (let ((thesound (load-sound (om-make-pathname :directory (quote (:relative "out-files")) :device :unspecific :host :unspecific :name "buzfl-1_B" :type "aiff") 1))) (when thesound (setf (markers thesound) (quote nil))) thesound))) (load-port-info newobj (quote nil)) (init-mus-color newobj (quote nil)) (set-extra-pairs newobj (quote nil)) (set-patch-pairs newobj (quote nil)) (set-name newobj "buzfl-1_B.aiff") (set-tonalite newobj nil) newobj) nil nil (pairlis (quote (palette-mode scale show-stems obj-mode score-mode winpos winsize mode grillestep notechancolor? zoom player inport outport deltapict cmnpref staff fontsize approx)) (list 0 nil (quote t) 1 0 (om-make-point 298 388) (om-make-point 875 640) 0 1000 nil 1 (quote :libaudio) 0 nil (om-make-point 0 0) (let ((newobj (make-instance (quote edition-values)))) (setf (paper-size newobj) (om-make-point 600 800)) (setf (top-margin newobj) 2) (setf (left-margin newobj) 1) (setf (right-margin newobj) 1) (setf (bottom-margin newobj) 1) (setf (orientation newobj) nil) (setf (scale newobj) nil) (setf (system-space newobj) (quote (1))) (setf (system-color newobj) (quote nil)) (setf (line-space newobj) 1) (setf (title newobj) nil) (setf (show-title? newobj) nil) (setf (show-page? newobj) nil) (setf (sheet-id newobj) nil) (setf (page-mode newobj) nil) newobj) (quote g) 24 2)) t nil nil nil) (om-load-boxcall (quote abstraction) "Synt 2" (om-load-patch-abs1 "Synt" (quote ((om-load-boxcall (quote bastype) "aux" (quote t) (quote nil) (om-make-point 91 101) (om-make-point 84 30) "buzfl-1_B" "\"buzfl-1_B\"" nil) (om-load-boxin "OMCh" 0 (om-make-point 31 69) "" "OMCh" nil nil) (om-load-boxout "output" 0 (om-make-point 55 205) (quote ((om-load-inputfun (quote input-funbox) "" "out" nil))) nil nil) (om-load-boxcall (quote genfun) "SYNTHESIZE" (quote synthesize) (quote ((om-load-inputfun (quote input-funbox) "something to synthesize..." "ELEMENTS" nil) (om-load-inputkeyword (quote input-keyword) "" "name" (quote :name) nil nil))) (om-make-point 45 143) nil nil nil nil 1))) (quote ((3 0 2 0 nil 0) (1 0 3 0 nil 0) (0 0 3 1 nil 0))) 6.060017 nil "" (om-make-point 200 200) (om-make-point 500 400)) (quote ((om-load-inputfun (quote input-funbox) "" "fm-1" nil))) (om-make-point 504 107) (om-make-point 51 67) nil nil "Synt") (om-load-boxcall (quote bastype) "aux 12" (quote t) (quote nil) (om-make-point 710 137) (om-make-point 27 30) 1 "1" nil) (om-load-boxcall (quote bastype) "aux 11" (quote t) (quote nil) (om-make-point 781 137) (om-make-point 38 30) 0.8 "0.8" nil) (om-load-editor-box1 "BPF" (quote bpf) (quote ((om-load-inputfun (quote input-funbox) "object" "self" nil) (om-load-inputfun (quote input-funbox) "X coordinates (list)" "x-points" (list 0 100)) (om-load-inputfun (quote input-funbox) "Y coordinates (list)" "y-points" (list 0 100)) (om-load-inputfun (quote input-funbox) "precision (integer) [0 - 10]" "decimals" 0))) (om-make-point 663 134) (om-make-point 41 38) (let ((newobj (when (find-class (quote bpf) nil) (let ((newbpf (simple-bpf-from-list (quote (0 5 95 100)) (quote (0 10 10 0)) (quote bpf) 0))) (setf (bpfcolor newbpf) (om-make-color 0 0 0)) (set-name newbpf nil) newbpf)))) newobj) "x" nil (pairlis (quote (picture winpos winsize)) (list nil (om-make-point 10 40) (om-make-point 335 275))) t nil nil nil) (om-load-boxcomment "comment 19" (om-make-point 40 31) (quote "bzh") "" (om-make-point 741 111) nil (om-make-color 1.0 0.0 0.0) (om-make-font "Verdana" 14.0 :family "Verdana" :style (quote (:bold)) :mode (quote nil))) (om-load-boxcomment "comment 18" (om-make-point 49 51) (quote "bzm$env") "" (om-make-point 822 93) nil (om-make-color 1.0 0.0 0.0) (om-make-font "Verdana" 14.0 :family "Verdana" :style (quote (:bold)) :mode (quote nil))) (om-load-editor-box1 "BZFL-1 2" (quote bzfl-1) (quote ((om-load-inputfun (quote input-funbox) "Synthesis event" "self" nil) (om-load-inputfun (quote input-funbox) "Number of components [int]" "numcols" 1) (om-load-inputfun (quote input-funbox) "Event offset [s]" "action-time" 0) (om-load-inputfun (quote input-funbox) "A lambda function applied to each component" "user-fun" nil) (om-load-inputkeyword (quote editor-keyword) "" "e-dels" (quote :e-dels) nil nil) (om-load-inputkeyword (quote editor-keyword) "" "durs" (quote :durs) nil nil) (om-load-inputkeyword (quote editor-keyword) "" "amp" (quote :amp) nil nil) (om-load-inputkeyword (quote editor-keyword) "" "f0" (quote :f0) nil nil) (om-load-inputkeyword (quote editor-keyword) "" "freq" (quote :freq) nil nil) (om-load-inputkeyword (quote editor-keyword) "" "aenv" (quote :aenv) nil nil) (om-load-inputkeyword (quote editor-keyword) "" "bzl" (quote :bzl) nil nil) (om-load-inputkeyword (quote editor-keyword) "" "bzh" (quote :bzh) nil nil) (om-load-inputkeyword (quote editor-keyword) "" "bzm" (quote :bzm) nil nil) (om-load-inputkeyword (quote editor-keyword) "" "bzmenv" (quote :bzmenv) nil nil) (om-load-inputkeyword (quote editor-keyword) "" "win" (quote :win) nil nil) (om-load-inputkeyword (quote editor-keyword) "" "wout" (quote :wout) nil nil))) (om-make-point 571 176) (om-make-point 385 61) (let ((rep (if (find-class (quote bzfl-1) nil) (let ((rep (make-instance (quote bzfl-1) :numcols 8))) (when (member (quote e-dels) (get-init-slots-of-class (quote bzfl-1)) :key (quote car)) (setf (slot-value rep (quote e-dels)) (list 0 3 6 9 12 15 18 21))) (when (member (quote durs) (get-init-slots-of-class (quote bzfl-1)) :key (quote car)) (setf (slot-value rep (quote durs)) 3)) (when (member (quote amp) (get-init-slots-of-class (quote bzfl-1)) :key (quote car)) (setf (slot-value rep (quote amp)) -6.0)) (when (member (quote f0) (get-init-slots-of-class (quote bzfl-1)) :key (quote car)) (setf (slot-value rep (quote f0)) 200)) (when (member (quote freq) (get-init-slots-of-class (quote bzfl-1)) :key (quote car)) (setf (slot-value rep (quote freq)) (list 200 400 600 800 1000 1200 1400 1600))) (when (member (quote aenv) (get-init-slots-of-class (quote bzfl-1)) :key (quote car)) (setf (slot-value rep (quote aenv)) (let ((newobj (when (find-class (quote bpf) nil) (let ((newbpf (simple-bpf-from-list (quote (0 5 95 100)) (quote (0 10 10 0)) (quote bpf) 0))) (setf (bpfcolor newbpf) (om-make-color 0 0 0)) (set-name newbpf nil) newbpf)))) newobj))) (when (member (quote bzl) (get-init-slots-of-class (quote bzfl-1)) :key (quote car)) (setf (slot-value rep (quote bzl)) 1)) (when (member (quote bzh) (get-init-slots-of-class (quote bzfl-1)) :key (quote car)) (setf (slot-value rep (quote bzh)) 1)) (when (member (quote bzm) (get-init-slots-of-class (quote bzfl-1)) :key (quote car)) (setf (slot-value rep (quote bzm)) 0.8)) (when (member (quote bzmenv) (get-init-slots-of-class (quote bzfl-1)) :key (quote car)) (setf (slot-value rep (quote bzmenv)) (let ((newobj (when (find-class (quote bpf) nil) (let ((newbpf (simple-bpf-from-list (quote (0 100)) (quote (0 10)) (quote bpf) 0))) (setf (bpfcolor newbpf) (om-make-color 0 0 0)) (set-name newbpf nil) newbpf)))) newobj))) (when (member (quote win) (get-init-slots-of-class (quote bzfl-1)) :key (quote car)) (setf (slot-value rep (quote win)) 0.03)) (when (member (quote wout) (get-init-slots-of-class (quote bzfl-1)) :key (quote car)) (setf (slot-value rep (quote wout)) 0.07)) (setf (lcontrols rep) (list)) (setf (action-time rep) 0) (setf (data rep) (list (list 0 3 6 9 12 15 18 21) (list 3 3 3 3 3 3 3 3) (list -6.0 -6.0 -6.0 -6.0 -6.0 -6.0 -6.0 -6.0) (list 200 200 200 200 200 200 200 200) (list 200 400 600 800 1000 1200 1400 1600) (list (let ((newobj (when (find-class (quote gen07) nil) (let ((newbpf (simple-bpf-from-list (quote (0 5 95 100)) (quote (0 10 10 0)) (quote gen07) 0))) (setf (bpfcolor newbpf) (om-make-color 0 0 0)) (set-name newbpf nil) newbpf)))) (setf (stime newobj) 0) (setf (size newobj) 513) (setf (id newobj) "?") newobj) (let ((newobj (when (find-class (quote gen07) nil) (let ((newbpf (simple-bpf-from-list (quote (0 5 95 100)) (quote (0 10 10 0)) (quote gen07) 0))) (setf (bpfcolor newbpf) (om-make-color 0 0 0)) (set-name newbpf nil) newbpf)))) (setf (stime newobj) 0) (setf (size newobj) 513) (setf (id newobj) "?") newobj) (let ((newobj (when (find-class (quote gen07) nil) (let ((newbpf (simple-bpf-from-list (quote (0 5 95 100)) (quote (0 10 10 0)) (quote gen07) 0))) (setf (bpfcolor newbpf) (om-make-color 0 0 0)) (set-name newbpf nil) newbpf)))) (setf (stime newobj) 0) (setf (size newobj) 513) (setf (id newobj) "?") newobj) (let ((newobj (when (find-class (quote gen07) nil) (let ((newbpf (simple-bpf-from-list (quote (0 5 95 100)) (quote (0 10 10 0)) (quote gen07) 0))) (setf (bpfcolor newbpf) (om-make-color 0 0 0)) (set-name newbpf nil) newbpf)))) (setf (stime newobj) 0) (setf (size newobj) 513) (setf (id newobj) "?") newobj) (let ((newobj (when (find-class (quote gen07) nil) (let ((newbpf (simple-bpf-from-list (quote (0 5 95 100)) (quote (0 10 10 0)) (quote gen07) 0))) (setf (bpfcolor newbpf) (om-make-color 0 0 0)) (set-name newbpf nil) newbpf)))) (setf (stime newobj) 0) (setf (size newobj) 513) (setf (id newobj) "?") newobj) (let ((newobj (when (find-class (quote gen07) nil) (let ((newbpf (simple-bpf-from-list (quote (0 5 95 100)) (quote (0 10 10 0)) (quote gen07) 0))) (setf (bpfcolor newbpf) (om-make-color 0 0 0)) (set-name newbpf nil) newbpf)))) (setf (stime newobj) 0) (setf (size newobj) 513) (setf (id newobj) "?") newobj) (let ((newobj (when (find-class (quote gen07) nil) (let ((newbpf (simple-bpf-from-list (quote (0 5 95 100)) (quote (0 10 10 0)) (quote gen07) 0))) (setf (bpfcolor newbpf) (om-make-color 0 0 0)) (set-name newbpf nil) newbpf)))) (setf (stime newobj) 0) (setf (size newobj) 513) (setf (id newobj) "?") newobj) (let ((newobj (when (find-class (quote gen07) nil) (let ((newbpf (simple-bpf-from-list (quote (0 5 95 100)) (quote (0 10 10 0)) (quote gen07) 0))) (setf (bpfcolor newbpf) (om-make-color 0 0 0)) (set-name newbpf nil) newbpf)))) (setf (stime newobj) 0) (setf (size newobj) 513) (setf (id newobj) "?") newobj)) (list 1 1 1 1 1 1 1 1) (list 1 1 1 1 1 1 1 1) (list 0.8 0.8 0.8 0.8 0.8 0.8 0.8 0.8) (list (let ((newobj (when (find-class (quote gen07) nil) (let ((newbpf (simple-bpf-from-list (quote (0 100)) (quote (0 10)) (quote gen07) 0))) (setf (bpfcolor newbpf) (om-make-color 0 0 0)) (set-name newbpf nil) newbpf)))) (setf (stime newobj) 0) (setf (size newobj) 513) (setf (id newobj) "?") newobj) (let ((newobj (when (find-class (quote gen07) nil) (let ((newbpf (simple-bpf-from-list (quote (0 100)) (quote (0 10)) (quote gen07) 0))) (setf (bpfcolor newbpf) (om-make-color 0 0 0)) (set-name newbpf nil) newbpf)))) (setf (stime newobj) 0) (setf (size newobj) 513) (setf (id newobj) "?") newobj) (let ((newobj (when (find-class (quote gen07) nil) (let ((newbpf (simple-bpf-from-list (quote (0 100)) (quote (0 10)) (quote gen07) 0))) (setf (bpfcolor newbpf) (om-make-color 0 0 0)) (set-name newbpf nil) newbpf)))) (setf (stime newobj) 0) (setf (size newobj) 513) (setf (id newobj) "?") newobj) (let ((newobj (when (find-class (quote gen07) nil) (let ((newbpf (simple-bpf-from-list (quote (0 100)) (quote (0 10)) (quote gen07) 0))) (setf (bpfcolor newbpf) (om-make-color 0 0 0)) (set-name newbpf nil) newbpf)))) (setf (stime newobj) 0) (setf (size newobj) 513) (setf (id newobj) "?") newobj) (let ((newobj (when (find-class (quote gen07) nil) (let ((newbpf (simple-bpf-from-list (quote (0 100)) (quote (0 10)) (quote gen07) 0))) (setf (bpfcolor newbpf) (om-make-color 0 0 0)) (set-name newbpf nil) newbpf)))) (setf (stime newobj) 0) (setf (size newobj) 513) (setf (id newobj) "?") newobj) (let ((newobj (when (find-class (quote gen07) nil) (let ((newbpf (simple-bpf-from-list (quote (0 100)) (quote (0 10)) (quote gen07) 0))) (setf (bpfcolor newbpf) (om-make-color 0 0 0)) (set-name newbpf nil) newbpf)))) (setf (stime newobj) 0) (setf (size newobj) 513) (setf (id newobj) "?") newobj) (let ((newobj (when (find-class (quote gen07) nil) (let ((newbpf (simple-bpf-from-list (quote (0 100)) (quote (0 10)) (quote gen07) 0))) (setf (bpfcolor newbpf) (om-make-color 0 0 0)) (set-name newbpf nil) newbpf)))) (setf (stime newobj) 0) (setf (size newobj) 513) (setf (id newobj) "?") newobj) (let ((newobj (when (find-class (quote gen07) nil) (let ((newbpf (simple-bpf-from-list (quote (0 100)) (quote (0 10)) (quote gen07) 0))) (setf (bpfcolor newbpf) (om-make-color 0 0 0)) (set-name newbpf nil) newbpf)))) (setf (stime newobj) 0) (setf (size newobj) 513) (setf (id newobj) "?") newobj)) (list 0.03 0.03 0.03 0.03 0.03 0.03 0.03 0.03) (list 0.07 0.07 0.07 0.07 0.07 0.07 0.07 0.07))) rep)))) (setf (precision rep) (list 3)) rep) nil nil (pairlis (quote (panel-list cur-group-ind show-opt-fields color-list winsize winpos)) (list (list (list "All open" (list 0 (quote t)) (list 1 (quote t)) (list 2 (quote t)) (list 3 (quote t)) (list 4 (quote t)) (list 5 (quote t)) (list 6 (quote t)) (list 7 (quote t)) (list 8 (quote t)) (list 9 (quote t)) (list 10 (quote t)) (list 11 (quote t))) (list "All close" (list 0 nil) (list 1 nil) (list 2 nil) (list 3 nil) (list 4 nil) (list 5 nil) (list 6 nil) (list 7 nil) (list 8 nil) (list 9 nil) (list 10 nil) (list 11 nil))) 0 (quote t) (list (om-make-color 0 0 0) (om-make-color 0 0 0) (om-make-color 0 0 0) (om-make-color 0 0 0) (om-make-color 0 0 0) (om-make-color 0 0 0) (om-make-color 0 0 0) (om-make-color 0 0 0) (om-make-color 0 0 0) (om-make-color 0 0 0) (om-make-color 0 0 0) (om-make-color 0 0 0)) (om-make-point 500 280) (om-make-point 10 40))) nil nil nil nil) (om-load-boxcomment "comment 17" (om-make-point 40 31) (quote "f0") "" (om-make-point 615 111) nil (om-make-color 1.0 0.0 0.0) (om-make-font "Verdana" 14.0 :family "Verdana" :style (quote (:bold)) :mode (quote nil))) (om-load-boxcall (quote bastype) "aux 10" (quote t) (quote nil) (om-make-point 869 137) (om-make-point 45 30) 0.03 "0.03" nil) (om-load-boxcomment "comment 16" (om-make-point 47 30) (quote "win") "" (om-make-point 872 110) nil (om-make-color 1.0 0.0 0.0) (om-make-font "Verdana" 14.0 :family "Verdana" :style (quote (:bold)) :mode (quote nil))) (om-load-boxcall (quote bastype) "aux 9" (quote t) (quote nil) (om-make-point 919 137) (om-make-point 45 30) 0.07 "0.07" nil) (om-load-boxcomment "comment 15" (om-make-point 47 30) (quote "wout") "" (om-make-point 916 110) nil (om-make-color 1.0 0.0 0.0) (om-make-font "Verdana" 14.0 :family "Verdana" :style (quote (:bold)) :mode (quote nil))) (om-load-boxcomment "comment 14" (om-make-point 47 30) (quote "wout") "" (om-make-point 436 111) nil (om-make-color 1.0 0.0 0.0) (om-make-font "Verdana" 14.0 :family "Verdana" :style (quote (:bold)) :mode (quote nil))) (om-load-boxcall (quote bastype) "aux 8" (quote t) (quote nil) (om-make-point 439 138) (om-make-point 45 30) 0.07 "0.07" nil) (om-load-boxcomment "comment 12" (om-make-point 47 30) (quote "win") "" (om-make-point 392 111) nil (om-make-color 1.0 0.0 0.0) (om-make-font "Verdana" 14.0 :family "Verdana" :style (quote (:bold)) :mode (quote nil))) (om-load-boxcall (quote bastype) "aux 7" (quote t) (quote nil) (om-make-point 389 138) (om-make-point 45 30) 0.03 "0.03" nil) (om-load-boxcall (quote bastype) "aux 6" (quote t) (quote nil) (om-make-point 134 138) (om-make-point 41 30) 800 "800" nil) (om-load-boxcomment "comment 11" (om-make-point 40 31) (quote "freq") "" (om-make-point 135 112) nil (om-make-color 1.0 0.0 0.0) (om-make-font "Verdana" 14.0 :family "Verdana" :style (quote (:bold)) :mode (quote nil))) (om-load-editor-box1 "BZFL-1" (quote bzfl-1) (quote ((om-load-inputfun (quote input-funbox) "Synthesis event" "self" nil) (om-load-inputfun (quote input-funbox) "Number of components [int]" "numcols" 1) (om-load-inputfun (quote input-funbox) "Event offset [s]" "action-time" 0) (om-load-inputfun (quote input-funbox) "A lambda function applied to each component" "user-fun" nil) (om-load-inputkeyword (quote editor-keyword) "" "e-dels" (quote :e-dels) nil nil) (om-load-inputkeyword (quote editor-keyword) "" "durs" (quote :durs) nil nil) (om-load-inputkeyword (quote editor-keyword) "" "amp" (quote :amp) nil nil) (om-load-inputkeyword (quote editor-keyword) "" "f0" (quote :f0) nil nil) (om-load-inputkeyword (quote editor-keyword) "" "freq" (quote :freq) nil nil) (om-load-inputkeyword (quote editor-keyword) "" "aenv" (quote :aenv) nil nil) (om-load-inputkeyword (quote editor-keyword) "" "bzl" (quote :bzl) nil nil) (om-load-inputkeyword (quote editor-keyword) "" "bzh" (quote :bzh) nil nil) (om-load-inputkeyword (quote editor-keyword) "" "bzm" (quote :bzm) nil nil) (om-load-inputkeyword (quote editor-keyword) "" "bzmenv" (quote :bzmenv) nil nil) (om-load-inputkeyword (quote editor-keyword) "" "win" (quote :win) nil nil) (om-load-inputkeyword (quote editor-keyword) "" "wout" (quote :wout) nil nil))) (om-make-point 91 177) (om-make-point 385 61) (let ((rep (if (find-class (quote bzfl-1) nil) (let ((rep (make-instance (quote bzfl-1) :numcols 8))) (when (member (quote e-dels) (get-init-slots-of-class (quote bzfl-1)) :key (quote car)) (setf (slot-value rep (quote e-dels)) (list 0 3 6 9 12 15 18 21))) (when (member (quote durs) (get-init-slots-of-class (quote bzfl-1)) :key (quote car)) (setf (slot-value rep (quote durs)) 3)) (when (member (quote amp) (get-init-slots-of-class (quote bzfl-1)) :key (quote car)) (setf (slot-value rep (quote amp)) -6.0)) (when (member (quote f0) (get-init-slots-of-class (quote bzfl-1)) :key (quote car)) (setf (slot-value rep (quote f0)) (list 200 400 600 800 1000 1200 1400 1600))) (when (member (quote freq) (get-init-slots-of-class (quote bzfl-1)) :key (quote car)) (setf (slot-value rep (quote freq)) 800)) (when (member (quote aenv) (get-init-slots-of-class (quote bzfl-1)) :key (quote car)) (setf (slot-value rep (quote aenv)) (let ((newobj (when (find-class (quote bpf) nil) (let ((newbpf (simple-bpf-from-list (quote (0 5 95 100)) (quote (0 10 10 0)) (quote bpf) 0))) (setf (bpfcolor newbpf) (om-make-color 0 0 0)) (set-name newbpf nil) newbpf)))) newobj))) (when (member (quote bzl) (get-init-slots-of-class (quote bzfl-1)) :key (quote car)) (setf (slot-value rep (quote bzl)) 1)) (when (member (quote bzh) (get-init-slots-of-class (quote bzfl-1)) :key (quote car)) (setf (slot-value rep (quote bzh)) 1)) (when (member (quote bzm) (get-init-slots-of-class (quote bzfl-1)) :key (quote car)) (setf (slot-value rep (quote bzm)) 0.8)) (when (member (quote bzmenv) (get-init-slots-of-class (quote bzfl-1)) :key (quote car)) (setf (slot-value rep (quote bzmenv)) (let ((newobj (when (find-class (quote bpf) nil) (let ((newbpf (simple-bpf-from-list (quote (0 100)) (quote (0 10)) (quote bpf) 0))) (setf (bpfcolor newbpf) (om-make-color 0 0 0)) (set-name newbpf nil) newbpf)))) newobj))) (when (member (quote win) (get-init-slots-of-class (quote bzfl-1)) :key (quote car)) (setf (slot-value rep (quote win)) 0.03)) (when (member (quote wout) (get-init-slots-of-class (quote bzfl-1)) :key (quote car)) (setf (slot-value rep (quote wout)) 0.07)) (setf (lcontrols rep) (list)) (setf (action-time rep) 0) (setf (data rep) (list (list 0 3 6 9 12 15 18 21) (list 3 3 3 3 3 3 3 3) (list -6.0 -6.0 -6.0 -6.0 -6.0 -6.0 -6.0 -6.0) (list 200 400 600 800 1000 1200 1400 1600) (list 800 800 800 800 800 800 800 800) (list (let ((newobj (when (find-class (quote gen07) nil) (let ((newbpf (simple-bpf-from-list (quote (0 5 95 100)) (quote (0 10 10 0)) (quote gen07) 0))) (setf (bpfcolor newbpf) (om-make-color 0 0 0)) (set-name newbpf nil) newbpf)))) (setf (stime newobj) 0) (setf (size newobj) 513) (setf (id newobj) "?") newobj) (let ((newobj (when (find-class (quote gen07) nil) (let ((newbpf (simple-bpf-from-list (quote (0 5 95 100)) (quote (0 10 10 0)) (quote gen07) 0))) (setf (bpfcolor newbpf) (om-make-color 0 0 0)) (set-name newbpf nil) newbpf)))) (setf (stime newobj) 0) (setf (size newobj) 513) (setf (id newobj) "?") newobj) (let ((newobj (when (find-class (quote gen07) nil) (let ((newbpf (simple-bpf-from-list (quote (0 5 95 100)) (quote (0 10 10 0)) (quote gen07) 0))) (setf (bpfcolor newbpf) (om-make-color 0 0 0)) (set-name newbpf nil) newbpf)))) (setf (stime newobj) 0) (setf (size newobj) 513) (setf (id newobj) "?") newobj) (let ((newobj (when (find-class (quote gen07) nil) (let ((newbpf (simple-bpf-from-list (quote (0 5 95 100)) (quote (0 10 10 0)) (quote gen07) 0))) (setf (bpfcolor newbpf) (om-make-color 0 0 0)) (set-name newbpf nil) newbpf)))) (setf (stime newobj) 0) (setf (size newobj) 513) (setf (id newobj) "?") newobj) (let ((newobj (when (find-class (quote gen07) nil) (let ((newbpf (simple-bpf-from-list (quote (0 5 95 100)) (quote (0 10 10 0)) (quote gen07) 0))) (setf (bpfcolor newbpf) (om-make-color 0 0 0)) (set-name newbpf nil) newbpf)))) (setf (stime newobj) 0) (setf (size newobj) 513) (setf (id newobj) "?") newobj) (let ((newobj (when (find-class (quote gen07) nil) (let ((newbpf (simple-bpf-from-list (quote (0 5 95 100)) (quote (0 10 10 0)) (quote gen07) 0))) (setf (bpfcolor newbpf) (om-make-color 0 0 0)) (set-name newbpf nil) newbpf)))) (setf (stime newobj) 0) (setf (size newobj) 513) (setf (id newobj) "?") newobj) (let ((newobj (when (find-class (quote gen07) nil) (let ((newbpf (simple-bpf-from-list (quote (0 5 95 100)) (quote (0 10 10 0)) (quote gen07) 0))) (setf (bpfcolor newbpf) (om-make-color 0 0 0)) (set-name newbpf nil) newbpf)))) (setf (stime newobj) 0) (setf (size newobj) 513) (setf (id newobj) "?") newobj) (let ((newobj (when (find-class (quote gen07) nil) (let ((newbpf (simple-bpf-from-list (quote (0 5 95 100)) (quote (0 10 10 0)) (quote gen07) 0))) (setf (bpfcolor newbpf) (om-make-color 0 0 0)) (set-name newbpf nil) newbpf)))) (setf (stime newobj) 0) (setf (size newobj) 513) (setf (id newobj) "?") newobj)) (list 1 1 1 1 1 1 1 1) (list 1 1 1 1 1 1 1 1) (list 0.8 0.8 0.8 0.8 0.8 0.8 0.8 0.8) (list (let ((newobj (when (find-class (quote gen07) nil) (let ((newbpf (simple-bpf-from-list (quote (0 100)) (quote (0 10)) (quote gen07) 0))) (setf (bpfcolor newbpf) (om-make-color 0 0 0)) (set-name newbpf nil) newbpf)))) (setf (stime newobj) 0) (setf (size newobj) 513) (setf (id newobj) "?") newobj) (let ((newobj (when (find-class (quote gen07) nil) (let ((newbpf (simple-bpf-from-list (quote (0 100)) (quote (0 10)) (quote gen07) 0))) (setf (bpfcolor newbpf) (om-make-color 0 0 0)) (set-name newbpf nil) newbpf)))) (setf (stime newobj) 0) (setf (size newobj) 513) (setf (id newobj) "?") newobj) (let ((newobj (when (find-class (quote gen07) nil) (let ((newbpf (simple-bpf-from-list (quote (0 100)) (quote (0 10)) (quote gen07) 0))) (setf (bpfcolor newbpf) (om-make-color 0 0 0)) (set-name newbpf nil) newbpf)))) (setf (stime newobj) 0) (setf (size newobj) 513) (setf (id newobj) "?") newobj) (let ((newobj (when (find-class (quote gen07) nil) (let ((newbpf (simple-bpf-from-list (quote (0 100)) (quote (0 10)) (quote gen07) 0))) (setf (bpfcolor newbpf) (om-make-color 0 0 0)) (set-name newbpf nil) newbpf)))) (setf (stime newobj) 0) (setf (size newobj) 513) (setf (id newobj) "?") newobj) (let ((newobj (when (find-class (quote gen07) nil) (let ((newbpf (simple-bpf-from-list (quote (0 100)) (quote (0 10)) (quote gen07) 0))) (setf (bpfcolor newbpf) (om-make-color 0 0 0)) (set-name newbpf nil) newbpf)))) (setf (stime newobj) 0) (setf (size newobj) 513) (setf (id newobj) "?") newobj) (let ((newobj (when (find-class (quote gen07) nil) (let ((newbpf (simple-bpf-from-list (quote (0 100)) (quote (0 10)) (quote gen07) 0))) (setf (bpfcolor newbpf) (om-make-color 0 0 0)) (set-name newbpf nil) newbpf)))) (setf (stime newobj) 0) (setf (size newobj) 513) (setf (id newobj) "?") newobj) (let ((newobj (when (find-class (quote gen07) nil) (let ((newbpf (simple-bpf-from-list (quote (0 100)) (quote (0 10)) (quote gen07) 0))) (setf (bpfcolor newbpf) (om-make-color 0 0 0)) (set-name newbpf nil) newbpf)))) (setf (stime newobj) 0) (setf (size newobj) 513) (setf (id newobj) "?") newobj) (let ((newobj (when (find-class (quote gen07) nil) (let ((newbpf (simple-bpf-from-list (quote (0 100)) (quote (0 10)) (quote gen07) 0))) (setf (bpfcolor newbpf) (om-make-color 0 0 0)) (set-name newbpf nil) newbpf)))) (setf (stime newobj) 0) (setf (size newobj) 513) (setf (id newobj) "?") newobj)) (list 0.03 0.03 0.03 0.03 0.03 0.03 0.03 0.03) (list 0.07 0.07 0.07 0.07 0.07 0.07 0.07 0.07))) rep)))) (setf (precision rep) (list 3)) rep) nil nil (pairlis (quote (panel-list cur-group-ind show-opt-fields color-list winsize winpos)) (list (list (list "All open" (list 0 (quote t)) (list 1 (quote t)) (list 2 (quote t)) (list 3 (quote t)) (list 4 (quote t)) (list 5 (quote t)) (list 6 (quote t)) (list 7 (quote t)) (list 8 (quote t)) (list 9 (quote t)) (list 10 (quote t)) (list 11 (quote t))) (list "All close" (list 0 nil) (list 1 nil) (list 2 nil) (list 3 nil) (list 4 nil) (list 5 nil) (list 6 nil) (list 7 nil) (list 8 nil) (list 9 nil) (list 10 nil) (list 11 nil))) 0 (quote t) (list (om-make-color 0 0 0) (om-make-color 0 0 0) (om-make-color 0 0 0) (om-make-color 0 0 0) (om-make-color 0 0 0) (om-make-color 0 0 0) (om-make-color 0 0 0) (om-make-color 0 0 0) (om-make-color 0 0 0) (om-make-color 0 0 0) (om-make-color 0 0 0) (om-make-color 0 0 0)) (om-make-point 500 280) (om-make-point 10 40))) nil nil nil nil) (om-load-boxcomment "comment 13" (om-make-point 954 66) (quote "_________________________________________") "" (om-make-point 17 196) nil (om-make-color 1.0 0.0 0.0) (om-make-font "Verdana" 36.0 :family "Verdana" :style (quote (:plain)) :mode (quote nil))) (om-load-boxcomment "comment 10" (om-make-point 49 51) (quote "bzm$env") "" (om-make-point 342 94) nil (om-make-color 1.0 0.0 0.0) (om-make-font "Verdana" 14.0 :family "Verdana" :style (quote (:bold)) :mode (quote nil))) (om-load-boxcomment "comment 7" (om-make-point 40 31) (quote "bzh") "" (om-make-point 261 112) nil (om-make-color 1.0 0.0 0.0) (om-make-font "Verdana" 14.0 :family "Verdana" :style (quote (:bold)) :mode (quote nil))) (om-load-boxcall (quote bastype) "aux 5" (quote t) (quote nil) (om-make-point 266 138) (om-make-point 27 30) 1 "1" nil) (om-load-editor-box1 "BPF 13" (quote bpf) (quote ((om-load-inputfun (quote input-funbox) "object" "self" nil) (om-load-inputfun (quote input-funbox) "X coordinates (list)" "x-points" (list 0 100)) (om-load-inputfun (quote input-funbox) "Y coordinates (list)" "y-points" (list 0 100)) (om-load-inputfun (quote input-funbox) "precision (integer) [0 - 10]" "decimals" 0))) (om-make-point 183 135) (om-make-point 41 38) (let ((newobj (when (find-class (quote bpf) nil) (let ((newbpf (simple-bpf-from-list (quote (0 5 95 100)) (quote (0 10 10 0)) (quote bpf) 0))) (setf (bpfcolor newbpf) (om-make-color 0 0 0)) (set-name newbpf nil) newbpf)))) newobj) "x" nil (pairlis (quote (picture winpos winsize)) (list nil (om-make-point 10 40) (om-make-point 335 275))) t nil nil nil) (om-load-boxcall (quote bastype) "aux 4" (quote t) (quote nil) (om-make-point 302 138) (om-make-point 38 30) 0.8 "0.8" nil) (om-load-boxcall (quote bastype) "aux 3" (quote t) (quote nil) (om-make-point 230 138) (om-make-point 27 30) 1 "1" nil) (om-load-boxcomment "comment 9" (om-make-point 27 213) (quote "|$|$|$|$$$") "" (om-make-point 481 267) nil (om-make-color 1.0 0.0 0.0) (om-make-font "Verdana" 36.0 :family "Verdana" :style (quote (:plain)) :mode (quote nil))) (om-load-boxcall (quote abstraction) "Synt" (om-load-patch-abs1 "Synt" (quote ((om-load-boxcall (quote bastype) "aux" (quote t) (quote nil) (om-make-point 91 100) (om-make-point 84 30) "buzfl-1_A" "\"buzfl-1_A\"" nil) (om-load-boxin "OMCh" 0 (om-make-point 31 69) "" "OMCh" nil nil) (om-load-boxout "output" 0 (om-make-point 55 205) (quote ((om-load-inputfun (quote input-funbox) "" "out" nil))) nil nil) (om-load-boxcall (quote genfun) "SYNTHESIZE" (quote synthesize) (quote ((om-load-inputfun (quote input-funbox) "something to synthesize..." "ELEMENTS" nil) (om-load-inputkeyword (quote input-keyword) "" "name" (quote :name) nil nil))) (om-make-point 45 143) nil nil nil nil 1))) (quote ((3 0 2 0 nil 0) (1 0 3 0 nil 0) (0 0 3 1 nil 0))) 6.060017 nil "" (om-make-point 200 200) (om-make-point 500 400)) (quote ((om-load-inputfun (quote input-funbox) "" "fm-1" nil))) (om-make-point 24 108) (om-make-point 51 67) nil nil "Synt") (om-load-editor-box1 "buzfl-1_A.aiff" (quote sound) (quote ((om-load-inputfun (quote input-funbox) "object" "self" nil) (om-load-inputfun (quote input-funbox) "a track index for multichannel mixing" "tracknum" 1) (om-load-inputfun (quote input-funbox) "a list of markers (s)" "markers" nil))) (om-make-point 36 178) (om-make-point 50 59) (let ((newobj (let ((thesound (load-sound (om-make-pathname :directory (quote (:relative "out-files")) :device :unspecific :host :unspecific :name "buzfl-1_A" :type "aiff") 1))) (when thesound (setf (markers thesound) (quote nil))) thesound))) (load-port-info newobj (quote nil)) (init-mus-color newobj (quote nil)) (set-extra-pairs newobj (quote nil)) (set-patch-pairs newobj (quote nil)) (set-name newobj "buzfl-1_A.aiff") (set-tonalite newobj nil) newobj) nil nil (pairlis (quote (palette-mode scale show-stems obj-mode score-mode winpos winsize mode grillestep notechancolor? zoom player inport outport deltapict cmnpref staff fontsize approx)) (list 0 nil (quote t) 1 0 (om-make-point 298 388) (om-make-point 875 640) 0 1000 nil 1 (quote :libaudio) 0 nil (om-make-point 0 0) (let ((newobj (make-instance (quote edition-values)))) (setf (paper-size newobj) (om-make-point 600 800)) (setf (top-margin newobj) 2) (setf (left-margin newobj) 1) (setf (right-margin newobj) 1) (setf (bottom-margin newobj) 1) (setf (orientation newobj) nil) (setf (scale newobj) nil) (setf (system-space newobj) (quote (1))) (setf (system-color newobj) (quote nil)) (setf (line-space newobj) 1) (setf (title newobj) nil) (setf (show-title? newobj) nil) (setf (show-page? newobj) nil) (setf (sheet-id newobj) nil) (setf (page-mode newobj) nil) newobj) (quote g) 24 2)) t nil nil nil) (om-load-boxcomment "comment 8" (om-make-point 40 31) (quote "bzl") "" (om-make-point 225 112) nil (om-make-color 1.0 0.0 0.0) (om-make-font "Verdana" 14.0 :family "Verdana" :style (quote (:bold)) :mode (quote nil))) (om-load-boxcomment "comment 6" (om-make-point 48 34) (quote "aenv") "" (om-make-point 180 112) nil (om-make-color 1.0 0.0 0.0) (om-make-font "Verdana" 14.0 :family "Verdana" :style (quote (:bold)) :mode (quote nil))) (om-load-boxcomment "comment 5" (om-make-point 47 30) (quote "bzm") "" (om-make-point 298 112) nil (om-make-color 1.0 0.0 0.0) (om-make-font "Verdana" 14.0 :family "Verdana" :style (quote (:bold)) :mode (quote nil))) (om-load-boxcomment "comment 4" (om-make-point 30 26) (quote "f0") "" (om-make-point 247 46) nil (om-make-color 1.0 0.0 0.0) (om-make-font "Verdana" 14.0 :family "Verdana" :style (quote (:bold)) :mode (quote nil))) (om-load-boxcall (quote bastype) "aux 2" (quote t) (quote nil) (om-make-point 136 71) (om-make-point 258 30) (list 200 400 600 800 1000 1200 1400 1600) "(200 400 600 800 1000 1200 1400 1600) " nil) (om-load-boxcall (quote abstraction) "C#ed" (om-load-patch-abs1 "C#ed" (quote ((om-load-boxout "output 2" 1 (om-make-point 127 369) (quote ((om-load-inputfun (quote input-funbox) "" "out" nil))) "edel" nil) (om-load-boxcall (quote lispfun) "LENGTH" (quote length) (quote ((om-load-inputfun (quote input-funbox) "SEQUENCE" "SEQUENCE" nil))) (om-make-point 45 326) nil nil nil nil 1) (om-load-boxin "length" 1 (om-make-point 111 12) "" "length" nil nil) (om-load-boxcall (quote genfun) "OM*" (quote om*) (quote ((om-load-inputfun (quote input-funbox) "number or list" "ARG1" 0) (om-load-inputfun (quote input-funbox) "number or list" "ARG2" 0))) (om-make-point 137 204) nil nil nil nil 1) (om-load-boxcall (quote bastype) "aux 2" (quote t) (quote nil) (om-make-point 159 94) (om-make-point 27 30) 1 "1" nil) (om-load-boxcall (quote genfun) "OM-" (quote om-) (quote ((om-load-inputfun (quote input-funbox) "number or list" "ARG1" 0) (om-load-inputfun (quote input-funbox) "number or list" "ARG2" 0))) (om-make-point 136 144) nil nil nil nil 1) (om-load-boxcall (quote lispfun) "LENGTH" (quote length) (quote ((om-load-inputfun (quote input-funbox) "SEQUENCE" "SEQUENCE" nil))) (om-make-point 109 80) nil nil nil nil 1) (om-load-boxin "durs" 0 (om-make-point 200 139) "" "durs" nil nil) (om-load-boxout "output" 0 (om-make-point 43 374) (quote ((om-load-inputfun (quote input-funbox) "" "out" nil))) "length" nil) (om-load-boxcall (quote bastype) "aux" (quote t) (quote nil) (om-make-point 103 222) (om-make-point 27 30) 0 "0" nil) (om-load-boxcall (quote genfun) "ARITHM-SER" (quote arithm-ser) (quote ((om-load-inputfun (quote input-funbox) "begin" "BEGIN" 0) (om-load-inputfun (quote input-funbox) "end " "END" 10) (om-load-inputfun (quote input-funbox) "step" "STEP" 1))) (om-make-point 111 265) nil nil nil nil 1))) (quote ((10 0 0 0 nil 0) (10 0 1 0 nil 0) (5 0 3 0 nil 0) (7 0 3 1 nil 0) (6 0 5 0 nil 0) (4 0 5 1 nil 0) (2 0 6 0 nil 0) (1 0 8 0 nil 0) (9 0 10 0 nil 0) (3 0 10 1 nil 0) (7 0 10 2 nil 0))) 6.060017 nil "" (om-make-point 200 200) (om-make-point 500 400)) (quote ((om-load-inputfun (quote input-funbox) "" "durs" nil) (om-load-inputfun (quote input-funbox) "" "length" nil))) (om-make-point 86 102) nil nil nil "C#ed") (om-load-boxcall (quote bastype) "aux" (quote t) (quote nil) (om-make-point 94 71) (om-make-point 27 30) 3 "3" nil) (om-load-boxcomment "comment 3" (om-make-point 51 34) (quote "durs") "" (om-make-point 84 47) nil (om-make-color 1.0 0.0 0.0) (om-make-font "Verdana" 14.0 :family "Verdana" :style (quote (:bold)) :mode (quote nil))) (om-load-boxcomment "comment 2" (om-make-point 210 34) (quote "Tutorial BUZFL-1") "" (om-make-point 56 2) nil (om-make-color 1.0 0.0 0.0) (om-make-font "Verdana" 14.0 :family "Verdana" :style (quote (:bold)) :mode (quote nil))) (om-load-boxcomment "comment" (om-make-point 44 88) (quote "A") "" (om-make-point 30 48) nil (om-make-color 1.0 0.0 0.011788845) (om-make-font "Verdana" 36.0 :family "Verdana" :style (quote (:bold)) :mode (quote nil))))) (quote ((7 0 6 0 nil 0) (3 0 6 1 nil 0) (2 0 6 2 nil 0) (5 0 14 0 nil 3) (6 0 14 1 nil 1) (19 0 18 0 nil 0) (24 0 19 0 nil 2) (14 0 24 1 nil 2) (14 1 24 4 nil 5) (5 0 24 5 nil 3) (1 0 24 7 nil 0) (8 0 24 8 nil 1) (21 0 24 9 nil 11) (20 0 24 10 nil 0) (12 0 24 11 nil 2) (9 0 24 12 nil 3) (4 0 24 13 nil 0) (27 0 24 14 nil 0) (6 0 24 15 nil 1) (33 0 32 0 nil 0) (34 0 32 1 nil 0) (35 0 32 2 nil 0) (43 0 44 0 nil 3) (32 0 44 1 nil 1) (49 0 48 0 nil 0) (54 0 49 0 nil 2) (44 0 54 1 nil 2) (44 1 54 4 nil 5) (43 0 54 5 nil 3) (38 0 54 7 nil 0) (40 0 54 8 nil 1) (51 0 54 9 nil 11) (50 0 54 10 nil 0) (41 0 54 11 nil 2) (36 0 54 12 nil 3) (31 0 54 13 nil 0) (32 0 54 14 nil 1) (57 0 54 15 nil 0) (64 0 65 0 nil 3) (60 0 65 1 nil 1) (71 0 70 0 nil 0) (77 0 71 0 nil 2) (65 0 77 1 nil 2) (65 1 77 4 nil 5) (64 0 77 5 nil 3) (61 0 77 7 nil 0) (60 0 77 8 nil 1) (74 0 77 9 nil 11) (72 0 77 10 nil 0) (62 0 77 11 nil 2) (73 0 77 12 nil 3) (29 0 77 13 nil 0) (79 0 77 14 nil 0) (81 0 77 15 nil 0) (105 0 89 1 nil 2) (105 1 89 4 nil 5) (106 0 89 5 nil 3) (104 0 89 7 nil 1) (87 0 89 8 nil 8) (94 0 89 9 nil 11) (96 0 89 10 nil 0) (93 0 89 11 nil 2) (95 0 89 12 nil 3) (30 0 89 13 nil 0) (86 0 89 14 nil 0) (84 0 89 15 nil 0) (89 0 98 0 nil 2) (98 0 99 0 nil 0) (106 0 105 0 nil 3) (104 0 105 1 nil 1))) nil 6.060017))
