; OM File Header - Saved 2013/10/29 22:34:30
; (6.0602 :patc (om-make-point 226 10) (om-make-point 414 141) (om-make-point 1169 382) "" 183 0 "2012/12/05 11:33:49" "2013/03/13 14:40:26")
; End File Header
; External resources 
; (list (list (quote :sound) "../../../../../out-files/fof-1_C.aiff" "../../../../../out-files/fof-1_B.aiff" "../../../../../out-files/fof-1_A.aiff"))
(in-package :om)(load-lib-for (quote ("OMChroma")))(setf *om-current-persistent* (om-load-patch1 "fof-1" (quote ((om-load-boxcall (quote bastype) "aux 20" (quote t) (quote nil) (om-make-point 774 83) (om-make-point 119 30) (list 50 100 200 400) "(50 100 200 400)" nil) (om-load-boxcall (quote bastype) "aux 19" (quote t) (quote nil) (om-make-point 767 148) (om-make-point 41 30) 220 "220" nil) (om-load-boxcomment "comment 35" (om-make-point 48 34) (quote "bw") "" (om-make-point 815 59) nil (om-make-color 1.0 0.0 0.0) (om-make-font "Verdana" 14.0 :family "Verdana" :style (quote (:bold)) :mode (quote nil))) (om-load-boxcall (quote bastype) "aux 18" (quote t) (quote nil) (om-make-point 822 148) (om-make-point 41 30) 600 "600" nil) (om-load-boxcall (quote abstraction) "C#ed 3" (om-load-patch-abs1 "C#ed" (quote ((om-load-boxout "output 2" 1 (om-make-point 127 369) (quote ((om-load-inputfun (quote input-funbox) "" "out" nil))) "edel" nil) (om-load-boxcall (quote lispfun) "LENGTH" (quote length) (quote ((om-load-inputfun (quote input-funbox) "SEQUENCE" "SEQUENCE" nil))) (om-make-point 45 326) nil nil nil nil 1) (om-load-boxin "length" 1 (om-make-point 111 12) "" "length" nil nil) (om-load-boxcall (quote genfun) "OM*" (quote om*) (quote ((om-load-inputfun (quote input-funbox) "number or list" "ARG1" 0) (om-load-inputfun (quote input-funbox) "number or list" "ARG2" 0))) (om-make-point 137 204) nil nil nil nil 1) (om-load-boxcall (quote bastype) "aux 2" (quote t) (quote nil) (om-make-point 159 94) (om-make-point 27 30) 1 "1" nil) (om-load-boxcall (quote genfun) "OM-" (quote om-) (quote ((om-load-inputfun (quote input-funbox) "number or list" "ARG1" 0) (om-load-inputfun (quote input-funbox) "number or list" "ARG2" 0))) (om-make-point 136 144) nil nil nil nil 1) (om-load-boxcall (quote lispfun) "LENGTH" (quote length) (quote ((om-load-inputfun (quote input-funbox) "SEQUENCE" "SEQUENCE" nil))) (om-make-point 109 80) nil nil nil nil 1) (om-load-boxin "durs" 0 (om-make-point 200 139) "" "durs" nil nil) (om-load-boxout "output" 0 (om-make-point 43 374) (quote ((om-load-inputfun (quote input-funbox) "" "out" nil))) "length" nil) (om-load-boxcall (quote bastype) "aux" (quote t) (quote nil) (om-make-point 103 222) (om-make-point 27 30) 0 "0" nil) (om-load-boxcall (quote genfun) "ARITHM-SER" (quote arithm-ser) (quote ((om-load-inputfun (quote input-funbox) "begin" "BEGIN" 0) (om-load-inputfun (quote input-funbox) "end " "END" 10) (om-load-inputfun (quote input-funbox) "step" "STEP" 1))) (om-make-point 111 265) nil nil nil nil 1))) (quote ((10 0 0 0 nil 0) (10 0 1 0 nil 0) (5 0 3 0 nil 0) (7 0 3 1 nil 0) (6 0 5 0 nil 0) (4 0 5 1 nil 0) (2 0 6 0 nil 0) (1 0 8 0 nil 0) (9 0 10 0 nil 0) (3 0 10 1 nil 0) (7 0 10 2 nil 0))) 6.060017 nil "" (om-make-point 200 200) (om-make-point 500 400)) (quote ((om-load-inputfun (quote input-funbox) "" "durs" nil) (om-load-inputfun (quote input-funbox) "" "length" nil))) (om-make-point 705 112) nil nil nil "C#ed") (om-load-boxcomment "comment 33" (om-make-point 43 88) (quote "C") "" (om-make-point 641 58) nil (om-make-color 1.0 0.0 0.011788845) (om-make-font "Verdana" 36.0 :family "Verdana" :style (quote (:bold)) :mode (quote nil))) (om-load-editor-box1 "BPF 4" (quote bpf) (quote ((om-load-inputfun (quote input-funbox) "object" "self" nil) (om-load-inputfun (quote input-funbox) "X coordinates (list)" "x-points" (list 0 100)) (om-load-inputfun (quote input-funbox) "Y coordinates (list)" "y-points" (list 0 100)) (om-load-inputfun (quote input-funbox) "precision (integer) [0 - 10]" "decimals" 0))) (om-make-point 871 146) (om-make-point 41 38) (let ((newobj (when (find-class (quote bpf) nil) (let ((newbpf (simple-bpf-from-list (quote (0 5 95 100)) (quote (0 10 10 0)) (quote bpf) 0))) (setf (bpfcolor newbpf) (om-make-color 0 0 0)) (set-name newbpf nil) newbpf)))) newobj) "x" nil (pairlis (quote (picture winpos winsize)) (list nil (om-make-point 10 40) (om-make-point 335 275))) t nil nil nil) (om-load-boxcall (quote bastype) "aux 17" (quote t) (quote nil) (om-make-point 712 81) (om-make-point 27 30) 1 "1" nil) (om-load-boxcomment "comment 32" (om-make-point 47 30) (quote "F0") "" (om-make-point 768 124) nil (om-make-color 1.0 0.0 0.0) (om-make-font "Verdana" 14.0 :family "Verdana" :style (quote (:bold)) :mode (quote nil))) (om-load-editor-box1 "FOF-1 5" (quote fof-1) (quote ((om-load-inputfun (quote input-funbox) "Synthesis event" "self" nil) (om-load-inputfun (quote input-funbox) "Number of components [int]" "numcols" 1) (om-load-inputfun (quote input-funbox) "Event offset [s]" "action-time" 0) (om-load-inputfun (quote input-funbox) "A lambda function applied to each component" "user-fun" nil) (om-load-inputkeyword (quote editor-keyword) "" "e-dels" (quote :e-dels) nil nil) (om-load-inputkeyword (quote editor-keyword) "" "durs" (quote :durs) nil nil) (om-load-inputkeyword (quote editor-keyword) "" "amp" (quote :amp) nil nil) (om-load-inputkeyword (quote editor-keyword) "" "f0" (quote :f0) nil nil) (om-load-inputkeyword (quote editor-keyword) "" "freq" (quote :freq) nil nil) (om-load-inputkeyword (quote editor-keyword) "" "bw" (quote :bw) nil nil) (om-load-inputkeyword (quote editor-keyword) "" "aenv" (quote :aenv) nil nil))) (om-make-point 702 186) (om-make-point 216 64) (let ((rep (if (find-class (quote fof-1) nil) (let ((rep (make-instance (quote fof-1) :numcols 4))) (when (member (quote e-dels) (get-init-slots-of-class (quote fof-1)) :key (quote car)) (setf (slot-value rep (quote e-dels)) (list 0 1 2 3))) (when (member (quote durs) (get-init-slots-of-class (quote fof-1)) :key (quote car)) (setf (slot-value rep (quote durs)) 1)) (when (member (quote amp) (get-init-slots-of-class (quote fof-1)) :key (quote car)) (setf (slot-value rep (quote amp)) -6.0)) (when (member (quote f0) (get-init-slots-of-class (quote fof-1)) :key (quote car)) (setf (slot-value rep (quote f0)) 220)) (when (member (quote freq) (get-init-slots-of-class (quote fof-1)) :key (quote car)) (setf (slot-value rep (quote freq)) 600)) (when (member (quote bw) (get-init-slots-of-class (quote fof-1)) :key (quote car)) (setf (slot-value rep (quote bw)) (list 50 100 200 400))) (when (member (quote aenv) (get-init-slots-of-class (quote fof-1)) :key (quote car)) (setf (slot-value rep (quote aenv)) (let ((newobj (when (find-class (quote bpf) nil) (let ((newbpf (simple-bpf-from-list (quote (0 5 95 100)) (quote (0 10 10 0)) (quote bpf) 0))) (setf (bpfcolor newbpf) (om-make-color 0 0 0)) (set-name newbpf nil) newbpf)))) newobj))) (setf (lcontrols rep) (list)) (setf (action-time rep) 0) (setf (data rep) (list (list 0 1 2 3) (list 1 1 1 1) (list -6.0 -6.0 -6.0 -6.0) (list 220 220 220 220) (list 600 600 600 600) (list 50 100 200 400) (list (let ((newobj (when (find-class (quote gen07) nil) (let ((newbpf (simple-bpf-from-list (quote (0 5 95 100)) (quote (0 10 10 0)) (quote gen07) 0))) (setf (bpfcolor newbpf) (om-make-color 0 0 0)) (set-name newbpf nil) newbpf)))) (setf (stime newobj) 0) (setf (size newobj) 513) (setf (id newobj) "?") newobj) (let ((newobj (when (find-class (quote gen07) nil) (let ((newbpf (simple-bpf-from-list (quote (0 5 95 100)) (quote (0 10 10 0)) (quote gen07) 0))) (setf (bpfcolor newbpf) (om-make-color 0 0 0)) (set-name newbpf nil) newbpf)))) (setf (stime newobj) 0) (setf (size newobj) 513) (setf (id newobj) "?") newobj) (let ((newobj (when (find-class (quote gen07) nil) (let ((newbpf (simple-bpf-from-list (quote (0 5 95 100)) (quote (0 10 10 0)) (quote gen07) 0))) (setf (bpfcolor newbpf) (om-make-color 0 0 0)) (set-name newbpf nil) newbpf)))) (setf (stime newobj) 0) (setf (size newobj) 513) (setf (id newobj) "?") newobj) (let ((newobj (when (find-class (quote gen07) nil) (let ((newbpf (simple-bpf-from-list (quote (0 5 95 100)) (quote (0 10 10 0)) (quote gen07) 0))) (setf (bpfcolor newbpf) (om-make-color 0 0 0)) (set-name newbpf nil) newbpf)))) (setf (stime newobj) 0) (setf (size newobj) 513) (setf (id newobj) "?") newobj)))) rep)))) (setf (precision rep) (list 3)) rep) nil nil (pairlis (quote (winpos winsize color-list show-opt-fields cur-group-ind panel-list)) (list (om-make-point 10 40) (om-make-point 500 280) (list (om-make-color 0 0 0) (om-make-color 0 0 0) (om-make-color 0 0 0) (om-make-color 0 0 0) (om-make-color 0 0 0) (om-make-color 0 0 0) (om-make-color 0 0 0)) (quote t) 0 (list (list "All open" (list 0 (quote t)) (list 1 (quote t)) (list 2 (quote t)) (list 3 (quote t)) (list 4 (quote t)) (list 5 (quote t)) (list 6 (quote t))) (list "All close" (list 0 nil) (list 1 nil) (list 2 nil) (list 3 nil) (list 4 nil) (list 5 nil) (list 6 nil))))) nil nil nil nil) (om-load-boxcomment "comment 31" (om-make-point 51 34) (quote "durs") "" (om-make-point 704 57) nil (om-make-color 1.0 0.0 0.0) (om-make-font "Verdana" 14.0 :family "Verdana" :style (quote (:bold)) :mode (quote nil))) (om-load-boxcomment "comment 30" (om-make-point 48 34) (quote "aenv") "" (om-make-point 868 124) nil (om-make-color 1.0 0.0 0.0) (om-make-font "Verdana" 14.0 :family "Verdana" :style (quote (:bold)) :mode (quote nil))) (om-load-boxcomment "comment 29" (om-make-point 40 31) (quote "freq") "" (om-make-point 823 125) nil (om-make-color 1.0 0.0 0.0) (om-make-font "Verdana" 14.0 :family "Verdana" :style (quote (:bold)) :mode (quote nil))) (om-load-editor-box1 "fof-1_C.aiff" (quote sound) (quote ((om-load-inputfun (quote input-funbox) "object" "self" nil) (om-load-inputfun (quote input-funbox) "a track index for multichannel mixing" "tracknum" 1) (om-load-inputfun (quote input-funbox) "a list of markers (s)" "markers" nil))) (om-make-point 637 188) (om-make-point 50 59) (let ((newobj (let ((thesound (load-sound (om-make-pathname :directory (quote (:relative "out-files")) :device nil :host nil :name "fof-1_C" :type "aiff") 1))) (when thesound (setf (markers thesound) (quote nil))) thesound))) (load-port-info newobj (quote nil)) (init-mus-color newobj (quote nil)) (set-extra-pairs newobj (quote nil)) (set-patch-pairs newobj (quote nil)) (set-name newobj "fof-1_C.aiff") (set-tonalite newobj nil) newobj) nil nil (pairlis (quote (palette-mode scale show-stems obj-mode score-mode winpos winsize mode grillestep notechancolor? zoom player inport outport deltapict cmnpref staff fontsize approx)) (list 0 nil (quote t) 1 0 (om-make-point 295 388) (om-make-point 875 640) 0 1000 nil 1 (quote :libaudio) 0 nil (om-make-point 0 0) (let ((newobj (make-instance (quote edition-values)))) (setf (paper-size newobj) (om-make-point 600 800)) (setf (top-margin newobj) 2) (setf (left-margin newobj) 1) (setf (right-margin newobj) 1) (setf (bottom-margin newobj) 1) (setf (orientation newobj) nil) (setf (scale newobj) nil) (setf (system-space newobj) (quote (1))) (setf (system-color newobj) (quote nil)) (setf (line-space newobj) 1) (setf (title newobj) nil) (setf (show-title? newobj) nil) (setf (show-page? newobj) nil) (setf (sheet-id newobj) nil) (setf (page-mode newobj) nil) newobj) (quote g) 24 2)) t nil nil nil) (om-load-boxcall (quote abstraction) "Synt 5" (om-load-patch-abs1 "Synt" (quote ((om-load-boxcall (quote bastype) "aux" (quote t) (quote nil) (om-make-point 91 100) (om-make-point 72 30) "fof-1_C" "\"fof-1_C\"" nil) (om-load-boxin "OMCh" 0 (om-make-point 31 69) "" "OMCh" nil nil) (om-load-boxout "output" 0 (om-make-point 55 205) (quote ((om-load-inputfun (quote input-funbox) "" "out" nil))) nil nil) (om-load-boxcall (quote genfun) "SYNTHESIZE" (quote synthesize) (quote ((om-load-inputfun (quote input-funbox) "something to synthesize..." "ELEMENTS" nil) (om-load-inputkeyword (quote input-keyword) "" "name" (quote :name) nil nil))) (om-make-point 45 143) nil nil nil nil 1))) (quote ((3 0 2 0 nil 0) (1 0 3 0 nil 0) (0 0 3 1 nil 0))) 6.060017 nil "" (om-make-point 200 200) (om-make-point 500 400)) (quote ((om-load-inputfun (quote input-funbox) "" "fm-1" nil))) (om-make-point 635 118) (om-make-point 51 67) nil nil "Synt") (om-load-boxcall (quote bastype) "aux 13" (quote t) (quote nil) (om-make-point 453 83) (om-make-point 158 30) (list 220 440 660 880 1100) "(220 440 660 880 1100)" nil) (om-load-boxcall (quote bastype) "aux 11" (quote t) (quote nil) (om-make-point 458 148) (om-make-point 41 30) 220 "220" nil) (om-load-boxcall (quote bastype) "aux 9" (quote t) (quote nil) (om-make-point 513 148) (om-make-point 41 30) 100 "100" nil) (om-load-boxcomment "comment 28" (om-make-point 28 253) (quote "|$|$|$|$$$") "" (om-make-point 611 53) nil (om-make-color 1.0 0.0 0.0) (om-make-font "Verdana" 36.0 :family "Verdana" :style (quote (:plain)) :mode (quote nil))) (om-load-boxcall (quote abstraction) "C#ed 2" (om-load-patch-abs1 "C#ed" (quote ((om-load-boxout "output 2" 1 (om-make-point 127 369) (quote ((om-load-inputfun (quote input-funbox) "" "out" nil))) "edel" nil) (om-load-boxcall (quote lispfun) "LENGTH" (quote length) (quote ((om-load-inputfun (quote input-funbox) "SEQUENCE" "SEQUENCE" nil))) (om-make-point 45 326) nil nil nil nil 1) (om-load-boxin "length" 1 (om-make-point 111 12) "" "length" nil nil) (om-load-boxcall (quote genfun) "OM*" (quote om*) (quote ((om-load-inputfun (quote input-funbox) "number or list" "ARG1" 0) (om-load-inputfun (quote input-funbox) "number or list" "ARG2" 0))) (om-make-point 137 204) nil nil nil nil 1) (om-load-boxcall (quote bastype) "aux 2" (quote t) (quote nil) (om-make-point 159 94) (om-make-point 27 30) 1 "1" nil) (om-load-boxcall (quote genfun) "OM-" (quote om-) (quote ((om-load-inputfun (quote input-funbox) "number or list" "ARG1" 0) (om-load-inputfun (quote input-funbox) "number or list" "ARG2" 0))) (om-make-point 136 144) nil nil nil nil 1) (om-load-boxcall (quote lispfun) "LENGTH" (quote length) (quote ((om-load-inputfun (quote input-funbox) "SEQUENCE" "SEQUENCE" nil))) (om-make-point 109 80) nil nil nil nil 1) (om-load-boxin "durs" 0 (om-make-point 200 139) "" "durs" nil nil) (om-load-boxout "output" 0 (om-make-point 43 374) (quote ((om-load-inputfun (quote input-funbox) "" "out" nil))) "length" nil) (om-load-boxcall (quote bastype) "aux" (quote t) (quote nil) (om-make-point 103 222) (om-make-point 27 30) 0 "0" nil) (om-load-boxcall (quote genfun) "ARITHM-SER" (quote arithm-ser) (quote ((om-load-inputfun (quote input-funbox) "begin" "BEGIN" 0) (om-load-inputfun (quote input-funbox) "end " "END" 10) (om-load-inputfun (quote input-funbox) "step" "STEP" 1))) (om-make-point 111 265) nil nil nil nil 1))) (quote ((10 0 0 0 nil 0) (10 0 1 0 nil 0) (5 0 3 0 nil 0) (7 0 3 1 nil 0) (6 0 5 0 nil 0) (4 0 5 1 nil 0) (2 0 6 0 nil 0) (1 0 8 0 nil 0) (9 0 10 0 nil 0) (3 0 10 1 nil 0) (7 0 10 2 nil 0))) 6.060017 nil "" (om-make-point 200 200) (om-make-point 500 400)) (quote ((om-load-inputfun (quote input-funbox) "" "durs" nil) (om-load-inputfun (quote input-funbox) "" "length" nil))) (om-make-point 396 112) nil nil nil "C#ed") (om-load-boxcomment "comment 27" (om-make-point 43 88) (quote "B") "" (om-make-point 332 58) nil (om-make-color 1.0 0.0 0.011788845) (om-make-font "Verdana" 36.0 :family "Verdana" :style (quote (:bold)) :mode (quote nil))) (om-load-editor-box1 "BPF 3" (quote bpf) (quote ((om-load-inputfun (quote input-funbox) "object" "self" nil) (om-load-inputfun (quote input-funbox) "X coordinates (list)" "x-points" (list 0 100)) (om-load-inputfun (quote input-funbox) "Y coordinates (list)" "y-points" (list 0 100)) (om-load-inputfun (quote input-funbox) "precision (integer) [0 - 10]" "decimals" 0))) (om-make-point 562 146) (om-make-point 41 38) (let ((newobj (when (find-class (quote bpf) nil) (let ((newbpf (simple-bpf-from-list (quote (0 5 95 100)) (quote (0 10 10 0)) (quote bpf) 0))) (setf (bpfcolor newbpf) (om-make-color 0 0 0)) (set-name newbpf nil) newbpf)))) newobj) "x" nil (pairlis (quote (picture winpos winsize)) (list nil (om-make-point 10 40) (om-make-point 335 275))) t nil nil nil) (om-load-boxcall (quote bastype) "aux 8" (quote t) (quote nil) (om-make-point 403 81) (om-make-point 27 30) 1 "1" nil) (om-load-boxcomment "comment 26" (om-make-point 48 34) (quote "freq") "" (om-make-point 506 59) nil (om-make-color 1.0 0.0 0.0) (om-make-font "Verdana" 14.0 :family "Verdana" :style (quote (:bold)) :mode (quote nil))) (om-load-boxcomment "comment 25" (om-make-point 47 30) (quote "F0") "" (om-make-point 459 124) nil (om-make-color 1.0 0.0 0.0) (om-make-font "Verdana" 14.0 :family "Verdana" :style (quote (:bold)) :mode (quote nil))) (om-load-editor-box1 "FOF-1 4" (quote fof-1) (quote ((om-load-inputfun (quote input-funbox) "Synthesis event" "self" nil) (om-load-inputfun (quote input-funbox) "Number of components [int]" "numcols" 1) (om-load-inputfun (quote input-funbox) "Event offset [s]" "action-time" 0) (om-load-inputfun (quote input-funbox) "A lambda function applied to each component" "user-fun" nil) (om-load-inputkeyword (quote editor-keyword) "" "e-dels" (quote :e-dels) nil nil) (om-load-inputkeyword (quote editor-keyword) "" "durs" (quote :durs) nil nil) (om-load-inputkeyword (quote editor-keyword) "" "amp" (quote :amp) nil nil) (om-load-inputkeyword (quote editor-keyword) "" "f0" (quote :f0) nil nil) (om-load-inputkeyword (quote editor-keyword) "" "freq" (quote :freq) nil nil) (om-load-inputkeyword (quote editor-keyword) "" "bw" (quote :bw) nil nil) (om-load-inputkeyword (quote editor-keyword) "" "aenv" (quote :aenv) nil nil))) (om-make-point 393 186) (om-make-point 216 64) (let ((rep (if (find-class (quote fof-1) nil) (let ((rep (make-instance (quote fof-1) :numcols 5))) (when (member (quote e-dels) (get-init-slots-of-class (quote fof-1)) :key (quote car)) (setf (slot-value rep (quote e-dels)) (list 0 1 2 3 4))) (when (member (quote durs) (get-init-slots-of-class (quote fof-1)) :key (quote car)) (setf (slot-value rep (quote durs)) 1)) (when (member (quote amp) (get-init-slots-of-class (quote fof-1)) :key (quote car)) (setf (slot-value rep (quote amp)) -6.0)) (when (member (quote f0) (get-init-slots-of-class (quote fof-1)) :key (quote car)) (setf (slot-value rep (quote f0)) 220)) (when (member (quote freq) (get-init-slots-of-class (quote fof-1)) :key (quote car)) (setf (slot-value rep (quote freq)) (list 220 440 660 880 1100))) (when (member (quote bw) (get-init-slots-of-class (quote fof-1)) :key (quote car)) (setf (slot-value rep (quote bw)) 100)) (when (member (quote aenv) (get-init-slots-of-class (quote fof-1)) :key (quote car)) (setf (slot-value rep (quote aenv)) (let ((newobj (when (find-class (quote bpf) nil) (let ((newbpf (simple-bpf-from-list (quote (0 5 95 100)) (quote (0 10 10 0)) (quote bpf) 0))) (setf (bpfcolor newbpf) (om-make-color 0 0 0)) (set-name newbpf nil) newbpf)))) newobj))) (setf (lcontrols rep) (list)) (setf (action-time rep) 0) (setf (data rep) (list (list 0 1 2 3 4) (list 1 1 1 1 1) (list -6.0 -6.0 -6.0 -6.0 -6.0) (list 220 220 220 220 220) (list 220 440 660 880 1100) (list 100 100 100 100 100) (list (let ((newobj (when (find-class (quote gen07) nil) (let ((newbpf (simple-bpf-from-list (quote (0 5 95 100)) (quote (0 10 10 0)) (quote gen07) 0))) (setf (bpfcolor newbpf) (om-make-color 0 0 0)) (set-name newbpf nil) newbpf)))) (setf (stime newobj) 0) (setf (size newobj) 513) (setf (id newobj) "?") newobj) (let ((newobj (when (find-class (quote gen07) nil) (let ((newbpf (simple-bpf-from-list (quote (0 5 95 100)) (quote (0 10 10 0)) (quote gen07) 0))) (setf (bpfcolor newbpf) (om-make-color 0 0 0)) (set-name newbpf nil) newbpf)))) (setf (stime newobj) 0) (setf (size newobj) 513) (setf (id newobj) "?") newobj) (let ((newobj (when (find-class (quote gen07) nil) (let ((newbpf (simple-bpf-from-list (quote (0 5 95 100)) (quote (0 10 10 0)) (quote gen07) 0))) (setf (bpfcolor newbpf) (om-make-color 0 0 0)) (set-name newbpf nil) newbpf)))) (setf (stime newobj) 0) (setf (size newobj) 513) (setf (id newobj) "?") newobj) (let ((newobj (when (find-class (quote gen07) nil) (let ((newbpf (simple-bpf-from-list (quote (0 5 95 100)) (quote (0 10 10 0)) (quote gen07) 0))) (setf (bpfcolor newbpf) (om-make-color 0 0 0)) (set-name newbpf nil) newbpf)))) (setf (stime newobj) 0) (setf (size newobj) 513) (setf (id newobj) "?") newobj) (let ((newobj (when (find-class (quote gen07) nil) (let ((newbpf (simple-bpf-from-list (quote (0 5 95 100)) (quote (0 10 10 0)) (quote gen07) 0))) (setf (bpfcolor newbpf) (om-make-color 0 0 0)) (set-name newbpf nil) newbpf)))) (setf (stime newobj) 0) (setf (size newobj) 513) (setf (id newobj) "?") newobj)))) rep)))) (setf (precision rep) (list 3)) rep) nil nil (pairlis (quote (winpos winsize color-list show-opt-fields cur-group-ind panel-list)) (list (om-make-point 10 40) (om-make-point 500 280) (list (om-make-color 0 0 0) (om-make-color 0 0 0) (om-make-color 0 0 0) (om-make-color 0 0 0) (om-make-color 0 0 0) (om-make-color 0 0 0) (om-make-color 0 0 0)) (quote t) 0 (list (list "All open" (list 0 (quote t)) (list 1 (quote t)) (list 2 (quote t)) (list 3 (quote t)) (list 4 (quote t)) (list 5 (quote t)) (list 6 (quote t))) (list "All close" (list 0 nil) (list 1 nil) (list 2 nil) (list 3 nil) (list 4 nil) (list 5 nil) (list 6 nil))))) nil nil nil nil) (om-load-boxcomment "comment 24" (om-make-point 51 34) (quote "durs") "" (om-make-point 395 57) nil (om-make-color 1.0 0.0 0.0) (om-make-font "Verdana" 14.0 :family "Verdana" :style (quote (:bold)) :mode (quote nil))) (om-load-boxcomment "comment 23" (om-make-point 48 34) (quote "aenv") "" (om-make-point 559 124) nil (om-make-color 1.0 0.0 0.0) (om-make-font "Verdana" 14.0 :family "Verdana" :style (quote (:bold)) :mode (quote nil))) (om-load-boxcomment "comment 22" (om-make-point 40 31) (quote "bw") "" (om-make-point 514 125) nil (om-make-color 1.0 0.0 0.0) (om-make-font "Verdana" 14.0 :family "Verdana" :style (quote (:bold)) :mode (quote nil))) (om-load-editor-box1 "fof-1_B.aiff" (quote sound) (quote ((om-load-inputfun (quote input-funbox) "object" "self" nil) (om-load-inputfun (quote input-funbox) "a track index for multichannel mixing" "tracknum" 1) (om-load-inputfun (quote input-funbox) "a list of markers (s)" "markers" nil))) (om-make-point 328 188) (om-make-point 50 59) (let ((newobj (let ((thesound (load-sound (om-make-pathname :directory (quote (:relative "out-files")) :device nil :host nil :name "fof-1_B" :type "aiff") 1))) (when thesound (setf (markers thesound) (quote nil))) thesound))) (load-port-info newobj (quote nil)) (init-mus-color newobj (quote nil)) (set-extra-pairs newobj (quote nil)) (set-patch-pairs newobj (quote nil)) (set-name newobj "fof-1_B.aiff") (set-tonalite newobj nil) newobj) nil nil (pairlis (quote (palette-mode scale show-stems obj-mode score-mode winpos winsize mode grillestep notechancolor? zoom player inport outport deltapict cmnpref staff fontsize approx)) (list 0 nil (quote t) 1 0 (om-make-point 295 388) (om-make-point 875 640) 0 1000 nil 1 (quote :libaudio) 0 nil (om-make-point 0 0) (let ((newobj (make-instance (quote edition-values)))) (setf (paper-size newobj) (om-make-point 600 800)) (setf (top-margin newobj) 2) (setf (left-margin newobj) 1) (setf (right-margin newobj) 1) (setf (bottom-margin newobj) 1) (setf (orientation newobj) nil) (setf (scale newobj) nil) (setf (system-space newobj) (quote (1))) (setf (system-color newobj) (quote nil)) (setf (line-space newobj) 1) (setf (title newobj) nil) (setf (show-title? newobj) nil) (setf (show-page? newobj) nil) (setf (sheet-id newobj) nil) (setf (page-mode newobj) nil) newobj) (quote g) 24 2)) t nil nil nil) (om-load-boxcall (quote abstraction) "Synt 4" (om-load-patch-abs1 "Synt" (quote ((om-load-boxcall (quote bastype) "aux" (quote t) (quote nil) (om-make-point 91 100) (om-make-point 72 30) "fof-1_B" "\"fof-1_B\"" nil) (om-load-boxin "OMCh" 0 (om-make-point 31 69) "" "OMCh" nil nil) (om-load-boxout "output" 0 (om-make-point 55 205) (quote ((om-load-inputfun (quote input-funbox) "" "out" nil))) nil nil) (om-load-boxcall (quote genfun) "SYNTHESIZE" (quote synthesize) (quote ((om-load-inputfun (quote input-funbox) "something to synthesize..." "ELEMENTS" nil) (om-load-inputkeyword (quote input-keyword) "" "name" (quote :name) nil nil))) (om-make-point 45 143) nil nil nil nil 1))) (quote ((3 0 2 0 nil 0) (1 0 3 0 nil 0) (0 0 3 1 nil 0))) 6.060017 nil "" (om-make-point 200 200) (om-make-point 500 400)) (quote ((om-load-inputfun (quote input-funbox) "" "fm-1" nil))) (om-make-point 326 118) (om-make-point 51 67) nil nil "Synt") (om-load-boxcall (quote abstraction) "Synt 3" (om-load-patch-abs1 "Synt" (quote ((om-load-boxcall (quote bastype) "aux" (quote t) (quote nil) (om-make-point 91 100) (om-make-point 72 30) "fof-1_A" "\"fof-1_A\"" nil) (om-load-boxin "OMCh" 0 (om-make-point 31 69) "" "OMCh" nil nil) (om-load-boxout "output" 0 (om-make-point 55 205) (quote ((om-load-inputfun (quote input-funbox) "" "out" nil))) nil nil) (om-load-boxcall (quote genfun) "SYNTHESIZE" (quote synthesize) (quote ((om-load-inputfun (quote input-funbox) "something to synthesize..." "ELEMENTS" nil) (om-load-inputkeyword (quote input-keyword) "" "name" (quote :name) nil nil))) (om-make-point 45 143) nil nil nil nil 1))) (quote ((3 0 2 0 nil 0) (1 0 3 0 nil 0) (0 0 3 1 nil 0))) 6.060017 nil "" (om-make-point 200 200) (om-make-point 500 400)) (quote ((om-load-inputfun (quote input-funbox) "" "fm-1" nil))) (om-make-point 17 118) (om-make-point 51 67) nil nil "Synt") (om-load-editor-box1 "fof-1_A.aiff" (quote sound) (quote ((om-load-inputfun (quote input-funbox) "object" "self" nil) (om-load-inputfun (quote input-funbox) "a track index for multichannel mixing" "tracknum" 1) (om-load-inputfun (quote input-funbox) "a list of markers (s)" "markers" nil))) (om-make-point 19 188) (om-make-point 50 59) (let ((newobj (let ((thesound (load-sound (om-make-pathname :directory (quote (:relative "out-files")) :device nil :host nil :name "fof-1_A" :type "aiff") 1))) (when thesound (setf (markers thesound) (quote nil))) thesound))) (load-port-info newobj (quote nil)) (init-mus-color newobj (quote nil)) (set-extra-pairs newobj (quote nil)) (set-patch-pairs newobj (quote nil)) (set-name newobj "fof-1_A.aiff") (set-tonalite newobj nil) newobj) nil nil (pairlis (quote (palette-mode scale show-stems obj-mode score-mode winpos winsize mode grillestep notechancolor? zoom player inport outport deltapict cmnpref staff fontsize approx)) (list 0 nil (quote t) 1 0 (om-make-point 295 388) (om-make-point 875 640) 0 1000 nil 1 (quote :libaudio) 0 nil (om-make-point 0 0) (let ((newobj (make-instance (quote edition-values)))) (setf (paper-size newobj) (om-make-point 600 800)) (setf (top-margin newobj) 2) (setf (left-margin newobj) 1) (setf (right-margin newobj) 1) (setf (bottom-margin newobj) 1) (setf (orientation newobj) nil) (setf (scale newobj) nil) (setf (system-space newobj) (quote (1))) (setf (system-color newobj) (quote nil)) (setf (line-space newobj) 1) (setf (title newobj) nil) (setf (show-title? newobj) nil) (setf (show-page? newobj) nil) (setf (sheet-id newobj) nil) (setf (page-mode newobj) nil) newobj) (quote g) 24 2)) t nil nil nil) (om-load-boxcomment "comment 21" (om-make-point 40 31) (quote "bw") "" (om-make-point 205 125) nil (om-make-color 1.0 0.0 0.0) (om-make-font "Verdana" 14.0 :family "Verdana" :style (quote (:bold)) :mode (quote nil))) (om-load-boxcomment "comment 20" (om-make-point 48 34) (quote "aenv") "" (om-make-point 250 124) nil (om-make-color 1.0 0.0 0.0) (om-make-font "Verdana" 14.0 :family "Verdana" :style (quote (:bold)) :mode (quote nil))) (om-load-boxcomment "comment 19" (om-make-point 51 34) (quote "durs") "" (om-make-point 86 57) nil (om-make-color 1.0 0.0 0.0) (om-make-font "Verdana" 14.0 :family "Verdana" :style (quote (:bold)) :mode (quote nil))) (om-load-editor-box1 "FOF-1 3" (quote fof-1) (quote ((om-load-inputfun (quote input-funbox) "Synthesis event" "self" nil) (om-load-inputfun (quote input-funbox) "Number of components [int]" "numcols" 1) (om-load-inputfun (quote input-funbox) "Event offset [s]" "action-time" 0) (om-load-inputfun (quote input-funbox) "A lambda function applied to each component" "user-fun" nil) (om-load-inputkeyword (quote editor-keyword) "" "e-dels" (quote :e-dels) nil nil) (om-load-inputkeyword (quote editor-keyword) "" "durs" (quote :durs) nil nil) (om-load-inputkeyword (quote editor-keyword) "" "amp" (quote :amp) nil nil) (om-load-inputkeyword (quote editor-keyword) "" "f0" (quote :f0) nil nil) (om-load-inputkeyword (quote editor-keyword) "" "freq" (quote :freq) nil nil) (om-load-inputkeyword (quote editor-keyword) "" "bw" (quote :bw) nil nil) (om-load-inputkeyword (quote editor-keyword) "" "aenv" (quote :aenv) nil nil))) (om-make-point 84 186) (om-make-point 216 64) (let ((rep (if (find-class (quote fof-1) nil) (let ((rep (make-instance (quote fof-1) :numcols 5))) (when (member (quote e-dels) (get-init-slots-of-class (quote fof-1)) :key (quote car)) (setf (slot-value rep (quote e-dels)) (list 0 1 2 3 4))) (when (member (quote durs) (get-init-slots-of-class (quote fof-1)) :key (quote car)) (setf (slot-value rep (quote durs)) 1)) (when (member (quote amp) (get-init-slots-of-class (quote fof-1)) :key (quote car)) (setf (slot-value rep (quote amp)) -6.0)) (when (member (quote f0) (get-init-slots-of-class (quote fof-1)) :key (quote car)) (setf (slot-value rep (quote f0)) (list 55 110 220 440 880))) (when (member (quote freq) (get-init-slots-of-class (quote fof-1)) :key (quote car)) (setf (slot-value rep (quote freq)) 600)) (when (member (quote bw) (get-init-slots-of-class (quote fof-1)) :key (quote car)) (setf (slot-value rep (quote bw)) 100)) (when (member (quote aenv) (get-init-slots-of-class (quote fof-1)) :key (quote car)) (setf (slot-value rep (quote aenv)) (let ((newobj (when (find-class (quote bpf) nil) (let ((newbpf (simple-bpf-from-list (quote (0 5 95 100)) (quote (0 10 10 0)) (quote bpf) 0))) (setf (bpfcolor newbpf) (om-make-color 0 0 0)) (set-name newbpf nil) newbpf)))) newobj))) (setf (lcontrols rep) (list)) (setf (action-time rep) 0) (setf (data rep) (list (list 0 1 2 3 4) (list 1 1 1 1 1) (list -6.0 -6.0 -6.0 -6.0 -6.0) (list 55 110 220 440 880) (list 600 600 600 600 600) (list 100 100 100 100 100) (list (let ((newobj (when (find-class (quote gen07) nil) (let ((newbpf (simple-bpf-from-list (quote (0 5 95 100)) (quote (0 10 10 0)) (quote gen07) 0))) (setf (bpfcolor newbpf) (om-make-color 0 0 0)) (set-name newbpf nil) newbpf)))) (setf (stime newobj) 0) (setf (size newobj) 513) (setf (id newobj) "?") newobj) (let ((newobj (when (find-class (quote gen07) nil) (let ((newbpf (simple-bpf-from-list (quote (0 5 95 100)) (quote (0 10 10 0)) (quote gen07) 0))) (setf (bpfcolor newbpf) (om-make-color 0 0 0)) (set-name newbpf nil) newbpf)))) (setf (stime newobj) 0) (setf (size newobj) 513) (setf (id newobj) "?") newobj) (let ((newobj (when (find-class (quote gen07) nil) (let ((newbpf (simple-bpf-from-list (quote (0 5 95 100)) (quote (0 10 10 0)) (quote gen07) 0))) (setf (bpfcolor newbpf) (om-make-color 0 0 0)) (set-name newbpf nil) newbpf)))) (setf (stime newobj) 0) (setf (size newobj) 513) (setf (id newobj) "?") newobj) (let ((newobj (when (find-class (quote gen07) nil) (let ((newbpf (simple-bpf-from-list (quote (0 5 95 100)) (quote (0 10 10 0)) (quote gen07) 0))) (setf (bpfcolor newbpf) (om-make-color 0 0 0)) (set-name newbpf nil) newbpf)))) (setf (stime newobj) 0) (setf (size newobj) 513) (setf (id newobj) "?") newobj) (let ((newobj (when (find-class (quote gen07) nil) (let ((newbpf (simple-bpf-from-list (quote (0 5 95 100)) (quote (0 10 10 0)) (quote gen07) 0))) (setf (bpfcolor newbpf) (om-make-color 0 0 0)) (set-name newbpf nil) newbpf)))) (setf (stime newobj) 0) (setf (size newobj) 513) (setf (id newobj) "?") newobj)))) rep)))) (setf (precision rep) (list 3)) rep) nil nil (pairlis (quote (winpos winsize color-list show-opt-fields cur-group-ind panel-list)) (list (om-make-point 10 40) (om-make-point 500 280) (list (om-make-color 0 0 0) (om-make-color 0 0 0) (om-make-color 0 0 0) (om-make-color 0 0 0) (om-make-color 0 0 0) (om-make-color 0 0 0) (om-make-color 0 0 0)) (quote t) 0 (list (list "All open" (list 0 (quote t)) (list 1 (quote t)) (list 2 (quote t)) (list 3 (quote t)) (list 4 (quote t)) (list 5 (quote t)) (list 6 (quote t))) (list "All close" (list 0 nil) (list 1 nil) (list 2 nil) (list 3 nil) (list 4 nil) (list 5 nil) (list 6 nil))))) nil nil nil nil) (om-load-boxcomment "comment 18" (om-make-point 47 30) (quote "freq") "" (om-make-point 148 124) nil (om-make-color 1.0 0.0 0.0) (om-make-font "Verdana" 14.0 :family "Verdana" :style (quote (:bold)) :mode (quote nil))) (om-load-boxcomment "comment 17" (om-make-point 30 26) (quote "f0") "" (om-make-point 185 59) nil (om-make-color 1.0 0.0 0.0) (om-make-font "Verdana" 14.0 :family "Verdana" :style (quote (:bold)) :mode (quote nil))) (om-load-boxcall (quote bastype) "aux 16" (quote t) (quote nil) (om-make-point 149 148) (om-make-point 41 30) 600 "600" nil) (om-load-boxcall (quote bastype) "aux 15" (quote t) (quote nil) (om-make-point 204 148) (om-make-point 41 30) 100 "100" nil) (om-load-boxcall (quote bastype) "aux 14" (quote t) (quote nil) (om-make-point 94 81) (om-make-point 27 30) 1 "1" nil) (om-load-editor-box1 "BPF 2" (quote bpf) (quote ((om-load-inputfun (quote input-funbox) "object" "self" nil) (om-load-inputfun (quote input-funbox) "X coordinates (list)" "x-points" (list 0 100)) (om-load-inputfun (quote input-funbox) "Y coordinates (list)" "y-points" (list 0 100)) (om-load-inputfun (quote input-funbox) "precision (integer) [0 - 10]" "decimals" 0))) (om-make-point 253 146) (om-make-point 41 38) (let ((newobj (when (find-class (quote bpf) nil) (let ((newbpf (simple-bpf-from-list (quote (0 5 95 100)) (quote (0 10 10 0)) (quote bpf) 0))) (setf (bpfcolor newbpf) (om-make-color 0 0 0)) (set-name newbpf nil) newbpf)))) newobj) "x" nil (pairlis (quote (picture winpos winsize)) (list nil (om-make-point 10 40) (om-make-point 335 275))) t nil nil nil) (om-load-boxcomment "comment 16" (om-make-point 43 88) (quote "A") "" (om-make-point 21 58) nil (om-make-color 1.0 0.0 0.011788845) (om-make-font "Verdana" 36.0 :family "Verdana" :style (quote (:bold)) :mode (quote nil))) (om-load-boxcall (quote abstraction) "C#ed" (om-load-patch-abs1 "C#ed" (quote ((om-load-boxout "output 2" 1 (om-make-point 127 369) (quote ((om-load-inputfun (quote input-funbox) "" "out" nil))) "edel" nil) (om-load-boxcall (quote lispfun) "LENGTH" (quote length) (quote ((om-load-inputfun (quote input-funbox) "SEQUENCE" "SEQUENCE" nil))) (om-make-point 45 326) nil nil nil nil 1) (om-load-boxin "length" 1 (om-make-point 111 12) "" "length" nil nil) (om-load-boxcall (quote genfun) "OM*" (quote om*) (quote ((om-load-inputfun (quote input-funbox) "number or list" "ARG1" 0) (om-load-inputfun (quote input-funbox) "number or list" "ARG2" 0))) (om-make-point 137 204) nil nil nil nil 1) (om-load-boxcall (quote bastype) "aux 2" (quote t) (quote nil) (om-make-point 159 94) (om-make-point 27 30) 1 "1" nil) (om-load-boxcall (quote genfun) "OM-" (quote om-) (quote ((om-load-inputfun (quote input-funbox) "number or list" "ARG1" 0) (om-load-inputfun (quote input-funbox) "number or list" "ARG2" 0))) (om-make-point 136 144) nil nil nil nil 1) (om-load-boxcall (quote lispfun) "LENGTH" (quote length) (quote ((om-load-inputfun (quote input-funbox) "SEQUENCE" "SEQUENCE" nil))) (om-make-point 109 80) nil nil nil nil 1) (om-load-boxin "durs" 0 (om-make-point 200 139) "" "durs" nil nil) (om-load-boxout "output" 0 (om-make-point 43 374) (quote ((om-load-inputfun (quote input-funbox) "" "out" nil))) "length" nil) (om-load-boxcall (quote bastype) "aux" (quote t) (quote nil) (om-make-point 103 222) (om-make-point 27 30) 0 "0" nil) (om-load-boxcall (quote genfun) "ARITHM-SER" (quote arithm-ser) (quote ((om-load-inputfun (quote input-funbox) "begin" "BEGIN" 0) (om-load-inputfun (quote input-funbox) "end " "END" 10) (om-load-inputfun (quote input-funbox) "step" "STEP" 1))) (om-make-point 111 265) nil nil nil nil 1))) (quote ((10 0 0 0 nil 0) (10 0 1 0 nil 0) (5 0 3 0 nil 0) (7 0 3 1 nil 0) (6 0 5 0 nil 0) (4 0 5 1 nil 0) (2 0 6 0 nil 0) (1 0 8 0 nil 0) (9 0 10 0 nil 0) (3 0 10 1 nil 0) (7 0 10 2 nil 0))) 6.060017 nil "" (om-make-point 200 200) (om-make-point 500 400)) (quote ((om-load-inputfun (quote input-funbox) "" "durs" nil) (om-load-inputfun (quote input-funbox) "" "length" nil))) (om-make-point 87 112) nil nil nil "C#ed") (om-load-boxcall (quote bastype) "aux 12" (quote t) (quote nil) (om-make-point 144 83) (om-make-point 144 30) (list 55 110 220 440 880) "(55 110 220 440 880)" nil) (om-load-boxcomment "comment 7" (om-make-point 28 253) (quote "|$|$|$|$$$") "" (om-make-point 302 53) nil (om-make-color 1.0 0.0 0.0) (om-make-font "Verdana" 36.0 :family "Verdana" :style (quote (:plain)) :mode (quote nil))) (om-load-boxcomment "comment 2" (om-make-point 125 34) (quote "Tutorial FOF-1") "" (om-make-point 53 1) nil (om-make-color 1.0 0.0 0.0) (om-make-font "Verdana" 14.0 :family "Verdana" :style (quote (:bold)) :mode (quote nil))))) (quote ((7 0 4 0 nil 3) (0 0 4 1 nil 1) (4 0 9 1 nil 0) (4 1 9 4 nil 2) (7 0 9 5 nil 3) (1 0 9 7 nil 4) (3 0 9 8 nil 2) (0 0 9 9 nil 1) (6 0 9 10 nil 0) (14 0 13 0 nil 0) (9 0 14 0 nil 2) (22 0 19 0 nil 3) (15 0 19 1 nil 1) (19 0 25 1 nil 0) (19 1 25 4 nil 2) (22 0 25 5 nil 3) (16 0 25 7 nil 4) (15 0 25 8 nil 1) (17 0 25 9 nil 0) (21 0 25 10 nil 0) (30 0 29 0 nil 0) (25 0 30 0 nil 2) (36 0 31 0 nil 2) (31 0 32 0 nil 0) (44 0 36 1 nil 0) (44 1 36 4 nil 2) (41 0 36 5 nil 3) (45 0 36 7 nil 1) (39 0 36 8 nil 5) (40 0 36 9 nil 0) (42 0 36 10 nil 0) (41 0 44 0 nil 3) (45 0 44 1 nil 1))) nil 6.060017))
