; OM File Header - Saved 2025/02/06 18:28:41
; (7.06 :patc (om-make-point 149 85) (om-make-point 0 0) (om-make-point 657 604) "no documentation" 183 0 nil "2025/02/06 18:28:41")
; End File Header
; External resources 
; (list (list (quote :sound) "#P\"../../../../../../../../../out-files/my_synt.aif\""))
(in-package :om)(load-lib-for (quote ("OMChroma")))(setf *om-current-persistent* (om-load-patch1 "vps_spl" (quote ((let ((box (om-load-boxcall (quote genfun) "GET-VPS-FREQS1" (quote get-vps-freqs) (quote ((om-load-inputfun (quote input-funbox) "no documentation" "SELF" nil))) (om-make-point 185 209) nil nil nil nil 1))) (when (fboundp (quote set-active)) (set-active box nil)) box) (let ((box (om-load-editor-box1 "SPL" (quote chroma::spl) (quote ((om-load-inputfun (quote input-funbox) "objs" "SELF" nil) (om-load-inputfun (quote input-funbox) "no documentation" "THE-LIST" (list (quote chroma::do2) (quote chroma::do3) (quote chroma::do5))))) (om-make-point 23 116) (om-make-point 207 86) (if (find-class (quote chroma::spl) nil) (make-instance (quote chroma::spl) :fql (list 262.81476 417.19244 589.9992 787.55445 1113.7703) :the-list (list (quote do4) (quote lab4) (quote re5) (quote sol5) (quote reb6)) :from-file t)) nil nil (pairlis (quote (winpos winsize)) (list (om-make-point 400 20) (om-make-point 370 280))) t nil nil t (quote nil)))) (when (fboundp (quote set-active)) (set-active box nil)) box) (let ((box (om-load-editor-box1 "SPL" (quote chroma::spl) (quote ((om-load-inputfun (quote input-funbox) "objs" "SELF" nil) (om-load-inputfun (quote input-funbox) "no documentation" "THE-LIST" (list (quote chroma::do2) (quote chroma::do3) (quote chroma::do5))))) (om-make-point 278 118) (om-make-point 216 84) (if (find-class (quote chroma::spl) nil) (make-instance (quote chroma::spl) :fql (list 267.87247 420.82285 607.28754 765.13434 1092.7411) :the-list (list (append nil (cons (quote do4) 33)) (append nil (cons (quote lab4) 15)) (append nil (cons (quote re5) 50)) (append nil (cons (quote sol5) -50)) (append nil (cons (quote reb6) -33))) :from-file t)) nil nil (pairlis (quote (winpos winsize)) (list (om-make-point 400 20) (om-make-point 370 280))) t nil nil t (quote nil)))) (when (fboundp (quote set-active)) (set-active box nil)) box) (let ((box (om-load-boxcomment "comment" (om-make-point 396 49) (quote "SPL : Symbolic Pitch List") "" (om-make-point 153 4) nil (om-make-color 0.6 0.4 0.2) (om-make-font "Arial" 24 :family "Arial" :style (quote (:bold)) :mode (quote nil))))) (when (fboundp (quote set-active)) (set-active box nil)) box) (let ((box (om-load-boxcall (quote lispfun) "LENGTH" (quote length) (quote ((om-load-inputfun (quote input-funbox) "SEQUENCE" "SEQUENCE" nil))) (om-make-point 83 275) nil nil nil nil 1))) (when (fboundp (quote set-active)) (set-active box nil)) box) (let ((box (om-load-editor-box1 "SOUND" (quote sound) (quote ((om-load-inputfun (quote input-funbox) "objs" "SELF" nil) (om-load-inputfun (quote input-funbox) "no documentation" "TRACKNUM" 1) (om-load-inputfun (quote input-funbox) "no documentation" "MARKERS" nil))) (om-make-point 63 517) (om-make-point 189 62) (let ((newobj (let ((thesound (load-sound (om-make-pathname :directory (quote (:relative "out-files")) :device nil :host nil :name "my_synt" :type "aif") 1 1.0 0))) (when thesound (setf (markers thesound) (quote nil))) thesound))) (load-port-info newobj (quote nil)) (init-mus-color newobj (quote nil)) (set-extra-pairs newobj (quote nil)) (set-patch-pairs newobj (quote nil)) (set-name newobj "my_synt.aif") (set-tonalite newobj nil) newobj) nil nil (pairlis (quote (measure onset palette-mode scale show-stems obj-mode score-mode winpos winsize mode grillestep notechancolor? zoom inport outport deltapict cmnpref staff fontsize approx)) (list nil nil 0 nil (quote t) 1 0 (om-make-point 400 20) (om-make-point 370 280) 0 1000 nil 1 0 0 (om-make-point 0 0) (let ((newobj (make-instance (quote edition-values)))) (setf (paper-size newobj) (om-make-point 600 800)) (setf (top-margin newobj) 2) (setf (left-margin newobj) 1) (setf (right-margin newobj) 1) (setf (bottom-margin newobj) 1) (setf (orientation newobj) nil) (setf (scale newobj) nil) (setf (system-space newobj) (quote (1))) (setf (system-color newobj) (quote nil)) (setf (line-space newobj) 1) (setf (title newobj) nil) (setf (show-title? newobj) nil) (setf (show-page? newobj) nil) (setf (sheet-id newobj) nil) (setf (page-mode newobj) nil) newobj) (quote g) 24 2)) t nil nil nil (quote nil)))) (when (fboundp (quote set-active)) (set-active box nil)) box) (let ((box (om-load-boxcall (quote genfun) "SYNTHESIZE" (quote synthesize) (quote ((om-load-inputfun (quote input-funbox) "no documentation" "ELEMENTS" nil))) (om-make-point 115 447) nil nil nil nil 1))) (when (fboundp (quote set-active)) (set-active box nil)) box) (let ((box (om-load-editor-box1 "ADD-1" (quote add-1) (quote ((om-load-inputfun (quote input-funbox) "object or object list" "self" nil) (om-load-inputfun (quote input-funbox) "How many vertical components for init ?" "numcols" 1) (om-load-inputfun (quote input-funbox) "local event offset (in seconds)" "action-time" 0) (om-load-inputfun (quote input-funbox) "doc for user-fun" "user-fun" nil) (om-load-inputkeyword (quote editor-keyword) "Choose from this list (:e-dels :durs :amp :freq :aenv)" "Keyword input" (quote :e-dels) nil nil) (om-load-inputkeyword (quote editor-keyword) "Choose from this list (:e-dels :durs :amp :freq :aenv)" "Keyword input" (quote :durs) nil nil) (om-load-inputkeyword (quote editor-keyword) "Choose from this list (:e-dels :durs :amp :freq :aenv)" "Keyword input" (quote :amp) nil nil) (om-load-inputkeyword (quote editor-keyword) "Choose from this list (:e-dels :durs :amp :freq :aenv)" "Keyword input" (quote :freq) nil nil) (om-load-inputkeyword (quote editor-keyword) "Choose from this list (:e-dels :durs :amp :freq :aenv)" "Keyword input" (quote :aenv) nil nil))) (om-make-point 61 322) (om-make-point 195 110) (let ((rep (if (find-class (quote add-1) nil) (let ((rep (make-instance (quote add-1) :numcols 5))) (when (member (quote e-dels) (get-init-slots-of-class (quote add-1)) :key (quote car)) (setf (slot-value rep (quote e-dels)) 0)) (when (member (quote durs) (get-init-slots-of-class (quote add-1)) :key (quote car)) (setf (slot-value rep (quote durs)) 1)) (when (member (quote amp) (get-init-slots-of-class (quote add-1)) :key (quote car)) (setf (slot-value rep (quote amp)) -6.0)) (when (member (quote freq) (get-init-slots-of-class (quote add-1)) :key (quote car)) (setf (slot-value rep (quote freq)) nil)) (when (member (quote aenv) (get-init-slots-of-class (quote add-1)) :key (quote car)) (setf (slot-value rep (quote aenv)) (let ((newobj (when (find-class (quote gen07) nil) (let ((newbpf (simple-bpf-from-list (quote (0.0 256.0 512.0)) (quote (0.0 100.0 0.0)) (quote gen07) 1))) (setf (bpfcolor newbpf) (om-make-color 0 0 0)) (set-name newbpf nil) newbpf)))) (when newobj (setf (stime newobj) 0) (setf (size newobj) 513) (setf (id newobj) "?")) newobj))) (setf (lcontrols rep) (list)) (setf (action-time rep) 0) (setf (data rep) (list (list 0 0 0 0 0) (list 1 1 1 1 1) (list -6.0 -6.0 -6.0 -6.0 -6.0) (list 440.0 440.0 440.0 440.0 440.0) (list (let ((newobj (when (find-class (quote gen07) nil) (let ((newbpf (simple-bpf-from-list (quote (0.0 2048.0 4096.0)) (quote (0.0 100.0 0.0)) (quote gen07) 1))) (setf (bpfcolor newbpf) (om-make-color 0 0 0)) (set-name newbpf nil) newbpf)))) (when newobj (setf (stime newobj) 0) (setf (size newobj) 4097) (setf (id newobj) "?")) newobj) (let ((newobj (when (find-class (quote gen07) nil) (let ((newbpf (simple-bpf-from-list (quote (0.0 2048.0 4096.0)) (quote (0.0 100.0 0.0)) (quote gen07) 1))) (setf (bpfcolor newbpf) (om-make-color 0 0 0)) (set-name newbpf nil) newbpf)))) (when newobj (setf (stime newobj) 0) (setf (size newobj) 4097) (setf (id newobj) "?")) newobj) (let ((newobj (when (find-class (quote gen07) nil) (let ((newbpf (simple-bpf-from-list (quote (0.0 2048.0 4096.0)) (quote (0.0 100.0 0.0)) (quote gen07) 1))) (setf (bpfcolor newbpf) (om-make-color 0 0 0)) (set-name newbpf nil) newbpf)))) (when newobj (setf (stime newobj) 0) (setf (size newobj) 4097) (setf (id newobj) "?")) newobj) (let ((newobj (when (find-class (quote gen07) nil) (let ((newbpf (simple-bpf-from-list (quote (0.0 2048.0 4096.0)) (quote (0.0 100.0 0.0)) (quote gen07) 1))) (setf (bpfcolor newbpf) (om-make-color 0 0 0)) (set-name newbpf nil) newbpf)))) (when newobj (setf (stime newobj) 0) (setf (size newobj) 4097) (setf (id newobj) "?")) newobj) (let ((newobj (when (find-class (quote gen07) nil) (let ((newbpf (simple-bpf-from-list (quote (0.0 2048.0 4096.0)) (quote (0.0 100.0 0.0)) (quote gen07) 1))) (setf (bpfcolor newbpf) (om-make-color 0 0 0)) (set-name newbpf nil) newbpf)))) (when newobj (setf (stime newobj) 0) (setf (size newobj) 4097) (setf (id newobj) "?")) newobj)))) rep)))) (put-precision rep (list 3)) rep) nil nil (pairlis (quote (winpos winsize color-list show-opt-fields cur-group-ind panel-list)) (list (om-make-point 10 40) (om-make-point 500 280) (list (om-make-color 0 0 0) (om-make-color 0 0 0) (om-make-color 0 0 0) (om-make-color 0 0 0) (om-make-color 0 0 0)) (quote t) 0 (list (list "All open" (list 0 (quote t)) (list 1 (quote t)) (list 2 (quote t)) (list 3 (quote t)) (list 4 (quote t))) (list "All close" (list 0 nil) (list 1 nil) (list 2 nil) (list 3 nil) (list 4 nil))))) t nil nil t (quote nil)))) (when (fboundp (quote set-active)) (set-active box nil)) box) (let ((box (om-load-boxcall (quote bastype) "list1" (quote list) (quote nil) (om-make-point 277 70) (om-make-point 342 33) (list (append nil (cons (quote do4) 33)) (append nil (cons (quote lab4) 15)) (append nil (cons (quote re5) 50)) (append nil (cons (quote sol5) -50)) (append nil (cons (quote reb6) -33))) "((DO4 . 33) (LAb4 . 15)  (RE5 . 50) (SOL5 . -50) (REb6 . -33))" nil))) (when (fboundp (quote set-active)) (set-active box nil)) box) (let ((box (om-load-boxcall (quote genfun) "F->MC" (quote f->mc) (quote ((om-load-inputfun (quote input-funbox) "freq" "FREQ" 440))) (om-make-point 336 275) nil nil nil nil 1))) (when (fboundp (quote set-active)) (set-active box nil)) box) (let ((box (om-load-editor-box1 "CHORD" (quote chord) (quote ((om-load-inputfun (quote input-funbox) "objs" "SELF" nil) (om-load-inputfun (quote input-funbox) "no documentation" "LMIDIC" (list 6000)) (om-load-inputfun (quote input-funbox) "no documentation" "LVEL" (list 100)) (om-load-inputfun (quote input-funbox) "no documentation" "LOFFSET" (list 0)) (om-load-inputfun (quote input-funbox) "no documentation" "LDUR" (list 1000)) (om-load-inputfun (quote input-funbox) "no documentation" "LCHAN" (list 1)))) (om-make-point 328 338) (om-make-point 78 89) (let ((thechord (make-instance (quote chord) :lmidic (quote (6008 6808 7408 7908 8508)) :ldur (quote (1000 1000 1000 1000 1000)) :lvel (quote (100 100 100 100 100)) :loffset (quote (0 0 0 0 0)) :lchan (quote (1 1 1 1 1))))) (load-port-info thechord (quote (0 0 0 0 0))) (init-mus-color thechord (quote nil)) (set-extra-pairs thechord (quote nil)) (set-tonalite thechord nil) thechord) nil nil (pairlis (quote (measure onset palette-mode scale show-stems obj-mode score-mode winpos winsize mode grillestep notechancolor? zoom inport outport deltapict cmnpref staff fontsize approx)) (list nil nil 0 nil (quote t) 1 0 (om-make-point 400 20) (om-make-point 564 453) 0 1000 nil 1 0 0 (om-make-point 0 0) (let ((newobj (make-instance (quote edition-values)))) (setf (paper-size newobj) (om-make-point 600 800)) (setf (top-margin newobj) 2) (setf (left-margin newobj) 1) (setf (right-margin newobj) 1) (setf (bottom-margin newobj) 1) (setf (orientation newobj) nil) (setf (scale newobj) nil) (setf (system-space newobj) (quote (1))) (setf (system-color newobj) (quote nil)) (setf (line-space newobj) 1) (setf (title newobj) nil) (setf (show-title? newobj) nil) (setf (show-page? newobj) nil) (setf (sheet-id newobj) nil) (setf (page-mode newobj) nil) newobj) (quote g) 24 16)) t nil nil nil (quote nil)))) (when (fboundp (quote set-active)) (set-active box nil)) box) (let ((box (om-load-boxcall (quote bastype) "list" (quote list) (quote nil) (om-make-point 33 70) (om-make-point 165 36) (list (quote do4) (quote lab4) (quote re5) (quote sol5) (quote reb6)) "(DO4 LAb4 RE5 SOL5 REb6)" nil))) (when (fboundp (quote set-active)) (set-active box nil)) box))) (quote ((1 0 0 0 nil 0) (11 0 1 1 nil 0) (8 0 2 1 nil 0) (0 0 4 0 nil 0) (6 0 5 0 nil 0) (7 0 6 0 nil 0) (4 0 7 1 nil 0) (0 0 9 0 nil 0) (9 0 10 1 nil 0))) nil 7.06))
