; OM File Header - Saved 2025/02/06 18:22:39
; (6.0602 :patc (om-make-point 226 60) (om-make-point 437 129) (om-make-point 436 504) "" 183 0 nil "2025/02/06 17:59:42")
; End File Header
; External resources 
; (list (list (quote :sound) "../../out-files/uf6_a.aiff"))
(in-package :om)(load-lib-for (quote ("OMChroma")))(setf *om-current-persistent* (om-load-patch1 "uf_06 add next component" (quote ((om-load-boxcomment "comment 4" (om-make-point 226 60) (quote "select$nil to see the .sco file in the textfile$t to call the Csound synthesis") "" (om-make-point 197 276) nil (om-make-color 0 0 0) (om-make-font "Verdana" 12 :family "Verdana" :style (quote (:plain)) :mode (quote nil))) (om-load-boxcomment "comment" (om-make-point 335 34) (quote "Tutorial User Fun 6 Add next component") "" (om-make-point 56 1) nil (om-make-color 1.0 0.0 0.0) (om-make-font "Verdana" 14.0 :family "Verdana" :style (quote (:bold)) :mode (quote nil))) (om-load-boxcall (quote bastype) "aux 5" (quote t) (quote nil) (om-make-point 94 118) (om-make-point 70 30) (list 0 1 2 3) "(0 1 2 3)" nil) (om-load-boxcall (quote bastype) "aux 4" (quote t) (quote nil) (om-make-point 14 118) (om-make-point 27 30) 4 "4" nil) (om-load-editor-box1 "uf6_a.aiff" (quote sound) (quote ((om-load-inputfun (quote input-funbox) "object" "self" nil) (om-load-inputfun (quote input-funbox) "a track index for multichannel mixing" "tracknum" 1) (om-load-inputfun (quote input-funbox) "a list of markers (s)" "markers" nil))) (om-make-point 12 355) (om-make-point 80 50) (let ((newobj (let ((thesound (load-sound (om-make-pathname :directory (quote (:relative "out-files")) :device :unspecific :host :unspecific :name "uf6_a" :type "aiff") 1))) (when thesound (setf (markers thesound) (quote nil))) thesound))) (load-port-info newobj (quote nil)) (init-mus-color newobj (quote nil)) (set-extra-pairs newobj (quote nil)) (set-patch-pairs newobj (quote nil)) (set-name newobj "uf6_a.aiff") (set-tonalite newobj nil) newobj) nil nil (pairlis (quote (approx fontsize staff cmnpref deltapict outport inport player zoom notechancolor? grillestep mode winsize winpos score-mode obj-mode show-stems scale palette-mode)) (list 2 24 (quote g) (let ((newobj (make-instance (quote edition-values)))) (setf (paper-size newobj) (om-make-point 600 800)) (setf (top-margin newobj) 2) (setf (left-margin newobj) 1) (setf (right-margin newobj) 1) (setf (bottom-margin newobj) 1) (setf (orientation newobj) nil) (setf (scale newobj) nil) (setf (system-space newobj) (quote (1))) (setf (system-color newobj) (quote nil)) (setf (line-space newobj) 1) (setf (title newobj) nil) (setf (show-title? newobj) nil) (setf (show-page? newobj) nil) (setf (sheet-id newobj) nil) (setf (page-mode newobj) nil) newobj) (om-make-point 0 0) nil 0 (quote :libaudio) 1 nil 1000 0 (om-make-point 370 280) (om-make-point 476 293) 0 1 (quote t) nil 0)) t nil nil nil) (om-load-editor-box1 "ADD-1" (quote add-1) (quote ((om-load-inputfun (quote input-funbox) "Synthesis event" "self" nil) (om-load-inputfun (quote input-funbox) "Number of components [int]" "numcols" 1) (om-load-inputfun (quote input-funbox) "Event offset [s]" "action-time" 0) (om-load-inputfun (quote input-funbox) "A lambda function applied to each component" "user-fun" nil) (om-load-inputkeyword (quote editor-keyword) "" "e-dels" (quote :e-dels) 0 nil) (om-load-inputkeyword (quote editor-keyword) "" "durs" (quote :durs) 1 nil) (om-load-inputkeyword (quote editor-keyword) "" "amp" (quote :amp) -6.0 nil) (om-load-inputkeyword (quote editor-keyword) "" "freq" (quote :freq) 440.0 nil) (om-load-inputkeyword (quote editor-keyword) "" "aenv" (quote :aenv) (list (quote make-cs-table) (quote (quote gen07)) (list (quote list) 0 2048 4096) (list (quote list) 0 100 0) 1 "?" 4097) nil))) (om-make-point 8 154) (om-make-point 165 63) (let ((rep (if (find-class (quote add-1) nil) (let ((rep (make-instance (quote add-1) :numcols 4))) (when (member (quote e-dels) (get-init-slots-of-class (quote add-1)) :key (quote car)) (setf (slot-value rep (quote e-dels)) (list 0 1 2 3))) (when (member (quote durs) (get-init-slots-of-class (quote add-1)) :key (quote car)) (setf (slot-value rep (quote durs)) 1)) (when (member (quote amp) (get-init-slots-of-class (quote add-1)) :key (quote car)) (setf (slot-value rep (quote amp)) -6.0)) (when (member (quote freq) (get-init-slots-of-class (quote add-1)) :key (quote car)) (setf (slot-value rep (quote freq)) (list 261.62555 329.62756 391.99542 523.2511))) (when (member (quote aenv) (get-init-slots-of-class (quote add-1)) :key (quote car)) (setf (slot-value rep (quote aenv)) (let ((newobj (when (find-class (quote gen07) nil) (let ((newbpf (simple-bpf-from-list (quote (0.0 2048.0 4096.0)) (quote (0.0 100.0 0.0)) (quote gen07) 1))) (setf (bpfcolor newbpf) (om-make-color 0 0 0)) (set-name newbpf nil) newbpf)))) (when newobj (setf (stime newobj) 0) (setf (size newobj) 4097) (setf (id newobj) "?")) newobj))) (setf (lcontrols rep) (list)) (setf (action-time rep) 0) (setf (data rep) (list (list 0 1 2 3) (list 1 1 1 1) (list -6.0 -6.0 -6.0 -6.0) (list 261.62555 329.62756 391.99542 523.2511) (list (let ((newobj (when (find-class (quote gen07) nil) (let ((newbpf (simple-bpf-from-list (quote (0.0 2048.0 4096.0)) (quote (0.0 100.0 0.0)) (quote gen07) 1))) (setf (bpfcolor newbpf) (om-make-color 0 0 0)) (set-name newbpf nil) newbpf)))) (when newobj (setf (stime newobj) 0) (setf (size newobj) 4097) (setf (id newobj) "?")) newobj) (let ((newobj (when (find-class (quote gen07) nil) (let ((newbpf (simple-bpf-from-list (quote (0.0 2048.0 4096.0)) (quote (0.0 100.0 0.0)) (quote gen07) 1))) (setf (bpfcolor newbpf) (om-make-color 0 0 0)) (set-name newbpf nil) newbpf)))) (when newobj (setf (stime newobj) 0) (setf (size newobj) 4097) (setf (id newobj) "?")) newobj) (let ((newobj (when (find-class (quote gen07) nil) (let ((newbpf (simple-bpf-from-list (quote (0.0 2048.0 4096.0)) (quote (0.0 100.0 0.0)) (quote gen07) 1))) (setf (bpfcolor newbpf) (om-make-color 0 0 0)) (set-name newbpf nil) newbpf)))) (when newobj (setf (stime newobj) 0) (setf (size newobj) 4097) (setf (id newobj) "?")) newobj) (let ((newobj (when (find-class (quote gen07) nil) (let ((newbpf (simple-bpf-from-list (quote (0.0 2048.0 4096.0)) (quote (0.0 100.0 0.0)) (quote gen07) 1))) (setf (bpfcolor newbpf) (om-make-color 0 0 0)) (set-name newbpf nil) newbpf)))) (when newobj (setf (stime newobj) 0) (setf (size newobj) 4097) (setf (id newobj) "?")) newobj)))) rep)))) (put-precision rep (list 3)) rep) nil nil (pairlis (quote (panel-list cur-group-ind show-opt-fields color-list winsize winpos)) (list (list (list "All open" (list 0 (quote t)) (list 1 (quote t)) (list 2 (quote t)) (list 3 (quote t)) (list 4 (quote t))) (list "All close" (list 0 nil) (list 1 nil) (list 2 nil) (list 3 nil) (list 4 nil))) 0 (quote t) (list (om-make-color 0 0 0) (om-make-color 0 0 0) (om-make-color 0 0 0) (om-make-color 0 0 0) (om-make-color 0 0 0)) (om-make-point 500 280) (om-make-point 10 40))) nil nil nil nil) (om-load-editor-box1 "TEXTFILE" (quote textfile) (quote ((om-load-inputfun (quote input-funbox) "object" "self" nil) (om-load-inputfun (quote input-funbox) "input data or text" "exp-list" nil) (om-load-inputfunmenu1 (quote input-funmenu) "append or supersede" "ed-mode" "supersede" (list (list "append" "append") (list "supersede" "supersede"))) (om-load-inputfunmenu1 (quote input-funmenu) "eval interpretation mode" "eval-mode" "list" (list (list "text" "text") (list "data list" "data") (list "list" "list") (list "value" "value"))))) (om-make-point 106 356) (om-make-point 70 50) (load-buffer-textfile (quote ("")) (quote textfile) "supersede" "list") nil nil (pairlis (quote (winsize winpos)) (list (om-make-point 335 275) (om-make-point 10 40))) nil nil nil nil) (let ((box (om-load-boxcall (quote genfun) "LIST-ELEMENTS" (quote list-elements) (quote ((om-load-inputfun (quote input-funbox) "a list" "LIST" nil))) (om-make-point 68 279) nil nil nil nil 2))) (setf (numouts box) 2) box) (om-load-editor-box1 "SINGLE-ITEM-LIST" (quote single-item-list) (quote ((om-load-inputfun (quote input-funbox) "list of choices" "items" (list "uno" "dos" "tres")))) (om-make-point 143 263) (om-make-point 55 78) (let ((rep (om-make-dialog-item (quote single-item-list) (om-make-point 1 1) (om-make-point 39 45) "untitled" :range (quote ("nil" "t"))))) (setf (di-data rep) (quote (nil t))) (om-set-selected-item-index rep 1) rep) "x" nil (pairlis (quote (winpos winsize)) (list (om-make-point 10 40) (om-make-point 335 275))) t nil nil nil) (om-load-boxcall (quote bastype) "aux 3" (quote t) (quote nil) (om-make-point 151 229) (om-make-point 51 30) (list nil (quote t)) "(nil t)" nil) (om-load-boxcall (quote genfun) "SYNTHESIZE" (quote synthesize) (quote ((om-load-inputfun (quote input-funbox) "something to synthesize..." "ELEMENTS" nil) (om-load-inputkeyword (quote input-keyword) "" "name" (quote :name) nil nil) (om-load-inputkeyword (quote input-keyword) "" "run" (quote :run) nil nil))) (om-make-point 5 275) nil nil nil nil 1) (om-load-boxcomment "comment 3" (om-make-point 42 30) (quote ":run") "" (om-make-point 83 248) nil (om-make-color 1.0 0.0 0.0) (om-make-font "Verdana" 12 :family "Verdana" :style (quote (:plain)) :mode (quote nil))) (om-load-boxcomment "comment 2" (om-make-point 44 61) (quote "A") "" (om-make-point 9 59) nil (om-make-color 1.0 0.0 0.011788845) (om-make-font "Verdana" 36.0 :family "Verdana" :style (quote (:bold)) :mode (quote nil))) (om-load-boxcall (quote bastype) "aux 2" (quote t) (quote nil) (om-make-point 33 223) (om-make-point 62 30) "uf6_a" "\"uf6_a\"" nil) (om-load-boxcall (quote genfun) "MC->F" (quote mc->f) (quote ((om-load-inputfun (quote input-funbox) "pitch or pitch list (midicents)" "MIDICS?" 6000))) (om-make-point 116 70) nil nil nil nil 1) (om-load-boxcall (quote bastype) "aux" (quote t) (quote nil) (om-make-point 15 39) (om-make-point 154 30) (list 6000 6400 6700 7200) "(6000 6400 6700 7200)" nil) (om-load-boxcall (quote abstraction) "uf6_a" (om-load-patch-abs1 "uf6_a" (quote ((om-load-boxcall (quote bastype) "aux 5" (quote t) (quote nil) (om-make-point 246 257) (om-make-point 27 30) 2 "2" nil) (om-load-boxcall (quote genfun) "OM/" (quote om/) (quote ((om-load-inputfun (quote input-funbox) "number or list" "ARG1" 1) (om-load-inputfun (quote input-funbox) "number or list" "ARG2" 1))) (om-make-point 236 287) nil nil nil nil 1) (om-load-boxin "length" 2 (om-make-point 284 1) "" "length" nil nil) (om-load-boxcall (quote genfun) "OMIF" (quote omif) (quote ((om-load-inputfun (quote input-funbox) "IF" "TEST" nil) (om-load-inputfun (quote input-funbox) "THEN" "ACTION" nil) (om-load-inputfun (quote input-funbox) "ELSE" "ELSE" nil))) (om-make-point 294 203) (om-make-point 76 57) nil nil nil 1) (om-load-boxcall (quote genfun) "OM+" (quote om+) (quote ((om-load-inputfun (quote input-funbox) "number or list" "ARG1" 0) (om-load-inputfun (quote input-funbox) "number or list" "ARG2" 0))) (om-make-point 364 163) nil nil nil nil 1) (om-load-boxcall (quote bastype) "aux 4" (quote t) (quote nil) (om-make-point 380 125) (om-make-point 27 30) 1 "1" nil) (om-load-boxcall (quote lispfun) "LENGTH" (quote length) (quote ((om-load-inputfun (quote input-funbox) "SEQUENCE" "SEQUENCE" nil))) (om-make-point 282 62) nil nil nil nil 1) (om-load-boxcall (quote genfun) "OM=" (quote om=) (quote ((om-load-inputfun (quote input-funbox) "a number" "A" 0) (om-load-inputfun (quote input-funbox) "a number" "B" 0))) (om-make-point 295 165) nil nil nil nil 1) (om-load-boxcall (quote genfun) "OM-" (quote om-) (quote ((om-load-inputfun (quote input-funbox) "number or list" "ARG1" 0) (om-load-inputfun (quote input-funbox) "number or list" "ARG2" 0))) (om-make-point 319 121) nil nil nil nil 1) (om-load-boxcall (quote bastype) "aux 3" (quote t) (quote nil) (om-make-point 321 73) (om-make-point 27 30) 1 "1" nil) (om-load-boxcall (quote bastype) "aux 2" (quote t) (quote nil) (om-make-point 320 170) (om-make-point 27 30) 0 "0" nil) (om-load-boxcall (quote lispfun) "LIST" (quote list) (quote ((om-load-inputfun (quote input-funbox) "add-input" "add-input" nil) (om-load-inputfun (quote input-funbox) "add-input" "add-input" nil))) (om-make-point 122 377) nil nil nil nil 1) (om-load-boxcall (quote genfun) "COMP-FIELD" (quote comp-field) (quote ((om-load-inputfun (quote input-funbox) "a class-array component" "SELF" nil) (om-load-inputfun (quote input-funbox) "a line identifier" "LINEID" 0) (om-load-inputfun (quote input-funbox) "a value" "VAL" nil))) (om-make-point 150 322) nil nil nil nil 1) (om-load-boxcall (quote genfun) "ADD-COMP 2" (quote add-comp) (quote ((om-load-inputfun (quote input-funbox) "a class-array instance" "SELF" nil) (om-load-inputfun (quote input-funbox) "a component instance" "COMP" nil))) (om-make-point 59 254) nil nil nil nil 1) (om-load-boxcall (quote genfun) "CLONE" (quote clone) (quote ((om-load-inputfun (quote input-funbox) "an object" "SELF" nil))) (om-make-point 86 176) nil nil nil nil 1) (om-load-boxcall (quote genfun) "GET-COMP 3" (quote get-comp) (quote ((om-load-inputfun (quote input-funbox) "a class-array instance" "SELF" nil) (om-load-inputfun (quote input-funbox) "component number" "N" 0))) (om-make-point 102 84) nil nil nil nil 1) (om-load-boxcall (quote genfun) "GET-COMP 2" (quote get-comp) (quote ((om-load-inputfun (quote input-funbox) "a class-array instance" "SELF" nil) (om-load-inputfun (quote input-funbox) "component number" "N" 0))) (om-make-point 191 144) nil nil nil nil 1) (om-load-boxcall (quote genfun) "COMP-FIELD 2" (quote comp-field) (quote ((om-load-inputfun (quote input-funbox) "a class-array component" "SELF" nil) (om-load-inputfun (quote input-funbox) "a line identifier" "LINEID" 0))) (om-make-point 184 208) nil nil nil nil 1) (om-load-boxcall (quote bastype) "aux" (quote t) (quote nil) (om-make-point 135 160) (om-make-point 53 30) "freq" "\"freq\"" nil) (om-load-boxout "output" 0 (om-make-point 105 422) (quote ((om-load-inputfun (quote input-funbox) "" "out" nil))) "user-fun" nil) (om-load-boxin "comp-num" 1 (om-make-point 136 7) "" "comp-num" nil nil) (om-load-boxin "matrix" 0 (om-make-point 61 8) "" "matrix" nil nil))) (quote ((17 0 1 0 nil 0) (0 0 1 1 nil 0) (7 0 3 0 nil 0) (10 0 3 1 nil 0) (4 0 3 2 nil 0) (20 0 4 0 nil 2) (5 0 4 1 nil 0) (2 0 6 0 nil 0) (20 0 7 0 nil 2) (8 0 7 1 nil 0) (6 0 8 0 nil 0) (9 0 8 1 nil 0) (15 0 11 0 nil 0) (12 0 11 1 nil 0) (13 0 12 0 nil 2) (18 0 12 1 nil 3) (1 0 12 2 nil 0) (21 0 13 0 nil 1) (14 0 13 1 nil 0) (15 0 14 0 nil 0) (21 0 15 0 nil 1) (20 0 15 1 nil 2) (21 0 16 0 nil 1) (3 0 16 1 nil 0) (16 0 17 0 nil 0) (18 0 17 1 nil 3) (11 0 19 0 nil 0))) 6.0602 nil "" (om-make-point 494 195) (om-make-point 460 572)) (quote ((om-load-inputfun (quote input-funbox) "" "matrix" nil) (om-load-inputfun (quote input-funbox) "" "comp-num" nil) (om-load-inputfun (quote input-funbox) "" "input" nil))) (om-make-point 48 88) nil nil "l" "uf6_a"))) (quote ((10 0 4 0 nil 0) (3 0 5 1 nil 0) (16 0 5 3 nil 0) (2 0 5 4 nil 0) (14 0 5 7 nil 2) (7 1 6 0 nil 0) (10 0 7 0 nil 0) (9 0 8 0 nil 0) (5 0 10 0 nil 0) (13 0 10 1 nil 0) (8 0 10 2 nil 2) (15 0 14 0 nil 0) (15 0 16 2 nil 0))) nil 6.0602))
