; OM File Header - Saved 2013/10/29 22:34:30
; (6.0602 :patc (om-make-point 118 110) (om-make-point 657 262) (om-make-point 484 466) "" 183 0 "2013/02/23 12:51:04" "2013/09/03 9:38:34")
; End File Header
; External resources 
; (list (list (quote :sound) "../../out-files/uf4a_a.aiff"))
(in-package :om)(load-lib-for (quote ("OMChroma")))(setf *om-current-persistent* (om-load-patch1 "uf_04a add components (wrong)" (quote ((om-load-boxcomment "comment 4" (om-make-point 226 60) (quote "select$nil to see the .sco file in the textfile$t to call the Csound synthesis") "" (om-make-point 203 208) nil (om-make-color 0 0 0) (om-make-font "Verdana" 12 :family "Verdana" :style (quote (:plain)) :mode (quote nil))) (om-load-boxcall (quote bastype) "aux 3" (quote t) (quote nil) (om-make-point 136 96) (om-make-point 41 30) 440 "440" nil) (om-load-boxcomment "comment 3" (om-make-point 71 60) (quote "A") "" (om-make-point 25 42) nil (om-make-color 1.0 0.0 0.011788845) (om-make-font "Verdana" 36.0 :family "Verdana" :style (quote (:bold)) :mode (quote nil))) (om-load-boxcall (quote bastype) "aux 2" (quote t) (quote nil) (om-make-point 32 95) (om-make-point 27 30) 1 "1" nil) (om-load-editor-box1 "ADD-1" (quote add-1) (quote ((om-load-inputfun (quote input-funbox) "Synthesis event" "self" nil) (om-load-inputfun (quote input-funbox) "Number of components [int]" "numcols" 1) (om-load-inputfun (quote input-funbox) "Event offset [s]" "action-time" 0) (om-load-inputfun (quote input-funbox) "A lambda function applied to each component" "user-fun" nil) (om-load-inputkeyword (quote editor-keyword) "" "e-dels" (quote :e-dels) 0 nil) (om-load-inputkeyword (quote editor-keyword) "" "durs" (quote :durs) 1 nil) (om-load-inputkeyword (quote editor-keyword) "" "amp" (quote :amp) -6.0 nil) (om-load-inputkeyword (quote editor-keyword) "" "freq" (quote :freq) 440.0 nil) (om-load-inputkeyword (quote editor-keyword) "" "aenv" (quote :aenv) (list (quote make-cs-table) (quote (quote gen07)) (list (quote list) 0 2048 4096) (list (quote list) 0 100 0) 1 "?" 4097) nil))) (om-make-point 21 131) (om-make-point 165 63) (let ((rep (if (find-class (quote add-1) nil) (let ((rep (make-instance (quote add-1) :numcols 1))) (when (member (quote e-dels) (get-init-slots-of-class (quote add-1)) :key (quote car)) (setf (slot-value rep (quote e-dels)) 0)) (when (member (quote durs) (get-init-slots-of-class (quote add-1)) :key (quote car)) (setf (slot-value rep (quote durs)) 1)) (when (member (quote amp) (get-init-slots-of-class (quote add-1)) :key (quote car)) (setf (slot-value rep (quote amp)) -6.0)) (when (member (quote freq) (get-init-slots-of-class (quote add-1)) :key (quote car)) (setf (slot-value rep (quote freq)) 440)) (when (member (quote aenv) (get-init-slots-of-class (quote add-1)) :key (quote car)) (setf (slot-value rep (quote aenv)) (let ((newobj (when (find-class (quote gen07) nil) (let ((newbpf (simple-bpf-from-list (quote (0.0 2048.0 4096.0)) (quote (0.0 100.0 0.0)) (quote gen07) 1))) (setf (bpfcolor newbpf) (om-make-color 0 0 0)) (set-name newbpf nil) newbpf)))) (when newobj (setf (stime newobj) 0) (setf (size newobj) 4097) (setf (id newobj) "?")) newobj))) (setf (lcontrols rep) (list)) (setf (action-time rep) 0) (setf (data rep) (list (list 0) (list 1) (list -6.0) (list 440) (list (let ((newobj (when (find-class (quote gen07) nil) (let ((newbpf (simple-bpf-from-list (quote (0.0 2048.0 4096.0)) (quote (0.0 100.0 0.0)) (quote gen07) 1))) (setf (bpfcolor newbpf) (om-make-color 0 0 0)) (set-name newbpf nil) newbpf)))) (when newobj (setf (stime newobj) 0) (setf (size newobj) 4097) (setf (id newobj) "?")) newobj)))) rep)))) (put-precision rep (list 3)) rep) nil nil (pairlis (quote (panel-list cur-group-ind show-opt-fields color-list winsize winpos)) (list (list (list "All open" (list 0 (quote t)) (list 1 (quote t)) (list 2 (quote t)) (list 3 (quote t)) (list 4 (quote t))) (list "All close" (list 0 nil) (list 1 nil) (list 2 nil) (list 3 nil) (list 4 nil))) 0 (quote t) (list (om-make-color 0 0 0) (om-make-color 0 0 0) (om-make-color 0 0 0) (om-make-color 0 0 0) (om-make-color 0 0 0)) (om-make-point 500 280) (om-make-point 10 40))) nil nil nil nil) (om-load-boxcall (quote abstraction) "UF_4a" (om-load-patch-abs1 "UF_4a" (quote ((om-load-boxcall (quote genfun) "COMP-FIELD 6" (quote comp-field) (quote ((om-load-inputfun (quote input-funbox) "a class-array component" "SELF" nil) (om-load-inputfun (quote input-funbox) "a line identifier" "LINEID" 0) (om-load-inputfun (quote input-funbox) "a value" "VAL" nil))) (om-make-point 376 273) nil nil nil nil 1) (om-load-boxcall (quote bastype) "aux 6" (quote t) (quote nil) (om-make-point 421 181) (om-make-point 27 30) 4 "4" nil) (om-load-boxcall (quote genfun) "OM* 3" (quote om*) (quote ((om-load-inputfun (quote input-funbox) "number or list" "ARG1" 0) (om-load-inputfun (quote input-funbox) "number or list" "ARG2" 0))) (om-make-point 419 230) nil nil nil nil 1) (om-load-boxcall (quote bastype) "aux 3" (quote t) (quote nil) (om-make-point 386 133) (om-make-point 53 30) "freq" "\"freq\"" nil) (om-load-boxcall (quote genfun) "COMP-FIELD 5" (quote comp-field) (quote ((om-load-inputfun (quote input-funbox) "a class-array component" "SELF" nil) (om-load-inputfun (quote input-funbox) "a line identifier" "LINEID" 0))) (om-make-point 331 170) nil nil nil nil 1) (om-load-boxcall (quote bastype) "aux 2" (quote t) (quote nil) (om-make-point 149 181) (om-make-point 27 30) 2 "2" nil) (om-load-boxcall (quote bastype) "aux 5" (quote t) (quote nil) (om-make-point 288 181) (om-make-point 27 30) 3 "3" nil) (om-load-boxcall (quote genfun) "COMP-FIELD 4" (quote comp-field) (quote ((om-load-inputfun (quote input-funbox) "a class-array component" "SELF" nil) (om-load-inputfun (quote input-funbox) "a line identifier" "LINEID" 0))) (om-make-point 198 170) nil nil nil nil 1) (om-load-boxcall (quote bastype) "aux 4" (quote t) (quote nil) (om-make-point 253 133) (om-make-point 53 30) "freq" "\"freq\"" nil) (om-load-boxcall (quote genfun) "COMP-FIELD 3" (quote comp-field) (quote ((om-load-inputfun (quote input-funbox) "a class-array component" "SELF" nil) (om-load-inputfun (quote input-funbox) "a line identifier" "LINEID" 0) (om-load-inputfun (quote input-funbox) "a value" "VAL" nil))) (om-make-point 243 273) nil nil nil nil 1) (om-load-boxcall (quote genfun) "OM* 2" (quote om*) (quote ((om-load-inputfun (quote input-funbox) "number or list" "ARG1" 0) (om-load-inputfun (quote input-funbox) "number or list" "ARG2" 0))) (om-make-point 286 230) nil nil nil nil 1) (om-load-boxcall (quote lispfun) "LIST" (quote list) (quote ((om-load-inputfun (quote input-funbox) "add-input" "add-input" nil) (om-load-inputfun (quote input-funbox) "add-input" "add-input" nil) (om-load-inputfun (quote input-funbox) "add-input" "add-input" nil) (om-load-inputfun (quote input-funbox) "add-input" "add-input" nil))) (om-make-point 45 333) nil nil nil nil 1) (om-load-boxcall (quote genfun) "OM*" (quote om*) (quote ((om-load-inputfun (quote input-funbox) "number or list" "ARG1" 0) (om-load-inputfun (quote input-funbox) "number or list" "ARG2" 0))) (om-make-point 147 231) nil nil nil nil 1) (om-load-boxcall (quote genfun) "COMP-FIELD 2" (quote comp-field) (quote ((om-load-inputfun (quote input-funbox) "a class-array component" "SELF" nil) (om-load-inputfun (quote input-funbox) "a line identifier" "LINEID" 0) (om-load-inputfun (quote input-funbox) "a value" "VAL" nil))) (om-make-point 104 273) nil nil nil nil 1) (om-load-boxcall (quote bastype) "aux" (quote t) (quote nil) (om-make-point 114 134) (om-make-point 53 30) "freq" "\"freq\"" nil) (om-load-boxcall (quote genfun) "COMP-FIELD" (quote comp-field) (quote ((om-load-inputfun (quote input-funbox) "a class-array component" "SELF" nil) (om-load-inputfun (quote input-funbox) "a line identifier" "LINEID" 0))) (om-make-point 62 170) nil nil nil nil 1) (om-load-boxcall (quote genfun) "GET-COMP" (quote get-comp) (quote ((om-load-inputfun (quote input-funbox) "a class-array instance" "SELF" nil) (om-load-inputfun (quote input-funbox) "component number" "N" 0))) (om-make-point 24 102) nil nil nil nil 1) (om-load-boxout "output" 0 (om-make-point 35 376) (quote ((om-load-inputfun (quote input-funbox) "" "out" nil))) "user-fun" nil) (om-load-boxin "comp-num" 1 (om-make-point 53 36) "" "comp-num" nil nil) (om-load-boxin "matrix" 0 (om-make-point 9 36) "" "matrix" nil nil))) (quote ((16 0 0 0 nil 1) (3 0 0 1 nil 2) (2 0 0 2 nil 0) (4 0 2 0 nil 0) (1 0 2 1 nil 0) (16 0 4 0 nil 1) (3 0 4 1 nil 2) (16 0 7 0 nil 1) (8 0 7 1 nil 2) (16 0 9 0 nil 1) (8 0 9 1 nil 2) (10 0 9 2 nil 0) (7 0 10 0 nil 0) (6 0 10 1 nil 0) (16 0 11 0 nil 1) (13 0 11 1 nil 2) (9 0 11 2 nil 3) (0 0 11 3 nil 5) (15 0 12 0 nil 0) (5 0 12 1 nil 0) (16 0 13 0 nil 1) (14 0 13 1 nil 2) (12 0 13 2 nil 0) (16 0 15 0 nil 1) (14 0 15 1 nil 2) (19 0 16 0 nil 0) (18 0 16 1 nil 0) (11 0 17 0 nil 0))) 6.0602 nil "" (om-make-point 1157 236) (om-make-point 523 449)) (quote ((om-load-inputfun (quote input-funbox) "" "matrix" nil) (om-load-inputfun (quote input-funbox) "" "comp" nil))) (om-make-point 81 61) nil nil "l" "UF_4a") (om-load-editor-box1 "uf4a_a.aiff" (quote sound) (quote ((om-load-inputfun (quote input-funbox) "object" "self" nil) (om-load-inputfun (quote input-funbox) "a track index for multichannel mixing" "tracknum" 1) (om-load-inputfun (quote input-funbox) "a list of markers (s)" "markers" nil))) (om-make-point 30 299) (om-make-point 80 50) (let ((newobj (let ((thesound (load-sound (om-make-pathname :directory (quote (:relative "out-files")) :device :unspecific :host :unspecific :name "uf4a_a" :type "aiff") 1))) (when thesound (setf (markers thesound) (quote nil))) thesound))) (load-port-info newobj (quote nil)) (init-mus-color newobj (quote nil)) (set-extra-pairs newobj (quote nil)) (set-patch-pairs newobj (quote nil)) (set-name newobj "uf4a_a.aiff") (set-tonalite newobj nil) newobj) nil nil (pairlis (quote (palette-mode scale show-stems obj-mode score-mode winpos winsize mode grillestep notechancolor? zoom player inport outport deltapict cmnpref staff fontsize approx)) (list 0 nil (quote t) 1 0 (om-make-point 476 293) (om-make-point 370 280) 0 1000 nil 1 (quote :libaudio) 0 nil (om-make-point 0 0) (let ((newobj (make-instance (quote edition-values)))) (setf (paper-size newobj) (om-make-point 600 800)) (setf (top-margin newobj) 2) (setf (left-margin newobj) 1) (setf (right-margin newobj) 1) (setf (bottom-margin newobj) 1) (setf (orientation newobj) nil) (setf (scale newobj) nil) (setf (system-space newobj) (quote (1))) (setf (system-color newobj) (quote nil)) (setf (line-space newobj) 1) (setf (title newobj) nil) (setf (show-title? newobj) nil) (setf (show-page? newobj) nil) (setf (sheet-id newobj) nil) (setf (page-mode newobj) nil) newobj) (quote g) 24 2)) t nil nil nil) (om-load-editor-box1 "TEXTFILE" (quote textfile) (quote ((om-load-inputfun (quote input-funbox) "object" "self" nil) (om-load-inputfun (quote input-funbox) "input data or text" "exp-list" nil) (om-load-inputfunmenu1 (quote input-funmenu) "append or supersede" "ed-mode" "supersede" (list (list "append" "append") (list "supersede" "supersede"))) (om-load-inputfunmenu1 (quote input-funmenu) "eval interpretation mode" "eval-mode" "list" (list (list "text" "text") (list "data list" "data") (list "list" "list") (list "value" "value"))))) (om-make-point 116 297) (om-make-point 86 52) (load-buffer-textfile (quote ("")) (quote textfile) "supersede" "list") nil nil (pairlis (quote (winpos winsize)) (list (om-make-point 10 40) (om-make-point 335 275))) nil nil nil nil) (let ((box (om-load-boxcall (quote genfun) "LIST-ELEMENTS" (quote list-elements) (quote ((om-load-inputfun (quote input-funbox) "a list" "LIST" nil))) (om-make-point 81 234) nil nil nil nil 2))) (setf (numouts box) 2) box) (om-load-editor-box1 "SINGLE-ITEM-LIST" (quote single-item-list) (quote ((om-load-inputfun (quote input-funbox) "list of choices" "items" (list "uno" "dos" "tres")))) (om-make-point 142 199) (om-make-point 55 78) (let ((rep (om-make-dialog-item (quote single-item-list) (om-make-point 1 1) (om-make-point 39 45) "untitled" :range (quote ("nil" "t"))))) (setf (di-data rep) (quote (nil t))) (om-set-selected-item-index rep 1) rep) "x" nil (pairlis (quote (winsize winpos)) (list (om-make-point 335 275) (om-make-point 10 40))) t nil nil nil) (om-load-boxcall (quote genfun) "SYNTHESIZE" (quote synthesize) (quote ((om-load-inputfun (quote input-funbox) "something to synthesize..." "ELEMENTS" nil) (om-load-inputkeyword (quote input-keyword) "" "name" (quote :name) nil nil) (om-load-inputkeyword (quote input-keyword) "" "run" (quote :run) nil nil))) (om-make-point 18 230) nil nil nil nil 1) (om-load-boxcall (quote bastype) "aux" (quote t) (quote nil) (om-make-point 39 195) (om-make-point 69 30) "uf4a_a" "\"uf4a_a\"" nil) (om-load-boxcomment "comment 2" (om-make-point 42 30) (quote ":run") "" (om-make-point 95 205) nil (om-make-color 1.0 0.0 0.0) (om-make-font "Verdana" 12 :family "Verdana" :style (quote (:plain)) :mode (quote nil))) (om-load-boxcomment "comment" (om-make-point 410 34) (quote "Tutorial User-fun 4A Add components (wrong)") "" (om-make-point 57 0) nil (om-make-color 1.0 0.0 0.0) (om-make-font "Verdana" 14.0 :family "Verdana" :style (quote (:bold)) :mode (quote nil))))) (quote ((3 0 4 1 nil 0) (5 0 4 3 nil 0) (1 0 4 7 nil 0) (10 0 6 0 nil 0) (8 1 7 0 nil 0) (10 0 8 0 nil 0) (4 0 10 0 nil 0) (11 0 10 1 nil 0) (9 0 10 2 nil 2))) nil 6.0602))
