; OM File Header - Saved 2025/02/06 18:22:39
; (6.0602 :patc (om-make-point 226 60) (om-make-point 527 115) (om-make-point 437 551) "" 183 0 nil "2025/02/06 17:59:42")
; End File Header
; External resources 
; (list (list (quote :sound) "../../out-files/uf7_a.aiff"))
(in-package :om)(load-lib-for (quote ("OMChroma")))(setf *om-current-persistent* (om-load-patch1 "uf_07 using keyword" (quote ((om-load-boxcomment "comment 4" (om-make-point 226 60) (quote "select$nil to see the .sco file in the textfile$t to call the Csound synthesis") "" (om-make-point 211 253) nil (om-make-color 0 0 0) (om-make-font "Verdana" 12 :family "Verdana" :style (quote (:plain)) :mode (quote nil))) (om-load-boxcall (quote bastype) "aux 5" (quote t) (quote nil) (om-make-point 96 108) (om-make-point 59 30) (list 0 1 2) "(0 1 2)" nil) (om-load-boxcall (quote bastype) "aux 4" (quote t) (quote nil) (om-make-point 23 100) (om-make-point 27 30) 3 "3" nil) (om-load-boxcall (quote bastype) "aux 3" (quote t) (quote nil) (om-make-point 139 80) (om-make-point 88 30) (list 1.5 2 2.25) "(1.5 2 2.25)" nil) (om-load-boxcall (quote bastype) "aux 2" (quote t) (quote nil) (om-make-point 39 207) (om-make-point 62 30) "uf7_a" "\"uf7_a\"" nil) (om-load-boxcomment "comment 3" (om-make-point 44 61) (quote "A") "" (om-make-point 18 48) nil (om-make-color 1.0 0.0 0.011788845) (om-make-font "Verdana" 36.0 :family "Verdana" :style (quote (:bold)) :mode (quote nil))) (om-load-boxcomment "comment 2" (om-make-point 42 30) (quote ":run") "" (om-make-point 91 232) nil (om-make-color 1.0 0.0 0.0) (om-make-font "Verdana" 12 :family "Verdana" :style (quote (:plain)) :mode (quote nil))) (om-load-boxcall (quote genfun) "SYNTHESIZE" (quote synthesize) (quote ((om-load-inputfun (quote input-funbox) "something to synthesize..." "ELEMENTS" nil) (om-load-inputkeyword (quote input-keyword) "" "name" (quote :name) nil nil) (om-load-inputkeyword (quote input-keyword) "" "run" (quote :run) nil nil))) (om-make-point 13 259) nil nil nil nil 1) (om-load-boxcall (quote bastype) "aux" (quote t) (quote nil) (om-make-point 159 213) (om-make-point 51 30) (list nil (quote t)) "(nil t)" nil) (om-load-editor-box1 "SINGLE-ITEM-LIST" (quote single-item-list) (quote ((om-load-inputfun (quote input-funbox) "list of choices" "items" (list "uno" "dos" "tres")))) (om-make-point 151 247) (om-make-point 55 78) (let ((rep (om-make-dialog-item (quote single-item-list) (om-make-point 1 1) (om-make-point 39 45) "untitled" :range (quote ("nil" "t"))))) (setf (di-data rep) (quote (nil t))) (om-set-selected-item-index rep 1) rep) "x" nil (pairlis (quote (winpos winsize)) (list (om-make-point 10 40) (om-make-point 335 275))) t nil nil nil) (let ((box (om-load-boxcall (quote genfun) "LIST-ELEMENTS" (quote list-elements) (quote ((om-load-inputfun (quote input-funbox) "a list" "LIST" nil))) (om-make-point 76 263) nil nil nil nil 2))) (setf (numouts box) 2) box) (om-load-editor-box1 "TEXTFILE" (quote textfile) (quote ((om-load-inputfun (quote input-funbox) "object" "self" nil) (om-load-inputfun (quote input-funbox) "input data or text" "exp-list" nil) (om-load-inputfunmenu1 (quote input-funmenu) "append or supersede" "ed-mode" "supersede" (list (list "append" "append") (list "supersede" "supersede"))) (om-load-inputfunmenu1 (quote input-funmenu) "eval interpretation mode" "eval-mode" "list" (list (list "text" "text") (list "data list" "data") (list "list" "list") (list "value" "value"))))) (om-make-point 114 340) (om-make-point 70 50) (load-buffer-textfile (quote ("")) (quote textfile) "supersede" "list") nil nil (pairlis (quote (winsize winpos)) (list (om-make-point 335 275) (om-make-point 10 40))) nil nil nil nil) (om-load-editor-box1 "ADD-1" (quote add-1) (quote ((om-load-inputfun (quote input-funbox) "Synthesis event" "self" nil) (om-load-inputfun (quote input-funbox) "Number of components [int]" "numcols" 1) (om-load-inputfun (quote input-funbox) "Event offset [s]" "action-time" 0) (om-load-inputfun (quote input-funbox) "A lambda function applied to each component" "user-fun" nil) (om-load-inputkeyword (quote editor-keyword) "" "e-dels" (quote :e-dels) 0 nil) (om-load-inputkeyword (quote editor-keyword) "" "durs" (quote :durs) 1 nil) (om-load-inputkeyword (quote editor-keyword) "" "amp" (quote :amp) -6.0 nil) (om-load-inputkeyword (quote editor-keyword) "" "freq" (quote :freq) 440.0 nil) (om-load-inputkeyword (quote editor-keyword) "" "aenv" (quote :aenv) (list (quote make-cs-table) (quote (quote gen07)) (list (quote list) 0 2048 4096) (list (quote list) 0 100 0) 1 "?" 4097) nil) (om-load-inputkeyword (quote control-keyword) "" "par1" (quote :par1) nil nil))) (om-make-point 17 138) (om-make-point 165 63) (let ((rep (if (find-class (quote add-1) nil) (let ((rep (make-instance (quote add-1) :numcols 3))) (when (member (quote e-dels) (get-init-slots-of-class (quote add-1)) :key (quote car)) (setf (slot-value rep (quote e-dels)) (list 0 1 2))) (when (member (quote durs) (get-init-slots-of-class (quote add-1)) :key (quote car)) (setf (slot-value rep (quote durs)) 1)) (when (member (quote amp) (get-init-slots-of-class (quote add-1)) :key (quote car)) (setf (slot-value rep (quote amp)) -6.0)) (when (member (quote freq) (get-init-slots-of-class (quote add-1)) :key (quote car)) (setf (slot-value rep (quote freq)) 440.0)) (when (member (quote aenv) (get-init-slots-of-class (quote add-1)) :key (quote car)) (setf (slot-value rep (quote aenv)) (let ((newobj (when (find-class (quote gen07) nil) (let ((newbpf (simple-bpf-from-list (quote (0.0 2048.0 4096.0)) (quote (0.0 100.0 0.0)) (quote gen07) 1))) (setf (bpfcolor newbpf) (om-make-color 0 0 0)) (set-name newbpf nil) newbpf)))) (when newobj (setf (stime newobj) 0) (setf (size newobj) 4097) (setf (id newobj) "?")) newobj))) (setf (lcontrols rep) (list (list (quote :par1) (list 1.5 2 2.25)))) (setf (action-time rep) 0) (setf (data rep) (list (list 0 1 2) (list 1 1 1) (list -6.0 -6.0 -6.0) (list 440.0 440.0 440.0) (list (let ((newobj (when (find-class (quote gen07) nil) (let ((newbpf (simple-bpf-from-list (quote (0.0 2048.0 4096.0)) (quote (0.0 100.0 0.0)) (quote gen07) 1))) (setf (bpfcolor newbpf) (om-make-color 0 0 0)) (set-name newbpf nil) newbpf)))) (when newobj (setf (stime newobj) 0) (setf (size newobj) 4097) (setf (id newobj) "?")) newobj) (let ((newobj (when (find-class (quote gen07) nil) (let ((newbpf (simple-bpf-from-list (quote (0.0 2048.0 4096.0)) (quote (0.0 100.0 0.0)) (quote gen07) 1))) (setf (bpfcolor newbpf) (om-make-color 0 0 0)) (set-name newbpf nil) newbpf)))) (when newobj (setf (stime newobj) 0) (setf (size newobj) 4097) (setf (id newobj) "?")) newobj) (let ((newobj (when (find-class (quote gen07) nil) (let ((newbpf (simple-bpf-from-list (quote (0.0 2048.0 4096.0)) (quote (0.0 100.0 0.0)) (quote gen07) 1))) (setf (bpfcolor newbpf) (om-make-color 0 0 0)) (set-name newbpf nil) newbpf)))) (when newobj (setf (stime newobj) 0) (setf (size newobj) 4097) (setf (id newobj) "?")) newobj)) (list 1.5 2 2.25))) rep)))) (put-precision rep (list 3)) rep) nil nil (pairlis (quote (panel-list cur-group-ind show-opt-fields color-list winsize winpos)) (list (list (list "All open" (list 0 (quote t)) (list 1 (quote t)) (list 2 (quote t)) (list 3 (quote t)) (list 4 (quote t)) (list 5 (quote t))) (list "All close" (list 0 nil) (list 1 nil) (list 2 nil) (list 3 nil) (list 4 nil) (list 5 nil))) 0 (quote t) (list (om-make-color 0 0 0) (om-make-color 0 0 0) (om-make-color 0 0 0) (om-make-color 0 0 0) (om-make-color 0 0 0)) (om-make-point 588 452) (om-make-point 55 40))) nil nil nil nil) (om-load-editor-box1 "uf7_a.aiff" (quote sound) (quote ((om-load-inputfun (quote input-funbox) "object" "self" nil) (om-load-inputfun (quote input-funbox) "a track index for multichannel mixing" "tracknum" 1) (om-load-inputfun (quote input-funbox) "a list of markers (s)" "markers" nil))) (om-make-point 25 339) (om-make-point 80 50) (let ((newobj (let ((thesound (load-sound (om-make-pathname :directory (quote (:relative "out-files")) :device :unspecific :host :unspecific :name "uf7_a" :type "aiff") 1))) (when thesound (setf (markers thesound) (quote nil))) thesound))) (load-port-info newobj (quote nil)) (init-mus-color newobj (quote nil)) (set-extra-pairs newobj (quote nil)) (set-patch-pairs newobj (quote nil)) (set-name newobj "uf7_a.aiff") (set-tonalite newobj nil) newobj) nil nil (pairlis (quote (approx fontsize staff cmnpref deltapict outport inport player zoom notechancolor? grillestep mode winsize winpos score-mode obj-mode show-stems scale palette-mode)) (list 2 24 (quote g) (let ((newobj (make-instance (quote edition-values)))) (setf (paper-size newobj) (om-make-point 600 800)) (setf (top-margin newobj) 2) (setf (left-margin newobj) 1) (setf (right-margin newobj) 1) (setf (bottom-margin newobj) 1) (setf (orientation newobj) nil) (setf (scale newobj) nil) (setf (system-space newobj) (quote (1))) (setf (system-color newobj) (quote nil)) (setf (line-space newobj) 1) (setf (title newobj) nil) (setf (show-title? newobj) nil) (setf (show-page? newobj) nil) (setf (sheet-id newobj) nil) (setf (page-mode newobj) nil) newobj) (om-make-point 0 0) nil 0 (quote :libaudio) 1 nil 1000 0 (om-make-point 370 280) (om-make-point 476 293) 0 1 (quote t) nil 0)) t nil nil nil) (om-load-boxcall (quote abstraction) "uf7_a" (om-load-patch-abs1 "uf7_a" (quote ((om-load-boxcall (quote genfun) "OM*" (quote om*) (quote ((om-load-inputfun (quote input-funbox) "number or list" "ARG1" 0) (om-load-inputfun (quote input-funbox) "number or list" "ARG2" 0))) (om-make-point 224 193) nil nil nil nil 1) (om-load-boxcall (quote bastype) "aux 3" (quote t) (quote nil) (om-make-point 268 89) (om-make-point 56 30) "par1" "\"par1\"" nil) (om-load-boxcall (quote genfun) "COMP-FIELD 3" (quote comp-field) (quote ((om-load-inputfun (quote input-funbox) "a class-array component" "SELF" nil) (om-load-inputfun (quote input-funbox) "a line identifier" "LINEID" 0))) (om-make-point 248 128) nil nil nil nil 1) (om-load-boxcall (quote bastype) "aux 2" (quote t) (quote nil) (om-make-point 190 89) (om-make-point 53 30) "freq" "\"freq\"" nil) (om-load-boxcall (quote lispfun) "LIST" (quote list) (quote ((om-load-inputfun (quote input-funbox) "add-input" "add-input" nil) (om-load-inputfun (quote input-funbox) "add-input" "add-input" nil))) (om-make-point 126 293) nil nil nil nil 1) (om-load-boxcall (quote genfun) "COMP-FIELD" (quote comp-field) (quote ((om-load-inputfun (quote input-funbox) "a class-array component" "SELF" nil) (om-load-inputfun (quote input-funbox) "a line identifier" "LINEID" 0) (om-load-inputfun (quote input-funbox) "a value" "VAL" nil))) (om-make-point 174 238) nil nil nil nil 1) (om-load-boxcall (quote genfun) "ADD-COMP 2" (quote add-comp) (quote ((om-load-inputfun (quote input-funbox) "a class-array instance" "SELF" nil) (om-load-inputfun (quote input-funbox) "a component instance" "COMP" nil))) (om-make-point 63 184) nil nil nil nil 1) (om-load-boxcall (quote genfun) "CLONE" (quote clone) (quote ((om-load-inputfun (quote input-funbox) "an object" "SELF" nil))) (om-make-point 90 128) nil nil nil nil 1) (om-load-boxcall (quote genfun) "GET-COMP 3" (quote get-comp) (quote ((om-load-inputfun (quote input-funbox) "a class-array instance" "SELF" nil) (om-load-inputfun (quote input-funbox) "component number" "N" 0))) (om-make-point 106 67) nil nil nil nil 1) (om-load-boxcall (quote genfun) "COMP-FIELD 2" (quote comp-field) (quote ((om-load-inputfun (quote input-funbox) "a class-array component" "SELF" nil) (om-load-inputfun (quote input-funbox) "a line identifier" "LINEID" 0))) (om-make-point 168 128) nil nil nil nil 1) (om-load-boxcall (quote bastype) "aux" (quote t) (quote nil) (om-make-point 167 191) (om-make-point 53 30) "freq" "\"freq\"" nil) (om-load-boxout "output" 0 (om-make-point 109 338) (quote ((om-load-inputfun (quote input-funbox) "" "out" nil))) "user-fun" nil) (om-load-boxin "comp-num" 1 (om-make-point 140 7) "" "comp-num" nil nil) (om-load-boxin "matrix" 0 (om-make-point 65 7) "" "matrix" nil nil))) (quote ((9 0 0 0 nil 0) (2 0 0 1 nil 0) (8 0 2 0 nil 2) (1 0 2 1 nil 0) (8 0 4 0 nil 2) (5 0 4 1 nil 0) (6 0 5 0 nil 3) (10 0 5 1 nil 0) (0 0 5 2 nil 0) (13 0 6 0 nil 1) (7 0 6 1 nil 0) (8 0 7 0 nil 2) (13 0 8 0 nil 1) (12 0 8 1 nil 0) (8 0 9 0 nil 2) (3 0 9 1 nil 0) (4 0 11 0 nil 0))) 6.0602 nil "" (om-make-point 2136 223) (om-make-point 504 468)) (quote ((om-load-inputfun (quote input-funbox) "" "matrix" nil) (om-load-inputfun (quote input-funbox) "" "comp" nil))) (om-make-point 59 63) nil nil "l" "uf7_a") (om-load-boxcomment "comment" (om-make-point 289 34) (quote "Tutorial User-fun 7 Using keyword") "" (om-make-point 58 2) nil (om-make-color 1.0 0.0 0.0) (om-make-font "Verdana" 14.0 :family "Verdana" :style (quote (:bold)) :mode (quote nil))))) (quote ((12 0 7 0 nil 0) (4 0 7 1 nil 0) (9 0 7 2 nil 2) (8 0 9 0 nil 0) (7 0 10 0 nil 0) (10 1 11 0 nil 0) (2 0 12 1 nil 0) (14 0 12 3 nil 0) (1 0 12 4 nil 0) (3 0 12 9 nil 0) (7 0 13 0 nil 0))) nil 6.0602))
