; OM File Header - Saved 2025/02/06 18:22:39
; (6.0602 :patc (om-make-point 10 160) (om-make-point 406 88) (om-make-point 1081 865) "" 183 0 nil "2025/02/06 18:22:39")
; End File Header
; External resources 
; (list (list (quote :sound) "../../../../../out-files/FM-2_D.aiff" "../../../../../out-files/FM-2_B1.aiff" "../../../../../out-files/FM-2_B2.aiff" "../../../../../out-files/FM-2_A1.aiff" "../../../../../out-files/FM-2_A2.aiff" "../../../../../out-files/FM-2_C.aiff"))
(in-package :om)(load-lib-for (quote ("OMChroma")))(setf *om-current-persistent* (om-load-patch1 "fm-2" (quote ((om-load-boxcall (quote bastype) "aux 21" (quote t) (quote nil) (om-make-point 600 434) (om-make-point 48 30) 1000 "1000" nil) (om-load-boxcomment "comment 39" (om-make-point 57 34) (quote "freq") "" (om-make-point 591 408) nil (om-make-color 1.0 0.0 0.0) (om-make-font "Verdana" 14.0 :family "Verdana" :style (quote (:bold)) :mode (quote nil))) (om-load-editor-box1 "FM-2 4" (quote fm-2) (quote ((om-load-inputfun (quote input-funbox) "Synthesis event" "self" nil) (om-load-inputfun (quote input-funbox) "Number of components [int]" "numcols" 1) (om-load-inputfun (quote input-funbox) "Event offset [s]" "action-time" 0) (om-load-inputfun (quote input-funbox) "A lambda function applied to each component" "user-fun" nil) (om-load-inputkeyword (quote editor-keyword) "" "e-dels" (quote :e-dels) nil nil) (om-load-inputkeyword (quote editor-keyword) "" "durs" (quote :durs) nil nil) (om-load-inputkeyword (quote editor-keyword) "" "amp" (quote :amp) nil nil) (om-load-inputkeyword (quote editor-keyword) "" "f0" (quote :f0) nil nil) (om-load-inputkeyword (quote editor-keyword) "" "freq" (quote :freq) nil nil) (om-load-inputkeyword (quote editor-keyword) "" "fmod" (quote :fmod) nil nil) (om-load-inputkeyword (quote editor-keyword) "" "imax" (quote :imax) nil nil) (om-load-inputkeyword (quote editor-keyword) "" "imin" (quote :imin) nil nil) (om-load-inputkeyword (quote editor-keyword) "" "aenv" (quote :aenv) nil nil) (om-load-inputkeyword (quote editor-keyword) "" "ienv" (quote :ienv) nil nil))) (om-make-point 512 475) (om-make-point 303 53) (let ((rep (if (find-class (quote fm-2) nil) (let ((rep (make-instance (quote fm-2) :numcols 13))) (when (member (quote e-dels) (get-init-slots-of-class (quote fm-2)) :key (quote car)) (setf (slot-value rep (quote e-dels)) (list 0 3 6 9 12 15 18 21 24 27 30 33 36))) (when (member (quote durs) (get-init-slots-of-class (quote fm-2)) :key (quote car)) (setf (slot-value rep (quote durs)) 3)) (when (member (quote amp) (get-init-slots-of-class (quote fm-2)) :key (quote car)) (setf (slot-value rep (quote amp)) -6.0)) (when (member (quote f0) (get-init-slots-of-class (quote fm-2)) :key (quote car)) (setf (slot-value rep (quote f0)) 100.0)) (when (member (quote freq) (get-init-slots-of-class (quote fm-2)) :key (quote car)) (setf (slot-value rep (quote freq)) 1000)) (when (member (quote fmod) (get-init-slots-of-class (quote fm-2)) :key (quote car)) (setf (slot-value rep (quote fmod)) (list 5 10 50 100 410 1000 1330 2000 2231 500 250 125 62.5))) (when (member (quote imax) (get-init-slots-of-class (quote fm-2)) :key (quote car)) (setf (slot-value rep (quote imax)) 4)) (when (member (quote imin) (get-init-slots-of-class (quote fm-2)) :key (quote car)) (setf (slot-value rep (quote imin)) 0)) (when (member (quote aenv) (get-init-slots-of-class (quote fm-2)) :key (quote car)) (setf (slot-value rep (quote aenv)) (let ((newobj (when (find-class (quote bpf) nil) (let ((newbpf (simple-bpf-from-list (quote (0 5 95 100)) (quote (0 10 10 0)) (quote bpf) 0))) (setf (bpfcolor newbpf) (om-make-color 0 0 0)) (set-name newbpf nil) newbpf)))) (when newobj) newobj))) (when (member (quote ienv) (get-init-slots-of-class (quote fm-2)) :key (quote car)) (setf (slot-value rep (quote ienv)) (let ((newobj (when (find-class (quote bpf) nil) (let ((newbpf (simple-bpf-from-list (quote (0 33 66 100)) (quote (0 0 10 10)) (quote bpf) 0))) (setf (bpfcolor newbpf) (om-make-color 0 0 0)) (set-name newbpf nil) newbpf)))) (when newobj) newobj))) (setf (lcontrols rep) (list)) (setf (action-time rep) 0) (setf (data rep) (list (list 0 3 6 9 12 15 18 21 24 27 30 33 36) (list 3 3 3 3 3 3 3 3 3 3 3 3 3) (list -6.0 -6.0 -6.0 -6.0 -6.0 -6.0 -6.0 -6.0 -6.0 -6.0 -6.0 -6.0 -6.0) (list 100.0 100.0 100.0 100.0 100.0 100.0 100.0 100.0 100.0 100.0 100.0 100.0 100.0) (list 1000 1000 1000 1000 1000 1000 1000 1000 1000 1000 1000 1000 1000) (list 5 10 50 100 410 1000 1330 2000 2231 500 250 125 62.5) (list 4 4 4 4 4 4 4 4 4 4 4 4 4) (list 0 0 0 0 0 0 0 0 0 0 0 0 0) (list (let ((newobj (when (find-class (quote gen07) nil) (let ((newbpf (simple-bpf-from-list (quote (0 5 95 100)) (quote (0 10 10 0)) (quote gen07) 0))) (setf (bpfcolor newbpf) (om-make-color 0 0 0)) (set-name newbpf nil) newbpf)))) (when newobj (setf (stime newobj) 0) (setf (size newobj) 513) (setf (id newobj) "?")) newobj) (let ((newobj (when (find-class (quote gen07) nil) (let ((newbpf (simple-bpf-from-list (quote (0 5 95 100)) (quote (0 10 10 0)) (quote gen07) 0))) (setf (bpfcolor newbpf) (om-make-color 0 0 0)) (set-name newbpf nil) newbpf)))) (when newobj (setf (stime newobj) 0) (setf (size newobj) 513) (setf (id newobj) "?")) newobj) (let ((newobj (when (find-class (quote gen07) nil) (let ((newbpf (simple-bpf-from-list (quote (0 5 95 100)) (quote (0 10 10 0)) (quote gen07) 0))) (setf (bpfcolor newbpf) (om-make-color 0 0 0)) (set-name newbpf nil) newbpf)))) (when newobj (setf (stime newobj) 0) (setf (size newobj) 513) (setf (id newobj) "?")) newobj) (let ((newobj (when (find-class (quote gen07) nil) (let ((newbpf (simple-bpf-from-list (quote (0 5 95 100)) (quote (0 10 10 0)) (quote gen07) 0))) (setf (bpfcolor newbpf) (om-make-color 0 0 0)) (set-name newbpf nil) newbpf)))) (when newobj (setf (stime newobj) 0) (setf (size newobj) 513) (setf (id newobj) "?")) newobj) (let ((newobj (when (find-class (quote gen07) nil) (let ((newbpf (simple-bpf-from-list (quote (0 5 95 100)) (quote (0 10 10 0)) (quote gen07) 0))) (setf (bpfcolor newbpf) (om-make-color 0 0 0)) (set-name newbpf nil) newbpf)))) (when newobj (setf (stime newobj) 0) (setf (size newobj) 513) (setf (id newobj) "?")) newobj) (let ((newobj (when (find-class (quote gen07) nil) (let ((newbpf (simple-bpf-from-list (quote (0 5 95 100)) (quote (0 10 10 0)) (quote gen07) 0))) (setf (bpfcolor newbpf) (om-make-color 0 0 0)) (set-name newbpf nil) newbpf)))) (when newobj (setf (stime newobj) 0) (setf (size newobj) 513) (setf (id newobj) "?")) newobj) (let ((newobj (when (find-class (quote gen07) nil) (let ((newbpf (simple-bpf-from-list (quote (0 5 95 100)) (quote (0 10 10 0)) (quote gen07) 0))) (setf (bpfcolor newbpf) (om-make-color 0 0 0)) (set-name newbpf nil) newbpf)))) (when newobj (setf (stime newobj) 0) (setf (size newobj) 513) (setf (id newobj) "?")) newobj) (let ((newobj (when (find-class (quote gen07) nil) (let ((newbpf (simple-bpf-from-list (quote (0 5 95 100)) (quote (0 10 10 0)) (quote gen07) 0))) (setf (bpfcolor newbpf) (om-make-color 0 0 0)) (set-name newbpf nil) newbpf)))) (when newobj (setf (stime newobj) 0) (setf (size newobj) 513) (setf (id newobj) "?")) newobj) (let ((newobj (when (find-class (quote gen07) nil) (let ((newbpf (simple-bpf-from-list (quote (0 5 95 100)) (quote (0 10 10 0)) (quote gen07) 0))) (setf (bpfcolor newbpf) (om-make-color 0 0 0)) (set-name newbpf nil) newbpf)))) (when newobj (setf (stime newobj) 0) (setf (size newobj) 513) (setf (id newobj) "?")) newobj) (let ((newobj (when (find-class (quote gen07) nil) (let ((newbpf (simple-bpf-from-list (quote (0 5 95 100)) (quote (0 10 10 0)) (quote gen07) 0))) (setf (bpfcolor newbpf) (om-make-color 0 0 0)) (set-name newbpf nil) newbpf)))) (when newobj (setf (stime newobj) 0) (setf (size newobj) 513) (setf (id newobj) "?")) newobj) (let ((newobj (when (find-class (quote gen07) nil) (let ((newbpf (simple-bpf-from-list (quote (0 5 95 100)) (quote (0 10 10 0)) (quote gen07) 0))) (setf (bpfcolor newbpf) (om-make-color 0 0 0)) (set-name newbpf nil) newbpf)))) (when newobj (setf (stime newobj) 0) (setf (size newobj) 513) (setf (id newobj) "?")) newobj) (let ((newobj (when (find-class (quote gen07) nil) (let ((newbpf (simple-bpf-from-list (quote (0 5 95 100)) (quote (0 10 10 0)) (quote gen07) 0))) (setf (bpfcolor newbpf) (om-make-color 0 0 0)) (set-name newbpf nil) newbpf)))) (when newobj (setf (stime newobj) 0) (setf (size newobj) 513) (setf (id newobj) "?")) newobj) (let ((newobj (when (find-class (quote gen07) nil) (let ((newbpf (simple-bpf-from-list (quote (0 5 95 100)) (quote (0 10 10 0)) (quote gen07) 0))) (setf (bpfcolor newbpf) (om-make-color 0 0 0)) (set-name newbpf nil) newbpf)))) (when newobj (setf (stime newobj) 0) (setf (size newobj) 513) (setf (id newobj) "?")) newobj)) (list (let ((newobj (when (find-class (quote gen07) nil) (let ((newbpf (simple-bpf-from-list (quote (0 33 66 100)) (quote (0 0 10 10)) (quote gen07) 0))) (setf (bpfcolor newbpf) (om-make-color 0 0 0)) (set-name newbpf nil) newbpf)))) (when newobj (setf (stime newobj) 0) (setf (size newobj) 513) (setf (id newobj) "?")) newobj) (let ((newobj (when (find-class (quote gen07) nil) (let ((newbpf (simple-bpf-from-list (quote (0 33 66 100)) (quote (0 0 10 10)) (quote gen07) 0))) (setf (bpfcolor newbpf) (om-make-color 0 0 0)) (set-name newbpf nil) newbpf)))) (when newobj (setf (stime newobj) 0) (setf (size newobj) 513) (setf (id newobj) "?")) newobj) (let ((newobj (when (find-class (quote gen07) nil) (let ((newbpf (simple-bpf-from-list (quote (0 33 66 100)) (quote (0 0 10 10)) (quote gen07) 0))) (setf (bpfcolor newbpf) (om-make-color 0 0 0)) (set-name newbpf nil) newbpf)))) (when newobj (setf (stime newobj) 0) (setf (size newobj) 513) (setf (id newobj) "?")) newobj) (let ((newobj (when (find-class (quote gen07) nil) (let ((newbpf (simple-bpf-from-list (quote (0 33 66 100)) (quote (0 0 10 10)) (quote gen07) 0))) (setf (bpfcolor newbpf) (om-make-color 0 0 0)) (set-name newbpf nil) newbpf)))) (when newobj (setf (stime newobj) 0) (setf (size newobj) 513) (setf (id newobj) "?")) newobj) (let ((newobj (when (find-class (quote gen07) nil) (let ((newbpf (simple-bpf-from-list (quote (0 33 66 100)) (quote (0 0 10 10)) (quote gen07) 0))) (setf (bpfcolor newbpf) (om-make-color 0 0 0)) (set-name newbpf nil) newbpf)))) (when newobj (setf (stime newobj) 0) (setf (size newobj) 513) (setf (id newobj) "?")) newobj) (let ((newobj (when (find-class (quote gen07) nil) (let ((newbpf (simple-bpf-from-list (quote (0 33 66 100)) (quote (0 0 10 10)) (quote gen07) 0))) (setf (bpfcolor newbpf) (om-make-color 0 0 0)) (set-name newbpf nil) newbpf)))) (when newobj (setf (stime newobj) 0) (setf (size newobj) 513) (setf (id newobj) "?")) newobj) (let ((newobj (when (find-class (quote gen07) nil) (let ((newbpf (simple-bpf-from-list (quote (0 33 66 100)) (quote (0 0 10 10)) (quote gen07) 0))) (setf (bpfcolor newbpf) (om-make-color 0 0 0)) (set-name newbpf nil) newbpf)))) (when newobj (setf (stime newobj) 0) (setf (size newobj) 513) (setf (id newobj) "?")) newobj) (let ((newobj (when (find-class (quote gen07) nil) (let ((newbpf (simple-bpf-from-list (quote (0 33 66 100)) (quote (0 0 10 10)) (quote gen07) 0))) (setf (bpfcolor newbpf) (om-make-color 0 0 0)) (set-name newbpf nil) newbpf)))) (when newobj (setf (stime newobj) 0) (setf (size newobj) 513) (setf (id newobj) "?")) newobj) (let ((newobj (when (find-class (quote gen07) nil) (let ((newbpf (simple-bpf-from-list (quote (0 33 66 100)) (quote (0 0 10 10)) (quote gen07) 0))) (setf (bpfcolor newbpf) (om-make-color 0 0 0)) (set-name newbpf nil) newbpf)))) (when newobj (setf (stime newobj) 0) (setf (size newobj) 513) (setf (id newobj) "?")) newobj) (let ((newobj (when (find-class (quote gen07) nil) (let ((newbpf (simple-bpf-from-list (quote (0 33 66 100)) (quote (0 0 10 10)) (quote gen07) 0))) (setf (bpfcolor newbpf) (om-make-color 0 0 0)) (set-name newbpf nil) newbpf)))) (when newobj (setf (stime newobj) 0) (setf (size newobj) 513) (setf (id newobj) "?")) newobj) (let ((newobj (when (find-class (quote gen07) nil) (let ((newbpf (simple-bpf-from-list (quote (0 33 66 100)) (quote (0 0 10 10)) (quote gen07) 0))) (setf (bpfcolor newbpf) (om-make-color 0 0 0)) (set-name newbpf nil) newbpf)))) (when newobj (setf (stime newobj) 0) (setf (size newobj) 513) (setf (id newobj) "?")) newobj) (let ((newobj (when (find-class (quote gen07) nil) (let ((newbpf (simple-bpf-from-list (quote (0 33 66 100)) (quote (0 0 10 10)) (quote gen07) 0))) (setf (bpfcolor newbpf) (om-make-color 0 0 0)) (set-name newbpf nil) newbpf)))) (when newobj (setf (stime newobj) 0) (setf (size newobj) 513) (setf (id newobj) "?")) newobj) (let ((newobj (when (find-class (quote gen07) nil) (let ((newbpf (simple-bpf-from-list (quote (0 33 66 100)) (quote (0 0 10 10)) (quote gen07) 0))) (setf (bpfcolor newbpf) (om-make-color 0 0 0)) (set-name newbpf nil) newbpf)))) (when newobj (setf (stime newobj) 0) (setf (size newobj) 513) (setf (id newobj) "?")) newobj)))) rep)))) (put-precision rep (list 3)) rep) nil nil (pairlis (quote (panel-list cur-group-ind show-opt-fields color-list winsize winpos)) (list (list (list "All open" (list 0 (quote t)) (list 1 (quote t)) (list 2 (quote t)) (list 3 (quote t)) (list 4 (quote t)) (list 5 (quote t)) (list 6 (quote t)) (list 7 (quote t)) (list 8 (quote t)) (list 9 (quote t))) (list "All close" (list 0 nil) (list 1 nil) (list 2 nil) (list 3 nil) (list 4 nil) (list 5 nil) (list 6 nil) (list 7 nil) (list 8 nil) (list 9 nil))) 0 (quote t) (list (om-make-color 0 0 0) (om-make-color 0 0 0) (om-make-color 0 0 0) (om-make-color 0 0 0) (om-make-color 0 0 0) (om-make-color 0 0 0) (om-make-color 0 0 0) (om-make-color 0 0 0) (om-make-color 0 0 0) (om-make-color 0 0 0)) (om-make-point 500 280) (om-make-point 56 40))) nil nil nil nil) (om-load-boxcomment "comment 38" (om-make-point 48 34) (quote "fmod") "" (om-make-point 677 341) nil (om-make-color 1.0 0.0 0.0) (om-make-font "Verdana" 14.0 :family "Verdana" :style (quote (:bold)) :mode (quote nil))) (om-load-boxcomment "comment 37" (om-make-point 171 32) (quote "f0 NOT IN SERVICE$") "" (om-make-point 562 389) nil (om-make-color 1.0 0.0 0.0) (om-make-font "Verdana" 14.0 :family "Verdana" :style (quote (:bold)) :mode (quote nil))) (om-load-boxcall (quote bastype) "aux 18" (quote t) (quote nil) (om-make-point 557 367) (om-make-point 355 30) (list 5 10 50 100 410 1000 1330 2000 2231 500 250 125 62.5) "(5 10 50 100 410 1000 1330 2000 2231 500 250 125 62.5)" nil) (om-load-editor-box1 "FM-2_D.aiff" (quote sound) (quote ((om-load-inputfun (quote input-funbox) "object" "self" nil) (om-load-inputfun (quote input-funbox) "a track index for multichannel mixing" "tracknum" 1) (om-load-inputfun (quote input-funbox) "a list of markers (s)" "markers" nil))) (om-make-point 549 540) (om-make-point 262 61) (let ((newobj (let ((thesound (load-sound (om-make-pathname :directory (quote (:relative "out-files")) :device nil :host nil :name "FM-2_D" :type "aiff") 1))) (when thesound (setf (markers thesound) (quote nil))) thesound))) (load-port-info newobj (quote nil)) (init-mus-color newobj (quote nil)) (set-extra-pairs newobj (quote nil)) (set-patch-pairs newobj (quote nil)) (set-name newobj "FM-2_D.aiff") (set-tonalite newobj nil) newobj) nil nil (pairlis (quote (palette-mode scale show-stems obj-mode score-mode winpos winsize mode grillestep notechancolor? zoom player inport outport deltapict cmnpref staff fontsize approx)) (list 0 nil (quote t) 1 0 (om-make-point 400 22) (om-make-point 875 640) 0 1000 nil 1 (quote :libaudio) 0 nil (om-make-point 0 0) (let ((newobj (make-instance (quote edition-values)))) (setf (paper-size newobj) (om-make-point 600 800)) (setf (top-margin newobj) 2) (setf (left-margin newobj) 1) (setf (right-margin newobj) 1) (setf (bottom-margin newobj) 1) (setf (orientation newobj) nil) (setf (scale newobj) nil) (setf (system-space newobj) (quote (1))) (setf (system-color newobj) (quote nil)) (setf (line-space newobj) 1) (setf (title newobj) nil) (setf (show-title? newobj) nil) (setf (show-page? newobj) nil) (setf (sheet-id newobj) nil) (setf (page-mode newobj) nil) newobj) (quote g) 24 2)) t nil nil nil) (om-load-boxcall (quote bastype) "aux 13" (quote t) (quote nil) (om-make-point 657 434) (om-make-point 27 30) 4 "4" nil) (om-load-boxcall (quote bastype) "aux 7" (quote t) (quote nil) (om-make-point 704 435) (om-make-point 27 30) 0 "0" nil) (om-load-boxcall (quote bastype) "aux" (quote t) (quote nil) (om-make-point 523 367) (om-make-point 27 30) 3 "3" nil) (om-load-boxcomment "comment 36" (om-make-point 51 34) (quote "durs") "" (om-make-point 515 341) nil (om-make-color 1.0 0.0 0.0) (om-make-font "Verdana" 14.0 :family "Verdana" :style (quote (:bold)) :mode (quote nil))) (om-load-boxcall (quote abstraction) "C#ed 4" (om-load-patch-abs1 "C#ed" (quote ((om-load-boxout "output 2" 1 (om-make-point 127 369) (quote ((om-load-inputfun (quote input-funbox) "" "out" nil))) "edel" nil) (om-load-boxcall (quote lispfun) "LENGTH" (quote length) (quote ((om-load-inputfun (quote input-funbox) "SEQUENCE" "SEQUENCE" nil))) (om-make-point 45 326) nil nil nil nil 1) (om-load-boxin "length" 1 (om-make-point 111 12) "" "length" nil nil) (om-load-boxcall (quote genfun) "OM*" (quote om*) (quote ((om-load-inputfun (quote input-funbox) "number or list" "ARG1" 0) (om-load-inputfun (quote input-funbox) "number or list" "ARG2" 0))) (om-make-point 137 204) nil nil nil nil 1) (om-load-boxcall (quote bastype) "aux 2" (quote t) (quote nil) (om-make-point 159 94) (om-make-point 27 30) 1 "1" nil) (om-load-boxcall (quote genfun) "OM-" (quote om-) (quote ((om-load-inputfun (quote input-funbox) "number or list" "ARG1" 0) (om-load-inputfun (quote input-funbox) "number or list" "ARG2" 0))) (om-make-point 136 144) nil nil nil nil 1) (om-load-boxcall (quote lispfun) "LENGTH" (quote length) (quote ((om-load-inputfun (quote input-funbox) "SEQUENCE" "SEQUENCE" nil))) (om-make-point 109 80) nil nil nil nil 1) (om-load-boxin "durs" 0 (om-make-point 200 139) "" "durs" nil nil) (om-load-boxout "output" 0 (om-make-point 43 374) (quote ((om-load-inputfun (quote input-funbox) "" "out" nil))) "length" nil) (om-load-boxcall (quote bastype) "aux" (quote t) (quote nil) (om-make-point 103 222) (om-make-point 27 30) 0 "0" nil) (om-load-boxcall (quote genfun) "ARITHM-SER" (quote arithm-ser) (quote ((om-load-inputfun (quote input-funbox) "begin" "BEGIN" 0) (om-load-inputfun (quote input-funbox) "end " "END" 10) (om-load-inputfun (quote input-funbox) "step" "STEP" 1))) (om-make-point 111 265) nil nil nil nil 1))) (quote ((10 0 0 0 nil 0) (10 0 1 0 nil 0) (5 0 3 0 nil 0) (7 0 3 1 nil 0) (6 0 5 0 nil 0) (4 0 5 1 nil 0) (2 0 6 0 nil 0) (1 0 8 0 nil 0) (9 0 10 0 nil 0) (3 0 10 1 nil 0) (7 0 10 2 nil 0))) 6.0602 nil "" (om-make-point 200 200) (om-make-point 500 400)) (quote ((om-load-inputfun (quote input-funbox) "" "durs" nil) (om-load-inputfun (quote input-funbox) "" "length" nil))) (om-make-point 516 398) nil nil nil "C#ed") (om-load-editor-box1 "BPF 9" (quote bpf) (quote ((om-load-inputfun (quote input-funbox) "object" "self" nil) (om-load-inputfun (quote input-funbox) "X coordinates (list)" "x-points" (list 0 100)) (om-load-inputfun (quote input-funbox) "Y coordinates (list)" "y-points" (list 0 100)) (om-load-inputfun (quote input-funbox) "precision (integer) [0 - 10]" "decimals" 0))) (om-make-point 738 427) (om-make-point 43 42) (let ((newobj (when (find-class (quote bpf) nil) (let ((newbpf (simple-bpf-from-list (quote (0 5 95 100)) (quote (0 10 10 0)) (quote bpf) 0))) (setf (bpfcolor newbpf) (om-make-color 0 0 0)) (set-name newbpf nil) newbpf)))) (when newobj) newobj) "x" nil (pairlis (quote (winsize winpos picture)) (list (om-make-point 335 275) (om-make-point 10 40) nil)) t nil nil nil) (om-load-boxcomment "comment 35" (om-make-point 54 34) (quote "imin") "" (om-make-point 695 407) nil (om-make-color 1.0 0.0 0.0) (om-make-font "Verdana" 14.0 :family "Verdana" :style (quote (:bold)) :mode (quote nil))) (om-load-boxcomment "comment 34" (om-make-point 51 34) (quote "imax") "" (om-make-point 646 407) nil (om-make-color 1.0 0.0 0.0) (om-make-font "Verdana" 14.0 :family "Verdana" :style (quote (:bold)) :mode (quote nil))) (om-load-editor-box1 "BPF 6" (quote bpf) (quote ((om-load-inputfun (quote input-funbox) "object" "self" nil) (om-load-inputfun (quote input-funbox) "X coordinates (list)" "x-points" (list 0 100)) (om-load-inputfun (quote input-funbox) "Y coordinates (list)" "y-points" (list 0 100)) (om-load-inputfun (quote input-funbox) "precision (integer) [0 - 10]" "decimals" 0))) (om-make-point 786 427) (om-make-point 43 42) (let ((newobj (when (find-class (quote bpf) nil) (let ((newbpf (simple-bpf-from-list (quote (0 33 66 100)) (quote (0 0 10 10)) (quote bpf) 0))) (setf (bpfcolor newbpf) (om-make-color 0 0 0)) (set-name newbpf nil) newbpf)))) (when newobj) newobj) "x" nil (pairlis (quote (winsize winpos picture)) (list (om-make-point 335 275) (om-make-point 10 40) nil)) t nil nil nil) (om-load-boxcomment "comment 33" (om-make-point 53 34) (quote "aenv") "" (om-make-point 735 406) nil (om-make-color 1.0 0.0 0.0) (om-make-font "Verdana" 14.0 :family "Verdana" :style (quote (:bold)) :mode (quote nil))) (om-load-boxcomment "comment 32" (om-make-point 44 88) (quote "D") "" (om-make-point 481 390) nil (om-make-color 1.0 0.0 0.011788845) (om-make-font "Verdana" 36.0 :family "Verdana" :style (quote (:bold)) :mode (quote nil))) (om-load-boxcall (quote abstraction) "Synt 2" (om-load-patch-abs1 "Synt" (quote ((om-load-boxcall (quote bastype) "aux" (quote t) (quote nil) (om-make-point 96 100) (om-make-point 72 30) "FM-2_D" "\"FM-2_D\"" nil) (om-load-boxin "OMCh" 0 (om-make-point 31 69) "" "OMCh" nil nil) (om-load-boxout "output" 0 (om-make-point 55 205) (quote ((om-load-inputfun (quote input-funbox) "" "out" nil))) nil nil) (om-load-boxcall (quote genfun) "SYNTHESIZE" (quote synthesize) (quote ((om-load-inputfun (quote input-funbox) "something to synthesize..." "ELEMENTS" nil) (om-load-inputkeyword (quote input-keyword) "" "name" (quote :name) nil nil))) (om-make-point 45 143) nil nil nil nil 1))) (quote ((3 0 2 0 nil 0) (1 0 3 0 nil 0) (0 0 3 1 nil 0))) 6.0602 nil "" (om-make-point 200 200) (om-make-point 500 400)) (quote ((om-load-inputfun (quote input-funbox) "" "fm-1" nil))) (om-make-point 493 538) (om-make-point 51 67) nil nil "Synt") (om-load-boxcomment "comment 12" (om-make-point 49 34) (quote "ienv") "" (om-make-point 784 407) nil (om-make-color 1.0 0.0 0.0) (om-make-font "Verdana" 14.0 :family "Verdana" :style (quote (:bold)) :mode (quote nil))) (om-load-editor-box1 "FM-2 3" (quote fm-2) (quote ((om-load-inputfun (quote input-funbox) "Synthesis event" "self" nil) (om-load-inputfun (quote input-funbox) "Number of components [int]" "numcols" 1) (om-load-inputfun (quote input-funbox) "Event offset [s]" "action-time" 0) (om-load-inputfun (quote input-funbox) "A lambda function applied to each component" "user-fun" nil) (om-load-inputkeyword (quote editor-keyword) "" "e-dels" (quote :e-dels) nil nil) (om-load-inputkeyword (quote editor-keyword) "" "durs" (quote :durs) nil nil) (om-load-inputkeyword (quote editor-keyword) "" "amp" (quote :amp) nil nil) (om-load-inputkeyword (quote editor-keyword) "" "f0" (quote :f0) nil nil) (om-load-inputkeyword (quote editor-keyword) "" "freq" (quote :freq) nil nil) (om-load-inputkeyword (quote editor-keyword) "" "fmod" (quote :fmod) nil nil) (om-load-inputkeyword (quote editor-keyword) "" "imax" (quote :imax) nil nil) (om-load-inputkeyword (quote editor-keyword) "" "imin" (quote :imin) nil nil) (om-load-inputkeyword (quote editor-keyword) "" "aenv" (quote :aenv) nil nil) (om-load-inputkeyword (quote editor-keyword) "" "ienv" (quote :ienv) nil nil))) (om-make-point 81 482) (om-make-point 303 53) (let ((rep (if (find-class (quote fm-2) nil) (let ((rep (make-instance (quote fm-2) :numcols 10))) (when (member (quote e-dels) (get-init-slots-of-class (quote fm-2)) :key (quote car)) (setf (slot-value rep (quote e-dels)) (list 0 3 6 9 12 15 18 21 24 27))) (when (member (quote durs) (get-init-slots-of-class (quote fm-2)) :key (quote car)) (setf (slot-value rep (quote durs)) 3)) (when (member (quote amp) (get-init-slots-of-class (quote fm-2)) :key (quote car)) (setf (slot-value rep (quote amp)) -6.0)) (when (member (quote f0) (get-init-slots-of-class (quote fm-2)) :key (quote car)) (setf (slot-value rep (quote f0)) 100.0)) (when (member (quote freq) (get-init-slots-of-class (quote fm-2)) :key (quote car)) (setf (slot-value rep (quote freq)) 500.0)) (when (member (quote fmod) (get-init-slots-of-class (quote fm-2)) :key (quote car)) (setf (slot-value rep (quote fmod)) 10)) (when (member (quote imax) (get-init-slots-of-class (quote fm-2)) :key (quote car)) (setf (slot-value rep (quote imax)) 4)) (when (member (quote imin) (get-init-slots-of-class (quote fm-2)) :key (quote car)) (setf (slot-value rep (quote imin)) 0)) (when (member (quote aenv) (get-init-slots-of-class (quote fm-2)) :key (quote car)) (setf (slot-value rep (quote aenv)) (let ((newobj (when (find-class (quote bpf) nil) (let ((newbpf (simple-bpf-from-list (quote (0 5 95 100)) (quote (0 10 10 0)) (quote bpf) 0))) (setf (bpfcolor newbpf) (om-make-color 0 0 0)) (set-name newbpf nil) newbpf)))) (when newobj) newobj))) (when (member (quote ienv) (get-init-slots-of-class (quote fm-2)) :key (quote car)) (setf (slot-value rep (quote ienv)) (let ((newobj (when (find-class (quote bpf) nil) (let ((newbpf (simple-bpf-from-list (quote (0 33 66 100)) (quote (0 0 10 10)) (quote bpf) 0))) (setf (bpfcolor newbpf) (om-make-color 0 0 0)) (set-name newbpf nil) newbpf)))) (when newobj) newobj))) (setf (lcontrols rep) (list)) (setf (action-time rep) 0) (setf (data rep) (list (list 0 3 6 9 12 15 18 21 24 27) (list 3 3 3 3 3 3 3 3 3 3) (list -6.0 -6.0 -6.0 -6.0 -6.0 -6.0 -6.0 -6.0 -6.0 -6.0) (list 100.0 100.0 100.0 100.0 100.0 100.0 100.0 100.0 100.0 100.0) (list 500.0 500.0 500.0 500.0 500.0 500.0 500.0 500.0 500.0 500.0) (list 10 10 10 10 10 10 10 10 10 10) (list 4 4 4 4 4 4 4 4 4 4) (list 0 0 0 0 0 0 0 0 0 0) (list (let ((newobj (when (find-class (quote gen07) nil) (let ((newbpf (simple-bpf-from-list (quote (0 5 95 100)) (quote (0 10 10 0)) (quote gen07) 0))) (setf (bpfcolor newbpf) (om-make-color 0 0 0)) (set-name newbpf nil) newbpf)))) (when newobj (setf (stime newobj) 0) (setf (size newobj) 513) (setf (id newobj) "?")) newobj) (let ((newobj (when (find-class (quote gen07) nil) (let ((newbpf (simple-bpf-from-list (quote (0 5 95 100)) (quote (0 10 10 0)) (quote gen07) 0))) (setf (bpfcolor newbpf) (om-make-color 0 0 0)) (set-name newbpf nil) newbpf)))) (when newobj (setf (stime newobj) 0) (setf (size newobj) 513) (setf (id newobj) "?")) newobj) (let ((newobj (when (find-class (quote gen07) nil) (let ((newbpf (simple-bpf-from-list (quote (0 5 95 100)) (quote (0 10 10 0)) (quote gen07) 0))) (setf (bpfcolor newbpf) (om-make-color 0 0 0)) (set-name newbpf nil) newbpf)))) (when newobj (setf (stime newobj) 0) (setf (size newobj) 513) (setf (id newobj) "?")) newobj) (let ((newobj (when (find-class (quote gen07) nil) (let ((newbpf (simple-bpf-from-list (quote (0 5 95 100)) (quote (0 10 10 0)) (quote gen07) 0))) (setf (bpfcolor newbpf) (om-make-color 0 0 0)) (set-name newbpf nil) newbpf)))) (when newobj (setf (stime newobj) 0) (setf (size newobj) 513) (setf (id newobj) "?")) newobj) (let ((newobj (when (find-class (quote gen07) nil) (let ((newbpf (simple-bpf-from-list (quote (0 5 95 100)) (quote (0 10 10 0)) (quote gen07) 0))) (setf (bpfcolor newbpf) (om-make-color 0 0 0)) (set-name newbpf nil) newbpf)))) (when newobj (setf (stime newobj) 0) (setf (size newobj) 513) (setf (id newobj) "?")) newobj) (let ((newobj (when (find-class (quote gen07) nil) (let ((newbpf (simple-bpf-from-list (quote (0 5 95 100)) (quote (0 10 10 0)) (quote gen07) 0))) (setf (bpfcolor newbpf) (om-make-color 0 0 0)) (set-name newbpf nil) newbpf)))) (when newobj (setf (stime newobj) 0) (setf (size newobj) 513) (setf (id newobj) "?")) newobj) (let ((newobj (when (find-class (quote gen07) nil) (let ((newbpf (simple-bpf-from-list (quote (0 5 95 100)) (quote (0 10 10 0)) (quote gen07) 0))) (setf (bpfcolor newbpf) (om-make-color 0 0 0)) (set-name newbpf nil) newbpf)))) (when newobj (setf (stime newobj) 0) (setf (size newobj) 513) (setf (id newobj) "?")) newobj) (let ((newobj (when (find-class (quote gen07) nil) (let ((newbpf (simple-bpf-from-list (quote (0 5 95 100)) (quote (0 10 10 0)) (quote gen07) 0))) (setf (bpfcolor newbpf) (om-make-color 0 0 0)) (set-name newbpf nil) newbpf)))) (when newobj (setf (stime newobj) 0) (setf (size newobj) 513) (setf (id newobj) "?")) newobj) (let ((newobj (when (find-class (quote gen07) nil) (let ((newbpf (simple-bpf-from-list (quote (0 5 95 100)) (quote (0 10 10 0)) (quote gen07) 0))) (setf (bpfcolor newbpf) (om-make-color 0 0 0)) (set-name newbpf nil) newbpf)))) (when newobj (setf (stime newobj) 0) (setf (size newobj) 513) (setf (id newobj) "?")) newobj) (let ((newobj (when (find-class (quote gen07) nil) (let ((newbpf (simple-bpf-from-list (quote (0 5 95 100)) (quote (0 10 10 0)) (quote gen07) 0))) (setf (bpfcolor newbpf) (om-make-color 0 0 0)) (set-name newbpf nil) newbpf)))) (when newobj (setf (stime newobj) 0) (setf (size newobj) 513) (setf (id newobj) "?")) newobj)) (list (let ((newobj (when (find-class (quote gen07) nil) (let ((newbpf (simple-bpf-from-list (quote (0 33 66 100)) (quote (0 0 10 10)) (quote gen07) 0))) (setf (bpfcolor newbpf) (om-make-color 0 0 0)) (set-name newbpf nil) newbpf)))) (when newobj (setf (stime newobj) 0) (setf (size newobj) 513) (setf (id newobj) "?")) newobj) (let ((newobj (when (find-class (quote gen07) nil) (let ((newbpf (simple-bpf-from-list (quote (0 33 66 100)) (quote (0 0 10 10)) (quote gen07) 0))) (setf (bpfcolor newbpf) (om-make-color 0 0 0)) (set-name newbpf nil) newbpf)))) (when newobj (setf (stime newobj) 0) (setf (size newobj) 513) (setf (id newobj) "?")) newobj) (let ((newobj (when (find-class (quote gen07) nil) (let ((newbpf (simple-bpf-from-list (quote (0 33 66 100)) (quote (0 0 10 10)) (quote gen07) 0))) (setf (bpfcolor newbpf) (om-make-color 0 0 0)) (set-name newbpf nil) newbpf)))) (when newobj (setf (stime newobj) 0) (setf (size newobj) 513) (setf (id newobj) "?")) newobj) (let ((newobj (when (find-class (quote gen07) nil) (let ((newbpf (simple-bpf-from-list (quote (0 33 66 100)) (quote (0 0 10 10)) (quote gen07) 0))) (setf (bpfcolor newbpf) (om-make-color 0 0 0)) (set-name newbpf nil) newbpf)))) (when newobj (setf (stime newobj) 0) (setf (size newobj) 513) (setf (id newobj) "?")) newobj) (let ((newobj (when (find-class (quote gen07) nil) (let ((newbpf (simple-bpf-from-list (quote (0 33 66 100)) (quote (0 0 10 10)) (quote gen07) 0))) (setf (bpfcolor newbpf) (om-make-color 0 0 0)) (set-name newbpf nil) newbpf)))) (when newobj (setf (stime newobj) 0) (setf (size newobj) 513) (setf (id newobj) "?")) newobj) (let ((newobj (when (find-class (quote gen07) nil) (let ((newbpf (simple-bpf-from-list (quote (0 33 66 100)) (quote (0 0 10 10)) (quote gen07) 0))) (setf (bpfcolor newbpf) (om-make-color 0 0 0)) (set-name newbpf nil) newbpf)))) (when newobj (setf (stime newobj) 0) (setf (size newobj) 513) (setf (id newobj) "?")) newobj) (let ((newobj (when (find-class (quote gen07) nil) (let ((newbpf (simple-bpf-from-list (quote (0 33 66 100)) (quote (0 0 10 10)) (quote gen07) 0))) (setf (bpfcolor newbpf) (om-make-color 0 0 0)) (set-name newbpf nil) newbpf)))) (when newobj (setf (stime newobj) 0) (setf (size newobj) 513) (setf (id newobj) "?")) newobj) (let ((newobj (when (find-class (quote gen07) nil) (let ((newbpf (simple-bpf-from-list (quote (0 33 66 100)) (quote (0 0 10 10)) (quote gen07) 0))) (setf (bpfcolor newbpf) (om-make-color 0 0 0)) (set-name newbpf nil) newbpf)))) (when newobj (setf (stime newobj) 0) (setf (size newobj) 513) (setf (id newobj) "?")) newobj) (let ((newobj (when (find-class (quote gen07) nil) (let ((newbpf (simple-bpf-from-list (quote (0 33 66 100)) (quote (0 0 10 10)) (quote gen07) 0))) (setf (bpfcolor newbpf) (om-make-color 0 0 0)) (set-name newbpf nil) newbpf)))) (when newobj (setf (stime newobj) 0) (setf (size newobj) 513) (setf (id newobj) "?")) newobj) (let ((newobj (when (find-class (quote gen07) nil) (let ((newbpf (simple-bpf-from-list (quote (0 33 66 100)) (quote (0 0 10 10)) (quote gen07) 0))) (setf (bpfcolor newbpf) (om-make-color 0 0 0)) (set-name newbpf nil) newbpf)))) (when newobj (setf (stime newobj) 0) (setf (size newobj) 513) (setf (id newobj) "?")) newobj)))) rep)))) (put-precision rep (list 3)) rep) nil nil (pairlis (quote (panel-list cur-group-ind show-opt-fields color-list winsize winpos)) (list (list (list "All open" (list 0 (quote t)) (list 1 (quote t)) (list 2 (quote t)) (list 3 (quote t)) (list 4 (quote t)) (list 5 (quote t)) (list 6 (quote t)) (list 7 (quote t)) (list 8 (quote t)) (list 9 (quote t))) (list "All close" (list 0 nil) (list 1 nil) (list 2 nil) (list 3 nil) (list 4 nil) (list 5 nil) (list 6 nil) (list 7 nil) (list 8 nil) (list 9 nil))) 0 (quote t) (list (om-make-color 0 0 0) (om-make-color 0 0 0) (om-make-color 0 0 0) (om-make-color 0 0 0) (om-make-color 0 0 0) (om-make-color 0 0 0) (om-make-color 0 0 0) (om-make-color 0 0 0) (om-make-color 0 0 0) (om-make-color 0 0 0)) (om-make-point 500 280) (om-make-point 56 40))) nil nil nil nil) (om-load-boxcomment "comment 29" (om-make-point 171 32) (quote "f0 NOT IN SERVICE$") "" (om-make-point 131 396) nil (om-make-color 1.0 0.0 0.0) (om-make-font "Verdana" 14.0 :family "Verdana" :style (quote (:bold)) :mode (quote nil))) (om-load-boxcomment "comment 2" (om-make-point 172 32) (quote "f0 NOT IN SERVICE$") "" (om-make-point 87 95) nil (om-make-color 1.0 0.0 0.0) (om-make-font "Verdana" 14.0 :family "Verdana" :style (quote (:bold)) :mode (quote nil))) (om-load-boxcall (quote abstraction) "Synt 6" (om-load-patch-abs1 "Synt" (quote ((om-load-boxcall (quote bastype) "aux" (quote t) (quote nil) (om-make-point 91 100) (om-make-point 79 30) "FM-2_B1" "\"FM-2_B1\"" nil) (om-load-boxin "OMCh" 0 (om-make-point 31 69) "" "OMCh" nil nil) (om-load-boxout "output" 0 (om-make-point 55 205) (quote ((om-load-inputfun (quote input-funbox) "" "out" nil))) nil nil) (om-load-boxcall (quote genfun) "SYNTHESIZE" (quote synthesize) (quote ((om-load-inputfun (quote input-funbox) "something to synthesize..." "ELEMENTS" nil) (om-load-inputkeyword (quote input-keyword) "" "name" (quote :name) nil nil))) (om-make-point 45 143) nil nil nil nil 1))) (quote ((3 0 2 0 nil 0) (1 0 3 0 nil 0) (0 0 3 1 nil 0))) 6.0602 nil "" (om-make-point 200 200) (om-make-point 500 400)) (quote ((om-load-inputfun (quote input-funbox) "" "fm-1" nil))) (om-make-point 476 233) (om-make-point 51 67) nil nil "Synt") (om-load-editor-box1 "FM-2_B1.aiff" (quote sound) (quote ((om-load-inputfun (quote input-funbox) "object" "self" nil) (om-load-inputfun (quote input-funbox) "a track index for multichannel mixing" "tracknum" 1) (om-load-inputfun (quote input-funbox) "a list of markers (s)" "markers" nil))) (om-make-point 544 240) (om-make-point 129 60) (let ((newobj (let ((thesound (load-sound (om-make-pathname :directory (quote (:relative "out-files")) :device nil :host nil :name "FM-2_B1" :type "aiff") 1))) (when thesound (setf (markers thesound) (quote nil))) thesound))) (load-port-info newobj (quote nil)) (init-mus-color newobj (quote nil)) (set-extra-pairs newobj (quote nil)) (set-patch-pairs newobj (quote nil)) (set-name newobj "FM-2_B1.aiff") (set-tonalite newobj nil) newobj) nil nil (pairlis (quote (palette-mode scale show-stems obj-mode score-mode winpos winsize mode grillestep notechancolor? zoom player inport outport deltapict cmnpref staff fontsize approx)) (list 0 nil (quote t) 1 0 (om-make-point 400 22) (om-make-point 875 640) 0 1000 nil 1 (quote :libaudio) 0 nil (om-make-point 0 0) (let ((newobj (make-instance (quote edition-values)))) (setf (paper-size newobj) (om-make-point 600 800)) (setf (top-margin newobj) 2) (setf (left-margin newobj) 1) (setf (right-margin newobj) 1) (setf (bottom-margin newobj) 1) (setf (orientation newobj) nil) (setf (scale newobj) nil) (setf (system-space newobj) (quote (1))) (setf (system-color newobj) (quote nil)) (setf (line-space newobj) 1) (setf (title newobj) nil) (setf (show-title? newobj) nil) (setf (show-page? newobj) nil) (setf (sheet-id newobj) nil) (setf (page-mode newobj) nil) newobj) (quote g) 24 2)) t nil nil nil) (om-load-editor-box1 "FM-2_B2.aiff" (quote sound) (quote ((om-load-inputfun (quote input-funbox) "object" "self" nil) (om-load-inputfun (quote input-funbox) "a track index for multichannel mixing" "tracknum" 1) (om-load-inputfun (quote input-funbox) "a list of markers (s)" "markers" nil))) (om-make-point 746 238) (om-make-point 130 60) (let ((newobj (let ((thesound (load-sound (om-make-pathname :directory (quote (:relative "out-files")) :device nil :host nil :name "FM-2_B2" :type "aiff") 1))) (when thesound (setf (markers thesound) (quote nil))) thesound))) (load-port-info newobj (quote nil)) (init-mus-color newobj (quote nil)) (set-extra-pairs newobj (quote nil)) (set-patch-pairs newobj (quote nil)) (set-name newobj "FM-2_B2.aiff") (set-tonalite newobj nil) newobj) nil nil (pairlis (quote (palette-mode scale show-stems obj-mode score-mode winpos winsize mode grillestep notechancolor? zoom player inport outport deltapict cmnpref staff fontsize approx)) (list 0 nil (quote t) 1 0 (om-make-point 400 22) (om-make-point 875 640) 0 1000 nil 1 (quote :libaudio) 0 nil (om-make-point 0 0) (let ((newobj (make-instance (quote edition-values)))) (setf (paper-size newobj) (om-make-point 600 800)) (setf (top-margin newobj) 2) (setf (left-margin newobj) 1) (setf (right-margin newobj) 1) (setf (bottom-margin newobj) 1) (setf (orientation newobj) nil) (setf (scale newobj) nil) (setf (system-space newobj) (quote (1))) (setf (system-color newobj) (quote nil)) (setf (line-space newobj) 1) (setf (title newobj) nil) (setf (show-title? newobj) nil) (setf (show-page? newobj) nil) (setf (sheet-id newobj) nil) (setf (page-mode newobj) nil) newobj) (quote g) 24 2)) t nil nil nil) (om-load-boxcall (quote abstraction) "Synt" (om-load-patch-abs1 "Synt" (quote ((om-load-boxcall (quote bastype) "aux" (quote t) (quote nil) (om-make-point 91 100) (om-make-point 79 30) "FM-2_B2" "\"FM-2_B2\"" nil) (om-load-boxin "OMCh" 0 (om-make-point 31 69) "" "OMCh" nil nil) (om-load-boxout "output" 0 (om-make-point 55 205) (quote ((om-load-inputfun (quote input-funbox) "" "out" nil))) nil nil) (om-load-boxcall (quote genfun) "SYNTHESIZE" (quote synthesize) (quote ((om-load-inputfun (quote input-funbox) "something to synthesize..." "ELEMENTS" nil) (om-load-inputkeyword (quote input-keyword) "" "name" (quote :name) nil nil))) (om-make-point 45 143) nil nil nil nil 1))) (quote ((3 0 2 0 nil 0) (1 0 3 0 nil 0) (0 0 3 1 nil 0))) 6.0602 nil "" (om-make-point 200 200) (om-make-point 500 400)) (quote ((om-load-inputfun (quote input-funbox) "" "fm-1" nil))) (om-make-point 682 233) (om-make-point 51 67) nil nil "Synt") (om-load-boxcomment "comment 28" (om-make-point 171 51) (quote "f0 NOT IN SERVICE$") "" (om-make-point 536 90) nil (om-make-color 1.0 0.0 0.0) (om-make-font "Verdana" 14.0 :family "Verdana" :style (quote (:bold)) :mode (quote nil))) (om-load-editor-box1 "FM-2 2" (quote fm-2) (quote ((om-load-inputfun (quote input-funbox) "Synthesis event" "self" nil) (om-load-inputfun (quote input-funbox) "Number of components [int]" "numcols" 1) (om-load-inputfun (quote input-funbox) "Event offset [s]" "action-time" 0) (om-load-inputfun (quote input-funbox) "A lambda function applied to each component" "user-fun" nil) (om-load-inputkeyword (quote editor-keyword) "" "e-dels" (quote :e-dels) nil nil) (om-load-inputkeyword (quote editor-keyword) "" "durs" (quote :durs) nil nil) (om-load-inputkeyword (quote editor-keyword) "" "amp" (quote :amp) nil nil) (om-load-inputkeyword (quote editor-keyword) "" "f0" (quote :f0) nil nil) (om-load-inputkeyword (quote editor-keyword) "" "freq" (quote :freq) nil nil) (om-load-inputkeyword (quote editor-keyword) "" "fmod" (quote :fmod) nil nil) (om-load-inputkeyword (quote editor-keyword) "" "imax" (quote :imax) nil nil) (om-load-inputkeyword (quote editor-keyword) "" "imin" (quote :imin) nil nil) (om-load-inputkeyword (quote editor-keyword) "" "aenv" (quote :aenv) nil nil) (om-load-inputkeyword (quote editor-keyword) "" "ienv" (quote :ienv) nil nil))) (om-make-point 476 171) (om-make-point 303 53) (let ((rep (if (find-class (quote fm-2) nil) (let ((rep (make-instance (quote fm-2) :numcols 8))) (when (member (quote e-dels) (get-init-slots-of-class (quote fm-2)) :key (quote car)) (setf (slot-value rep (quote e-dels)) (list 0 3 6 9 12 15 18 21))) (when (member (quote durs) (get-init-slots-of-class (quote fm-2)) :key (quote car)) (setf (slot-value rep (quote durs)) 3)) (when (member (quote amp) (get-init-slots-of-class (quote fm-2)) :key (quote car)) (setf (slot-value rep (quote amp)) -6.0)) (when (member (quote f0) (get-init-slots-of-class (quote fm-2)) :key (quote car)) (setf (slot-value rep (quote f0)) 0)) (when (member (quote freq) (get-init-slots-of-class (quote fm-2)) :key (quote car)) (setf (slot-value rep (quote freq)) 500.0)) (when (member (quote fmod) (get-init-slots-of-class (quote fm-2)) :key (quote car)) (setf (slot-value rep (quote fmod)) 1000)) (when (member (quote imax) (get-init-slots-of-class (quote fm-2)) :key (quote car)) (setf (slot-value rep (quote imax)) 0)) (when (member (quote imin) (get-init-slots-of-class (quote fm-2)) :key (quote car)) (setf (slot-value rep (quote imin)) (list 0 0.5 1 2 4 8 16 32))) (when (member (quote aenv) (get-init-slots-of-class (quote fm-2)) :key (quote car)) (setf (slot-value rep (quote aenv)) (let ((newobj (when (find-class (quote bpf) nil) (let ((newbpf (simple-bpf-from-list (quote (0 5 95 100)) (quote (0 10 10 0)) (quote bpf) 0))) (setf (bpfcolor newbpf) (om-make-color 0 0 0)) (set-name newbpf nil) newbpf)))) (when newobj) newobj))) (when (member (quote ienv) (get-init-slots-of-class (quote fm-2)) :key (quote car)) (setf (slot-value rep (quote ienv)) (let ((newobj (when (find-class (quote bpf) nil) (let ((newbpf (simple-bpf-from-list (quote (0 33 66 100)) (quote (10 10 0 0)) (quote bpf) 0))) (setf (bpfcolor newbpf) (om-make-color 0 0 0)) (set-name newbpf nil) newbpf)))) (when newobj) newobj))) (setf (lcontrols rep) (list)) (setf (action-time rep) 0) (setf (data rep) (list (list 0 3 6 9 12 15 18 21) (list 3 3 3 3 3 3 3 3) (list -6.0 -6.0 -6.0 -6.0 -6.0 -6.0 -6.0 -6.0) (list 0 0 0 0 0 0 0 0) (list 500.0 500.0 500.0 500.0 500.0 500.0 500.0 500.0) (list 1000 1000 1000 1000 1000 1000 1000 1000) (list 0 0 0 0 0 0 0 0) (list 0 0.5 1 2 4 8 16 32) (list (let ((newobj (when (find-class (quote gen07) nil) (let ((newbpf (simple-bpf-from-list (quote (0 5 95 100)) (quote (0 10 10 0)) (quote gen07) 0))) (setf (bpfcolor newbpf) (om-make-color 0 0 0)) (set-name newbpf nil) newbpf)))) (when newobj (setf (stime newobj) 0) (setf (size newobj) 513) (setf (id newobj) "?")) newobj) (let ((newobj (when (find-class (quote gen07) nil) (let ((newbpf (simple-bpf-from-list (quote (0 5 95 100)) (quote (0 10 10 0)) (quote gen07) 0))) (setf (bpfcolor newbpf) (om-make-color 0 0 0)) (set-name newbpf nil) newbpf)))) (when newobj (setf (stime newobj) 0) (setf (size newobj) 513) (setf (id newobj) "?")) newobj) (let ((newobj (when (find-class (quote gen07) nil) (let ((newbpf (simple-bpf-from-list (quote (0 5 95 100)) (quote (0 10 10 0)) (quote gen07) 0))) (setf (bpfcolor newbpf) (om-make-color 0 0 0)) (set-name newbpf nil) newbpf)))) (when newobj (setf (stime newobj) 0) (setf (size newobj) 513) (setf (id newobj) "?")) newobj) (let ((newobj (when (find-class (quote gen07) nil) (let ((newbpf (simple-bpf-from-list (quote (0 5 95 100)) (quote (0 10 10 0)) (quote gen07) 0))) (setf (bpfcolor newbpf) (om-make-color 0 0 0)) (set-name newbpf nil) newbpf)))) (when newobj (setf (stime newobj) 0) (setf (size newobj) 513) (setf (id newobj) "?")) newobj) (let ((newobj (when (find-class (quote gen07) nil) (let ((newbpf (simple-bpf-from-list (quote (0 5 95 100)) (quote (0 10 10 0)) (quote gen07) 0))) (setf (bpfcolor newbpf) (om-make-color 0 0 0)) (set-name newbpf nil) newbpf)))) (when newobj (setf (stime newobj) 0) (setf (size newobj) 513) (setf (id newobj) "?")) newobj) (let ((newobj (when (find-class (quote gen07) nil) (let ((newbpf (simple-bpf-from-list (quote (0 5 95 100)) (quote (0 10 10 0)) (quote gen07) 0))) (setf (bpfcolor newbpf) (om-make-color 0 0 0)) (set-name newbpf nil) newbpf)))) (when newobj (setf (stime newobj) 0) (setf (size newobj) 513) (setf (id newobj) "?")) newobj) (let ((newobj (when (find-class (quote gen07) nil) (let ((newbpf (simple-bpf-from-list (quote (0 5 95 100)) (quote (0 10 10 0)) (quote gen07) 0))) (setf (bpfcolor newbpf) (om-make-color 0 0 0)) (set-name newbpf nil) newbpf)))) (when newobj (setf (stime newobj) 0) (setf (size newobj) 513) (setf (id newobj) "?")) newobj) (let ((newobj (when (find-class (quote gen07) nil) (let ((newbpf (simple-bpf-from-list (quote (0 5 95 100)) (quote (0 10 10 0)) (quote gen07) 0))) (setf (bpfcolor newbpf) (om-make-color 0 0 0)) (set-name newbpf nil) newbpf)))) (when newobj (setf (stime newobj) 0) (setf (size newobj) 513) (setf (id newobj) "?")) newobj)) (list (let ((newobj (when (find-class (quote gen07) nil) (let ((newbpf (simple-bpf-from-list (quote (0 33 66 100)) (quote (10 10 0 0)) (quote gen07) 0))) (setf (bpfcolor newbpf) (om-make-color 0 0 0)) (set-name newbpf nil) newbpf)))) (when newobj (setf (stime newobj) 0) (setf (size newobj) 513) (setf (id newobj) "?")) newobj) (let ((newobj (when (find-class (quote gen07) nil) (let ((newbpf (simple-bpf-from-list (quote (0 33 66 100)) (quote (10 10 0 0)) (quote gen07) 0))) (setf (bpfcolor newbpf) (om-make-color 0 0 0)) (set-name newbpf nil) newbpf)))) (when newobj (setf (stime newobj) 0) (setf (size newobj) 513) (setf (id newobj) "?")) newobj) (let ((newobj (when (find-class (quote gen07) nil) (let ((newbpf (simple-bpf-from-list (quote (0 33 66 100)) (quote (10 10 0 0)) (quote gen07) 0))) (setf (bpfcolor newbpf) (om-make-color 0 0 0)) (set-name newbpf nil) newbpf)))) (when newobj (setf (stime newobj) 0) (setf (size newobj) 513) (setf (id newobj) "?")) newobj) (let ((newobj (when (find-class (quote gen07) nil) (let ((newbpf (simple-bpf-from-list (quote (0 33 66 100)) (quote (10 10 0 0)) (quote gen07) 0))) (setf (bpfcolor newbpf) (om-make-color 0 0 0)) (set-name newbpf nil) newbpf)))) (when newobj (setf (stime newobj) 0) (setf (size newobj) 513) (setf (id newobj) "?")) newobj) (let ((newobj (when (find-class (quote gen07) nil) (let ((newbpf (simple-bpf-from-list (quote (0 33 66 100)) (quote (10 10 0 0)) (quote gen07) 0))) (setf (bpfcolor newbpf) (om-make-color 0 0 0)) (set-name newbpf nil) newbpf)))) (when newobj (setf (stime newobj) 0) (setf (size newobj) 513) (setf (id newobj) "?")) newobj) (let ((newobj (when (find-class (quote gen07) nil) (let ((newbpf (simple-bpf-from-list (quote (0 33 66 100)) (quote (10 10 0 0)) (quote gen07) 0))) (setf (bpfcolor newbpf) (om-make-color 0 0 0)) (set-name newbpf nil) newbpf)))) (when newobj (setf (stime newobj) 0) (setf (size newobj) 513) (setf (id newobj) "?")) newobj) (let ((newobj (when (find-class (quote gen07) nil) (let ((newbpf (simple-bpf-from-list (quote (0 33 66 100)) (quote (10 10 0 0)) (quote gen07) 0))) (setf (bpfcolor newbpf) (om-make-color 0 0 0)) (set-name newbpf nil) newbpf)))) (when newobj (setf (stime newobj) 0) (setf (size newobj) 513) (setf (id newobj) "?")) newobj) (let ((newobj (when (find-class (quote gen07) nil) (let ((newbpf (simple-bpf-from-list (quote (0 33 66 100)) (quote (10 10 0 0)) (quote gen07) 0))) (setf (bpfcolor newbpf) (om-make-color 0 0 0)) (set-name newbpf nil) newbpf)))) (when newobj (setf (stime newobj) 0) (setf (size newobj) 513) (setf (id newobj) "?")) newobj)))) rep)))) (put-precision rep (list 3)) rep) nil nil (pairlis (quote (panel-list cur-group-ind show-opt-fields color-list winsize winpos)) (list (list (list "All open" (list 0 (quote t)) (list 1 (quote t)) (list 2 (quote t)) (list 3 (quote t)) (list 4 (quote t)) (list 5 (quote t)) (list 6 (quote t)) (list 7 (quote t)) (list 8 (quote t)) (list 9 (quote t))) (list "All close" (list 0 nil) (list 1 nil) (list 2 nil) (list 3 nil) (list 4 nil) (list 5 nil) (list 6 nil) (list 7 nil) (list 8 nil) (list 9 nil))) 0 (quote t) (list (om-make-color 0 0 0) (om-make-color 0 0 0) (om-make-color 0 0 0) (om-make-color 0 0 0) (om-make-color 0 0 0) (om-make-color 0 0 0) (om-make-color 0 0 0) (om-make-color 0 0 0) (om-make-color 0 0 0) (om-make-color 0 0 0)) (om-make-point 500 280) (om-make-point 10 40))) nil nil nil nil) (om-load-boxcomment "comment 27" (om-make-point 51 34) (quote "imax") "" (om-make-point 668 106) nil (om-make-color 1.0 0.0 0.0) (om-make-font "Verdana" 14.0 :family "Verdana" :style (quote (:bold)) :mode (quote nil))) (om-load-boxcomment "comment 26" (om-make-point 54 34) (quote "imin") "" (om-make-point 663 45) nil (om-make-color 1.0 0.0 0.0) (om-make-font "Verdana" 14.0 :family "Verdana" :style (quote (:bold)) :mode (quote nil))) (om-load-boxcomment "comment 25" (om-make-point 57 34) (quote "fmod") "" (om-make-point 614 107) nil (om-make-color 1.0 0.0 0.0) (om-make-font "Verdana" 14.0 :family "Verdana" :style (quote (:bold)) :mode (quote nil))) (om-load-boxcomment "comment 24" (om-make-point 53 34) (quote "freq") "" (om-make-point 557 106) nil (om-make-color 1.0 0.0 0.0) (om-make-font "Verdana" 14.0 :family "Verdana" :style (quote (:bold)) :mode (quote nil))) (om-load-boxcomment "comment 23" (om-make-point 53 34) (quote "aenv") "" (om-make-point 709 106) nil (om-make-color 1.0 0.0 0.0) (om-make-font "Verdana" 14.0 :family "Verdana" :style (quote (:bold)) :mode (quote nil))) (om-load-boxcomment "comment 22" (om-make-point 51 34) (quote "durs") "" (om-make-point 502 40) nil (om-make-color 1.0 0.0 0.0) (om-make-font "Verdana" 14.0 :family "Verdana" :style (quote (:bold)) :mode (quote nil))) (om-load-boxcomment "comment 20" (om-make-point 44 88) (quote "B") "" (om-make-point 466 89) nil (om-make-color 1.0 0.0 0.011788845) (om-make-font "Verdana" 36.0 :family "Verdana" :style (quote (:bold)) :mode (quote nil))) (om-load-boxcall (quote abstraction) "C#ed 2" (om-load-patch-abs1 "C#ed" (quote ((om-load-boxout "output 2" 1 (om-make-point 127 369) (quote ((om-load-inputfun (quote input-funbox) "" "out" nil))) "edel" nil) (om-load-boxcall (quote lispfun) "LENGTH" (quote length) (quote ((om-load-inputfun (quote input-funbox) "SEQUENCE" "SEQUENCE" nil))) (om-make-point 45 326) nil nil nil nil 1) (om-load-boxin "length" 1 (om-make-point 111 12) "" "length" nil nil) (om-load-boxcall (quote genfun) "OM*" (quote om*) (quote ((om-load-inputfun (quote input-funbox) "number or list" "ARG1" 0) (om-load-inputfun (quote input-funbox) "number or list" "ARG2" 0))) (om-make-point 137 204) nil nil nil nil 1) (om-load-boxcall (quote bastype) "aux 2" (quote t) (quote nil) (om-make-point 159 94) (om-make-point 27 30) 1 "1" nil) (om-load-boxcall (quote genfun) "OM-" (quote om-) (quote ((om-load-inputfun (quote input-funbox) "number or list" "ARG1" 0) (om-load-inputfun (quote input-funbox) "number or list" "ARG2" 0))) (om-make-point 136 144) nil nil nil nil 1) (om-load-boxcall (quote lispfun) "LENGTH" (quote length) (quote ((om-load-inputfun (quote input-funbox) "SEQUENCE" "SEQUENCE" nil))) (om-make-point 109 80) nil nil nil nil 1) (om-load-boxin "durs" 0 (om-make-point 200 139) "" "durs" nil nil) (om-load-boxout "output" 0 (om-make-point 43 374) (quote ((om-load-inputfun (quote input-funbox) "" "out" nil))) "length" nil) (om-load-boxcall (quote bastype) "aux" (quote t) (quote nil) (om-make-point 103 222) (om-make-point 27 30) 0 "0" nil) (om-load-boxcall (quote genfun) "ARITHM-SER" (quote arithm-ser) (quote ((om-load-inputfun (quote input-funbox) "begin" "BEGIN" 0) (om-load-inputfun (quote input-funbox) "end " "END" 10) (om-load-inputfun (quote input-funbox) "step" "STEP" 1))) (om-make-point 111 265) nil nil nil nil 1))) (quote ((10 0 0 0 nil 0) (10 0 1 0 nil 0) (5 0 3 0 nil 0) (7 0 3 1 nil 0) (6 0 5 0 nil 0) (4 0 5 1 nil 0) (2 0 6 0 nil 0) (1 0 8 0 nil 0) (9 0 10 0 nil 0) (3 0 10 1 nil 0) (7 0 10 2 nil 0))) 6.0602 nil "" (om-make-point 200 200) (om-make-point 500 400)) (quote ((om-load-inputfun (quote input-funbox) "" "durs" nil) (om-load-inputfun (quote input-funbox) "" "length" nil))) (om-make-point 500 97) nil nil nil "C#ed") (om-load-boxcall (quote bastype) "aux 20" (quote t) (quote nil) (om-make-point 507 66) (om-make-point 27 30) 3 "3" nil) (om-load-boxcall (quote bastype) "aux 19" (quote t) (quote nil) (om-make-point 558 133) (om-make-point 48 30) 1000 "1000" nil) (om-load-boxcall (quote bastype) "aux 17" (quote t) (quote nil) (om-make-point 619 133) (om-make-point 41 30) 100 "100" nil) (om-load-boxcall (quote bastype) "aux 16" (quote t) (quote nil) (om-make-point 612 67) (om-make-point 147 30) (list 0 0.5 1 2 4 8 16 32) "(0 0.5 1 2  4 8 16 32 )" nil) (om-load-boxcall (quote bastype) "aux 15" (quote t) (quote nil) (om-make-point 677 133) (om-make-point 27 30) 0 "0" nil) (om-load-boxcomment "comment 15" (om-make-point 49 34) (quote "ienv") "" (om-make-point 812 45) nil (om-make-color 1.0 0.0 0.0) (om-make-font "Verdana" 14.0 :family "Verdana" :style (quote (:bold)) :mode (quote nil))) (om-load-editor-box1 "POP-UP-MENU 2" (quote pop-up-menu) (quote ((om-load-inputfun (quote input-funbox) "list of choices" "items" (list "yes" "no")) (om-load-inputfun (quote input-funbox) "a function or box in lambda mode" "action" nil))) (om-make-point 788 66) (om-make-point 95 50) (let ((rep (om-make-dialog-item (quote pop-up-menu) (om-make-point 1 1) (om-make-point 75 24) "untitled" :range (quote ("up" "down"))))) (om-set-selected-item-index rep (quote 1)) rep) "x" nil (pairlis (quote (winsize winpos)) (list (om-make-point 335 275) (om-make-point 10 40))) t nil nil nil) (om-load-boxcall (quote genfun) "OM= 2" (quote om=) (quote ((om-load-inputfun (quote input-funbox) "a number" "NUM1" 0) (om-load-inputfun (quote input-funbox) "a number" "NUM2" 0))) (om-make-point 762 131) nil nil nil nil 1) (om-load-boxcall (quote bastype) "aux 8" (quote t) (quote nil) (om-make-point 755 96) (om-make-point 27 30) 0 "0" nil) (om-load-boxcall (quote genfun) "OMIF 2" (quote omif) (quote ((om-load-inputfun (quote input-funbox) "IF" "TEST" nil) (om-load-inputfun (quote input-funbox) "THEN" "ACTION" nil) (om-load-inputfun (quote input-funbox) "ELSE" "ELSE" nil))) (om-make-point 803 166) (om-make-point 80 57) nil nil nil 1) (om-load-editor-box1 "BPF 8" (quote bpf) (quote ((om-load-inputfun (quote input-funbox) "object" "self" nil) (om-load-inputfun (quote input-funbox) "X coordinates (list)" "x-points" (list 0 100)) (om-load-inputfun (quote input-funbox) "Y coordinates (list)" "y-points" (list 0 100)) (om-load-inputfun (quote input-funbox) "precision (integer) [0 - 10]" "decimals" 0))) (om-make-point 712 127) (om-make-point 43 42) (let ((newobj (when (find-class (quote bpf) nil) (let ((newbpf (simple-bpf-from-list (quote (0 5 95 100)) (quote (0 10 10 0)) (quote bpf) 0))) (setf (bpfcolor newbpf) (om-make-color 0 0 0)) (set-name newbpf nil) newbpf)))) (when newobj) newobj) "x" nil (pairlis (quote (winsize winpos picture)) (list (om-make-point 335 275) (om-make-point 10 40) nil)) t nil nil nil) (om-load-editor-box1 "BPF 5" (quote bpf) (quote ((om-load-inputfun (quote input-funbox) "object" "self" nil) (om-load-inputfun (quote input-funbox) "X coordinates (list)" "x-points" (list 0 100)) (om-load-inputfun (quote input-funbox) "Y coordinates (list)" "y-points" (list 0 100)) (om-load-inputfun (quote input-funbox) "precision (integer) [0 - 10]" "decimals" 0))) (om-make-point 793 116) (om-make-point 43 42) (let ((newobj (when (find-class (quote bpf) nil) (let ((newbpf (simple-bpf-from-list (quote (0 33 66 100)) (quote (0 0 10 10)) (quote bpf) 0))) (setf (bpfcolor newbpf) (om-make-color 0 0 0)) (set-name newbpf nil) newbpf)))) (when newobj) newobj) "x" nil (pairlis (quote (winsize winpos picture)) (list (om-make-point 335 275) (om-make-point 10 40) nil)) t nil nil nil) (om-load-editor-box1 "BPF 2" (quote bpf) (quote ((om-load-inputfun (quote input-funbox) "object" "self" nil) (om-load-inputfun (quote input-funbox) "X coordinates (list)" "x-points" (list 0 100)) (om-load-inputfun (quote input-funbox) "Y coordinates (list)" "y-points" (list 0 100)) (om-load-inputfun (quote input-funbox) "precision (integer) [0 - 10]" "decimals" 0))) (om-make-point 839 115) (om-make-point 43 42) (let ((newobj (when (find-class (quote bpf) nil) (let ((newbpf (simple-bpf-from-list (quote (0 33 66 100)) (quote (10 10 0 0)) (quote bpf) 0))) (setf (bpfcolor newbpf) (om-make-color 0 0 0)) (set-name newbpf nil) newbpf)))) (when newobj) newobj) "x" nil (pairlis (quote (winsize winpos picture)) (list (om-make-point 335 275) (om-make-point 10 40) nil)) t nil nil nil) (om-load-boxcall (quote abstraction) "Synt 5" (om-load-patch-abs1 "Synt" (quote ((om-load-boxcall (quote bastype) "aux" (quote t) (quote nil) (om-make-point 91 100) (om-make-point 79 30) "FM-2_A1" "\"FM-2_A1\"" nil) (om-load-boxin "OMCh" 0 (om-make-point 31 69) "" "OMCh" nil nil) (om-load-boxout "output" 0 (om-make-point 55 205) (quote ((om-load-inputfun (quote input-funbox) "" "out" nil))) nil nil) (om-load-boxcall (quote genfun) "SYNTHESIZE" (quote synthesize) (quote ((om-load-inputfun (quote input-funbox) "something to synthesize..." "ELEMENTS" nil) (om-load-inputkeyword (quote input-keyword) "" "name" (quote :name) nil nil))) (om-make-point 45 143) nil nil nil nil 1))) (quote ((3 0 2 0 nil 0) (1 0 3 0 nil 0) (0 0 3 1 nil 0))) 6.0602 nil "" (om-make-point 200 200) (om-make-point 500 400)) (quote ((om-load-inputfun (quote input-funbox) "" "fm-1" nil))) (om-make-point 25 237) (om-make-point 51 67) nil nil "Synt") (om-load-editor-box1 "FM-2_A1.aiff" (quote sound) (quote ((om-load-inputfun (quote input-funbox) "object" "self" nil) (om-load-inputfun (quote input-funbox) "a track index for multichannel mixing" "tracknum" 1) (om-load-inputfun (quote input-funbox) "a list of markers (s)" "markers" nil))) (om-make-point 93 244) (om-make-point 129 60) (let ((newobj (let ((thesound (load-sound (om-make-pathname :directory (quote (:relative "out-files")) :device nil :host nil :name "FM-2_A1" :type "aiff") 1))) (when thesound (setf (markers thesound) (quote nil))) thesound))) (load-port-info newobj (quote nil)) (init-mus-color newobj (quote nil)) (set-extra-pairs newobj (quote nil)) (set-patch-pairs newobj (quote nil)) (set-name newobj "FM-2_A1.aiff") (set-tonalite newobj nil) newobj) nil nil (pairlis (quote (palette-mode scale show-stems obj-mode score-mode winpos winsize mode grillestep notechancolor? zoom player inport outport deltapict cmnpref staff fontsize approx)) (list 0 nil (quote t) 1 0 (om-make-point 400 22) (om-make-point 875 640) 0 1000 nil 1 (quote :libaudio) 0 nil (om-make-point 0 0) (let ((newobj (make-instance (quote edition-values)))) (setf (paper-size newobj) (om-make-point 600 800)) (setf (top-margin newobj) 2) (setf (left-margin newobj) 1) (setf (right-margin newobj) 1) (setf (bottom-margin newobj) 1) (setf (orientation newobj) nil) (setf (scale newobj) nil) (setf (system-space newobj) (quote (1))) (setf (system-color newobj) (quote nil)) (setf (line-space newobj) 1) (setf (title newobj) nil) (setf (show-title? newobj) nil) (setf (show-page? newobj) nil) (setf (sheet-id newobj) nil) (setf (page-mode newobj) nil) newobj) (quote g) 24 2)) t nil nil nil) (om-load-editor-box1 "FM-2_A2.aiff" (quote sound) (quote ((om-load-inputfun (quote input-funbox) "object" "self" nil) (om-load-inputfun (quote input-funbox) "a track index for multichannel mixing" "tracknum" 1) (om-load-inputfun (quote input-funbox) "a list of markers (s)" "markers" nil))) (om-make-point 295 242) (om-make-point 130 60) (let ((newobj (let ((thesound (load-sound (om-make-pathname :directory (quote (:relative "out-files")) :device nil :host nil :name "FM-2_A2" :type "aiff") 1))) (when thesound (setf (markers thesound) (quote nil))) thesound))) (load-port-info newobj (quote nil)) (init-mus-color newobj (quote nil)) (set-extra-pairs newobj (quote nil)) (set-patch-pairs newobj (quote nil)) (set-name newobj "FM-2_A2.aiff") (set-tonalite newobj nil) newobj) nil nil (pairlis (quote (palette-mode scale show-stems obj-mode score-mode winpos winsize mode grillestep notechancolor? zoom player inport outport deltapict cmnpref staff fontsize approx)) (list 0 nil (quote t) 1 0 (om-make-point 400 22) (om-make-point 875 640) 0 1000 nil 1 (quote :libaudio) 0 nil (om-make-point 0 0) (let ((newobj (make-instance (quote edition-values)))) (setf (paper-size newobj) (om-make-point 600 800)) (setf (top-margin newobj) 2) (setf (left-margin newobj) 1) (setf (right-margin newobj) 1) (setf (bottom-margin newobj) 1) (setf (orientation newobj) nil) (setf (scale newobj) nil) (setf (system-space newobj) (quote (1))) (setf (system-color newobj) (quote nil)) (setf (line-space newobj) 1) (setf (title newobj) nil) (setf (show-title? newobj) nil) (setf (show-page? newobj) nil) (setf (sheet-id newobj) nil) (setf (page-mode newobj) nil) newobj) (quote g) 24 2)) t nil nil nil) (om-load-boxcall (quote abstraction) "Synt 4" (om-load-patch-abs1 "Synt" (quote ((om-load-boxcall (quote bastype) "aux" (quote t) (quote nil) (om-make-point 91 100) (om-make-point 79 30) "FM-2_A2" "\"FM-2_A2\"" nil) (om-load-boxin "OMCh" 0 (om-make-point 31 69) "" "OMCh" nil nil) (om-load-boxout "output" 0 (om-make-point 55 205) (quote ((om-load-inputfun (quote input-funbox) "" "out" nil))) nil nil) (om-load-boxcall (quote genfun) "SYNTHESIZE" (quote synthesize) (quote ((om-load-inputfun (quote input-funbox) "something to synthesize..." "ELEMENTS" nil) (om-load-inputkeyword (quote input-keyword) "" "name" (quote :name) nil nil))) (om-make-point 45 143) nil nil nil nil 1))) (quote ((3 0 2 0 nil 0) (1 0 3 0 nil 0) (0 0 3 1 nil 0))) 6.0602 nil "" (om-make-point 200 200) (om-make-point 500 400)) (quote ((om-load-inputfun (quote input-funbox) "" "fm-1" nil))) (om-make-point 231 237) (om-make-point 51 67) nil nil "Synt") (om-load-editor-box1 "FM-2" (quote fm-2) (quote ((om-load-inputfun (quote input-funbox) "Synthesis event" "self" nil) (om-load-inputfun (quote input-funbox) "Number of components [int]" "numcols" 1) (om-load-inputfun (quote input-funbox) "Event offset [s]" "action-time" 0) (om-load-inputfun (quote input-funbox) "A lambda function applied to each component" "user-fun" nil) (om-load-inputkeyword (quote editor-keyword) "" "e-dels" (quote :e-dels) nil nil) (om-load-inputkeyword (quote editor-keyword) "" "durs" (quote :durs) nil nil) (om-load-inputkeyword (quote editor-keyword) "" "amp" (quote :amp) nil nil) (om-load-inputkeyword (quote editor-keyword) "" "f0" (quote :f0) nil nil) (om-load-inputkeyword (quote editor-keyword) "" "freq" (quote :freq) nil nil) (om-load-inputkeyword (quote editor-keyword) "" "fmod" (quote :fmod) nil nil) (om-load-inputkeyword (quote editor-keyword) "" "imax" (quote :imax) nil nil) (om-load-inputkeyword (quote editor-keyword) "" "imin" (quote :imin) nil nil) (om-load-inputkeyword (quote editor-keyword) "" "aenv" (quote :aenv) nil nil) (om-load-inputkeyword (quote editor-keyword) "" "ienv" (quote :ienv) nil nil))) (om-make-point 25 175) (om-make-point 303 53) (let ((rep (if (find-class (quote fm-2) nil) (let ((rep (make-instance (quote fm-2) :numcols 8))) (when (member (quote e-dels) (get-init-slots-of-class (quote fm-2)) :key (quote car)) (setf (slot-value rep (quote e-dels)) (list 0 3 6 9 12 15 18 21))) (when (member (quote durs) (get-init-slots-of-class (quote fm-2)) :key (quote car)) (setf (slot-value rep (quote durs)) 3)) (when (member (quote amp) (get-init-slots-of-class (quote fm-2)) :key (quote car)) (setf (slot-value rep (quote amp)) -6.0)) (when (member (quote f0) (get-init-slots-of-class (quote fm-2)) :key (quote car)) (setf (slot-value rep (quote f0)) 0)) (when (member (quote freq) (get-init-slots-of-class (quote fm-2)) :key (quote car)) (setf (slot-value rep (quote freq)) 500.0)) (when (member (quote fmod) (get-init-slots-of-class (quote fm-2)) :key (quote car)) (setf (slot-value rep (quote fmod)) 1000)) (when (member (quote imax) (get-init-slots-of-class (quote fm-2)) :key (quote car)) (setf (slot-value rep (quote imax)) (list 0 0.5 1 2 4 8 16 32))) (when (member (quote imin) (get-init-slots-of-class (quote fm-2)) :key (quote car)) (setf (slot-value rep (quote imin)) 0)) (when (member (quote aenv) (get-init-slots-of-class (quote fm-2)) :key (quote car)) (setf (slot-value rep (quote aenv)) (let ((newobj (when (find-class (quote bpf) nil) (let ((newbpf (simple-bpf-from-list (quote (0 5 95 100)) (quote (0 10 10 0)) (quote bpf) 0))) (setf (bpfcolor newbpf) (om-make-color 0 0 0)) (set-name newbpf nil) newbpf)))) (when newobj) newobj))) (when (member (quote ienv) (get-init-slots-of-class (quote fm-2)) :key (quote car)) (setf (slot-value rep (quote ienv)) (let ((newobj (when (find-class (quote bpf) nil) (let ((newbpf (simple-bpf-from-list (quote (0 33 66 100)) (quote (10 10 0 0)) (quote bpf) 0))) (setf (bpfcolor newbpf) (om-make-color 0 0 0)) (set-name newbpf nil) newbpf)))) (when newobj) newobj))) (setf (lcontrols rep) (list)) (setf (action-time rep) 0) (setf (data rep) (list (list 0 3 6 9 12 15 18 21) (list 3 3 3 3 3 3 3 3) (list -6.0 -6.0 -6.0 -6.0 -6.0 -6.0 -6.0 -6.0) (list 0 0 0 0 0 0 0 0) (list 500.0 500.0 500.0 500.0 500.0 500.0 500.0 500.0) (list 1000 1000 1000 1000 1000 1000 1000 1000) (list 0 0.5 1 2 4 8 16 32) (list 0 0 0 0 0 0 0 0) (list (let ((newobj (when (find-class (quote gen07) nil) (let ((newbpf (simple-bpf-from-list (quote (0 5 95 100)) (quote (0 10 10 0)) (quote gen07) 0))) (setf (bpfcolor newbpf) (om-make-color 0 0 0)) (set-name newbpf nil) newbpf)))) (when newobj (setf (stime newobj) 0) (setf (size newobj) 513) (setf (id newobj) "?")) newobj) (let ((newobj (when (find-class (quote gen07) nil) (let ((newbpf (simple-bpf-from-list (quote (0 5 95 100)) (quote (0 10 10 0)) (quote gen07) 0))) (setf (bpfcolor newbpf) (om-make-color 0 0 0)) (set-name newbpf nil) newbpf)))) (when newobj (setf (stime newobj) 0) (setf (size newobj) 513) (setf (id newobj) "?")) newobj) (let ((newobj (when (find-class (quote gen07) nil) (let ((newbpf (simple-bpf-from-list (quote (0 5 95 100)) (quote (0 10 10 0)) (quote gen07) 0))) (setf (bpfcolor newbpf) (om-make-color 0 0 0)) (set-name newbpf nil) newbpf)))) (when newobj (setf (stime newobj) 0) (setf (size newobj) 513) (setf (id newobj) "?")) newobj) (let ((newobj (when (find-class (quote gen07) nil) (let ((newbpf (simple-bpf-from-list (quote (0 5 95 100)) (quote (0 10 10 0)) (quote gen07) 0))) (setf (bpfcolor newbpf) (om-make-color 0 0 0)) (set-name newbpf nil) newbpf)))) (when newobj (setf (stime newobj) 0) (setf (size newobj) 513) (setf (id newobj) "?")) newobj) (let ((newobj (when (find-class (quote gen07) nil) (let ((newbpf (simple-bpf-from-list (quote (0 5 95 100)) (quote (0 10 10 0)) (quote gen07) 0))) (setf (bpfcolor newbpf) (om-make-color 0 0 0)) (set-name newbpf nil) newbpf)))) (when newobj (setf (stime newobj) 0) (setf (size newobj) 513) (setf (id newobj) "?")) newobj) (let ((newobj (when (find-class (quote gen07) nil) (let ((newbpf (simple-bpf-from-list (quote (0 5 95 100)) (quote (0 10 10 0)) (quote gen07) 0))) (setf (bpfcolor newbpf) (om-make-color 0 0 0)) (set-name newbpf nil) newbpf)))) (when newobj (setf (stime newobj) 0) (setf (size newobj) 513) (setf (id newobj) "?")) newobj) (let ((newobj (when (find-class (quote gen07) nil) (let ((newbpf (simple-bpf-from-list (quote (0 5 95 100)) (quote (0 10 10 0)) (quote gen07) 0))) (setf (bpfcolor newbpf) (om-make-color 0 0 0)) (set-name newbpf nil) newbpf)))) (when newobj (setf (stime newobj) 0) (setf (size newobj) 513) (setf (id newobj) "?")) newobj) (let ((newobj (when (find-class (quote gen07) nil) (let ((newbpf (simple-bpf-from-list (quote (0 5 95 100)) (quote (0 10 10 0)) (quote gen07) 0))) (setf (bpfcolor newbpf) (om-make-color 0 0 0)) (set-name newbpf nil) newbpf)))) (when newobj (setf (stime newobj) 0) (setf (size newobj) 513) (setf (id newobj) "?")) newobj)) (list (let ((newobj (when (find-class (quote gen07) nil) (let ((newbpf (simple-bpf-from-list (quote (0 33 66 100)) (quote (10 10 0 0)) (quote gen07) 0))) (setf (bpfcolor newbpf) (om-make-color 0 0 0)) (set-name newbpf nil) newbpf)))) (when newobj (setf (stime newobj) 0) (setf (size newobj) 513) (setf (id newobj) "?")) newobj) (let ((newobj (when (find-class (quote gen07) nil) (let ((newbpf (simple-bpf-from-list (quote (0 33 66 100)) (quote (10 10 0 0)) (quote gen07) 0))) (setf (bpfcolor newbpf) (om-make-color 0 0 0)) (set-name newbpf nil) newbpf)))) (when newobj (setf (stime newobj) 0) (setf (size newobj) 513) (setf (id newobj) "?")) newobj) (let ((newobj (when (find-class (quote gen07) nil) (let ((newbpf (simple-bpf-from-list (quote (0 33 66 100)) (quote (10 10 0 0)) (quote gen07) 0))) (setf (bpfcolor newbpf) (om-make-color 0 0 0)) (set-name newbpf nil) newbpf)))) (when newobj (setf (stime newobj) 0) (setf (size newobj) 513) (setf (id newobj) "?")) newobj) (let ((newobj (when (find-class (quote gen07) nil) (let ((newbpf (simple-bpf-from-list (quote (0 33 66 100)) (quote (10 10 0 0)) (quote gen07) 0))) (setf (bpfcolor newbpf) (om-make-color 0 0 0)) (set-name newbpf nil) newbpf)))) (when newobj (setf (stime newobj) 0) (setf (size newobj) 513) (setf (id newobj) "?")) newobj) (let ((newobj (when (find-class (quote gen07) nil) (let ((newbpf (simple-bpf-from-list (quote (0 33 66 100)) (quote (10 10 0 0)) (quote gen07) 0))) (setf (bpfcolor newbpf) (om-make-color 0 0 0)) (set-name newbpf nil) newbpf)))) (when newobj (setf (stime newobj) 0) (setf (size newobj) 513) (setf (id newobj) "?")) newobj) (let ((newobj (when (find-class (quote gen07) nil) (let ((newbpf (simple-bpf-from-list (quote (0 33 66 100)) (quote (10 10 0 0)) (quote gen07) 0))) (setf (bpfcolor newbpf) (om-make-color 0 0 0)) (set-name newbpf nil) newbpf)))) (when newobj (setf (stime newobj) 0) (setf (size newobj) 513) (setf (id newobj) "?")) newobj) (let ((newobj (when (find-class (quote gen07) nil) (let ((newbpf (simple-bpf-from-list (quote (0 33 66 100)) (quote (10 10 0 0)) (quote gen07) 0))) (setf (bpfcolor newbpf) (om-make-color 0 0 0)) (set-name newbpf nil) newbpf)))) (when newobj (setf (stime newobj) 0) (setf (size newobj) 513) (setf (id newobj) "?")) newobj) (let ((newobj (when (find-class (quote gen07) nil) (let ((newbpf (simple-bpf-from-list (quote (0 33 66 100)) (quote (10 10 0 0)) (quote gen07) 0))) (setf (bpfcolor newbpf) (om-make-color 0 0 0)) (set-name newbpf nil) newbpf)))) (when newobj (setf (stime newobj) 0) (setf (size newobj) 513) (setf (id newobj) "?")) newobj)))) rep)))) (put-precision rep (list 3)) rep) nil nil (pairlis (quote (panel-list cur-group-ind show-opt-fields color-list winsize winpos)) (list (list (list "All open" (list 0 (quote t)) (list 1 (quote t)) (list 2 (quote t)) (list 3 (quote t)) (list 4 (quote t)) (list 5 (quote t)) (list 6 (quote t)) (list 7 (quote t)) (list 8 (quote t)) (list 9 (quote t))) (list "All close" (list 0 nil) (list 1 nil) (list 2 nil) (list 3 nil) (list 4 nil) (list 5 nil) (list 6 nil) (list 7 nil) (list 8 nil) (list 9 nil))) 0 (quote t) (list (om-make-color 0 0 0) (om-make-color 0 0 0) (om-make-color 0 0 0) (om-make-color 0 0 0) (om-make-color 0 0 0) (om-make-color 0 0 0) (om-make-color 0 0 0) (om-make-color 0 0 0) (om-make-color 0 0 0) (om-make-color 0 0 0)) (om-make-point 500 280) (om-make-point 56 40))) nil nil nil nil) (om-load-boxcomment "comment 41" (om-make-point 34 303) (quote "|$|$|$|$|$|") "" (om-make-point 441 334) nil (om-make-color 1.0 0.0 0.0) (om-make-font "Verdana" 36.0 :family "Verdana" :style (quote (:plain)) :mode (quote nil))) (om-load-boxcomment "comment 21" (om-make-point 49 34) (quote "ienv") "" (om-make-point 353 414) nil (om-make-color 1.0 0.0 0.0) (om-make-font "Verdana" 14.0 :family "Verdana" :style (quote (:bold)) :mode (quote nil))) (om-load-boxcall (quote bastype) "aux 22" (quote t) (quote nil) (om-make-point 169 441) (om-make-point 34 30) 10 "10" nil) (om-load-boxcall (quote abstraction) "Synt 3" (om-load-patch-abs1 "Synt" (quote ((om-load-boxcall (quote bastype) "aux" (quote t) (quote nil) (om-make-point 96 100) (om-make-point 72 30) "FM-2_C" "\"FM-2_C\"" nil) (om-load-boxin "OMCh" 0 (om-make-point 31 69) "" "OMCh" nil nil) (om-load-boxout "output" 0 (om-make-point 55 205) (quote ((om-load-inputfun (quote input-funbox) "" "out" nil))) nil nil) (om-load-boxcall (quote genfun) "SYNTHESIZE" (quote synthesize) (quote ((om-load-inputfun (quote input-funbox) "something to synthesize..." "ELEMENTS" nil) (om-load-inputkeyword (quote input-keyword) "" "name" (quote :name) nil nil))) (om-make-point 45 143) nil nil nil nil 1))) (quote ((3 0 2 0 nil 0) (1 0 3 0 nil 0) (0 0 3 1 nil 0))) 6.0602 nil "" (om-make-point 370 227) (om-make-point 500 400)) (quote ((om-load-inputfun (quote input-funbox) "" "fm-1" nil))) (om-make-point 62 545) (om-make-point 51 67) nil nil "Synt") (om-load-boxcomment "comment 31" (om-make-point 44 88) (quote "C") "" (om-make-point 50 397) nil (om-make-color 1.0 0.0 0.011788845) (om-make-font "Verdana" 36.0 :family "Verdana" :style (quote (:bold)) :mode (quote nil))) (om-load-boxcomment "comment 19" (om-make-point 53 34) (quote "aenv") "" (om-make-point 304 413) nil (om-make-color 1.0 0.0 0.0) (om-make-font "Verdana" 14.0 :family "Verdana" :style (quote (:bold)) :mode (quote nil))) (om-load-editor-box1 "BPF 3" (quote bpf) (quote ((om-load-inputfun (quote input-funbox) "object" "self" nil) (om-load-inputfun (quote input-funbox) "X coordinates (list)" "x-points" (list 0 100)) (om-load-inputfun (quote input-funbox) "Y coordinates (list)" "y-points" (list 0 100)) (om-load-inputfun (quote input-funbox) "precision (integer) [0 - 10]" "decimals" 0))) (om-make-point 355 434) (om-make-point 43 42) (let ((newobj (when (find-class (quote bpf) nil) (let ((newbpf (simple-bpf-from-list (quote (0 33 66 100)) (quote (0 0 10 10)) (quote bpf) 0))) (setf (bpfcolor newbpf) (om-make-color 0 0 0)) (set-name newbpf nil) newbpf)))) (when newobj) newobj) "x" nil (pairlis (quote (winsize winpos picture)) (list (om-make-point 335 275) (om-make-point 10 40) nil)) t nil nil nil) (om-load-boxcomment "comment 18" (om-make-point 51 34) (quote "imax") "" (om-make-point 215 414) nil (om-make-color 1.0 0.0 0.0) (om-make-font "Verdana" 14.0 :family "Verdana" :style (quote (:bold)) :mode (quote nil))) (om-load-boxcomment "comment 17" (om-make-point 54 34) (quote "imin") "" (om-make-point 264 414) nil (om-make-color 1.0 0.0 0.0) (om-make-font "Verdana" 14.0 :family "Verdana" :style (quote (:bold)) :mode (quote nil))) (om-load-boxcomment "comment 16" (om-make-point 57 34) (quote "fmod") "" (om-make-point 160 415) nil (om-make-color 1.0 0.0 0.0) (om-make-font "Verdana" 14.0 :family "Verdana" :style (quote (:bold)) :mode (quote nil))) (om-load-boxcomment "comment 14" (om-make-point 48 34) (quote "freq") "" (om-make-point 246 348) nil (om-make-color 1.0 0.0 0.0) (om-make-font "Verdana" 14.0 :family "Verdana" :style (quote (:bold)) :mode (quote nil))) (om-load-editor-box1 "BPF" (quote bpf) (quote ((om-load-inputfun (quote input-funbox) "object" "self" nil) (om-load-inputfun (quote input-funbox) "X coordinates (list)" "x-points" (list 0 100)) (om-load-inputfun (quote input-funbox) "Y coordinates (list)" "y-points" (list 0 100)) (om-load-inputfun (quote input-funbox) "precision (integer) [0 - 10]" "decimals" 0))) (om-make-point 307 434) (om-make-point 43 42) (let ((newobj (when (find-class (quote bpf) nil) (let ((newbpf (simple-bpf-from-list (quote (0 5 95 100)) (quote (0 10 10 0)) (quote bpf) 0))) (setf (bpfcolor newbpf) (om-make-color 0 0 0)) (set-name newbpf nil) newbpf)))) (when newobj) newobj) "x" nil (pairlis (quote (winsize winpos picture)) (list (om-make-point 335 275) (om-make-point 10 40) nil)) t nil nil nil) (om-load-boxcall (quote abstraction) "C#ed 3" (om-load-patch-abs1 "C#ed" (quote ((om-load-boxout "output 2" 1 (om-make-point 127 369) (quote ((om-load-inputfun (quote input-funbox) "" "out" nil))) "edel" nil) (om-load-boxcall (quote lispfun) "LENGTH" (quote length) (quote ((om-load-inputfun (quote input-funbox) "SEQUENCE" "SEQUENCE" nil))) (om-make-point 45 326) nil nil nil nil 1) (om-load-boxin "length" 1 (om-make-point 111 12) "" "length" nil nil) (om-load-boxcall (quote genfun) "OM*" (quote om*) (quote ((om-load-inputfun (quote input-funbox) "number or list" "ARG1" 0) (om-load-inputfun (quote input-funbox) "number or list" "ARG2" 0))) (om-make-point 137 204) nil nil nil nil 1) (om-load-boxcall (quote bastype) "aux 2" (quote t) (quote nil) (om-make-point 159 94) (om-make-point 27 30) 1 "1" nil) (om-load-boxcall (quote genfun) "OM-" (quote om-) (quote ((om-load-inputfun (quote input-funbox) "number or list" "ARG1" 0) (om-load-inputfun (quote input-funbox) "number or list" "ARG2" 0))) (om-make-point 136 144) nil nil nil nil 1) (om-load-boxcall (quote lispfun) "LENGTH" (quote length) (quote ((om-load-inputfun (quote input-funbox) "SEQUENCE" "SEQUENCE" nil))) (om-make-point 109 80) nil nil nil nil 1) (om-load-boxin "durs" 0 (om-make-point 200 139) "" "durs" nil nil) (om-load-boxout "output" 0 (om-make-point 43 374) (quote ((om-load-inputfun (quote input-funbox) "" "out" nil))) "length" nil) (om-load-boxcall (quote bastype) "aux" (quote t) (quote nil) (om-make-point 103 222) (om-make-point 27 30) 0 "0" nil) (om-load-boxcall (quote genfun) "ARITHM-SER" (quote arithm-ser) (quote ((om-load-inputfun (quote input-funbox) "begin" "BEGIN" 0) (om-load-inputfun (quote input-funbox) "end " "END" 10) (om-load-inputfun (quote input-funbox) "step" "STEP" 1))) (om-make-point 111 265) nil nil nil nil 1))) (quote ((10 0 0 0 nil 0) (10 0 1 0 nil 0) (5 0 3 0 nil 0) (7 0 3 1 nil 0) (6 0 5 0 nil 0) (4 0 5 1 nil 0) (2 0 6 0 nil 0) (1 0 8 0 nil 0) (9 0 10 0 nil 0) (3 0 10 1 nil 0) (7 0 10 2 nil 0))) 6.0602 nil "" (om-make-point 200 200) (om-make-point 500 400)) (quote ((om-load-inputfun (quote input-funbox) "" "durs" nil) (om-load-inputfun (quote input-funbox) "" "length" nil))) (om-make-point 85 405) nil nil nil "C#ed") (om-load-boxcomment "comment 7" (om-make-point 51 34) (quote "durs") "" (om-make-point 84 348) nil (om-make-color 1.0 0.0 0.0) (om-make-font "Verdana" 14.0 :family "Verdana" :style (quote (:bold)) :mode (quote nil))) (om-load-boxcall (quote bastype) "aux 12" (quote t) (quote nil) (om-make-point 92 374) (om-make-point 27 30) 3 "3" nil) (om-load-boxcall (quote bastype) "aux 11" (quote t) (quote nil) (om-make-point 126 370) (om-make-point 290 30) (list 100 200 300 400 500 600 700 800 1200 1600) "(100 200 300 400 500 600 700 800 1200 1600)" nil) (om-load-boxcall (quote bastype) "aux 10" (quote t) (quote nil) (om-make-point 273 442) (om-make-point 27 30) 0 "0" nil) (om-load-boxcall (quote bastype) "aux 9" (quote t) (quote nil) (om-make-point 226 441) (om-make-point 27 30) 4 "4" nil) (om-load-editor-box1 "FM-2_C.aiff" (quote sound) (quote ((om-load-inputfun (quote input-funbox) "object" "self" nil) (om-load-inputfun (quote input-funbox) "a track index for multichannel mixing" "tracknum" 1) (om-load-inputfun (quote input-funbox) "a list of markers (s)" "markers" nil))) (om-make-point 118 547) (om-make-point 262 61) (let ((newobj (let ((thesound (load-sound (om-make-pathname :directory (quote (:relative "out-files")) :device nil :host nil :name "FM-2_C" :type "aiff") 1))) (when thesound (setf (markers thesound) (quote nil))) thesound))) (load-port-info newobj (quote nil)) (init-mus-color newobj (quote nil)) (set-extra-pairs newobj (quote nil)) (set-patch-pairs newobj (quote nil)) (set-name newobj "FM-2_C.aiff") (set-tonalite newobj nil) newobj) nil nil (pairlis (quote (palette-mode scale show-stems obj-mode score-mode winpos winsize mode grillestep notechancolor? zoom player inport outport deltapict cmnpref staff fontsize approx)) (list 0 nil (quote t) 1 0 (om-make-point 400 22) (om-make-point 875 640) 0 1000 nil 1 (quote :libaudio) 0 nil (om-make-point 0 0) (let ((newobj (make-instance (quote edition-values)))) (setf (paper-size newobj) (om-make-point 600 800)) (setf (top-margin newobj) 2) (setf (left-margin newobj) 1) (setf (right-margin newobj) 1) (setf (bottom-margin newobj) 1) (setf (orientation newobj) nil) (setf (scale newobj) nil) (setf (system-space newobj) (quote (1))) (setf (system-color newobj) (quote nil)) (setf (line-space newobj) 1) (setf (title newobj) nil) (setf (show-title? newobj) nil) (setf (show-page? newobj) nil) (setf (sheet-id newobj) nil) (setf (page-mode newobj) nil) newobj) (quote g) 24 2)) t nil nil nil) (om-load-boxcomment "comment 30" (om-make-point 34 303) (quote "|$|$|$|$|$|") "" (om-make-point 443 18) nil (om-make-color 1.0 0.0 0.0) (om-make-font "Verdana" 36.0 :family "Verdana" :style (quote (:plain)) :mode (quote nil))) (om-load-editor-box1 "BPF 7" (quote bpf) (quote ((om-load-inputfun (quote input-funbox) "object" "self" nil) (om-load-inputfun (quote input-funbox) "X coordinates (list)" "x-points" (list 0 100)) (om-load-inputfun (quote input-funbox) "Y coordinates (list)" "y-points" (list 0 100)) (om-load-inputfun (quote input-funbox) "precision (integer) [0 - 10]" "decimals" 0))) (om-make-point 388 119) (om-make-point 43 42) (let ((newobj (when (find-class (quote bpf) nil) (let ((newbpf (simple-bpf-from-list (quote (0 33 66 100)) (quote (10 10 0 0)) (quote bpf) 0))) (setf (bpfcolor newbpf) (om-make-color 0 0 0)) (set-name newbpf nil) newbpf)))) (when newobj) newobj) "x" nil (pairlis (quote (winsize winpos picture)) (list (om-make-point 335 275) (om-make-point 10 40) nil)) t nil nil nil) (om-load-editor-box1 "BPF 19" (quote bpf) (quote ((om-load-inputfun (quote input-funbox) "object" "self" nil) (om-load-inputfun (quote input-funbox) "X coordinates (list)" "x-points" (list 0 100)) (om-load-inputfun (quote input-funbox) "Y coordinates (list)" "y-points" (list 0 100)) (om-load-inputfun (quote input-funbox) "precision (integer) [0 - 10]" "decimals" 0))) (om-make-point 342 120) (om-make-point 43 42) (let ((newobj (when (find-class (quote bpf) nil) (let ((newbpf (simple-bpf-from-list (quote (0 33 66 100)) (quote (0 0 10 10)) (quote bpf) 0))) (setf (bpfcolor newbpf) (om-make-color 0 0 0)) (set-name newbpf nil) newbpf)))) (when newobj) newobj) "x" nil (pairlis (quote (winsize winpos picture)) (list (om-make-point 335 275) (om-make-point 10 40) nil)) t nil nil nil) (om-load-editor-box1 "BPF 4" (quote bpf) (quote ((om-load-inputfun (quote input-funbox) "object" "self" nil) (om-load-inputfun (quote input-funbox) "X coordinates (list)" "x-points" (list 0 100)) (om-load-inputfun (quote input-funbox) "Y coordinates (list)" "y-points" (list 0 100)) (om-load-inputfun (quote input-funbox) "precision (integer) [0 - 10]" "decimals" 0))) (om-make-point 261 131) (om-make-point 43 42) (let ((newobj (when (find-class (quote bpf) nil) (let ((newbpf (simple-bpf-from-list (quote (0 5 95 100)) (quote (0 10 10 0)) (quote bpf) 0))) (setf (bpfcolor newbpf) (om-make-color 0 0 0)) (set-name newbpf nil) newbpf)))) (when newobj) newobj) "x" nil (pairlis (quote (winsize winpos picture)) (list (om-make-point 335 275) (om-make-point 10 40) nil)) t nil nil nil) (om-load-boxcall (quote genfun) "OMIF" (quote omif) (quote ((om-load-inputfun (quote input-funbox) "IF" "TEST" nil) (om-load-inputfun (quote input-funbox) "THEN" "ACTION" nil) (om-load-inputfun (quote input-funbox) "ELSE" "ELSE" nil))) (om-make-point 352 170) (om-make-point 80 57) nil nil nil 1) (om-load-boxcall (quote bastype) "aux 14" (quote t) (quote nil) (om-make-point 304 100) (om-make-point 27 30) 0 "0" nil) (om-load-boxcall (quote genfun) "OM=" (quote om=) (quote ((om-load-inputfun (quote input-funbox) "a number" "NUM1" 0) (om-load-inputfun (quote input-funbox) "a number" "NUM2" 0))) (om-make-point 311 135) nil nil nil nil 1) (om-load-editor-box1 "POP-UP-MENU" (quote pop-up-menu) (quote ((om-load-inputfun (quote input-funbox) "list of choices" "items" (list "yes" "no")) (om-load-inputfun (quote input-funbox) "a function or box in lambda mode" "action" nil))) (om-make-point 337 70) (om-make-point 95 50) (let ((rep (om-make-dialog-item (quote pop-up-menu) (om-make-point 1 1) (om-make-point 75 24) "untitled" :range (quote ("up" "down"))))) (om-set-selected-item-index rep (quote 1)) rep) "x" nil (pairlis (quote (winsize winpos)) (list (om-make-point 335 275) (om-make-point 10 40))) t nil nil nil) (om-load-boxcomment "comment 11" (om-make-point 909 71) (quote "_______________________________________") "" (om-make-point 1 264) nil (om-make-color 1.0 0.0 0.0) (om-make-font "Verdana" 36.0 :family "Verdana" :style (quote (:plain)) :mode (quote nil))) (om-load-boxcomment "comment 13" (om-make-point 49 34) (quote "ienv") "" (om-make-point 361 49) nil (om-make-color 1.0 0.0 0.0) (om-make-font "Verdana" 14.0 :family "Verdana" :style (quote (:bold)) :mode (quote nil))) (om-load-boxcall (quote bastype) "aux 6" (quote t) (quote nil) (om-make-point 226 137) (om-make-point 27 30) 0 "0" nil) (om-load-boxcall (quote bastype) "aux 5" (quote t) (quote nil) (om-make-point 161 71) (om-make-point 147 30) (list 0 0.5 1 2 4 8 16 32) "(0 0.5 1 2  4 8 16 32 )" nil) (om-load-boxcall (quote bastype) "aux 4" (quote t) (quote nil) (om-make-point 169 137) (om-make-point 41 30) 100 "100" nil) (om-load-boxcall (quote bastype) "aux 3" (quote t) (quote nil) (om-make-point 108 137) (om-make-point 48 30) 1000 "1000" nil) (om-load-boxcall (quote bastype) "aux 2" (quote t) (quote nil) (om-make-point 56 70) (om-make-point 27 30) 3 "3" nil) (om-load-boxcall (quote abstraction) "C#ed" (om-load-patch-abs1 "C#ed" (quote ((om-load-boxout "output 2" 1 (om-make-point 127 369) (quote ((om-load-inputfun (quote input-funbox) "" "out" nil))) "edel" nil) (om-load-boxcall (quote lispfun) "LENGTH" (quote length) (quote ((om-load-inputfun (quote input-funbox) "SEQUENCE" "SEQUENCE" nil))) (om-make-point 45 326) nil nil nil nil 1) (om-load-boxin "length" 1 (om-make-point 111 12) "" "length" nil nil) (om-load-boxcall (quote genfun) "OM*" (quote om*) (quote ((om-load-inputfun (quote input-funbox) "number or list" "ARG1" 0) (om-load-inputfun (quote input-funbox) "number or list" "ARG2" 0))) (om-make-point 137 204) nil nil nil nil 1) (om-load-boxcall (quote bastype) "aux 2" (quote t) (quote nil) (om-make-point 159 94) (om-make-point 27 30) 1 "1" nil) (om-load-boxcall (quote genfun) "OM-" (quote om-) (quote ((om-load-inputfun (quote input-funbox) "number or list" "ARG1" 0) (om-load-inputfun (quote input-funbox) "number or list" "ARG2" 0))) (om-make-point 136 144) nil nil nil nil 1) (om-load-boxcall (quote lispfun) "LENGTH" (quote length) (quote ((om-load-inputfun (quote input-funbox) "SEQUENCE" "SEQUENCE" nil))) (om-make-point 109 80) nil nil nil nil 1) (om-load-boxin "durs" 0 (om-make-point 200 139) "" "durs" nil nil) (om-load-boxout "output" 0 (om-make-point 43 374) (quote ((om-load-inputfun (quote input-funbox) "" "out" nil))) "length" nil) (om-load-boxcall (quote bastype) "aux" (quote t) (quote nil) (om-make-point 103 222) (om-make-point 27 30) 0 "0" nil) (om-load-boxcall (quote genfun) "ARITHM-SER" (quote arithm-ser) (quote ((om-load-inputfun (quote input-funbox) "begin" "BEGIN" 0) (om-load-inputfun (quote input-funbox) "end " "END" 10) (om-load-inputfun (quote input-funbox) "step" "STEP" 1))) (om-make-point 111 265) nil nil nil nil 1))) (quote ((10 0 0 0 nil 0) (10 0 1 0 nil 0) (5 0 3 0 nil 0) (7 0 3 1 nil 0) (6 0 5 0 nil 0) (4 0 5 1 nil 0) (2 0 6 0 nil 0) (1 0 8 0 nil 0) (9 0 10 0 nil 0) (3 0 10 1 nil 0) (7 0 10 2 nil 0))) 6.0602 nil "" (om-make-point 200 200) (om-make-point 500 400)) (quote ((om-load-inputfun (quote input-funbox) "" "durs" nil) (om-load-inputfun (quote input-funbox) "" "length" nil))) (om-make-point 49 101) nil nil nil "C#ed") (om-load-boxcomment "comment 10" (om-make-point 44 88) (quote "A") "" (om-make-point 15 93) nil (om-make-color 1.0 0.0 0.011788845) (om-make-font "Verdana" 36.0 :family "Verdana" :style (quote (:bold)) :mode (quote nil))) (om-load-boxcomment "comment 9" (om-make-point 122 34) (quote "Tutorial FM-2") "" (om-make-point 60 2) nil (om-make-color 1.0 0.0 0.0) (om-make-font "Verdana" 14.0 :family "Verdana" :style (quote (:bold)) :mode (quote nil))) (om-load-boxcomment "comment 8" (om-make-point 51 34) (quote "durs") "" (om-make-point 51 44) nil (om-make-color 1.0 0.0 0.0) (om-make-font "Verdana" 14.0 :family "Verdana" :style (quote (:bold)) :mode (quote nil))) (om-load-boxcomment "comment 6" (om-make-point 53 34) (quote "aenv") "" (om-make-point 258 110) nil (om-make-color 1.0 0.0 0.0) (om-make-font "Verdana" 14.0 :family "Verdana" :style (quote (:bold)) :mode (quote nil))) (om-load-boxcomment "comment 5" (om-make-point 53 34) (quote "freq") "" (om-make-point 107 111) nil (om-make-color 1.0 0.0 0.0) (om-make-font "Verdana" 14.0 :family "Verdana" :style (quote (:bold)) :mode (quote nil))) (om-load-boxcomment "comment 4" (om-make-point 57 34) (quote "fmod") "" (om-make-point 162 111) nil (om-make-color 1.0 0.0 0.0) (om-make-font "Verdana" 14.0 :family "Verdana" :style (quote (:bold)) :mode (quote nil))) (om-load-boxcomment "comment 3" (om-make-point 54 34) (quote "imax") "" (om-make-point 212 49) nil (om-make-color 1.0 0.0 0.0) (om-make-font "Verdana" 14.0 :family "Verdana" :style (quote (:bold)) :mode (quote nil))) (om-load-boxcomment "comment" (om-make-point 51 34) (quote "imin") "" (om-make-point 218 110) nil (om-make-color 1.0 0.0 0.0) (om-make-font "Verdana" 14.0 :family "Verdana" :style (quote (:bold)) :mode (quote nil))))) (quote ((11 0 2 1 nil 1) (11 1 2 4 nil 2) (9 0 2 5 nil 3) (0 0 2 8 nil 0) (5 0 2 9 nil 1) (7 0 2 10 nil 4) (8 0 2 11 nil 0) (12 0 2 12 nil 2) (15 0 2 13 nil 0) (18 0 6 0 nil 0) (9 0 11 0 nil 3) (5 0 11 1 nil 1) (2 0 18 0 nil 0) (67 0 20 1 nil 1) (67 1 20 4 nil 2) (69 0 20 5 nil 3) (57 0 20 9 nil 2) (72 0 20 10 nil 4) (71 0 20 11 nil 0) (66 0 20 12 nil 2) (61 0 20 13 nil 0) (28 0 23 0 nil 2) (23 0 24 0 nil 0) (26 0 25 0 nil 0) (28 0 26 0 nil 2) (36 0 28 1 nil 1) (36 1 28 4 nil 2) (37 0 28 5 nil 3) (38 0 28 8 nil 0) (39 0 28 9 nil 2) (41 0 28 10 nil 0) (40 0 28 11 nil 1) (47 0 28 12 nil 0) (46 0 28 13 nil 3) (37 0 36 0 nil 3) (40 0 36 1 nil 1) (43 0 44 0 nil 1) (45 0 44 1 nil 0) (44 0 46 0 nil 0) (48 0 46 1 nil 0) (49 0 46 2 nil 0) (54 0 50 0 nil 2) (50 0 51 0 nil 0) (53 0 52 0 nil 0) (54 0 53 0 nil 2) (89 0 54 1 nil 1) (89 1 54 4 nil 2) (88 0 54 5 nil 3) (87 0 54 8 nil 0) (86 0 54 9 nil 2) (85 0 54 10 nil 1) (84 0 54 11 nil 0) (77 0 54 12 nil 0) (78 0 54 13 nil 3) (20 0 58 0 nil 0) (69 0 67 0 nil 3) (70 0 67 1 nil 1) (58 0 73 0 nil 0) (80 0 78 0 nil 0) (76 0 78 1 nil 0) (75 0 78 2 nil 0) (81 0 80 0 nil 1) (79 0 80 1 nil 0) (88 0 89 0 nil 3) (85 0 89 1 nil 1))) nil 6.0602))
