; OM File Header - Saved 2013/10/29 22:34:30
; (6.0602 :patc (om-make-point 334 160) (om-make-point 71 112) (om-make-point 1198 492) "" 183 0 "2012/11/24 10:15:59" "2013/08/30 11:29:12")
; End File Header
; External resources 
; (list (list (quote :sound) "../../../out-files/add-3_B.aiff" "../../../out-files/add-3_A.aiff"))
(in-package :om)(load-lib-for (quote ("OMChroma")))(setf *om-current-persistent* (om-load-patch1 "add-3" (quote ((om-load-editor-box1 "BPF 4" (quote bpf) (quote ((om-load-inputfun (quote input-funbox) "object" "self" nil) (om-load-inputfun (quote input-funbox) "X coordinates (list)" "x-points" (list 0 100)) (om-load-inputfun (quote input-funbox) "Y coordinates (list)" "y-points" (list 0 100)) (om-load-inputfun (quote input-funbox) "precision (integer) [0 - 10]" "decimals" 0))) (om-make-point 882 117) (om-make-point 43 42) (let ((newobj (when (find-class (quote bpf) nil) (let ((newbpf (simple-bpf-from-list (quote (0 5 95 100)) (quote (0 10 10 0)) (quote bpf) 0))) (setf (bpfcolor newbpf) (om-make-color 0 0 0)) (set-name newbpf nil) newbpf)))) (when newobj) newobj) "x" nil (pairlis (quote (winsize winpos picture)) (list (om-make-point 335 275) (om-make-point 10 40) nil)) t nil nil nil) (om-load-boxcomment "comment 3" (om-make-point 53 34) (quote "fenv") "" (om-make-point 1022 46) nil (om-make-color 1.0 0.0 0.0) (om-make-font "Verdana" 14.0 :family "Verdana" :style (quote (:bold)) :mode (quote nil))) (om-load-boxcall (quote lispfun) "LIST 2" (quote list) (quote ((om-load-inputfun (quote input-funbox) "add-input" "add-input" nil) (om-load-inputfun (quote input-funbox) "add-input" "add-input" nil) (om-load-inputfun (quote input-funbox) "add-input" "add-input" nil) (om-load-inputfun (quote input-funbox) "add-input" "add-input" nil))) (om-make-point 1027 255) nil nil nil nil 1) (om-load-editor-box1 "BPF 9" (quote bpf) (quote ((om-load-inputfun (quote input-funbox) "object" "self" nil) (om-load-inputfun (quote input-funbox) "X coordinates (list)" "x-points" (list 0 100)) (om-load-inputfun (quote input-funbox) "Y coordinates (list)" "y-points" (list 0 100)) (om-load-inputfun (quote input-funbox) "precision (integer) [0 - 10]" "decimals" 0))) (om-make-point 1025 71) (om-make-point 43 42) (let ((newobj (when (find-class (quote bpf) nil) (let ((newbpf (simple-bpf-from-list (quote (0 50 100)) (quote (0 10 0)) (quote bpf) 0))) (setf (bpfcolor newbpf) (om-make-color 0 0 0)) (set-name newbpf nil) newbpf)))) (when newobj) newobj) "x" nil (pairlis (quote (winsize winpos picture)) (list (om-make-point 335 275) (om-make-point 10 40) nil)) t nil nil nil) (om-load-editor-box1 "BPF 8" (quote bpf) (quote ((om-load-inputfun (quote input-funbox) "object" "self" nil) (om-load-inputfun (quote input-funbox) "X coordinates (list)" "x-points" (list 0 100)) (om-load-inputfun (quote input-funbox) "Y coordinates (list)" "y-points" (list 0 100)) (om-load-inputfun (quote input-funbox) "precision (integer) [0 - 10]" "decimals" 0))) (om-make-point 1024 157) (om-make-point 43 42) (let ((newobj (when (find-class (quote bpf) nil) (let ((newbpf (simple-bpf-from-list (quote (0 100)) (quote (0 10)) (quote bpf) 0))) (setf (bpfcolor newbpf) (om-make-color 0 0 0)) (set-name newbpf nil) newbpf)))) (when newobj) newobj) "x" nil (pairlis (quote (winsize winpos picture)) (list (om-make-point 335 275) (om-make-point 10 40) nil)) t nil nil nil) (om-load-editor-box1 "BPF 7" (quote bpf) (quote ((om-load-inputfun (quote input-funbox) "object" "self" nil) (om-load-inputfun (quote input-funbox) "X coordinates (list)" "x-points" (list 0 100)) (om-load-inputfun (quote input-funbox) "Y coordinates (list)" "y-points" (list 0 100)) (om-load-inputfun (quote input-funbox) "precision (integer) [0 - 10]" "decimals" 0))) (om-make-point 1024 114) (om-make-point 43 42) (let ((newobj (when (find-class (quote bpf) nil) (let ((newbpf (simple-bpf-from-list (quote (0 100)) (quote (10 0)) (quote bpf) 0))) (setf (bpfcolor newbpf) (om-make-color 0 0 0)) (set-name newbpf nil) newbpf)))) (when newobj) newobj) "x" nil (pairlis (quote (winsize winpos picture)) (list (om-make-point 335 275) (om-make-point 10 40) nil)) t nil nil nil) (om-load-boxcall (quote abstraction) "rnd" (om-load-patch-abs1 "rnd" (quote ((om-load-boxout "output" 0 (om-make-point 233 242) (quote ((om-load-inputfun (quote input-funbox) "" "out" nil))) "random_bpf" nil) (om-load-boxcall (quote bastype) "aux 6" (quote t) (quote nil) (om-make-point 118 25) (om-make-point 34 30) 32 "32" nil) (om-load-boxcall (quote bastype) "aux 5" (quote t) (quote nil) (om-make-point 233 24) (om-make-point 48 30) 1024 "1024" nil) (om-load-editor-box1 "BPF" (quote bpf) (quote ((om-load-inputfun (quote input-funbox) "object" "self" nil) (om-load-inputfun (quote input-funbox) "X coordinates (list)" "x-points" (list 0 100)) (om-load-inputfun (quote input-funbox) "Y coordinates (list)" "y-points" (list 0 100)) (om-load-inputfun (quote input-funbox) "precision (integer) [0 - 10]" "decimals" 0))) (om-make-point 155 233) (om-make-point 40 60) (let ((newobj (when (find-class (quote bpf) nil) (let ((newbpf (simple-bpf-from-list (quote (0 14 33 47 50 65 66 70 100 118 124 146 161 183 202 208 214 222 239 254 255 266 279 307 329)) (quote (398 35 159 696 848 865 279 991 357 829 839 452 885 99 146 962 600 446 111 732 405 297 388 220 52)) (quote bpf) 0))) (setf (bpfcolor newbpf) (om-make-color 0 0 0)) (set-name newbpf nil) newbpf)))) (when newobj) newobj) nil nil (pairlis (quote (picture winpos winsize)) (list nil (om-make-point 10 40) (om-make-point 335 275))) t nil nil nil) (om-load-boxcall (quote bastype) "aux 4" (quote t) (quote nil) (om-make-point 57 192) (om-make-point 27 30) 0 "0" nil) (om-load-boxcall (quote genfun) "DX->X" (quote dx->x) (quote ((om-load-inputfun (quote input-funbox) "a number" "START" 0) (om-load-inputfun (quote input-funbox) "a list of numbers" "LIST" (list 1 1)))) (om-make-point 86 232) nil nil nil nil 1) (om-load-boxcall (quote genfun) "REPEAT-N 2" (quote repeat-n) (quote ((om-load-inputfun (quote input-funbox) "something" "SELF" nil) (om-load-inputfun (quote input-funbox) "times" "N" 0))) (om-make-point 204 163) nil nil nil nil 1) (om-load-boxcall (quote bastype) "aux 3" (quote t) (quote nil) (om-make-point 186 24) (om-make-point 27 30) 1 "1" nil) (om-load-boxcall (quote genfun) "OM-RANDOM 2" (quote om-random) (quote ((om-load-inputfun (quote input-funbox) "min" "LOW" 0) (om-load-inputfun (quote input-funbox) "max" "HIGH" 1))) (om-make-point 187 65) nil nil nil nil 1) (om-load-boxcall (quote bastype) "aux 2" (quote t) (quote nil) (om-make-point 158 121) (om-make-point 34 30) 24 "24" nil) (om-load-boxcall (quote genfun) "REPEAT-N" (quote repeat-n) (quote ((om-load-inputfun (quote input-funbox) "something" "SELF" nil) (om-load-inputfun (quote input-funbox) "times" "N" 0))) (om-make-point 88 163) nil nil nil nil 1) (om-load-boxcall (quote bastype) "aux" (quote t) (quote nil) (om-make-point 71 25) (om-make-point 27 30) 1 "1" nil) (om-load-boxcall (quote genfun) "OM-RANDOM" (quote om-random) (quote ((om-load-inputfun (quote input-funbox) "min" "LOW" 0) (om-load-inputfun (quote input-funbox) "max" "HIGH" 1))) (om-make-point 71 66) nil nil nil nil 1))) (quote ((3 0 0 0 nil 0) (5 0 3 1 nil 0) (6 0 3 2 nil 0) (4 0 5 0 nil 0) (10 0 5 1 nil 0) (8 0 6 0 nil 0) (9 0 6 1 nil 0) (7 0 8 0 nil 0) (2 0 8 1 nil 0) (12 0 10 0 nil 0) (9 0 10 1 nil 0) (11 0 12 0 nil 0) (1 0 12 1 nil 0))) 6.0602 nil "" (om-make-point 1185 177) (om-make-point 352 332)) (quote nil) (om-make-point 1068 200) nil nil nil "rnd") (om-load-editor-box1 "BPF 3" (quote bpf) (quote ((om-load-inputfun (quote input-funbox) "object" "self" nil) (om-load-inputfun (quote input-funbox) "X coordinates (list)" "x-points" (list 0 100)) (om-load-inputfun (quote input-funbox) "Y coordinates (list)" "y-points" (list 0 100)) (om-load-inputfun (quote input-funbox) "precision (integer) [0 - 10]" "decimals" 0))) (om-make-point 1022 206) (om-make-point 43 42) (let ((newobj (when (find-class (quote bpf) nil) (let ((newbpf (simple-bpf-from-list (quote (0 21 50 79 96 112 135 150 154 176 202 203 224 255 263 273 280 312 317 334 338 358 377 388 403)) (quote (112 741 61 875 982 834 206 847 106 12 547 672 206 935 587 345 694 699 621 538 314 867 131 901 1671)) (quote bpf) 0))) (setf (bpfcolor newbpf) (om-make-color 0 0 0)) (set-name newbpf nil) newbpf)))) (when newobj) newobj) nil nil (pairlis (quote (winsize winpos picture)) (list (om-make-point 335 275) (om-make-point 10 40) nil)) t nil nil nil) (om-load-editor-box1 "BPF 2" (quote bpf) (quote ((om-load-inputfun (quote input-funbox) "object" "self" nil) (om-load-inputfun (quote input-funbox) "X coordinates (list)" "x-points" (list 0 100)) (om-load-inputfun (quote input-funbox) "Y coordinates (list)" "y-points" (list 0 100)) (om-load-inputfun (quote input-funbox) "precision (integer) [0 - 10]" "decimals" 0))) (om-make-point 633 120) (om-make-point 43 42) (let ((newobj (when (find-class (quote bpf) nil) (let ((newbpf (simple-bpf-from-list (quote (0 50 100)) (quote (0 10 0)) (quote bpf) 0))) (setf (bpfcolor newbpf) (om-make-color 0 0 0)) (set-name newbpf nil) newbpf)))) (when newobj) newobj) "x" nil (pairlis (quote (winsize winpos picture)) (list (om-make-point 335 275) (om-make-point 10 40) nil)) t nil nil nil) (om-load-editor-box1 "BPF" (quote bpf) (quote ((om-load-inputfun (quote input-funbox) "object" "self" nil) (om-load-inputfun (quote input-funbox) "X coordinates (list)" "x-points" (list 0 100)) (om-load-inputfun (quote input-funbox) "Y coordinates (list)" "y-points" (list 0 100)) (om-load-inputfun (quote input-funbox) "precision (integer) [0 - 10]" "decimals" 0))) (om-make-point 541 122) (om-make-point 43 42) (let ((newobj (when (find-class (quote bpf) nil) (let ((newbpf (simple-bpf-from-list (quote (0 5 95 100)) (quote (0 10 10 0)) (quote bpf) 0))) (setf (bpfcolor newbpf) (om-make-color 0 0 0)) (set-name newbpf nil) newbpf)))) (when newobj) newobj) "x" nil (pairlis (quote (winsize winpos picture)) (list (om-make-point 335 275) (om-make-point 10 40) nil)) t nil nil nil) (om-load-editor-box1 "BPF 6" (quote bpf) (quote ((om-load-inputfun (quote input-funbox) "object" "self" nil) (om-load-inputfun (quote input-funbox) "X coordinates (list)" "x-points" (list 0 100)) (om-load-inputfun (quote input-funbox) "Y coordinates (list)" "y-points" (list 0 100)) (om-load-inputfun (quote input-funbox) "precision (integer) [0 - 10]" "decimals" 0))) (om-make-point 279 123) (om-make-point 43 42) (let ((newobj (when (find-class (quote bpf) nil) (let ((newbpf (simple-bpf-from-list (quote (0 50 100)) (quote (0 10 0)) (quote bpf) 0))) (setf (bpfcolor newbpf) (om-make-color 0 0 0)) (set-name newbpf nil) newbpf)))) (when newobj) newobj) "x" nil (pairlis (quote (winsize winpos picture)) (list (om-make-point 335 275) (om-make-point 10 40) nil)) t nil nil nil) (om-load-editor-box1 "BPF 6" (quote bpf) (quote ((om-load-inputfun (quote input-funbox) "object" "self" nil) (om-load-inputfun (quote input-funbox) "X coordinates (list)" "x-points" (list 0 100)) (om-load-inputfun (quote input-funbox) "Y coordinates (list)" "y-points" (list 0 100)) (om-load-inputfun (quote input-funbox) "precision (integer) [0 - 10]" "decimals" 0))) (om-make-point 186 124) (om-make-point 43 42) (let ((newobj (when (find-class (quote bpf) nil) (let ((newbpf (simple-bpf-from-list (quote (0 5 95 100)) (quote (0 10 10 0)) (quote bpf) 0))) (setf (bpfcolor newbpf) (om-make-color 0 0 0)) (set-name newbpf nil) newbpf)))) (when newobj) newobj) "x" nil (pairlis (quote (winsize winpos picture)) (list (om-make-point 335 275) (om-make-point 10 40) nil)) t nil nil nil) (om-load-boxcall (quote bastype) "aux 13" (quote t) (quote nil) (om-make-point 797 112) (om-make-point 27 30) 2 "2" nil) (om-load-boxcomment "comment 27" (om-make-point 51 34) (quote "durs") "" (om-make-point 788 86) nil (om-make-color 1.0 0.0 0.0) (om-make-font "Verdana" 14.0 :family "Verdana" :style (quote (:bold)) :mode (quote nil))) (om-load-boxcall (quote abstraction) "C#ed 3" (om-load-patch-abs1 "C#ed" (quote ((om-load-boxout "output 2" 1 (om-make-point 127 369) (quote ((om-load-inputfun (quote input-funbox) "" "out" nil))) "edel" nil) (om-load-boxcall (quote lispfun) "LENGTH" (quote length) (quote ((om-load-inputfun (quote input-funbox) "SEQUENCE" "SEQUENCE" nil))) (om-make-point 45 326) nil nil nil nil 1) (om-load-boxin "length" 1 (om-make-point 111 12) "" "length" nil nil) (om-load-boxcall (quote genfun) "OM*" (quote om*) (quote ((om-load-inputfun (quote input-funbox) "number or list" "ARG1" 0) (om-load-inputfun (quote input-funbox) "number or list" "ARG2" 0))) (om-make-point 137 204) nil nil nil nil 1) (om-load-boxcall (quote bastype) "aux 2" (quote t) (quote nil) (om-make-point 159 94) (om-make-point 27 30) 1 "1" nil) (om-load-boxcall (quote genfun) "OM-" (quote om-) (quote ((om-load-inputfun (quote input-funbox) "number or list" "ARG1" 0) (om-load-inputfun (quote input-funbox) "number or list" "ARG2" 0))) (om-make-point 136 144) nil nil nil nil 1) (om-load-boxcall (quote lispfun) "LENGTH" (quote length) (quote ((om-load-inputfun (quote input-funbox) "SEQUENCE" "SEQUENCE" nil))) (om-make-point 109 80) nil nil nil nil 1) (om-load-boxin "durs" 0 (om-make-point 200 139) "" "durs" nil nil) (om-load-boxout "output" 0 (om-make-point 43 374) (quote ((om-load-inputfun (quote input-funbox) "" "out" nil))) "length" nil) (om-load-boxcall (quote bastype) "aux" (quote t) (quote nil) (om-make-point 103 222) (om-make-point 27 30) 0 "0" nil) (om-load-boxcall (quote genfun) "ARITHM-SER" (quote arithm-ser) (quote ((om-load-inputfun (quote input-funbox) "begin" "BEGIN" 0) (om-load-inputfun (quote input-funbox) "end " "END" 10) (om-load-inputfun (quote input-funbox) "step" "STEP" 1))) (om-make-point 111 265) nil nil nil nil 1))) (quote ((10 0 0 0 nil 0) (10 0 1 0 nil 0) (5 0 3 0 nil 0) (7 0 3 1 nil 0) (6 0 5 0 nil 0) (4 0 5 1 nil 0) (2 0 6 0 nil 0) (1 0 8 0 nil 0) (9 0 10 0 nil 0) (3 0 10 1 nil 0) (7 0 10 2 nil 0))) 6.0602 nil "" (om-make-point 200 200) (om-make-point 500 400)) (quote ((om-load-inputfun (quote input-funbox) "" "durs" nil) (om-load-inputfun (quote input-funbox) "" "length" nil))) (om-make-point 754 95) nil nil nil "C#ed") (om-load-boxcall (quote bastype) "aux 8" (quote t) (quote nil) (om-make-point 455 109) (om-make-point 27 30) 2 "2" nil) (om-load-boxcomment "comment 22" (om-make-point 51 34) (quote "durs") "" (om-make-point 446 83) nil (om-make-color 1.0 0.0 0.0) (om-make-font "Verdana" 14.0 :family "Verdana" :style (quote (:bold)) :mode (quote nil))) (om-load-boxcall (quote abstraction) "C#ed 2" (om-load-patch-abs1 "C#ed" (quote ((om-load-boxout "output 2" 1 (om-make-point 127 369) (quote ((om-load-inputfun (quote input-funbox) "" "out" nil))) "edel" nil) (om-load-boxcall (quote lispfun) "LENGTH" (quote length) (quote ((om-load-inputfun (quote input-funbox) "SEQUENCE" "SEQUENCE" nil))) (om-make-point 45 326) nil nil nil nil 1) (om-load-boxin "length" 1 (om-make-point 111 12) "" "length" nil nil) (om-load-boxcall (quote genfun) "OM*" (quote om*) (quote ((om-load-inputfun (quote input-funbox) "number or list" "ARG1" 0) (om-load-inputfun (quote input-funbox) "number or list" "ARG2" 0))) (om-make-point 137 204) nil nil nil nil 1) (om-load-boxcall (quote bastype) "aux 2" (quote t) (quote nil) (om-make-point 159 94) (om-make-point 27 30) 1 "1" nil) (om-load-boxcall (quote genfun) "OM-" (quote om-) (quote ((om-load-inputfun (quote input-funbox) "number or list" "ARG1" 0) (om-load-inputfun (quote input-funbox) "number or list" "ARG2" 0))) (om-make-point 136 144) nil nil nil nil 1) (om-load-boxcall (quote lispfun) "LENGTH" (quote length) (quote ((om-load-inputfun (quote input-funbox) "SEQUENCE" "SEQUENCE" nil))) (om-make-point 109 80) nil nil nil nil 1) (om-load-boxin "durs" 0 (om-make-point 200 139) "" "durs" nil nil) (om-load-boxout "output" 0 (om-make-point 43 374) (quote ((om-load-inputfun (quote input-funbox) "" "out" nil))) "length" nil) (om-load-boxcall (quote bastype) "aux" (quote t) (quote nil) (om-make-point 103 222) (om-make-point 27 30) 0 "0" nil) (om-load-boxcall (quote genfun) "ARITHM-SER" (quote arithm-ser) (quote ((om-load-inputfun (quote input-funbox) "begin" "BEGIN" 0) (om-load-inputfun (quote input-funbox) "end " "END" 10) (om-load-inputfun (quote input-funbox) "step" "STEP" 1))) (om-make-point 111 265) nil nil nil nil 1))) (quote ((10 0 0 0 nil 0) (10 0 1 0 nil 0) (5 0 3 0 nil 0) (7 0 3 1 nil 0) (6 0 5 0 nil 0) (4 0 5 1 nil 0) (2 0 6 0 nil 0) (1 0 8 0 nil 0) (9 0 10 0 nil 0) (3 0 10 1 nil 0) (7 0 10 2 nil 0))) 6.0602 nil "" (om-make-point 200 200) (om-make-point 500 400)) (quote ((om-load-inputfun (quote input-funbox) "" "durs" nil) (om-load-inputfun (quote input-funbox) "" "length" nil))) (om-make-point 412 92) nil nil nil "C#ed") (om-load-boxcall (quote bastype) "aux" (quote t) (quote nil) (om-make-point 107 112) (om-make-point 27 30) 2 "2" nil) (om-load-boxcomment "comment 13" (om-make-point 51 34) (quote "durs") "" (om-make-point 98 86) nil (om-make-color 1.0 0.0 0.0) (om-make-font "Verdana" 14.0 :family "Verdana" :style (quote (:bold)) :mode (quote nil))) (om-load-boxcall (quote abstraction) "C#ed" (om-load-patch-abs1 "C#ed" (quote ((om-load-boxout "output 2" 1 (om-make-point 127 369) (quote ((om-load-inputfun (quote input-funbox) "" "out" nil))) "edel" nil) (om-load-boxcall (quote lispfun) "LENGTH" (quote length) (quote ((om-load-inputfun (quote input-funbox) "SEQUENCE" "SEQUENCE" nil))) (om-make-point 45 326) nil nil nil nil 1) (om-load-boxin "length" 1 (om-make-point 111 12) "" "length" nil nil) (om-load-boxcall (quote genfun) "OM*" (quote om*) (quote ((om-load-inputfun (quote input-funbox) "number or list" "ARG1" 0) (om-load-inputfun (quote input-funbox) "number or list" "ARG2" 0))) (om-make-point 137 204) nil nil nil nil 1) (om-load-boxcall (quote bastype) "aux 2" (quote t) (quote nil) (om-make-point 159 94) (om-make-point 27 30) 1 "1" nil) (om-load-boxcall (quote genfun) "OM-" (quote om-) (quote ((om-load-inputfun (quote input-funbox) "number or list" "ARG1" 0) (om-load-inputfun (quote input-funbox) "number or list" "ARG2" 0))) (om-make-point 136 144) nil nil nil nil 1) (om-load-boxcall (quote lispfun) "LENGTH" (quote length) (quote ((om-load-inputfun (quote input-funbox) "SEQUENCE" "SEQUENCE" nil))) (om-make-point 109 80) nil nil nil nil 1) (om-load-boxin "durs" 0 (om-make-point 200 139) "" "durs" nil nil) (om-load-boxout "output" 0 (om-make-point 43 374) (quote ((om-load-inputfun (quote input-funbox) "" "out" nil))) "length" nil) (om-load-boxcall (quote bastype) "aux" (quote t) (quote nil) (om-make-point 103 222) (om-make-point 27 30) 0 "0" nil) (om-load-boxcall (quote genfun) "ARITHM-SER" (quote arithm-ser) (quote ((om-load-inputfun (quote input-funbox) "begin" "BEGIN" 0) (om-load-inputfun (quote input-funbox) "end " "END" 10) (om-load-inputfun (quote input-funbox) "step" "STEP" 1))) (om-make-point 111 265) nil nil nil nil 1))) (quote ((10 0 0 0 nil 0) (10 0 1 0 nil 0) (5 0 3 0 nil 0) (7 0 3 1 nil 0) (6 0 5 0 nil 0) (4 0 5 1 nil 0) (2 0 6 0 nil 0) (1 0 8 0 nil 0) (9 0 10 0 nil 0) (3 0 10 1 nil 0) (7 0 10 2 nil 0))) 6.0602 nil "" (om-make-point 200 200) (om-make-point 500 400)) (quote ((om-load-inputfun (quote input-funbox) "" "durs" nil) (om-load-inputfun (quote input-funbox) "" "length" nil))) (om-make-point 64 95) nil nil nil "C#ed") (om-load-boxcall (quote abstraction) "Synt 3" (om-load-patch-abs1 "Synt" (quote ((om-load-boxcall (quote bastype) "aux" (quote t) (quote nil) (om-make-point 91 100) (om-make-point 78 30) "add-3_B" "\"add-3_B\"" nil) (om-load-boxin "OMCh" 0 (om-make-point 31 69) "" "OMCh" nil nil) (om-load-boxout "output" 0 (om-make-point 55 205) (quote ((om-load-inputfun (quote input-funbox) "" "out" nil))) nil nil) (om-load-boxcall (quote genfun) "SYNTHESIZE" (quote synthesize) (quote ((om-load-inputfun (quote input-funbox) "something to synthesize..." "ELEMENTS" nil) (om-load-inputkeyword (quote input-keyword) "" "name" (quote :name) nil nil))) (om-make-point 45 143) nil nil nil nil 1))) (quote ((3 0 2 0 nil 0) (1 0 3 0 nil 0) (0 0 3 1 nil 0))) 6.0602 nil "" (om-make-point 200 200) (om-make-point 500 400)) (quote ((om-load-inputfun (quote input-funbox) "" "fm-1" nil))) (om-make-point 725 239) (om-make-point 51 67) nil nil "Synt") (om-load-editor-box1 "add-3_B.aiff" (quote sound) (quote ((om-load-inputfun (quote input-funbox) "object" "self" nil) (om-load-inputfun (quote input-funbox) "a track index for multichannel mixing" "tracknum" 1) (om-load-inputfun (quote input-funbox) "a list of markers (s)" "markers" nil))) (om-make-point 780 237) (om-make-point 194 71) (let ((newobj (let ((thesound (load-sound (om-make-pathname :directory (quote (:relative "out-files")) :device :unspecific :host :unspecific :name "add-3_B" :type "aiff") 1))) (when thesound (setf (markers thesound) (quote nil))) thesound))) (load-port-info newobj (quote nil)) (init-mus-color newobj (quote nil)) (set-extra-pairs newobj (quote nil)) (set-patch-pairs newobj (quote nil)) (set-name newobj "add-3_B.aiff") (set-tonalite newobj nil) newobj) nil nil (pairlis (quote (palette-mode scale show-stems obj-mode score-mode winpos winsize mode grillestep notechancolor? zoom player inport outport deltapict cmnpref staff fontsize approx)) (list 0 nil (quote t) 1 0 (om-make-point 198 22) (om-make-point 914 885) 0 1000 nil 1 (quote :libaudio) 0 nil (om-make-point 0 0) (let ((newobj (make-instance (quote edition-values)))) (setf (paper-size newobj) (om-make-point 600 800)) (setf (top-margin newobj) 2) (setf (left-margin newobj) 1) (setf (right-margin newobj) 1) (setf (bottom-margin newobj) 1) (setf (orientation newobj) nil) (setf (scale newobj) nil) (setf (system-space newobj) (quote (1))) (setf (system-color newobj) (quote nil)) (setf (line-space newobj) 1) (setf (title newobj) nil) (setf (show-title? newobj) nil) (setf (show-page? newobj) nil) (setf (sheet-id newobj) nil) (setf (page-mode newobj) nil) newobj) (quote g) 24 2)) t nil nil nil) (om-load-boxcall (quote abstraction) "Synt 2" (om-load-patch-abs1 "Synt" (quote ((om-load-boxcall (quote bastype) "aux" (quote t) (quote nil) (om-make-point 91 100) (om-make-point 78 30) "add-3_B" "\"add-3_B\"" nil) (om-load-boxin "OMCh" 0 (om-make-point 31 69) "" "OMCh" nil nil) (om-load-boxout "output" 0 (om-make-point 55 205) (quote ((om-load-inputfun (quote input-funbox) "" "out" nil))) nil nil) (om-load-boxcall (quote genfun) "SYNTHESIZE" (quote synthesize) (quote ((om-load-inputfun (quote input-funbox) "something to synthesize..." "ELEMENTS" nil) (om-load-inputkeyword (quote input-keyword) "" "name" (quote :name) nil nil))) (om-make-point 45 143) nil nil nil nil 1))) (quote ((3 0 2 0 nil 0) (1 0 3 0 nil 0) (0 0 3 1 nil 0))) 6.0602 nil "" (om-make-point 200 200) (om-make-point 500 400)) (quote ((om-load-inputfun (quote input-funbox) "" "fm-1" nil))) (om-make-point 408 238) (om-make-point 51 67) nil nil "Synt") (om-load-editor-box1 "add-3_B.aiff" (quote sound) (quote ((om-load-inputfun (quote input-funbox) "object" "self" nil) (om-load-inputfun (quote input-funbox) "a track index for multichannel mixing" "tracknum" 1) (om-load-inputfun (quote input-funbox) "a list of markers (s)" "markers" nil))) (om-make-point 463 236) (om-make-point 194 71) (let ((newobj (let ((thesound (load-sound (om-make-pathname :directory (quote (:relative "out-files")) :device :unspecific :host :unspecific :name "add-3_B" :type "aiff") 1))) (when thesound (setf (markers thesound) (quote nil))) thesound))) (load-port-info newobj (quote nil)) (init-mus-color newobj (quote nil)) (set-extra-pairs newobj (quote nil)) (set-patch-pairs newobj (quote nil)) (set-name newobj "add-3_B.aiff") (set-tonalite newobj nil) newobj) nil nil (pairlis (quote (palette-mode scale show-stems obj-mode score-mode winpos winsize mode grillestep notechancolor? zoom player inport outport deltapict cmnpref staff fontsize approx)) (list 0 nil (quote t) 1 0 (om-make-point 198 22) (om-make-point 914 885) 0 1000 nil 1 (quote :libaudio) 0 nil (om-make-point 0 0) (let ((newobj (make-instance (quote edition-values)))) (setf (paper-size newobj) (om-make-point 600 800)) (setf (top-margin newobj) 2) (setf (left-margin newobj) 1) (setf (right-margin newobj) 1) (setf (bottom-margin newobj) 1) (setf (orientation newobj) nil) (setf (scale newobj) nil) (setf (system-space newobj) (quote (1))) (setf (system-color newobj) (quote nil)) (setf (line-space newobj) 1) (setf (title newobj) nil) (setf (show-title? newobj) nil) (setf (show-page? newobj) nil) (setf (sheet-id newobj) nil) (setf (page-mode newobj) nil) newobj) (quote g) 24 2)) t nil nil nil) (om-load-boxcall (quote abstraction) "Synt" (om-load-patch-abs1 "Synt" (quote ((om-load-boxcall (quote bastype) "aux" (quote t) (quote nil) (om-make-point 91 100) (om-make-point 78 30) "add-3_A" "\"add-3_A\"" nil) (om-load-boxin "OMCh" 0 (om-make-point 31 69) "" "OMCh" nil nil) (om-load-boxout "output" 0 (om-make-point 55 205) (quote ((om-load-inputfun (quote input-funbox) "" "out" nil))) nil nil) (om-load-boxcall (quote genfun) "SYNTHESIZE" (quote synthesize) (quote ((om-load-inputfun (quote input-funbox) "something to synthesize..." "ELEMENTS" nil) (om-load-inputkeyword (quote input-keyword) "" "name" (quote :name) nil nil))) (om-make-point 45 143) nil nil nil nil 1))) (quote ((3 0 2 0 nil 0) (1 0 3 0 nil 0) (0 0 3 1 nil 0))) 6.0602 nil "" (om-make-point 200 200) (om-make-point 500 400)) (quote ((om-load-inputfun (quote input-funbox) "" "fm-1" nil))) (om-make-point 49 238) (om-make-point 51 67) nil nil "Synt") (om-load-editor-box1 "add-3_A.aiff" (quote sound) (quote ((om-load-inputfun (quote input-funbox) "object" "self" nil) (om-load-inputfun (quote input-funbox) "a track index for multichannel mixing" "tracknum" 1) (om-load-inputfun (quote input-funbox) "a list of markers (s)" "markers" nil))) (om-make-point 104 236) (om-make-point 194 71) (let ((newobj (let ((thesound (load-sound (om-make-pathname :directory (quote (:relative "out-files")) :device :unspecific :host :unspecific :name "add-3_A" :type "aiff") 1))) (when thesound (setf (markers thesound) (quote nil))) thesound))) (load-port-info newobj (quote nil)) (init-mus-color newobj (quote nil)) (set-extra-pairs newobj (quote nil)) (set-patch-pairs newobj (quote nil)) (set-name newobj "add-3_A.aiff") (set-tonalite newobj nil) newobj) nil nil (pairlis (quote (palette-mode scale show-stems obj-mode score-mode winpos winsize mode grillestep notechancolor? zoom player inport outport deltapict cmnpref staff fontsize approx)) (list 0 nil (quote t) 1 0 (om-make-point 198 22) (om-make-point 914 885) 0 1000 nil 1 (quote :libaudio) 0 nil (om-make-point 0 0) (let ((newobj (make-instance (quote edition-values)))) (setf (paper-size newobj) (om-make-point 600 800)) (setf (top-margin newobj) 2) (setf (left-margin newobj) 1) (setf (right-margin newobj) 1) (setf (bottom-margin newobj) 1) (setf (orientation newobj) nil) (setf (scale newobj) nil) (setf (system-space newobj) (quote (1))) (setf (system-color newobj) (quote nil)) (setf (line-space newobj) 1) (setf (title newobj) nil) (setf (show-title? newobj) nil) (setf (show-page? newobj) nil) (setf (sheet-id newobj) nil) (setf (page-mode newobj) nil) newobj) (quote g) 24 2)) t nil nil nil) (om-load-boxcall (quote bastype) "aux 15" (quote t) (quote nil) (om-make-point 974 121) (om-make-point 27 30) 2 "2" nil) (om-load-boxcall (quote bastype) "aux 14" (quote t) (quote nil) (om-make-point 928 121) (om-make-point 45 30) 0.05 "0.05" nil) (om-load-boxcomment "comment 28" (om-make-point 43 88) (quote "C") "" (om-make-point 722 86) nil (om-make-color 1.0 0.0 0.011788845) (om-make-font "Verdana" 36.0 :family "Verdana" :style (quote (:bold)) :mode (quote nil))) (om-load-boxcomment "comment 26" (om-make-point 50 34) (quote "fdev") "" (om-make-point 924 95) nil (om-make-color 1.0 0.0 0.0) (om-make-font "Verdana" 14.0 :family "Verdana" :style (quote (:bold)) :mode (quote nil))) (om-load-boxcomment "comment 24" (om-make-point 53 34) (quote "aenv") "" (om-make-point 876 94) nil (om-make-color 1.0 0.0 0.0) (om-make-font "Verdana" 14.0 :family "Verdana" :style (quote (:bold)) :mode (quote nil))) (om-load-boxcomment "comment 23" (om-make-point 48 34) (quote "freq") "" (om-make-point 836 95) nil (om-make-color 1.0 0.0 0.0) (om-make-font "Verdana" 14.0 :family "Verdana" :style (quote (:bold)) :mode (quote nil))) (om-load-editor-box1 "ADD-3 3" (quote add-3) (quote ((om-load-inputfun (quote input-funbox) "Synthesis event" "self" nil) (om-load-inputfun (quote input-funbox) "Number of components [int]" "numcols" 1) (om-load-inputfun (quote input-funbox) "Event offset [s]" "action-time" 0) (om-load-inputfun (quote input-funbox) "A lambda function applied to each component" "user-fun" nil) (om-load-inputkeyword (quote editor-keyword) "" "e-dels" (quote :e-dels) nil nil) (om-load-inputkeyword (quote editor-keyword) "" "durs" (quote :durs) nil nil) (om-load-inputkeyword (quote editor-keyword) "" "amp" (quote :amp) nil nil) (om-load-inputkeyword (quote editor-keyword) "" "freq" (quote :freq) nil nil) (om-load-inputkeyword (quote editor-keyword) "" "aenv" (quote :aenv) nil nil) (om-load-inputkeyword (quote editor-keyword) "" "fdev" (quote :fdev) nil nil) (om-load-inputkeyword (quote editor-keyword) "" "vfq" (quote :vfq) nil nil) (om-load-inputkeyword (quote editor-keyword) "" "fenv" (quote :fenv) nil nil))) (om-make-point 719 165) (om-make-point 297 61) (let ((rep (if (find-class (quote add-3) nil) (let ((rep (make-instance (quote add-3) :numcols 4))) (when (member (quote e-dels) (get-init-slots-of-class (quote add-3)) :key (quote car)) (setf (slot-value rep (quote e-dels)) (list 0 2 4 6))) (when (member (quote durs) (get-init-slots-of-class (quote add-3)) :key (quote car)) (setf (slot-value rep (quote durs)) 2)) (when (member (quote amp) (get-init-slots-of-class (quote add-3)) :key (quote car)) (setf (slot-value rep (quote amp)) -6.0)) (when (member (quote freq) (get-init-slots-of-class (quote add-3)) :key (quote car)) (setf (slot-value rep (quote freq)) 440)) (when (member (quote aenv) (get-init-slots-of-class (quote add-3)) :key (quote car)) (setf (slot-value rep (quote aenv)) (let ((newobj (when (find-class (quote bpf) nil) (let ((newbpf (simple-bpf-from-list (quote (0 5 95 100)) (quote (0 10 10 0)) (quote bpf) 0))) (setf (bpfcolor newbpf) (om-make-color 0 0 0)) (set-name newbpf nil) newbpf)))) (when newobj) newobj))) (when (member (quote fdev) (get-init-slots-of-class (quote add-3)) :key (quote car)) (setf (slot-value rep (quote fdev)) 0.05)) (when (member (quote vfq) (get-init-slots-of-class (quote add-3)) :key (quote car)) (setf (slot-value rep (quote vfq)) 2)) (when (member (quote fenv) (get-init-slots-of-class (quote add-3)) :key (quote car)) (setf (slot-value rep (quote fenv)) (list (let ((newobj (when (find-class (quote bpf) nil) (let ((newbpf (simple-bpf-from-list (quote (0 50 100)) (quote (0 10 0)) (quote bpf) 0))) (setf (bpfcolor newbpf) (om-make-color 0 0 0)) (set-name newbpf nil) newbpf)))) (when newobj) newobj) (let ((newobj (when (find-class (quote bpf) nil) (let ((newbpf (simple-bpf-from-list (quote (0 100)) (quote (10 0)) (quote bpf) 0))) (setf (bpfcolor newbpf) (om-make-color 0 0 0)) (set-name newbpf nil) newbpf)))) (when newobj) newobj) (let ((newobj (when (find-class (quote bpf) nil) (let ((newbpf (simple-bpf-from-list (quote (0 100)) (quote (0 10)) (quote bpf) 0))) (setf (bpfcolor newbpf) (om-make-color 0 0 0)) (set-name newbpf nil) newbpf)))) (when newobj) newobj) (let ((newobj (when (find-class (quote bpf) nil) (let ((newbpf (simple-bpf-from-list (quote (0 21 50 79 96 112 135 150 154 176 202 203 224 255 263 273 280 312 317 334 338 358 377 388 403)) (quote (112 741 61 875 982 834 206 847 106 12 547 672 206 935 587 345 694 699 621 538 314 867 131 901 1671)) (quote bpf) 0))) (setf (bpfcolor newbpf) (om-make-color 0 0 0)) (set-name newbpf nil) newbpf)))) (when newobj) newobj)))) (setf (lcontrols rep) (list)) (setf (action-time rep) 0) (setf (data rep) (list (list 0 2 4 6) (list 2 2 2 2) (list -6.0 -6.0 -6.0 -6.0) (list 440 440 440 440) (list (let ((newobj (when (find-class (quote gen07) nil) (let ((newbpf (simple-bpf-from-list (quote (0 5 95 100)) (quote (0 10 10 0)) (quote gen07) 0))) (setf (bpfcolor newbpf) (om-make-color 0 0 0)) (set-name newbpf nil) newbpf)))) (when newobj (setf (stime newobj) 0) (setf (size newobj) 513) (setf (id newobj) "?")) newobj) (let ((newobj (when (find-class (quote gen07) nil) (let ((newbpf (simple-bpf-from-list (quote (0 5 95 100)) (quote (0 10 10 0)) (quote gen07) 0))) (setf (bpfcolor newbpf) (om-make-color 0 0 0)) (set-name newbpf nil) newbpf)))) (when newobj (setf (stime newobj) 0) (setf (size newobj) 513) (setf (id newobj) "?")) newobj) (let ((newobj (when (find-class (quote gen07) nil) (let ((newbpf (simple-bpf-from-list (quote (0 5 95 100)) (quote (0 10 10 0)) (quote gen07) 0))) (setf (bpfcolor newbpf) (om-make-color 0 0 0)) (set-name newbpf nil) newbpf)))) (when newobj (setf (stime newobj) 0) (setf (size newobj) 513) (setf (id newobj) "?")) newobj) (let ((newobj (when (find-class (quote gen07) nil) (let ((newbpf (simple-bpf-from-list (quote (0 5 95 100)) (quote (0 10 10 0)) (quote gen07) 0))) (setf (bpfcolor newbpf) (om-make-color 0 0 0)) (set-name newbpf nil) newbpf)))) (when newobj (setf (stime newobj) 0) (setf (size newobj) 513) (setf (id newobj) "?")) newobj)) (list 0.05 0.05 0.05 0.05) (list 2 2 2 2) (list (let ((newobj (when (find-class (quote gen07) nil) (let ((newbpf (simple-bpf-from-list (quote (0 50 100)) (quote (0 10 0)) (quote gen07) 0))) (setf (bpfcolor newbpf) (om-make-color 0 0 0)) (set-name newbpf nil) newbpf)))) (when newobj (setf (stime newobj) 0) (setf (size newobj) 513) (setf (id newobj) "?")) newobj) (let ((newobj (when (find-class (quote gen07) nil) (let ((newbpf (simple-bpf-from-list (quote (0 100)) (quote (10 0)) (quote gen07) 0))) (setf (bpfcolor newbpf) (om-make-color 0 0 0)) (set-name newbpf nil) newbpf)))) (when newobj (setf (stime newobj) 0) (setf (size newobj) 513) (setf (id newobj) "?")) newobj) (let ((newobj (when (find-class (quote gen07) nil) (let ((newbpf (simple-bpf-from-list (quote (0 100)) (quote (0 10)) (quote gen07) 0))) (setf (bpfcolor newbpf) (om-make-color 0 0 0)) (set-name newbpf nil) newbpf)))) (when newobj (setf (stime newobj) 0) (setf (size newobj) 513) (setf (id newobj) "?")) newobj) (let ((newobj (when (find-class (quote gen07) nil) (let ((newbpf (simple-bpf-from-list (quote (0 21 50 79 96 112 135 150 154 176 202 203 224 255 263 273 280 312 317 334 338 358 377 388 403)) (quote (112 741 61 875 982 834 206 847 106 12 547 672 206 935 587 345 694 699 621 538 314 867 131 901 1671)) (quote gen07) 0))) (setf (bpfcolor newbpf) (om-make-color 0 0 0)) (set-name newbpf nil) newbpf)))) (when newobj (setf (stime newobj) 0) (setf (size newobj) 513) (setf (id newobj) "?")) newobj)))) rep)))) (put-precision rep (list 3)) rep) nil nil (pairlis (quote (winpos winsize color-list show-opt-fields cur-group-ind panel-list)) (list (om-make-point 10 40) (om-make-point 500 280) (list (om-make-color 0 0 0) (om-make-color 0 0 0) (om-make-color 0 0 0) (om-make-color 0 0 0) (om-make-color 0 0 0) (om-make-color 0 0 0) (om-make-color 0 0 0) (om-make-color 0 0 0)) (quote t) 0 (list (list "All open" (list 0 (quote t)) (list 1 (quote t)) (list 2 (quote t)) (list 3 (quote t)) (list 4 (quote t)) (list 5 (quote t)) (list 6 (quote t)) (list 7 (quote t))) (list "All close" (list 0 nil) (list 1 nil) (list 2 nil) (list 3 nil) (list 4 nil) (list 5 nil) (list 6 nil) (list 7 nil))))) nil nil nil nil) (om-load-boxcall (quote bastype) "aux 11" (quote t) (quote nil) (om-make-point 837 122) (om-make-point 41 30) 440 "440" nil) (om-load-boxcomment "comment 20" (om-make-point 43 34) (quote "vfq") "" (om-make-point 970 94) nil (om-make-color 1.0 0.0 0.0) (om-make-font "Verdana" 14.0 :family "Verdana" :style (quote (:bold)) :mode (quote nil))) (om-load-boxcomment "comment 19" (om-make-point 44 88) (quote "B") "" (om-make-point 380 84) nil (om-make-color 1.0 0.0 0.011788845) (om-make-font "Verdana" 36.0 :family "Verdana" :style (quote (:bold)) :mode (quote nil))) (om-load-boxcomment "comment 18" (om-make-point 33 352) (quote "|$|$|$|$|$") "" (om-make-point 690 49) nil (om-make-color 1.0 0.0 0.0) (om-make-font "Verdana" 36.0 :family "Verdana" :style (quote (:plain)) :mode (quote nil))) (om-load-boxcall (quote bastype) "aux 10" (quote t) (quote nil) (om-make-point 587 125) (om-make-point 45 30) 0.05 "0.05" nil) (om-load-boxcall (quote bastype) "aux 9" (quote t) (quote nil) (om-make-point 565 63) (om-make-point 110 30) (list 0.5 1 2 4 8 16) "(0.5 1 2 4 8 16)" nil) (om-load-boxcomment "comment 17" (om-make-point 50 34) (quote "fdev") "" (om-make-point 584 98) nil (om-make-color 1.0 0.0 0.0) (om-make-font "Verdana" 14.0 :family "Verdana" :style (quote (:bold)) :mode (quote nil))) (om-load-boxcomment "comment 16" (om-make-point 53 34) (quote "fenv") "" (om-make-point 632 98) nil (om-make-color 1.0 0.0 0.0) (om-make-font "Verdana" 14.0 :family "Verdana" :style (quote (:bold)) :mode (quote nil))) (om-load-boxcomment "comment 15" (om-make-point 53 34) (quote "aenv") "" (om-make-point 534 100) nil (om-make-color 1.0 0.0 0.0) (om-make-font "Verdana" 14.0 :family "Verdana" :style (quote (:bold)) :mode (quote nil))) (om-load-boxcomment "comment 14" (om-make-point 48 34) (quote "freq") "" (om-make-point 496 100) nil (om-make-color 1.0 0.0 0.0) (om-make-font "Verdana" 14.0 :family "Verdana" :style (quote (:bold)) :mode (quote nil))) (om-load-editor-box1 "ADD-3 2" (quote add-3) (quote ((om-load-inputfun (quote input-funbox) "Synthesis event" "self" nil) (om-load-inputfun (quote input-funbox) "Number of components [int]" "numcols" 1) (om-load-inputfun (quote input-funbox) "Event offset [s]" "action-time" 0) (om-load-inputfun (quote input-funbox) "A lambda function applied to each component" "user-fun" nil) (om-load-inputkeyword (quote editor-keyword) "" "e-dels" (quote :e-dels) nil nil) (om-load-inputkeyword (quote editor-keyword) "" "durs" (quote :durs) nil nil) (om-load-inputkeyword (quote editor-keyword) "" "amp" (quote :amp) nil nil) (om-load-inputkeyword (quote editor-keyword) "" "freq" (quote :freq) nil nil) (om-load-inputkeyword (quote editor-keyword) "" "aenv" (quote :aenv) nil nil) (om-load-inputkeyword (quote editor-keyword) "" "fdev" (quote :fdev) nil nil) (om-load-inputkeyword (quote editor-keyword) "" "vfq" (quote :vfq) nil nil) (om-load-inputkeyword (quote editor-keyword) "" "fenv" (quote :fenv) nil nil))) (om-make-point 377 166) (om-make-point 302 58) (let ((rep (if (find-class (quote add-3) nil) (let ((rep (make-instance (quote add-3) :numcols 6))) (when (member (quote e-dels) (get-init-slots-of-class (quote add-3)) :key (quote car)) (setf (slot-value rep (quote e-dels)) (list 0 2 4 6 8 10))) (when (member (quote durs) (get-init-slots-of-class (quote add-3)) :key (quote car)) (setf (slot-value rep (quote durs)) 2)) (when (member (quote amp) (get-init-slots-of-class (quote add-3)) :key (quote car)) (setf (slot-value rep (quote amp)) -6.0)) (when (member (quote freq) (get-init-slots-of-class (quote add-3)) :key (quote car)) (setf (slot-value rep (quote freq)) 440)) (when (member (quote aenv) (get-init-slots-of-class (quote add-3)) :key (quote car)) (setf (slot-value rep (quote aenv)) (let ((newobj (when (find-class (quote bpf) nil) (let ((newbpf (simple-bpf-from-list (quote (0 5 95 100)) (quote (0 10 10 0)) (quote bpf) 0))) (setf (bpfcolor newbpf) (om-make-color 0 0 0)) (set-name newbpf nil) newbpf)))) (when newobj) newobj))) (when (member (quote fdev) (get-init-slots-of-class (quote add-3)) :key (quote car)) (setf (slot-value rep (quote fdev)) 0.05)) (when (member (quote vfq) (get-init-slots-of-class (quote add-3)) :key (quote car)) (setf (slot-value rep (quote vfq)) (list 0.5 1 2 4 8 16))) (when (member (quote fenv) (get-init-slots-of-class (quote add-3)) :key (quote car)) (setf (slot-value rep (quote fenv)) (let ((newobj (when (find-class (quote bpf) nil) (let ((newbpf (simple-bpf-from-list (quote (0 50 100)) (quote (0 10 0)) (quote bpf) 0))) (setf (bpfcolor newbpf) (om-make-color 0 0 0)) (set-name newbpf nil) newbpf)))) (when newobj) newobj))) (setf (lcontrols rep) (list)) (setf (action-time rep) 0) (setf (data rep) (list (list 0 2 4 6 8 10) (list 2 2 2 2 2 2) (list -6.0 -6.0 -6.0 -6.0 -6.0 -6.0) (list 440 440 440 440 440 440) (list (let ((newobj (when (find-class (quote gen07) nil) (let ((newbpf (simple-bpf-from-list (quote (0 5 95 100)) (quote (0 10 10 0)) (quote gen07) 0))) (setf (bpfcolor newbpf) (om-make-color 0 0 0)) (set-name newbpf nil) newbpf)))) (when newobj (setf (stime newobj) 0) (setf (size newobj) 513) (setf (id newobj) "?")) newobj) (let ((newobj (when (find-class (quote gen07) nil) (let ((newbpf (simple-bpf-from-list (quote (0 5 95 100)) (quote (0 10 10 0)) (quote gen07) 0))) (setf (bpfcolor newbpf) (om-make-color 0 0 0)) (set-name newbpf nil) newbpf)))) (when newobj (setf (stime newobj) 0) (setf (size newobj) 513) (setf (id newobj) "?")) newobj) (let ((newobj (when (find-class (quote gen07) nil) (let ((newbpf (simple-bpf-from-list (quote (0 5 95 100)) (quote (0 10 10 0)) (quote gen07) 0))) (setf (bpfcolor newbpf) (om-make-color 0 0 0)) (set-name newbpf nil) newbpf)))) (when newobj (setf (stime newobj) 0) (setf (size newobj) 513) (setf (id newobj) "?")) newobj) (let ((newobj (when (find-class (quote gen07) nil) (let ((newbpf (simple-bpf-from-list (quote (0 5 95 100)) (quote (0 10 10 0)) (quote gen07) 0))) (setf (bpfcolor newbpf) (om-make-color 0 0 0)) (set-name newbpf nil) newbpf)))) (when newobj (setf (stime newobj) 0) (setf (size newobj) 513) (setf (id newobj) "?")) newobj) (let ((newobj (when (find-class (quote gen07) nil) (let ((newbpf (simple-bpf-from-list (quote (0 5 95 100)) (quote (0 10 10 0)) (quote gen07) 0))) (setf (bpfcolor newbpf) (om-make-color 0 0 0)) (set-name newbpf nil) newbpf)))) (when newobj (setf (stime newobj) 0) (setf (size newobj) 513) (setf (id newobj) "?")) newobj) (let ((newobj (when (find-class (quote gen07) nil) (let ((newbpf (simple-bpf-from-list (quote (0 5 95 100)) (quote (0 10 10 0)) (quote gen07) 0))) (setf (bpfcolor newbpf) (om-make-color 0 0 0)) (set-name newbpf nil) newbpf)))) (when newobj (setf (stime newobj) 0) (setf (size newobj) 513) (setf (id newobj) "?")) newobj)) (list 0.05 0.05 0.05 0.05 0.05 0.05) (list 0.5 1 2 4 8 16) (list (let ((newobj (when (find-class (quote gen07) nil) (let ((newbpf (simple-bpf-from-list (quote (0 50 100)) (quote (0 10 0)) (quote gen07) 0))) (setf (bpfcolor newbpf) (om-make-color 0 0 0)) (set-name newbpf nil) newbpf)))) (when newobj (setf (stime newobj) 0) (setf (size newobj) 513) (setf (id newobj) "?")) newobj) (let ((newobj (when (find-class (quote gen07) nil) (let ((newbpf (simple-bpf-from-list (quote (0 50 100)) (quote (0 10 0)) (quote gen07) 0))) (setf (bpfcolor newbpf) (om-make-color 0 0 0)) (set-name newbpf nil) newbpf)))) (when newobj (setf (stime newobj) 0) (setf (size newobj) 513) (setf (id newobj) "?")) newobj) (let ((newobj (when (find-class (quote gen07) nil) (let ((newbpf (simple-bpf-from-list (quote (0 50 100)) (quote (0 10 0)) (quote gen07) 0))) (setf (bpfcolor newbpf) (om-make-color 0 0 0)) (set-name newbpf nil) newbpf)))) (when newobj (setf (stime newobj) 0) (setf (size newobj) 513) (setf (id newobj) "?")) newobj) (let ((newobj (when (find-class (quote gen07) nil) (let ((newbpf (simple-bpf-from-list (quote (0 50 100)) (quote (0 10 0)) (quote gen07) 0))) (setf (bpfcolor newbpf) (om-make-color 0 0 0)) (set-name newbpf nil) newbpf)))) (when newobj (setf (stime newobj) 0) (setf (size newobj) 513) (setf (id newobj) "?")) newobj) (let ((newobj (when (find-class (quote gen07) nil) (let ((newbpf (simple-bpf-from-list (quote (0 50 100)) (quote (0 10 0)) (quote gen07) 0))) (setf (bpfcolor newbpf) (om-make-color 0 0 0)) (set-name newbpf nil) newbpf)))) (when newobj (setf (stime newobj) 0) (setf (size newobj) 513) (setf (id newobj) "?")) newobj) (let ((newobj (when (find-class (quote gen07) nil) (let ((newbpf (simple-bpf-from-list (quote (0 50 100)) (quote (0 10 0)) (quote gen07) 0))) (setf (bpfcolor newbpf) (om-make-color 0 0 0)) (set-name newbpf nil) newbpf)))) (when newobj (setf (stime newobj) 0) (setf (size newobj) 513) (setf (id newobj) "?")) newobj)))) rep)))) (put-precision rep (list 3)) rep) nil nil (pairlis (quote (winpos winsize color-list show-opt-fields cur-group-ind panel-list)) (list (om-make-point 10 40) (om-make-point 500 280) (list (om-make-color 0 0 0) (om-make-color 0 0 0) (om-make-color 0 0 0) (om-make-color 0 0 0) (om-make-color 0 0 0) (om-make-color 0 0 0) (om-make-color 0 0 0) (om-make-color 0 0 0)) (quote t) 0 (list (list "All open" (list 0 (quote t)) (list 1 (quote t)) (list 2 (quote t)) (list 3 (quote t)) (list 4 (quote t)) (list 5 (quote t)) (list 6 (quote t)) (list 7 (quote t))) (list "All close" (list 0 nil) (list 1 nil) (list 2 nil) (list 3 nil) (list 4 nil) (list 5 nil) (list 6 nil) (list 7 nil))))) nil nil nil nil) (om-load-boxcall (quote bastype) "aux 6" (quote t) (quote nil) (om-make-point 497 127) (om-make-point 41 30) 440 "440" nil) (om-load-boxcomment "comment 7" (om-make-point 43 34) (quote "vfq") "" (om-make-point 602 36) nil (om-make-color 1.0 0.0 0.0) (om-make-font "Verdana" 14.0 :family "Verdana" :style (quote (:bold)) :mode (quote nil))) (om-load-boxcomment "comment 11" (om-make-point 53 34) (quote "fenv") "" (om-make-point 281 100) nil (om-make-color 1.0 0.0 0.0) (om-make-font "Verdana" 14.0 :family "Verdana" :style (quote (:bold)) :mode (quote nil))) (om-load-editor-box1 "ADD-3" (quote add-3) (quote ((om-load-inputfun (quote input-funbox) "Synthesis event" "self" nil) (om-load-inputfun (quote input-funbox) "Number of components [int]" "numcols" 1) (om-load-inputfun (quote input-funbox) "Event offset [s]" "action-time" 0) (om-load-inputfun (quote input-funbox) "A lambda function applied to each component" "user-fun" nil) (om-load-inputkeyword (quote editor-keyword) "" "e-dels" (quote :e-dels) nil nil) (om-load-inputkeyword (quote editor-keyword) "" "durs" (quote :durs) nil nil) (om-load-inputkeyword (quote editor-keyword) "" "amp" (quote :amp) nil nil) (om-load-inputkeyword (quote editor-keyword) "" "freq" (quote :freq) nil nil) (om-load-inputkeyword (quote editor-keyword) "" "aenv" (quote :aenv) nil nil) (om-load-inputkeyword (quote editor-keyword) "" "fdev" (quote :fdev) nil nil) (om-load-inputkeyword (quote editor-keyword) "" "vfq" (quote :vfq) nil nil) (om-load-inputkeyword (quote editor-keyword) "" "fenv" (quote :fenv) nil nil))) (om-make-point 21 167) (om-make-point 300 59) (let ((rep (if (find-class (quote add-3) nil) (let ((rep (make-instance (quote add-3) :numcols 7))) (when (member (quote e-dels) (get-init-slots-of-class (quote add-3)) :key (quote car)) (setf (slot-value rep (quote e-dels)) (list 0 2 4 6 8 10 12))) (when (member (quote durs) (get-init-slots-of-class (quote add-3)) :key (quote car)) (setf (slot-value rep (quote durs)) 2)) (when (member (quote amp) (get-init-slots-of-class (quote add-3)) :key (quote car)) (setf (slot-value rep (quote amp)) -6.0)) (when (member (quote freq) (get-init-slots-of-class (quote add-3)) :key (quote car)) (setf (slot-value rep (quote freq)) 440)) (when (member (quote aenv) (get-init-slots-of-class (quote add-3)) :key (quote car)) (setf (slot-value rep (quote aenv)) (let ((newobj (when (find-class (quote bpf) nil) (let ((newbpf (simple-bpf-from-list (quote (0 5 95 100)) (quote (0 10 10 0)) (quote bpf) 0))) (setf (bpfcolor newbpf) (om-make-color 0 0 0)) (set-name newbpf nil) newbpf)))) (when newobj) newobj))) (when (member (quote fdev) (get-init-slots-of-class (quote add-3)) :key (quote car)) (setf (slot-value rep (quote fdev)) (list 0.01 0.025 0.05 0.1 0.25 0.5 1))) (when (member (quote vfq) (get-init-slots-of-class (quote add-3)) :key (quote car)) (setf (slot-value rep (quote vfq)) 1)) (when (member (quote fenv) (get-init-slots-of-class (quote add-3)) :key (quote car)) (setf (slot-value rep (quote fenv)) (let ((newobj (when (find-class (quote bpf) nil) (let ((newbpf (simple-bpf-from-list (quote (0 50 100)) (quote (0 10 0)) (quote bpf) 0))) (setf (bpfcolor newbpf) (om-make-color 0 0 0)) (set-name newbpf nil) newbpf)))) (when newobj) newobj))) (setf (lcontrols rep) (list)) (setf (action-time rep) 0) (setf (data rep) (list (list 0 2 4 6 8 10 12) (list 2 2 2 2 2 2 2) (list -6.0 -6.0 -6.0 -6.0 -6.0 -6.0 -6.0) (list 440 440 440 440 440 440 440) (list (let ((newobj (when (find-class (quote gen07) nil) (let ((newbpf (simple-bpf-from-list (quote (0 5 95 100)) (quote (0 10 10 0)) (quote gen07) 0))) (setf (bpfcolor newbpf) (om-make-color 0 0 0)) (set-name newbpf nil) newbpf)))) (when newobj (setf (stime newobj) 0) (setf (size newobj) 513) (setf (id newobj) "?")) newobj) (let ((newobj (when (find-class (quote gen07) nil) (let ((newbpf (simple-bpf-from-list (quote (0 5 95 100)) (quote (0 10 10 0)) (quote gen07) 0))) (setf (bpfcolor newbpf) (om-make-color 0 0 0)) (set-name newbpf nil) newbpf)))) (when newobj (setf (stime newobj) 0) (setf (size newobj) 513) (setf (id newobj) "?")) newobj) (let ((newobj (when (find-class (quote gen07) nil) (let ((newbpf (simple-bpf-from-list (quote (0 5 95 100)) (quote (0 10 10 0)) (quote gen07) 0))) (setf (bpfcolor newbpf) (om-make-color 0 0 0)) (set-name newbpf nil) newbpf)))) (when newobj (setf (stime newobj) 0) (setf (size newobj) 513) (setf (id newobj) "?")) newobj) (let ((newobj (when (find-class (quote gen07) nil) (let ((newbpf (simple-bpf-from-list (quote (0 5 95 100)) (quote (0 10 10 0)) (quote gen07) 0))) (setf (bpfcolor newbpf) (om-make-color 0 0 0)) (set-name newbpf nil) newbpf)))) (when newobj (setf (stime newobj) 0) (setf (size newobj) 513) (setf (id newobj) "?")) newobj) (let ((newobj (when (find-class (quote gen07) nil) (let ((newbpf (simple-bpf-from-list (quote (0 5 95 100)) (quote (0 10 10 0)) (quote gen07) 0))) (setf (bpfcolor newbpf) (om-make-color 0 0 0)) (set-name newbpf nil) newbpf)))) (when newobj (setf (stime newobj) 0) (setf (size newobj) 513) (setf (id newobj) "?")) newobj) (let ((newobj (when (find-class (quote gen07) nil) (let ((newbpf (simple-bpf-from-list (quote (0 5 95 100)) (quote (0 10 10 0)) (quote gen07) 0))) (setf (bpfcolor newbpf) (om-make-color 0 0 0)) (set-name newbpf nil) newbpf)))) (when newobj (setf (stime newobj) 0) (setf (size newobj) 513) (setf (id newobj) "?")) newobj) (let ((newobj (when (find-class (quote gen07) nil) (let ((newbpf (simple-bpf-from-list (quote (0 5 95 100)) (quote (0 10 10 0)) (quote gen07) 0))) (setf (bpfcolor newbpf) (om-make-color 0 0 0)) (set-name newbpf nil) newbpf)))) (when newobj (setf (stime newobj) 0) (setf (size newobj) 513) (setf (id newobj) "?")) newobj)) (list 0.01 0.025 0.05 0.1 0.25 0.5 1) (list 1 1 1 1 1 1 1) (list (let ((newobj (when (find-class (quote gen07) nil) (let ((newbpf (simple-bpf-from-list (quote (0 50 100)) (quote (0 10 0)) (quote gen07) 0))) (setf (bpfcolor newbpf) (om-make-color 0 0 0)) (set-name newbpf nil) newbpf)))) (when newobj (setf (stime newobj) 0) (setf (size newobj) 513) (setf (id newobj) "?")) newobj) (let ((newobj (when (find-class (quote gen07) nil) (let ((newbpf (simple-bpf-from-list (quote (0 50 100)) (quote (0 10 0)) (quote gen07) 0))) (setf (bpfcolor newbpf) (om-make-color 0 0 0)) (set-name newbpf nil) newbpf)))) (when newobj (setf (stime newobj) 0) (setf (size newobj) 513) (setf (id newobj) "?")) newobj) (let ((newobj (when (find-class (quote gen07) nil) (let ((newbpf (simple-bpf-from-list (quote (0 50 100)) (quote (0 10 0)) (quote gen07) 0))) (setf (bpfcolor newbpf) (om-make-color 0 0 0)) (set-name newbpf nil) newbpf)))) (when newobj (setf (stime newobj) 0) (setf (size newobj) 513) (setf (id newobj) "?")) newobj) (let ((newobj (when (find-class (quote gen07) nil) (let ((newbpf (simple-bpf-from-list (quote (0 50 100)) (quote (0 10 0)) (quote gen07) 0))) (setf (bpfcolor newbpf) (om-make-color 0 0 0)) (set-name newbpf nil) newbpf)))) (when newobj (setf (stime newobj) 0) (setf (size newobj) 513) (setf (id newobj) "?")) newobj) (let ((newobj (when (find-class (quote gen07) nil) (let ((newbpf (simple-bpf-from-list (quote (0 50 100)) (quote (0 10 0)) (quote gen07) 0))) (setf (bpfcolor newbpf) (om-make-color 0 0 0)) (set-name newbpf nil) newbpf)))) (when newobj (setf (stime newobj) 0) (setf (size newobj) 513) (setf (id newobj) "?")) newobj) (let ((newobj (when (find-class (quote gen07) nil) (let ((newbpf (simple-bpf-from-list (quote (0 50 100)) (quote (0 10 0)) (quote gen07) 0))) (setf (bpfcolor newbpf) (om-make-color 0 0 0)) (set-name newbpf nil) newbpf)))) (when newobj (setf (stime newobj) 0) (setf (size newobj) 513) (setf (id newobj) "?")) newobj) (let ((newobj (when (find-class (quote gen07) nil) (let ((newbpf (simple-bpf-from-list (quote (0 50 100)) (quote (0 10 0)) (quote gen07) 0))) (setf (bpfcolor newbpf) (om-make-color 0 0 0)) (set-name newbpf nil) newbpf)))) (when newobj (setf (stime newobj) 0) (setf (size newobj) 513) (setf (id newobj) "?")) newobj)))) rep)))) (put-precision rep (list 3)) rep) nil nil (pairlis (quote (winpos winsize color-list show-opt-fields cur-group-ind panel-list)) (list (om-make-point 10 40) (om-make-point 500 280) (list (om-make-color 0 0 0) (om-make-color 0 0 0) (om-make-color 0 0 0) (om-make-color 0 0 0) (om-make-color 0 0 0) (om-make-color 0 0 0) (om-make-color 0 0 0) (om-make-color 0 0 0)) (quote t) 0 (list (list "All open" (list 0 (quote t)) (list 1 (quote t)) (list 2 (quote t)) (list 3 (quote t)) (list 4 (quote t)) (list 5 (quote t)) (list 6 (quote t)) (list 7 (quote t))) (list "All close" (list 0 nil) (list 1 nil) (list 2 nil) (list 3 nil) (list 4 nil) (list 5 nil) (list 6 nil) (list 7 nil))))) nil nil nil nil) (om-load-boxcomment "comment 10" (om-make-point 33 352) (quote "|$|$|$|$|$") "" (om-make-point 348 50) nil (om-make-color 1.0 0.0 0.0) (om-make-font "Verdana" 36.0 :family "Verdana" :style (quote (:plain)) :mode (quote nil))) (om-load-boxcomment "comment 9" (om-make-point 44 88) (quote "A") "" (om-make-point 29 86) nil (om-make-color 1.0 0.0 0.011788845) (om-make-font "Verdana" 36.0 :family "Verdana" :style (quote (:bold)) :mode (quote nil))) (om-load-boxcomment "comment 8" (om-make-point 53 34) (quote "aenv") "" (om-make-point 184 101) nil (om-make-color 1.0 0.0 0.0) (om-make-font "Verdana" 14.0 :family "Verdana" :style (quote (:bold)) :mode (quote nil))) (om-load-boxcomment "comment 6" (om-make-point 43 34) (quote "vfq") "" (om-make-point 239 100) nil (om-make-color 1.0 0.0 0.0) (om-make-font "Verdana" 14.0 :family "Verdana" :style (quote (:bold)) :mode (quote nil))) (om-load-boxcomment "comment 5" (om-make-point 50 34) (quote "fdev") "" (om-make-point 207 39) nil (om-make-color 1.0 0.0 0.0) (om-make-font "Verdana" 14.0 :family "Verdana" :style (quote (:bold)) :mode (quote nil))) (om-load-boxcomment "comment 4" (om-make-point 48 34) (quote "freq") "" (om-make-point 141 101) nil (om-make-color 1.0 0.0 0.0) (om-make-font "Verdana" 14.0 :family "Verdana" :style (quote (:bold)) :mode (quote nil))) (om-load-boxcomment "comment 2" (om-make-point 220 34) (quote "Tutorial ADD-3") "" (om-make-point 57 4) nil (om-make-color 1.0 0.0 0.0) (om-make-font "Verdana" 14.0 :family "Verdana" :style (quote (:bold)) :mode (quote nil))) (om-load-boxcall (quote bastype) "aux 5" (quote t) (quote nil) (om-make-point 246 129) (om-make-point 27 30) 1 "1" nil) (om-load-boxcall (quote bastype) "aux 4" (quote t) (quote nil) (om-make-point 136 64) (om-make-point 204 30) (list 0.01 0.025 0.05 0.1 0.25 0.5 1) "(0.01 0.025 0.05 0.1 0.25 0.5 1)" nil) (om-load-boxcall (quote bastype) "aux 3" (quote t) (quote nil) (om-make-point 142 128) (om-make-point 41 30) 440 "440" nil))) (quote ((3 0 2 0 nil 0) (5 0 2 1 nil 0) (4 0 2 2 nil 0) (7 0 2 3 nil 0) (6 0 7 0 nil 2) (12 0 14 0 nil 3) (2 0 14 1 nil 1) (15 0 17 0 nil 3) (39 0 17 1 nil 1) (18 0 20 0 nil 3) (57 0 20 1 nil 1) (33 0 21 0 nil 0) (21 0 22 0 nil 0) (44 0 23 0 nil 0) (23 0 24 0 nil 0) (48 0 25 0 nil 0) (25 0 26 0 nil 0) (14 0 33 1 nil 1) (14 1 33 4 nil 2) (12 0 33 5 nil 3) (34 0 33 7 nil 0) (0 0 33 8 nil 8) (28 0 33 9 nil 0) (27 0 33 10 nil 0) (2 0 33 11 nil 1) (17 0 44 1 nil 1) (17 1 44 4 nil 2) (15 0 44 5 nil 3) (45 0 44 7 nil 0) (9 0 44 8 nil 2) (38 0 44 9 nil 0) (39 0 44 10 nil 1) (8 0 44 11 nil 0) (20 0 48 1 nil 1) (20 1 48 4 nil 2) (18 0 48 5 nil 3) (58 0 48 7 nil 0) (11 0 48 8 nil 0) (57 0 48 9 nil 1) (56 0 48 10 nil 0) (10 0 48 11 nil 0))) nil 6.0602))
