; OM File Header - Saved 2013/10/29 22:34:30
; (6.0602 :patc (om-make-point 226 10) (om-make-point 511 568) (om-make-point 796 348) "" 183 0 "2012/12/02 15:24:38" "2013/08/31 17:51:19")
; End File Header
; External resources 
; (list (list (quote :sound) "../../../../out-files/smpl-3_B.aiff" "../../../../in-files/count.aiff" "../../../../out-files/smpl-3_A.aiff"))
(in-package :om)(load-lib-for (quote ("OMChroma")))(setf *om-current-persistent* (om-load-patch1 "smpl-3" (quote ((om-load-boxcall (quote bastype) "aux 5" (quote t) (quote nil) (om-make-point 579 179) (om-make-point 34 30) 10 "10" nil) (om-load-boxcomment "comment 8" (om-make-point 41 34) (quote "afil") "" (om-make-point 577 154) nil (om-make-color 1.0 0.0 0.0) (om-make-font "Verdana" 14.0 :family "Verdana" :style (quote (:bold)) :mode (quote nil))) (om-load-editor-box1 "GEN01" (quote gen01) (quote ((om-load-inputfun (quote input-funbox) "object" "self" nil) (om-load-inputfun (quote input-funbox) "" "id" "?") (om-load-inputfun (quote input-funbox) "" "size" nil) (om-load-inputfun (quote input-funbox) "" "stime" 0) (om-load-inputfun (quote input-funbox) "" "file" "") (om-load-inputfun (quote input-funbox) "" "skiptime" 0))) (om-make-point 555 101) (om-make-point 194 52) (if (find-class (quote gen01) nil) (make-instance (quote gen01) :id 10 :size 0 :stime 0 :file (om-make-pathname :directory (quote (:absolute "_workspace" "OMChroma_Tutorial" "in-files" "old")) :device :unspecific :host nil :name "count" :type "aiff") :skiptime 0 :from-file t)) nil nil (pairlis (quote (winpos winsize)) (list (om-make-point 10 40) (om-make-point 335 275))) nil nil nil t) (om-load-boxcall (quote abstraction) "C#ed 2" (om-load-patch-abs1 "C#ed" (quote ((om-load-boxout "output 2" 1 (om-make-point 127 369) (quote ((om-load-inputfun (quote input-funbox) "" "out" nil))) "edel" nil) (om-load-boxcall (quote lispfun) "LENGTH" (quote length) (quote ((om-load-inputfun (quote input-funbox) "SEQUENCE" "SEQUENCE" nil))) (om-make-point 45 326) nil nil nil nil 1) (om-load-boxin "length" 1 (om-make-point 111 12) "" "length" nil nil) (om-load-boxcall (quote genfun) "OM*" (quote om*) (quote ((om-load-inputfun (quote input-funbox) "number or list" "ARG1" 0) (om-load-inputfun (quote input-funbox) "number or list" "ARG2" 0))) (om-make-point 137 204) nil nil nil nil 1) (om-load-boxcall (quote bastype) "aux 2" (quote t) (quote nil) (om-make-point 159 94) (om-make-point 27 30) 1 "1" nil) (om-load-boxcall (quote genfun) "OM-" (quote om-) (quote ((om-load-inputfun (quote input-funbox) "number or list" "ARG1" 0) (om-load-inputfun (quote input-funbox) "number or list" "ARG2" 0))) (om-make-point 136 144) nil nil nil nil 1) (om-load-boxcall (quote lispfun) "LENGTH" (quote length) (quote ((om-load-inputfun (quote input-funbox) "SEQUENCE" "SEQUENCE" nil))) (om-make-point 109 80) nil nil nil nil 1) (om-load-boxin "durs" 0 (om-make-point 200 139) "" "durs" nil nil) (om-load-boxout "output" 0 (om-make-point 43 374) (quote ((om-load-inputfun (quote input-funbox) "" "out" nil))) "length" nil) (om-load-boxcall (quote bastype) "aux" (quote t) (quote nil) (om-make-point 103 222) (om-make-point 27 30) 0 "0" nil) (om-load-boxcall (quote genfun) "ARITHM-SER" (quote arithm-ser) (quote ((om-load-inputfun (quote input-funbox) "begin" "BEGIN" 0) (om-load-inputfun (quote input-funbox) "end " "END" 10) (om-load-inputfun (quote input-funbox) "step" "STEP" 1))) (om-make-point 111 265) nil nil nil nil 1))) (quote ((10 0 0 0 nil 0) (10 0 1 0 nil 0) (5 0 3 0 nil 0) (7 0 3 1 nil 0) (6 0 5 0 nil 0) (4 0 5 1 nil 0) (2 0 6 0 nil 0) (1 0 8 0 nil 0) (9 0 10 0 nil 0) (3 0 10 1 nil 0) (7 0 10 2 nil 0))) 6.0602 nil "" (om-make-point 200 200) (om-make-point 500 400)) (quote ((om-load-inputfun (quote input-funbox) "" "durs" nil) (om-load-inputfun (quote input-funbox) "" "length" nil))) (om-make-point 484 156) nil (list 2 (list 0 5)) nil "C#ed") (om-load-boxcall (quote abstraction) "Synt&T" (om-load-patch-abs1 "Synt&T" (quote ((om-load-boxin "afile" 1 (om-make-point 171 72) "" "afile" nil nil) (om-load-boxcall (quote bastype) "aux" (quote t) (quote nil) (om-make-point 79 88) (om-make-point 84 30) "smpl-3_B" "\"smpl-3_B\"" nil) (om-load-boxin "OMCh" 0 (om-make-point 31 69) "" "OMCh" nil nil) (om-load-boxout "output" 0 (om-make-point 95 201) (quote ((om-load-inputfun (quote input-funbox) "" "out" nil))) "output" nil) (om-load-boxcall (quote genfun) "SYNTHESIZE" (quote synthesize) (quote ((om-load-inputfun (quote input-funbox) "something to synthesize..." "ELEMENTS" nil) (om-load-inputkeyword (quote input-keyword) "" "name" (quote :name) nil nil) (om-load-inputkeyword (quote input-keyword) "" "tables" (quote :tables) nil nil))) (om-make-point 85 139) nil nil nil nil 1))) (quote ((4 0 3 0 nil 0) (2 0 4 0 nil 0) (1 0 4 1 nil 0) (0 0 4 2 nil 0))) 6.0602 nil "" (om-make-point 674 523) (om-make-point 298 302)) (quote ((om-load-inputfun (quote input-funbox) "" "OMCh" nil) (om-load-inputfun (quote input-funbox) "" "input" nil))) (om-make-point 402 160) (om-make-point 51 67) (list (om-make-pathname :directory (quote (:absolute "_workspace" "OMChroma_Tutorial" "out-files")) :device :unspecific :host nil :name "smpl-3_B" :type "aiff")) nil "Synt&T") (om-load-editor-box1 "smpl-3_B.aiff" (quote sound) (quote ((om-load-inputfun (quote input-funbox) "object" "self" nil) (om-load-inputfun (quote input-funbox) "a track index for multichannel mixing" "tracknum" 1) (om-load-inputfun (quote input-funbox) "a list of markers (s)" "markers" nil))) (om-make-point 414 230) (om-make-point 50 59) (let ((newobj (let ((thesound (load-sound (om-make-pathname :directory (quote (:relative "out-files")) :device :unspecific :host :unspecific :name "smpl-3_B" :type "aiff") 1))) (when thesound (setf (markers thesound) (quote nil))) thesound))) (load-port-info newobj (quote nil)) (init-mus-color newobj (quote nil)) (set-extra-pairs newobj (quote nil)) (set-patch-pairs newobj (quote nil)) (set-name newobj "smpl-3_B.aiff") (set-tonalite newobj nil) newobj) nil nil (pairlis (quote (approx fontsize staff cmnpref deltapict outport inport player zoom notechancolor? grillestep mode winsize winpos score-mode obj-mode show-stems scale palette-mode)) (list 2 24 (quote g) (let ((newobj (make-instance (quote edition-values)))) (setf (paper-size newobj) (om-make-point 600 800)) (setf (top-margin newobj) 2) (setf (left-margin newobj) 1) (setf (right-margin newobj) 1) (setf (bottom-margin newobj) 1) (setf (orientation newobj) nil) (setf (scale newobj) nil) (setf (system-space newobj) (quote (1))) (setf (system-color newobj) (quote nil)) (setf (line-space newobj) 1) (setf (title newobj) nil) (setf (show-title? newobj) nil) (setf (show-page? newobj) nil) (setf (sheet-id newobj) nil) (setf (page-mode newobj) nil) newobj) (om-make-point 0 0) nil 0 (quote :libaudio) 1 nil 1000 0 (om-make-point 875 640) (om-make-point 298 388) 0 1 (quote t) nil 0)) t nil nil nil) (om-load-boxcomment "comment 7" (om-make-point 48 34) (quote "win") "" (om-make-point 701 155) nil (om-make-color 1.0 0.0 0.0) (om-make-font "Verdana" 14.0 :family "Verdana" :style (quote (:bold)) :mode (quote nil))) (om-load-editor-box1 "BPF" (quote bpf) (quote ((om-load-inputfun (quote input-funbox) "object" "self" nil) (om-load-inputfun (quote input-funbox) "X coordinates (list)" "x-points" (list 0 100)) (om-load-inputfun (quote input-funbox) "Y coordinates (list)" "y-points" (list 0 100)) (om-load-inputfun (quote input-funbox) "precision (integer) [0 - 10]" "decimals" 0))) (om-make-point 652 177) (om-make-point 46 43) (let ((newobj (when (find-class (quote bpf) nil) (let ((newbpf (simple-bpf-from-list (quote (0 1 99 100)) (quote (0 10 10 0)) (quote bpf) 0))) (setf (bpfcolor newbpf) (om-make-color 0 0 0)) (set-name newbpf nil) newbpf)))) (when newobj) newobj) "x" nil (pairlis (quote (winsize winpos picture)) (list (om-make-point 335 275) (om-make-point 10 40) nil)) t nil nil nil) (om-load-boxcall (quote bastype) "aux 4" (quote t) (quote nil) (om-make-point 702 179) (om-make-point 38 30) 0.1 "0.1" nil) (om-load-boxcomment "comment 6" (om-make-point 48 34) (quote "aenv") "" (om-make-point 654 154) nil (om-make-color 1.0 0.0 0.0) (om-make-font "Verdana" 14.0 :family "Verdana" :style (quote (:bold)) :mode (quote nil))) (om-load-boxcomment "comment 5" (om-make-point 48 34) (quote "skip") "" (om-make-point 611 154) nil (om-make-color 1.0 0.0 0.0) (om-make-font "Verdana" 14.0 :family "Verdana" :style (quote (:bold)) :mode (quote nil))) (om-load-boxcomment "comment 4" (om-make-point 31 27) (quote "f0") "" (om-make-point 536 156) nil (om-make-color 1.0 0.0 0.0) (om-make-font "Verdana" 14.0 :family "Verdana" :style (quote (:bold)) :mode (quote nil))) (om-load-boxcall (quote bastype) "aux 3" (quote t) (quote nil) (om-make-point 491 122) (om-make-point 27 30) 5 "5" nil) (om-load-boxcomment "comment 3" (om-make-point 51 34) (quote "durs") "" (om-make-point 486 98) nil (om-make-color 1.0 0.0 0.0) (om-make-font "Verdana" 14.0 :family "Verdana" :style (quote (:bold)) :mode (quote nil))) (om-load-boxcomment "comment" (om-make-point 44 88) (quote "B") "" (om-make-point 412 95) nil (om-make-color 1.0 0.0 0.011788845) (om-make-font "Verdana" 36.0 :family "Verdana" :style (quote (:bold)) :mode (quote nil))) (om-load-boxcall (quote bastype) "aux 2" (quote t) (quote nil) (om-make-point 619 179) (om-make-point 27 30) 0 "0" nil) (om-load-boxcall (quote bastype) "aux" (quote t) (quote nil) (om-make-point 523 179) (om-make-point 53 30) (list 1 -1) "(1 -1)" nil) (om-load-editor-box1 "SMPL-3 2" (quote smpl-3) (quote ((om-load-inputfun (quote input-funbox) "Synthesis event" "self" nil) (om-load-inputfun (quote input-funbox) "Number of components [int]" "numcols" 1) (om-load-inputfun (quote input-funbox) "Event offset [s]" "action-time" 0) (om-load-inputfun (quote input-funbox) "A lambda function applied to each component" "user-fun" nil) (om-load-inputkeyword (quote editor-keyword) "" "e-dels" (quote :e-dels) nil nil) (om-load-inputkeyword (quote editor-keyword) "" "durs" (quote :durs) nil nil) (om-load-inputkeyword (quote editor-keyword) "" "amp" (quote :amp) nil nil) (om-load-inputkeyword (quote editor-keyword) "" "f0" (quote :f0) nil nil) (om-load-inputkeyword (quote editor-keyword) "" "afil" (quote :afil) nil nil) (om-load-inputkeyword (quote editor-keyword) "" "skip" (quote :skip) nil nil) (om-load-inputkeyword (quote editor-keyword) "" "aenv" (quote :aenv) nil nil) (om-load-inputkeyword (quote editor-keyword) "" "win" (quote :win) nil nil))) (om-make-point 470 225) (om-make-point 269 70) (let ((rep (if (find-class (quote smpl-3) nil) (let ((rep (make-instance (quote smpl-3) :numcols 2))) (when (member (quote e-dels) (get-init-slots-of-class (quote smpl-3)) :key (quote car)) (setf (slot-value rep (quote e-dels)) (list 0 5))) (when (member (quote durs) (get-init-slots-of-class (quote smpl-3)) :key (quote car)) (setf (slot-value rep (quote durs)) 5)) (when (member (quote amp) (get-init-slots-of-class (quote smpl-3)) :key (quote car)) (setf (slot-value rep (quote amp)) 0.0)) (when (member (quote f0) (get-init-slots-of-class (quote smpl-3)) :key (quote car)) (setf (slot-value rep (quote f0)) (list 1 -1))) (when (member (quote afil) (get-init-slots-of-class (quote smpl-3)) :key (quote car)) (setf (slot-value rep (quote afil)) 10)) (when (member (quote skip) (get-init-slots-of-class (quote smpl-3)) :key (quote car)) (setf (slot-value rep (quote skip)) 0)) (when (member (quote aenv) (get-init-slots-of-class (quote smpl-3)) :key (quote car)) (setf (slot-value rep (quote aenv)) (let ((newobj (when (find-class (quote bpf) nil) (let ((newbpf (simple-bpf-from-list (quote (0 1 99 100)) (quote (0 10 10 0)) (quote bpf) 0))) (setf (bpfcolor newbpf) (om-make-color 0 0 0)) (set-name newbpf nil) newbpf)))) (when newobj) newobj))) (when (member (quote win) (get-init-slots-of-class (quote smpl-3)) :key (quote car)) (setf (slot-value rep (quote win)) 0.1)) (setf (lcontrols rep) (list)) (setf (action-time rep) 0) (setf (data rep) (list (list 0 5) (list 5 5) (list 0.0 0.0) (list 1 -1) (list 10 10) (list 0 0) (list (let ((newobj (when (find-class (quote gen07) nil) (let ((newbpf (simple-bpf-from-list (quote (0 1 99 100)) (quote (0 10 10 0)) (quote gen07) 0))) (setf (bpfcolor newbpf) (om-make-color 0 0 0)) (set-name newbpf nil) newbpf)))) (when newobj (setf (stime newobj) 0) (setf (size newobj) 513) (setf (id newobj) "?")) newobj) (let ((newobj (when (find-class (quote gen07) nil) (let ((newbpf (simple-bpf-from-list (quote (0 1 99 100)) (quote (0 10 10 0)) (quote gen07) 0))) (setf (bpfcolor newbpf) (om-make-color 0 0 0)) (set-name newbpf nil) newbpf)))) (when newobj (setf (stime newobj) 0) (setf (size newobj) 513) (setf (id newobj) "?")) newobj)) (list 0.1 0.1))) rep)))) (put-precision rep (list 3)) rep) nil nil (pairlis (quote (winpos winsize color-list show-opt-fields cur-group-ind panel-list)) (list (om-make-point 10 40) (om-make-point 500 280) (list (om-make-color 0 0 0) (om-make-color 0 0 0) (om-make-color 0 0 0) (om-make-color 0 0 0) (om-make-color 0 0 0) (om-make-color 0 0 0) (om-make-color 0 0 0) (om-make-color 0 0 0)) (quote t) 0 (list (list "All open" (list 0 (quote t)) (list 1 (quote t)) (list 2 (quote t)) (list 3 (quote t)) (list 4 (quote t)) (list 5 (quote t)) (list 6 (quote t)) (list 7 (quote t))) (list "All close" (list 0 nil) (list 1 nil) (list 2 nil) (list 3 nil) (list 4 nil) (list 5 nil) (list 6 nil) (list 7 nil))))) nil nil nil nil) (om-load-boxcall (quote bastype) "aux 29" (quote t) (quote nil) (om-make-point 554 61) (om-make-point 34 30) 10 "10" nil) (om-load-boxcall (quote bastype) "aux 28" (quote t) (quote nil) (om-make-point 589 61) (om-make-point 27 30) 0 "0" nil) (om-load-boxcall (quote bastype) "aux 27" (quote t) (quote nil) (om-make-point 617 61) (om-make-point 27 30) 0 "0" nil) (om-load-boxcall (quote bastype) "aux 26" (quote t) (quote nil) (om-make-point 733 57) (om-make-point 27 30) 0 "0" nil) (om-load-editor-box1 "count.aiff" (quote sound) (quote ((om-load-inputfun (quote input-funbox) "object" "self" nil) (om-load-inputfun (quote input-funbox) "a track index for multichannel mixing" "tracknum" 1) (om-load-inputfun (quote input-funbox) "a list of markers (s)" "markers" nil))) (om-make-point 647 46) (om-make-point 80 50) (let ((newobj (let ((thesound (load-sound (om-make-pathname :directory (quote (:relative "in-files")) :device :unspecific :host :unspecific :name "count" :type "aiff") 1))) (when thesound (setf (markers thesound) (quote nil))) thesound))) (load-port-info newobj (quote nil)) (init-mus-color newobj (quote nil)) (set-extra-pairs newobj (quote nil)) (set-patch-pairs newobj (quote nil)) (set-name newobj "count.aiff") (set-tonalite newobj nil) newobj) "x" nil (pairlis (quote (approx fontsize staff cmnpref deltapict outport inport player zoom notechancolor? grillestep mode winsize winpos score-mode obj-mode show-stems scale palette-mode)) (list 8 24 (quote g) (let ((newobj (make-instance (quote edition-values)))) (setf (paper-size newobj) (om-make-point 600 800)) (setf (top-margin newobj) 2) (setf (left-margin newobj) 1) (setf (right-margin newobj) 1) (setf (bottom-margin newobj) 1) (setf (orientation newobj) nil) (setf (scale newobj) nil) (setf (system-space newobj) (quote (1))) (setf (system-color newobj) (quote nil)) (setf (line-space newobj) 1) (setf (title newobj) nil) (setf (show-title? newobj) nil) (setf (show-page? newobj) nil) (setf (sheet-id newobj) nil) (setf (page-mode newobj) nil) newobj) (om-make-point 0 0) nil 0 (quote :libaudio) 1 nil 1000 0 (om-make-point 370 280) (om-make-point 400 20) 0 1 (quote t) nil 0)) t nil nil nil) (om-load-boxcall (quote bastype) "list" (quote list) (quote nil) (om-make-point 21 65) (om-make-point 357 30) "f10 0 0 -1 \"OMChroma_Tutorial/in-files/count.aiff\" 0 0 0" "\"f10 0 0 -1 \\\"OMChroma_Tutorial/in-files/count.aiff\\\" 0 0 0\"" nil) (om-load-editor-box1 "SMPL-3" (quote smpl-3) (quote ((om-load-inputfun (quote input-funbox) "Synthesis event" "self" nil) (om-load-inputfun (quote input-funbox) "Number of components [int]" "numcols" 1) (om-load-inputfun (quote input-funbox) "Event offset [s]" "action-time" 0) (om-load-inputfun (quote input-funbox) "A lambda function applied to each component" "user-fun" nil) (om-load-inputkeyword (quote editor-keyword) "" "e-dels" (quote :e-dels) nil nil) (om-load-inputkeyword (quote editor-keyword) "" "durs" (quote :durs) nil nil) (om-load-inputkeyword (quote editor-keyword) "" "amp" (quote :amp) nil nil) (om-load-inputkeyword (quote editor-keyword) "" "f0" (quote :f0) nil nil) (om-load-inputkeyword (quote editor-keyword) "" "afil" (quote :afil) nil nil) (om-load-inputkeyword (quote editor-keyword) "" "skip" (quote :skip) nil nil) (om-load-inputkeyword (quote editor-keyword) "" "aenv" (quote :aenv) nil nil) (om-load-inputkeyword (quote editor-keyword) "" "win" (quote :win) nil nil))) (om-make-point 99 223) (om-make-point 269 70) (let ((rep (if (find-class (quote smpl-3) nil) (let ((rep (make-instance (quote smpl-3) :numcols 2))) (when (member (quote e-dels) (get-init-slots-of-class (quote smpl-3)) :key (quote car)) (setf (slot-value rep (quote e-dels)) (list 0 5))) (when (member (quote durs) (get-init-slots-of-class (quote smpl-3)) :key (quote car)) (setf (slot-value rep (quote durs)) 5)) (when (member (quote amp) (get-init-slots-of-class (quote smpl-3)) :key (quote car)) (setf (slot-value rep (quote amp)) 0.0)) (when (member (quote f0) (get-init-slots-of-class (quote smpl-3)) :key (quote car)) (setf (slot-value rep (quote f0)) (list 1 -1))) (when (member (quote afil) (get-init-slots-of-class (quote smpl-3)) :key (quote car)) (setf (slot-value rep (quote afil)) 10)) (when (member (quote skip) (get-init-slots-of-class (quote smpl-3)) :key (quote car)) (setf (slot-value rep (quote skip)) 0)) (when (member (quote aenv) (get-init-slots-of-class (quote smpl-3)) :key (quote car)) (setf (slot-value rep (quote aenv)) (let ((newobj (when (find-class (quote bpf) nil) (let ((newbpf (simple-bpf-from-list (quote (0 1 99 100)) (quote (0 10 10 0)) (quote bpf) 0))) (setf (bpfcolor newbpf) (om-make-color 0 0 0)) (set-name newbpf nil) newbpf)))) (when newobj) newobj))) (when (member (quote win) (get-init-slots-of-class (quote smpl-3)) :key (quote car)) (setf (slot-value rep (quote win)) 0.1)) (setf (lcontrols rep) (list)) (setf (action-time rep) 0) (setf (data rep) (list (list 0 5) (list 5 5) (list 0.0 0.0) (list 1 -1) (list 10 10) (list 0 0) (list (let ((newobj (when (find-class (quote gen07) nil) (let ((newbpf (simple-bpf-from-list (quote (0 1 99 100)) (quote (0 10 10 0)) (quote gen07) 0))) (setf (bpfcolor newbpf) (om-make-color 0 0 0)) (set-name newbpf nil) newbpf)))) (when newobj (setf (stime newobj) 0) (setf (size newobj) 513) (setf (id newobj) "?")) newobj) (let ((newobj (when (find-class (quote gen07) nil) (let ((newbpf (simple-bpf-from-list (quote (0 1 99 100)) (quote (0 10 10 0)) (quote gen07) 0))) (setf (bpfcolor newbpf) (om-make-color 0 0 0)) (set-name newbpf nil) newbpf)))) (when newobj (setf (stime newobj) 0) (setf (size newobj) 513) (setf (id newobj) "?")) newobj)) (list 0.1 0.1))) rep)))) (put-precision rep (list 3)) rep) nil nil (pairlis (quote (winpos winsize color-list show-opt-fields cur-group-ind panel-list)) (list (om-make-point 10 40) (om-make-point 500 280) (list (om-make-color 0 0 0) (om-make-color 0 0 0) (om-make-color 0 0 0) (om-make-color 0 0 0) (om-make-color 0 0 0) (om-make-color 0 0 0) (om-make-color 0 0 0) (om-make-color 0 0 0)) (quote t) 0 (list (list "All open" (list 0 (quote t)) (list 1 (quote t)) (list 2 (quote t)) (list 3 (quote t)) (list 4 (quote t)) (list 5 (quote t)) (list 6 (quote t)) (list 7 (quote t))) (list "All close" (list 0 nil) (list 1 nil) (list 2 nil) (list 3 nil) (list 4 nil) (list 5 nil) (list 6 nil) (list 7 nil))))) nil nil nil nil) (om-load-boxcall (quote bastype) "aux 18" (quote t) (quote nil) (om-make-point 152 177) (om-make-point 53 30) (list 1 -1) "(1 -1)" nil) (om-load-boxcall (quote bastype) "aux 17" (quote t) (quote nil) (om-make-point 248 177) (om-make-point 27 30) 0 "0" nil) (om-load-boxcomment "comment 29" (om-make-point 44 88) (quote "A") "" (om-make-point 41 98) nil (om-make-color 1.0 0.0 0.011788845) (om-make-font "Verdana" 36.0 :family "Verdana" :style (quote (:bold)) :mode (quote nil))) (om-load-boxcomment "comment 28" (om-make-point 51 34) (quote "durs") "" (om-make-point 115 96) nil (om-make-color 1.0 0.0 0.0) (om-make-font "Verdana" 14.0 :family "Verdana" :style (quote (:bold)) :mode (quote nil))) (om-load-boxcall (quote bastype) "aux 15" (quote t) (quote nil) (om-make-point 120 120) (om-make-point 27 30) 5 "5" nil) (om-load-boxcall (quote abstraction) "C#ed" (om-load-patch-abs1 "C#ed" (quote ((om-load-boxout "output 2" 1 (om-make-point 127 369) (quote ((om-load-inputfun (quote input-funbox) "" "out" nil))) "edel" nil) (om-load-boxcall (quote lispfun) "LENGTH" (quote length) (quote ((om-load-inputfun (quote input-funbox) "SEQUENCE" "SEQUENCE" nil))) (om-make-point 45 326) nil nil nil nil 1) (om-load-boxin "length" 1 (om-make-point 111 12) "" "length" nil nil) (om-load-boxcall (quote genfun) "OM*" (quote om*) (quote ((om-load-inputfun (quote input-funbox) "number or list" "ARG1" 0) (om-load-inputfun (quote input-funbox) "number or list" "ARG2" 0))) (om-make-point 137 204) nil nil nil nil 1) (om-load-boxcall (quote bastype) "aux 2" (quote t) (quote nil) (om-make-point 159 94) (om-make-point 27 30) 1 "1" nil) (om-load-boxcall (quote genfun) "OM-" (quote om-) (quote ((om-load-inputfun (quote input-funbox) "number or list" "ARG1" 0) (om-load-inputfun (quote input-funbox) "number or list" "ARG2" 0))) (om-make-point 136 144) nil nil nil nil 1) (om-load-boxcall (quote lispfun) "LENGTH" (quote length) (quote ((om-load-inputfun (quote input-funbox) "SEQUENCE" "SEQUENCE" nil))) (om-make-point 109 80) nil nil nil nil 1) (om-load-boxin "durs" 0 (om-make-point 200 139) "" "durs" nil nil) (om-load-boxout "output" 0 (om-make-point 43 374) (quote ((om-load-inputfun (quote input-funbox) "" "out" nil))) "length" nil) (om-load-boxcall (quote bastype) "aux" (quote t) (quote nil) (om-make-point 103 222) (om-make-point 27 30) 0 "0" nil) (om-load-boxcall (quote genfun) "ARITHM-SER" (quote arithm-ser) (quote ((om-load-inputfun (quote input-funbox) "begin" "BEGIN" 0) (om-load-inputfun (quote input-funbox) "end " "END" 10) (om-load-inputfun (quote input-funbox) "step" "STEP" 1))) (om-make-point 111 265) nil nil nil nil 1))) (quote ((10 0 0 0 nil 0) (10 0 1 0 nil 0) (5 0 3 0 nil 0) (7 0 3 1 nil 0) (6 0 5 0 nil 0) (4 0 5 1 nil 0) (2 0 6 0 nil 0) (1 0 8 0 nil 0) (9 0 10 0 nil 0) (3 0 10 1 nil 0) (7 0 10 2 nil 0))) 6.0602 nil "" (om-make-point 200 200) (om-make-point 500 400)) (quote ((om-load-inputfun (quote input-funbox) "" "durs" nil) (om-load-inputfun (quote input-funbox) "" "length" nil))) (om-make-point 113 154) nil (list 2 (list 0 5)) nil "C#ed") (om-load-boxcomment "comment 27" (om-make-point 31 27) (quote "f0") "" (om-make-point 165 154) nil (om-make-color 1.0 0.0 0.0) (om-make-font "Verdana" 14.0 :family "Verdana" :style (quote (:bold)) :mode (quote nil))) (om-load-boxcomment "comment 25" (om-make-point 48 34) (quote "skip") "" (om-make-point 240 152) nil (om-make-color 1.0 0.0 0.0) (om-make-font "Verdana" 14.0 :family "Verdana" :style (quote (:bold)) :mode (quote nil))) (om-load-boxcomment "comment 24" (om-make-point 48 34) (quote "aenv") "" (om-make-point 283 152) nil (om-make-color 1.0 0.0 0.0) (om-make-font "Verdana" 14.0 :family "Verdana" :style (quote (:bold)) :mode (quote nil))) (om-load-boxcall (quote bastype) "aux 14" (quote t) (quote nil) (om-make-point 331 177) (om-make-point 38 30) 0.1 "0.1" nil) (om-load-editor-box1 "BPF 2" (quote bpf) (quote ((om-load-inputfun (quote input-funbox) "object" "self" nil) (om-load-inputfun (quote input-funbox) "X coordinates (list)" "x-points" (list 0 100)) (om-load-inputfun (quote input-funbox) "Y coordinates (list)" "y-points" (list 0 100)) (om-load-inputfun (quote input-funbox) "precision (integer) [0 - 10]" "decimals" 0))) (om-make-point 281 175) (om-make-point 46 43) (let ((newobj (when (find-class (quote bpf) nil) (let ((newbpf (simple-bpf-from-list (quote (0 1 99 100)) (quote (0 10 10 0)) (quote bpf) 0))) (setf (bpfcolor newbpf) (om-make-color 0 0 0)) (set-name newbpf nil) newbpf)))) (when newobj) newobj) "x" nil (pairlis (quote (winsize winpos picture)) (list (om-make-point 335 275) (om-make-point 10 40) nil)) t nil nil nil) (om-load-boxcomment "comment 23" (om-make-point 48 34) (quote "win") "" (om-make-point 330 153) nil (om-make-color 1.0 0.0 0.0) (om-make-font "Verdana" 14.0 :family "Verdana" :style (quote (:bold)) :mode (quote nil))) (om-load-editor-box1 "smpl-3_A.aiff" (quote sound) (quote ((om-load-inputfun (quote input-funbox) "object" "self" nil) (om-load-inputfun (quote input-funbox) "a track index for multichannel mixing" "tracknum" 1) (om-load-inputfun (quote input-funbox) "a list of markers (s)" "markers" nil))) (om-make-point 43 228) (om-make-point 50 59) (let ((newobj (let ((thesound (load-sound (om-make-pathname :directory (quote (:relative "out-files")) :device :unspecific :host :unspecific :name "smpl-3_A" :type "aiff") 1))) (when thesound (setf (markers thesound) (quote nil))) thesound))) (load-port-info newobj (quote nil)) (init-mus-color newobj (quote nil)) (set-extra-pairs newobj (quote nil)) (set-patch-pairs newobj (quote nil)) (set-name newobj "smpl-3_A.aiff") (set-tonalite newobj nil) newobj) nil nil (pairlis (quote (approx fontsize staff cmnpref deltapict outport inport player zoom notechancolor? grillestep mode winsize winpos score-mode obj-mode show-stems scale palette-mode)) (list 2 24 (quote g) (let ((newobj (make-instance (quote edition-values)))) (setf (paper-size newobj) (om-make-point 600 800)) (setf (top-margin newobj) 2) (setf (left-margin newobj) 1) (setf (right-margin newobj) 1) (setf (bottom-margin newobj) 1) (setf (orientation newobj) nil) (setf (scale newobj) nil) (setf (system-space newobj) (quote (1))) (setf (system-color newobj) (quote nil)) (setf (line-space newobj) 1) (setf (title newobj) nil) (setf (show-title? newobj) nil) (setf (show-page? newobj) nil) (setf (sheet-id newobj) nil) (setf (page-mode newobj) nil) newobj) (om-make-point 0 0) nil 0 (quote :libaudio) 1 nil 1000 0 (om-make-point 875 640) (om-make-point 298 388) 0 1 (quote t) nil 0)) t nil nil nil) (om-load-boxcall (quote abstraction) "Synt&T" (om-load-patch-abs1 "Synt&T" (quote ((om-load-boxin "afile" 1 (om-make-point 170 30) "" "afile" nil nil) (om-load-boxcall (quote bastype) "aux" (quote t) (quote nil) (om-make-point 69 56) (om-make-point 84 30) "smpl-3_A" "\"smpl-3_A\"" nil) (om-load-boxin "OMCh" 0 (om-make-point 21 37) "" "OMCh" nil nil) (om-load-boxout "output" 0 (om-make-point 85 169) (quote ((om-load-inputfun (quote input-funbox) "" "out" nil))) "output" nil) (om-load-boxcall (quote genfun) "SYNTHESIZE" (quote synthesize) (quote ((om-load-inputfun (quote input-funbox) "something to synthesize..." "ELEMENTS" nil) (om-load-inputkeyword (quote input-keyword) "" "name" (quote :name) nil nil) (om-load-inputkeyword (quote input-keyword) "" "tables" (quote :tables) nil nil))) (om-make-point 75 107) nil nil nil nil 1))) (quote ((4 0 3 0 nil 0) (2 0 4 0 nil 0) (1 0 4 1 nil 0) (0 0 4 2 nil 0))) 6.0602 nil "" (om-make-point 1177 200) (om-make-point 255 268)) (quote ((om-load-inputfun (quote input-funbox) "" "OMCh" nil) (om-load-inputfun (quote input-funbox) "" "input" nil))) (om-make-point 31 158) (om-make-point 51 67) (list (om-make-pathname :directory (quote (:absolute "OMChroma_Tutorial" "out-files")) :device :unspecific :host :unspecific :name "smpl-3_A" :type "aiff")) nil "Synt&T") (om-load-boxcomment "comment 20" (om-make-point 41 34) (quote "afil") "" (om-make-point 208 152) nil (om-make-color 1.0 0.0 0.0) (om-make-font "Verdana" 14.0 :family "Verdana" :style (quote (:bold)) :mode (quote nil))) (om-load-boxcall (quote bastype) "aux 7" (quote t) (quote nil) (om-make-point 210 177) (om-make-point 34 30) 10 "10" nil) (om-load-boxcomment "comment 9" (om-make-point 28 253) (quote "|$|$|$|$|$$$") "" (om-make-point 376 55) nil (om-make-color 1.0 0.0 0.0) (om-make-font "Verdana" 36.0 :family "Verdana" :style (quote (:plain)) :mode (quote nil))) (om-load-boxcomment "comment 2" (om-make-point 142 34) (quote "Tutorial SMPL-3") "" (om-make-point 55 1) nil (om-make-color 1.0 0.0 0.0) (om-make-font "Verdana" 14.0 :family "Verdana" :style (quote (:bold)) :mode (quote nil))))) (quote ((18 0 2 1 nil 0) (19 0 2 2 nil 0) (20 0 2 3 nil 0) (22 0 2 4 nil 0) (21 0 2 5 nil 0) (12 0 3 0 nil 3) (16 0 3 1 nil 1) (17 0 4 0 nil 2) (2 0 4 1 nil 3) (4 0 5 0 nil 0) (3 0 17 1 nil 1) (3 1 17 4 nil 2) (12 0 17 5 nil 3) (16 0 17 7 nil 0) (0 0 17 8 nil 0) (15 0 17 9 nil 0) (7 0 17 10 nil 0) (8 0 17 11 nil 0) (30 0 24 1 nil 1) (30 1 24 4 nil 2) (29 0 24 5 nil 3) (25 0 24 7 nil 0) (40 0 24 8 nil 0) (26 0 24 9 nil 0) (35 0 24 10 nil 0) (34 0 24 11 nil 0) (29 0 30 0 nil 3) (25 0 30 1 nil 1) (38 0 37 0 nil 0) (24 0 38 0 nil 2) (23 0 38 1 nil 3))) nil 6.0602))
