; OM File Header - Saved 2025/02/06 18:22:39
; (6.0602 :patc (om-make-point 10 10) (om-make-point 328 221) (om-make-point 1109 507) "" 183 0 nil "2025/02/06 18:22:39")
; End File Header
; External resources 
; (list (list (quote :sound) "../../out-files/my_synt.aiff"))
(in-package :om)(load-lib-for (quote ("OMChroma")))(setf *om-current-persistent* (om-load-patch1 "sc_01 audio test" (quote ((om-load-boxcomment "comment 12" (om-make-point 256 34) (quote "Tutorial System configuration ") "" (om-make-point 58 0) nil (om-make-color 1.0 0.0 0.0) (om-make-font "Verdana" 14.0 :family "Verdana" :style (quote (:bold)) :mode (quote nil))) (om-load-boxcomment "comment 11" (om-make-point 86 36) (quote "STEP 3") "" (om-make-point 729 41) nil (om-make-color 1.0 0.021882475 0.09268618) (om-make-font "Verdana" 18.0 :family "Verdana" :style (quote (:bold)) :mode (quote nil))) (om-load-boxcomment "comment 10" (om-make-point 86 36) (quote "STEP 2") "" (om-make-point 455 39) nil (om-make-color 1.0 0.021882475 0.09268618) (om-make-font "Verdana" 18.0 :family "Verdana" :style (quote (:bold)) :mode (quote nil))) (om-load-boxcomment "comment 9" (om-make-point 86 36) (quote "STEP 1") "" (om-make-point 133 37) nil (om-make-color 1.0 0.021882475 0.09268618) (om-make-font "Verdana" 18.0 :family "Verdana" :style (quote (:bold)) :mode (quote nil))) (om-load-editor-box1 "ADD-1 3" (quote add-1) (quote ((om-load-inputfun (quote input-funbox) "Synthesis event" "self" nil) (om-load-inputfun (quote input-funbox) "Number of components [int]" "numcols" 1) (om-load-inputfun (quote input-funbox) "Event offset [s]" "action-time" 0) (om-load-inputfun (quote input-funbox) "A lambda function applied to each component" "user-fun" nil))) (om-make-point 702 71) (om-make-point 148 95) (let ((rep (if (find-class (quote add-1) nil) (let ((rep (make-instance (quote add-1) :numcols 1))) (when (member (quote e-dels) (get-init-slots-of-class (quote add-1)) :key (quote car)) (setf (slot-value rep (quote e-dels)) 0)) (when (member (quote durs) (get-init-slots-of-class (quote add-1)) :key (quote car)) (setf (slot-value rep (quote durs)) 1)) (when (member (quote amp) (get-init-slots-of-class (quote add-1)) :key (quote car)) (setf (slot-value rep (quote amp)) -6.0)) (when (member (quote freq) (get-init-slots-of-class (quote add-1)) :key (quote car)) (setf (slot-value rep (quote freq)) 440.0)) (when (member (quote aenv) (get-init-slots-of-class (quote add-1)) :key (quote car)) (setf (slot-value rep (quote aenv)) (let ((newobj (when (find-class (quote gen07) nil) (let ((newbpf (simple-bpf-from-list (quote (0.0 2048.0 4096.0)) (quote (0.0 100.0 0.0)) (quote gen07) 1))) (setf (bpfcolor newbpf) (om-make-color 0 0 0)) (set-name newbpf nil) newbpf)))) (setf (stime newobj) 0) (setf (size newobj) 4097) (setf (id newobj) "?") newobj))) (setf (lcontrols rep) (list)) (setf (action-time rep) 0) (setf (data rep) (list (list 0) (list 1) (list -6.0) (list 440.0) (list (let ((newobj (when (find-class (quote gen07) nil) (let ((newbpf (simple-bpf-from-list (quote (0.0 2048.0 4096.0)) (quote (0.0 100.0 0.0)) (quote gen07) 1))) (setf (bpfcolor newbpf) (om-make-color 0 0 0)) (set-name newbpf nil) newbpf)))) (setf (stime newobj) 0) (setf (size newobj) 4097) (setf (id newobj) "?") newobj)))) rep)))) (setf (precision rep) (list 3)) rep) nil nil (pairlis (quote (panel-list cur-group-ind show-opt-fields color-list winsize winpos)) (list (list (list "All open" (list 0 (quote t)) (list 1 (quote t)) (list 2 (quote t)) (list 3 (quote t)) (list 4 (quote t))) (list "All close" (list 0 nil) (list 1 nil) (list 2 nil) (list 3 nil) (list 4 nil))) 0 (quote t) (list (om-make-color 0 0 0) (om-make-color 0 0 0) (om-make-color 0 0 0) (om-make-color 0 0 0) (om-make-color 0 0 0)) (om-make-point 500 280) (om-make-point 10 40))) nil nil nil nil) (om-load-boxcall (quote genfun) "SYNTHESIZE 3" (quote synthesize) (quote ((om-load-inputfun (quote input-funbox) "something to synthesize..." "ELEMENTS" nil))) (om-make-point 696 207) nil nil nil nil 1) (om-load-editor-box1 "my_synt.aiff" (quote sound) (quote ((om-load-inputfun (quote input-funbox) "object" "self" nil) (om-load-inputfun (quote input-funbox) "a track index for multichannel mixing" "tracknum" 1) (om-load-inputfun (quote input-funbox) "a list of markers (s)" "markers" nil))) (om-make-point 695 312) (om-make-point 133 73) (let ((newobj (let ((thesound (load-sound (om-make-pathname :directory (quote (:relative "out-files")) :device :unspecific :host :unspecific :name "my_synt" :type "aiff") 1))) (when thesound (setf (markers thesound) (quote nil))) thesound))) (load-port-info newobj (quote nil)) (init-mus-color newobj (quote nil)) (set-extra-pairs newobj (quote nil)) (set-patch-pairs newobj (quote nil)) (set-name newobj "my_synt.aiff") (set-tonalite newobj nil) newobj) nil nil (pairlis (quote (approx fontsize staff cmnpref deltapict outport inport player zoom notechancolor? grillestep mode winsize winpos score-mode obj-mode show-stems scale palette-mode)) (list 2 24 (quote g) (let ((newobj (make-instance (quote edition-values)))) (setf (paper-size newobj) (om-make-point 600 800)) (setf (top-margin newobj) 2) (setf (left-margin newobj) 1) (setf (right-margin newobj) 1) (setf (bottom-margin newobj) 1) (setf (orientation newobj) nil) (setf (scale newobj) nil) (setf (system-space newobj) (quote (1))) (setf (system-color newobj) (quote nil)) (setf (line-space newobj) 1) (setf (title newobj) nil) (setf (show-title? newobj) nil) (setf (show-page? newobj) nil) (setf (sheet-id newobj) nil) (setf (page-mode newobj) nil) newobj) (om-make-point 0 0) nil 0 (quote :libaudio) 1 nil 1000 0 (om-make-point 370 280) (om-make-point 400 20) 0 1 (quote t) nil 0)) t nil nil nil) (om-load-boxcomment "comment 8" (om-make-point 148 69) (quote "evaluate this module and then press the spacebar to play the sound file") "" (om-make-point 833 316) nil (om-make-color 0 0 0) (om-make-font "Verdana" 12 :family "Verdana" :style (quote (:plain)) :mode (quote nil))) (om-load-editor-box1 "ADD-1 2" (quote add-1) (quote ((om-load-inputfun (quote input-funbox) "Synthesis event" "self" nil) (om-load-inputfun (quote input-funbox) "Number of components [int]" "numcols" 1) (om-load-inputfun (quote input-funbox) "Event offset [s]" "action-time" 0) (om-load-inputfun (quote input-funbox) "A lambda function applied to each component" "user-fun" nil))) (om-make-point 424 71) (om-make-point 148 95) (let ((rep (if (find-class (quote add-1) nil) (let ((rep (make-instance (quote add-1) :numcols 1))) (when (member (quote e-dels) (get-init-slots-of-class (quote add-1)) :key (quote car)) (setf (slot-value rep (quote e-dels)) 0)) (when (member (quote durs) (get-init-slots-of-class (quote add-1)) :key (quote car)) (setf (slot-value rep (quote durs)) 1)) (when (member (quote amp) (get-init-slots-of-class (quote add-1)) :key (quote car)) (setf (slot-value rep (quote amp)) -6.0)) (when (member (quote freq) (get-init-slots-of-class (quote add-1)) :key (quote car)) (setf (slot-value rep (quote freq)) 440.0)) (when (member (quote aenv) (get-init-slots-of-class (quote add-1)) :key (quote car)) (setf (slot-value rep (quote aenv)) (let ((newobj (when (find-class (quote gen07) nil) (let ((newbpf (simple-bpf-from-list (quote (0.0 2048.0 4096.0)) (quote (0.0 100.0 0.0)) (quote gen07) 1))) (setf (bpfcolor newbpf) (om-make-color 0 0 0)) (set-name newbpf nil) newbpf)))) (setf (stime newobj) 0) (setf (size newobj) 4097) (setf (id newobj) "?") newobj))) (setf (lcontrols rep) (list)) (setf (action-time rep) 0) (setf (data rep) (list (list 0) (list 1) (list -6.0) (list 440.0) (list (let ((newobj (when (find-class (quote gen07) nil) (let ((newbpf (simple-bpf-from-list (quote (0.0 2048.0 4096.0)) (quote (0.0 100.0 0.0)) (quote gen07) 1))) (setf (bpfcolor newbpf) (om-make-color 0 0 0)) (set-name newbpf nil) newbpf)))) (setf (stime newobj) 0) (setf (size newobj) 4097) (setf (id newobj) "?") newobj)))) rep)))) (setf (precision rep) (list 3)) rep) nil nil (pairlis (quote (winpos winsize color-list show-opt-fields cur-group-ind panel-list)) (list (om-make-point 10 40) (om-make-point 500 280) (list (om-make-color 0 0 0) (om-make-color 0 0 0) (om-make-color 0 0 0) (om-make-color 0 0 0) (om-make-color 0 0 0)) (quote t) 0 (list (list "All open" (list 0 (quote t)) (list 1 (quote t)) (list 2 (quote t)) (list 3 (quote t)) (list 4 (quote t))) (list "All close" (list 0 nil) (list 1 nil) (list 2 nil) (list 3 nil) (list 4 nil))))) nil nil nil nil) (om-load-boxcall (quote genfun) "SYNTHESIZE 2" (quote synthesize) (quote ((om-load-inputfun (quote input-funbox) "something to synthesize..." "ELEMENTS" nil))) (om-make-point 418 208) nil nil nil nil 1) (om-load-editor-box1 "SOUND 2" (quote sound) (quote ((om-load-inputfun (quote input-funbox) "object" "self" nil) (om-load-inputfun (quote input-funbox) "a track index for multichannel mixing" "tracknum" 1) (om-load-inputfun (quote input-funbox) "a list of markers (s)" "markers" nil))) (om-make-point 417 314) (om-make-point 133 73) (let ((newobj nil)) (load-port-info newobj (quote nil)) (init-mus-color newobj (quote nil)) (set-extra-pairs newobj (quote nil)) (set-patch-pairs newobj (quote nil)) (set-name newobj "") (set-tonalite newobj nil) newobj) nil nil (pairlis (quote (palette-mode scale show-stems obj-mode score-mode winpos winsize mode grillestep notechancolor? zoom player inport outport deltapict cmnpref staff fontsize approx)) (list 0 nil (quote t) 1 0 (om-make-point 400 20) (om-make-point 370 280) 0 1000 nil 1 (quote :libaudio) 0 nil (om-make-point 0 0) (let ((newobj (make-instance (quote edition-values)))) (setf (paper-size newobj) (om-make-point 600 800)) (setf (top-margin newobj) 2) (setf (left-margin newobj) 1) (setf (right-margin newobj) 1) (setf (bottom-margin newobj) 1) (setf (orientation newobj) nil) (setf (scale newobj) nil) (setf (system-space newobj) (quote (1))) (setf (system-color newobj) (quote nil)) (setf (line-space newobj) 1) (setf (title newobj) nil) (setf (show-title? newobj) nil) (setf (show-page? newobj) nil) (setf (sheet-id newobj) nil) (setf (page-mode newobj) nil) newobj) (quote g) 24 2)) t nil nil nil) (om-load-boxcomment "comment 7" (om-make-point 134 27) (quote "patch the modules") "" (om-make-point 460 179) nil (om-make-color 0 0 0) (om-make-font "Verdana" 12 :family "Verdana" :style (quote (:plain)) :mode (quote nil))) (om-load-boxcomment "comment 6" (om-make-point 134 27) (quote "patch the modules") "" (om-make-point 459 277) nil (om-make-color 0 0 0) (om-make-font "Verdana" 12 :family "Verdana" :style (quote (:plain)) :mode (quote nil))) (om-load-boxcomment "comment 5" (om-make-point 116 39) (quote "sound") "" (om-make-point 241 348) nil (om-make-color 0.0 0.0 0.0) (om-make-font "Verdana" 18.0 :family "Verdana" :style (quote (:bold)) :mode (quote nil))) (om-load-boxcomment "comment 3" (om-make-point 133 45) (quote "cmd-click and type inside the box") "" (om-make-point 232 317) nil (om-make-color 0 0 0) (om-make-font "Verdana" 12 :family "Verdana" :style (quote (:plain)) :mode (quote nil))) (om-load-boxcomment "comment 4" (om-make-point 116 39) (quote "synthesize") "" (om-make-point 181 226) nil (om-make-color 0.0 0.0 0.0) (om-make-font "Verdana" 18.0 :family "Verdana" :style (quote (:bold)) :mode (quote nil))) (om-load-boxcomment "comment 2" (om-make-point 133 45) (quote "cmd-click and type inside the box") "" (om-make-point 182 197) nil (om-make-color 0 0 0) (om-make-font "Verdana" 12 :family "Verdana" :style (quote (:plain)) :mode (quote nil))) (om-load-boxcomment "comment" (om-make-point 86 36) (quote "ADD-1") "" (om-make-point 265 119) nil (om-make-color 0.0 0.0 0.0) (om-make-font "Verdana" 18.0 :family "Verdana" :style (quote (:bold)) :mode (quote nil))) (om-load-boxcomment "comment" (om-make-point 133 45) (quote "cmd-click and type inside the box") "" (om-make-point 256 88) nil (om-make-color 0 0 0) (om-make-font "Verdana" 12 :family "Verdana" :style (quote (:plain)) :mode (quote nil))) (om-load-editor-box1 "SOUND" (quote sound) (quote ((om-load-inputfun (quote input-funbox) "object" "self" nil) (om-load-inputfun (quote input-funbox) "a track index for multichannel mixing" "tracknum" 1) (om-load-inputfun (quote input-funbox) "a list of markers (s)" "markers" nil))) (om-make-point 95 314) (om-make-point 133 73) (let ((newobj nil)) (load-port-info newobj (quote nil)) (init-mus-color newobj (quote nil)) (set-extra-pairs newobj (quote nil)) (set-patch-pairs newobj (quote nil)) (set-name newobj "") (set-tonalite newobj nil) newobj) nil nil (pairlis (quote (approx fontsize staff cmnpref deltapict outport inport player zoom notechancolor? grillestep mode winsize winpos score-mode obj-mode show-stems scale palette-mode)) (list 2 24 (quote g) (let ((newobj (make-instance (quote edition-values)))) (setf (paper-size newobj) (om-make-point 600 800)) (setf (top-margin newobj) 2) (setf (left-margin newobj) 1) (setf (right-margin newobj) 1) (setf (bottom-margin newobj) 1) (setf (orientation newobj) nil) (setf (scale newobj) nil) (setf (system-space newobj) (quote (1))) (setf (system-color newobj) (quote nil)) (setf (line-space newobj) 1) (setf (title newobj) nil) (setf (show-title? newobj) nil) (setf (show-page? newobj) nil) (setf (sheet-id newobj) nil) (setf (page-mode newobj) nil) newobj) (om-make-point 0 0) nil 0 (quote :libaudio) 1 nil 1000 0 (om-make-point 370 280) (om-make-point 400 20) 0 1 (quote t) nil 0)) t nil nil nil) (om-load-boxcall (quote genfun) "SYNTHESIZE" (quote synthesize) (quote ((om-load-inputfun (quote input-funbox) "something to synthesize..." "ELEMENTS" nil))) (om-make-point 96 208) nil nil nil nil 1) (om-load-editor-box1 "ADD-1" (quote add-1) (quote ((om-load-inputfun (quote input-funbox) "Synthesis event" "self" nil) (om-load-inputfun (quote input-funbox) "Number of components [int]" "numcols" 1) (om-load-inputfun (quote input-funbox) "Event offset [s]" "action-time" 0) (om-load-inputfun (quote input-funbox) "A lambda function applied to each component" "user-fun" nil))) (om-make-point 102 72) (om-make-point 148 95) (let ((rep (if (find-class (quote add-1) nil) (let ((rep (make-instance (quote add-1) :numcols 1))) (when (member (quote e-dels) (get-init-slots-of-class (quote add-1)) :key (quote car)) (setf (slot-value rep (quote e-dels)) 0)) (when (member (quote durs) (get-init-slots-of-class (quote add-1)) :key (quote car)) (setf (slot-value rep (quote durs)) 1)) (when (member (quote amp) (get-init-slots-of-class (quote add-1)) :key (quote car)) (setf (slot-value rep (quote amp)) -6.0)) (when (member (quote freq) (get-init-slots-of-class (quote add-1)) :key (quote car)) (setf (slot-value rep (quote freq)) 440.0)) (when (member (quote aenv) (get-init-slots-of-class (quote add-1)) :key (quote car)) (setf (slot-value rep (quote aenv)) (let ((newobj (when (find-class (quote gen07) nil) (let ((newbpf (simple-bpf-from-list (quote (0.0 2048.0 4096.0)) (quote (0.0 100.0 0.0)) (quote gen07) 1))) (setf (bpfcolor newbpf) (om-make-color 0 0 0)) (set-name newbpf nil) newbpf)))) (setf (stime newobj) 0) (setf (size newobj) 4097) (setf (id newobj) "?") newobj))) (setf (lcontrols rep) (list)) (setf (action-time rep) 0) (setf (data rep) (list (list 0) (list 1) (list -6.0) (list 440.0) (list (let ((newobj (when (find-class (quote gen07) nil) (let ((newbpf (simple-bpf-from-list (quote (0.0 2048.0 4096.0)) (quote (0.0 100.0 0.0)) (quote gen07) 1))) (setf (bpfcolor newbpf) (om-make-color 0 0 0)) (set-name newbpf nil) newbpf)))) (setf (stime newobj) 0) (setf (size newobj) 4097) (setf (id newobj) "?") newobj)))) rep)))) (setf (precision rep) (list 3)) rep) nil nil (pairlis (quote (panel-list cur-group-ind show-opt-fields color-list winsize winpos)) (list (list (list "All open" (list 0 (quote t)) (list 1 (quote t)) (list 2 (quote t)) (list 3 (quote t)) (list 4 (quote t))) (list "All close" (list 0 nil) (list 1 nil) (list 2 nil) (list 3 nil) (list 4 nil))) 0 (quote t) (list (om-make-color 0 0 0) (om-make-color 0 0 0) (om-make-color 0 0 0) (om-make-color 0 0 0) (om-make-color 0 0 0)) (om-make-point 500 280) (om-make-point 10 40))) nil nil nil nil))) (quote ((4 0 5 0 nil 0) (5 0 6 0 nil 0) (8 0 9 0 nil 0) (9 0 10 0 nil 0))) nil 6.060017))
