; OM File Header - Saved 2025/02/06 18:22:39
; (6.0602 :patc (om-make-point 216 227) (om-make-point 845 198) (om-make-point 759 563) "" 183 0 nil "2025/02/06 18:22:39")
; End File Header
; External resources 
; (list (list (quote :sound) "../../out-files/stereo-1_B.aiff" "../../in-files/gliss.aiff" "../../../out-files/stereo-1_A.aiff"))
(in-package :om)(load-lib-for (quote ("OMChroma")))(setf *om-current-persistent* (om-load-patch1 "01 stereo-1" (quote ((om-load-boxcall (quote abstraction) "C#ed" (om-load-patch-abs1 "C#ed" (quote ((om-load-boxout "output 2" 1 (om-make-point 127 369) (quote ((om-load-inputfun (quote input-funbox) "" "out" nil))) "edel" nil) (om-load-boxcall (quote lispfun) "LENGTH" (quote length) (quote ((om-load-inputfun (quote input-funbox) "SEQUENCE" "SEQUENCE" nil))) (om-make-point 45 326) nil nil nil nil 1) (om-load-boxin "length" 1 (om-make-point 111 12) "" "length" nil nil) (om-load-boxcall (quote genfun) "OM*" (quote om*) (quote ((om-load-inputfun (quote input-funbox) "number or list" "ARG1" 0) (om-load-inputfun (quote input-funbox) "number or list" "ARG2" 0))) (om-make-point 137 204) nil nil nil nil 1) (om-load-boxcall (quote bastype) "aux 2" (quote t) (quote nil) (om-make-point 159 94) (om-make-point 27 30) 1 "1" nil) (om-load-boxcall (quote genfun) "OM-" (quote om-) (quote ((om-load-inputfun (quote input-funbox) "number or list" "ARG1" 0) (om-load-inputfun (quote input-funbox) "number or list" "ARG2" 0))) (om-make-point 136 144) nil nil nil nil 1) (om-load-boxcall (quote lispfun) "LENGTH" (quote length) (quote ((om-load-inputfun (quote input-funbox) "SEQUENCE" "SEQUENCE" nil))) (om-make-point 109 80) nil nil nil nil 1) (om-load-boxin "durs" 0 (om-make-point 200 139) "" "durs" nil nil) (om-load-boxout "output" 0 (om-make-point 43 374) (quote ((om-load-inputfun (quote input-funbox) "" "out" nil))) "length" nil) (om-load-boxcall (quote bastype) "aux" (quote t) (quote nil) (om-make-point 103 222) (om-make-point 27 30) 0 "0" nil) (om-load-boxcall (quote genfun) "ARITHM-SER" (quote arithm-ser) (quote ((om-load-inputfun (quote input-funbox) "begin" "BEGIN" 0) (om-load-inputfun (quote input-funbox) "end " "END" 10) (om-load-inputfun (quote input-funbox) "step" "STEP" 1))) (om-make-point 111 265) nil nil nil nil 1))) (quote ((10 0 0 0 nil 0) (10 0 1 0 nil 0) (5 0 3 0 nil 0) (7 0 3 1 nil 0) (6 0 5 0 nil 0) (4 0 5 1 nil 0) (2 0 6 0 nil 0) (1 0 8 0 nil 0) (9 0 10 0 nil 0) (3 0 10 1 nil 0) (7 0 10 2 nil 0))) 6.0602 nil "" (om-make-point 200 200) (om-make-point 500 400)) (quote ((om-load-inputfun (quote input-funbox) "" "durs" nil) (om-load-inputfun (quote input-funbox) "" "length" nil))) (om-make-point 164 105) nil nil nil "C#ed") (om-load-editor-box1 "STEREO-1 3" (quote stereo-1) (quote ((om-load-inputfun (quote input-funbox) "Synthesis event" "self" nil) (om-load-inputfun (quote input-funbox) "Number of components [int]" "numcols" 1) (om-load-inputfun (quote input-funbox) "Event offset [s]" "action-time" 0) (om-load-inputfun (quote input-funbox) "A lambda function applied to each component" "user-fun" nil) (om-load-inputkeyword (quote editor-keyword) "" "afil" (quote :afil) nil nil) (om-load-inputkeyword (quote editor-keyword) "" "bal" (quote :bal) 0 nil) (om-load-inputkeyword (quote editor-keyword) "" "durs" (quote :durs) 1 nil) (om-load-inputkeyword (quote editor-keyword) "" "e-dels" (quote :e-dels) nil nil))) (om-make-point 418 96) (om-make-point 127 69) (let ((rep (if (find-class (quote stereo-1) nil) (let ((rep (make-instance (quote stereo-1) :numcols 1))) (when (member (quote e-dels) (get-init-slots-of-class (quote stereo-1)) :key (quote car)) (setf (slot-value rep (quote e-dels)) 0)) (when (member (quote durs) (get-init-slots-of-class (quote stereo-1)) :key (quote car)) (setf (slot-value rep (quote durs)) 1)) (when (member (quote afil) (get-init-slots-of-class (quote stereo-1)) :key (quote car)) (setf (slot-value rep (quote afil)) nil)) (when (member (quote bal) (get-init-slots-of-class (quote stereo-1)) :key (quote car)) (setf (slot-value rep (quote bal)) (list -1 -0.5 0 0.5 1))) (setf (lcontrols rep) (list)) (setf (action-time rep) 0) (setf (data rep) (list (list 0) (list 1) (list nil) (list -1))) rep)))) (put-precision rep (list 3)) rep) nil nil (pairlis (quote (winpos winsize color-list show-opt-fields cur-group-ind panel-list)) (list (om-make-point 10 40) (om-make-point 500 280) (list (om-make-color 0 0 0) (om-make-color 0 0 0) (om-make-color 0 0 0) (om-make-color 0 0 0)) (quote t) 0 (list (list "All open" (list 0 (quote t)) (list 1 (quote t)) (list 2 (quote t)) (list 3 (quote t))) (list "All close" (list 0 nil) (list 1 nil) (list 2 nil) (list 3 nil))))) nil nil nil nil) (om-load-boxcomment "comment 7" (om-make-point 43 34) (quote "bal") "" (om-make-point 459 31) nil (om-make-color 1.0 0.0 0.0) (om-make-font "Verdana" 14.0 :family "Verdana" :style (quote (:bold)) :mode (quote nil))) (om-load-boxcomment "comment 6" (om-make-point 44 88) (quote "B") "" (om-make-point 304 246) nil (om-make-color 1.0 0.0 0.011788845) (om-make-font "Verdana" 36.0 :family "Verdana" :style (quote (:bold)) :mode (quote nil))) (om-load-editor-box1 "ADD-1" (quote add-1) (quote ((om-load-inputfun (quote input-funbox) "Synthesis event" "self" nil) (om-load-inputfun (quote input-funbox) "Number of components [int]" "numcols" 1) (om-load-inputfun (quote input-funbox) "Event offset [s]" "action-time" 0) (om-load-inputfun (quote input-funbox) "A lambda function applied to each component" "user-fun" nil) (om-load-inputkeyword (quote editor-keyword) "" "e-dels" (quote :e-dels) 0 nil) (om-load-inputkeyword (quote editor-keyword) "" "durs" (quote :durs) 1 nil) (om-load-inputkeyword (quote editor-keyword) "" "amp" (quote :amp) -6.0 nil) (om-load-inputkeyword (quote editor-keyword) "" "freq" (quote :freq) 440.0 nil) (om-load-inputkeyword (quote editor-keyword) "" "aenv" (quote :aenv) (list (quote make-cs-table) (quote (quote gen07)) (list (quote list) 0 2048 4096) (list (quote list) 0 100 0) 1 "?" 4097) nil))) (om-make-point 303 93) (om-make-point 105 70) (let ((rep (if (find-class (quote add-1) nil) (let ((rep (make-instance (quote add-1) :numcols 5))) (when (member (quote e-dels) (get-init-slots-of-class (quote add-1)) :key (quote car)) (setf (slot-value rep (quote e-dels)) (list 0 1 2 3 4))) (when (member (quote durs) (get-init-slots-of-class (quote add-1)) :key (quote car)) (setf (slot-value rep (quote durs)) 1)) (when (member (quote amp) (get-init-slots-of-class (quote add-1)) :key (quote car)) (setf (slot-value rep (quote amp)) -6.0)) (when (member (quote freq) (get-init-slots-of-class (quote add-1)) :key (quote car)) (setf (slot-value rep (quote freq)) 440.0)) (when (member (quote aenv) (get-init-slots-of-class (quote add-1)) :key (quote car)) (setf (slot-value rep (quote aenv)) (let ((newobj (when (find-class (quote gen07) nil) (let ((newbpf (simple-bpf-from-list (quote (0.0 2048.0 4096.0)) (quote (0.0 100.0 0.0)) (quote gen07) 1))) (setf (bpfcolor newbpf) (om-make-color 0 0 0)) (set-name newbpf nil) newbpf)))) (when newobj (setf (stime newobj) 0) (setf (size newobj) 4097) (setf (id newobj) "?")) newobj))) (setf (lcontrols rep) (list)) (setf (action-time rep) 0) (setf (data rep) (list (list 0 1 2 3 4) (list 1 1 1 1 1) (list -6.0 -6.0 -6.0 -6.0 -6.0) (list 440.0 440.0 440.0 440.0 440.0) (list (let ((newobj (when (find-class (quote gen07) nil) (let ((newbpf (simple-bpf-from-list (quote (0.0 2048.0 4096.0)) (quote (0.0 100.0 0.0)) (quote gen07) 1))) (setf (bpfcolor newbpf) (om-make-color 0 0 0)) (set-name newbpf nil) newbpf)))) (when newobj (setf (stime newobj) 0) (setf (size newobj) 4097) (setf (id newobj) "?")) newobj) (let ((newobj (when (find-class (quote gen07) nil) (let ((newbpf (simple-bpf-from-list (quote (0.0 2048.0 4096.0)) (quote (0.0 100.0 0.0)) (quote gen07) 1))) (setf (bpfcolor newbpf) (om-make-color 0 0 0)) (set-name newbpf nil) newbpf)))) (when newobj (setf (stime newobj) 0) (setf (size newobj) 4097) (setf (id newobj) "?")) newobj) (let ((newobj (when (find-class (quote gen07) nil) (let ((newbpf (simple-bpf-from-list (quote (0.0 2048.0 4096.0)) (quote (0.0 100.0 0.0)) (quote gen07) 1))) (setf (bpfcolor newbpf) (om-make-color 0 0 0)) (set-name newbpf nil) newbpf)))) (when newobj (setf (stime newobj) 0) (setf (size newobj) 4097) (setf (id newobj) "?")) newobj) (let ((newobj (when (find-class (quote gen07) nil) (let ((newbpf (simple-bpf-from-list (quote (0.0 2048.0 4096.0)) (quote (0.0 100.0 0.0)) (quote gen07) 1))) (setf (bpfcolor newbpf) (om-make-color 0 0 0)) (set-name newbpf nil) newbpf)))) (when newobj (setf (stime newobj) 0) (setf (size newobj) 4097) (setf (id newobj) "?")) newobj) (let ((newobj (when (find-class (quote gen07) nil) (let ((newbpf (simple-bpf-from-list (quote (0.0 2048.0 4096.0)) (quote (0.0 100.0 0.0)) (quote gen07) 1))) (setf (bpfcolor newbpf) (om-make-color 0 0 0)) (set-name newbpf nil) newbpf)))) (when newobj (setf (stime newobj) 0) (setf (size newobj) 4097) (setf (id newobj) "?")) newobj)))) rep)))) (put-precision rep (list 3)) rep) nil nil (pairlis (quote (panel-list cur-group-ind show-opt-fields color-list winsize winpos)) (list (list (list "All open" (list 0 (quote t)) (list 1 (quote t)) (list 2 (quote t)) (list 3 (quote t)) (list 4 (quote t))) (list "All close" (list 0 nil) (list 1 nil) (list 2 nil) (list 3 nil) (list 4 nil))) 0 (quote t) (list (om-make-color 0 0 0) (om-make-color 0 0 0) (om-make-color 0 0 0) (om-make-color 0 0 0) (om-make-color 0 0 0)) (om-make-point 500 280) (om-make-point 10 40))) nil nil nil t) (om-load-boxcall (quote genfun) "CHROMA-PRISMA" (quote chroma-prisma) (quote ((om-load-inputfun (quote input-funbox) "" "SYNTH" nil) (om-load-inputfun (quote input-funbox) "" "SPAT" nil))) (om-make-point 321 190) nil nil nil nil 1) (om-load-boxcall (quote bastype) "aux 5" (quote t) (quote nil) (om-make-point 288 55) (om-make-point 27 30) 5 "5" nil) (om-load-boxcall (quote bastype) "aux 3" (quote t) (quote nil) (om-make-point 425 57) (om-make-point 113 30) (list -1 -0.5 0 0.5 1) "(-1 -0.5 0 0.5 1)" nil) (om-load-boxcall (quote bastype) "aux 2" (quote t) (quote nil) (om-make-point 325 56) (om-make-point 81 30) (list 0 1 2 3 4) "(0 1 2 3 4)" nil) (om-load-boxcall (quote abstraction) "Synt 2" (om-load-patch-abs1 "Synt" (quote ((om-load-boxcall (quote bastype) "aux" (quote t) (quote nil) (om-make-point 91 100) (om-make-point 93 30) "stereo-1_B" "\"stereo-1_B\"" nil) (om-load-boxin "OMCh" 0 (om-make-point 31 69) "" "OMCh" nil nil) (om-load-boxout "output" 0 (om-make-point 55 205) (quote ((om-load-inputfun (quote input-funbox) "" "out" nil))) nil nil) (om-load-boxcall (quote genfun) "SYNTHESIZE" (quote synthesize) (quote ((om-load-inputfun (quote input-funbox) "something to synthesize..." "ELEMENTS" nil) (om-load-inputkeyword (quote input-keyword) "" "name" (quote :name) nil nil))) (om-make-point 45 143) nil nil nil nil 1))) (quote ((3 0 2 0 nil 0) (1 0 3 0 nil 0) (0 0 3 1 nil 0))) 6.0602 nil "" (om-make-point 200 200) (om-make-point 500 400)) (quote ((om-load-inputfun (quote input-funbox) "" "fm-1" nil))) (om-make-point 341 254) (om-make-point 51 67) (list (om-make-pathname :directory (quote (:absolute "OMChroma_Tutorial" "out-files")) :device :unspecific :host nil :name "stereo-1_B" :type "aiff")) nil "Synt") (om-load-editor-box1 "stereo-1_B.aiff" (quote sound) (quote ((om-load-inputfun (quote input-funbox) "object" "self" nil) (om-load-inputfun (quote input-funbox) "a track index for multichannel mixing" "tracknum" 1) (om-load-inputfun (quote input-funbox) "a list of markers (s)" "markers" nil))) (om-make-point 408 257) (om-make-point 107 70) (let ((newobj (let ((thesound (load-sound (om-make-pathname :directory (quote (:relative "out-files")) :device :unspecific :host :unspecific :name "stereo-1_B" :type "aiff") 1))) (when thesound (setf (markers thesound) (quote nil))) thesound))) (load-port-info newobj (quote nil)) (init-mus-color newobj (quote nil)) (set-extra-pairs newobj (quote nil)) (set-patch-pairs newobj (quote nil)) (set-name newobj "stereo-1_B.aiff") (set-tonalite newobj nil) newobj) nil nil (pairlis (quote (approx fontsize staff cmnpref deltapict outport inport player zoom notechancolor? grillestep mode winsize winpos score-mode obj-mode show-stems scale palette-mode)) (list 2 24 (quote g) (let ((newobj (make-instance (quote edition-values)))) (setf (paper-size newobj) (om-make-point 600 800)) (setf (top-margin newobj) 2) (setf (left-margin newobj) 1) (setf (right-margin newobj) 1) (setf (bottom-margin newobj) 1) (setf (orientation newobj) nil) (setf (scale newobj) nil) (setf (system-space newobj) (quote (1))) (setf (system-color newobj) (quote nil)) (setf (line-space newobj) 1) (setf (title newobj) nil) (setf (show-title? newobj) nil) (setf (show-page? newobj) nil) (setf (sheet-id newobj) nil) (setf (page-mode newobj) nil) newobj) (om-make-point 0 0) nil 0 (quote :libaudio) 1 nil 1000 0 (om-make-point 686 477) (om-make-point 400 22) 0 1 (quote t) nil 0)) t nil nil nil) (om-load-boxcomment "comment 5" (om-make-point 44 88) (quote "A") "" (om-make-point 20 88) nil (om-make-color 1.0 0.0 0.011788845) (om-make-font "Verdana" 36.0 :family "Verdana" :style (quote (:bold)) :mode (quote nil))) (om-load-boxcomment "comment 4" (om-make-point 33 352) (quote "|$|$|$|$|$|$|") "" (om-make-point 261 33) nil (om-make-color 1.0 0.0 0.0) (om-make-font "Verdana" 36.0 :family "Verdana" :style (quote (:plain)) :mode (quote nil))) (om-load-boxcall (quote abstraction) "Synt" (om-load-patch-abs1 "Synt" (quote ((om-load-boxcall (quote bastype) "aux" (quote t) (quote nil) (om-make-point 81 100) (om-make-point 93 30) "stereo-1_A" "\"stereo-1_A\"" nil) (om-load-boxin "OMCh" 0 (om-make-point 31 69) "" "OMCh" nil nil) (om-load-boxout "output" 0 (om-make-point 55 205) (quote ((om-load-inputfun (quote input-funbox) "" "out" nil))) nil nil) (om-load-boxcall (quote genfun) "SYNTHESIZE" (quote synthesize) (quote ((om-load-inputfun (quote input-funbox) "something to synthesize..." "ELEMENTS" nil) (om-load-inputkeyword (quote input-keyword) "" "name" (quote :name) nil nil))) (om-make-point 45 143) nil nil nil nil 1))) (quote ((3 0 2 0 nil 0) (1 0 3 0 nil 0) (0 0 3 1 nil 0))) 6.0602 nil "" (om-make-point 200 200) (om-make-point 500 400)) (quote ((om-load-inputfun (quote input-funbox) "" "fm-1" nil))) (om-make-point 44 266) (om-make-point 51 67) (list (om-make-pathname :directory (quote (:absolute "OMChroma_Tutorial" "out-files")) :device :unspecific :host nil :name "stereo-1_A" :type "aiff")) nil "Synt") (om-load-boxcomment "comment 3" (om-make-point 43 34) (quote "bal") "" (om-make-point 180 29) nil (om-make-color 1.0 0.0 0.0) (om-make-font "Verdana" 14.0 :family "Verdana" :style (quote (:bold)) :mode (quote nil))) (om-load-boxcomment "comment 2" (om-make-point 43 34) (quote "afil") "" (om-make-point 67 23) nil (om-make-color 1.0 0.0 0.0) (om-make-font "Verdana" 14.0 :family "Verdana" :style (quote (:bold)) :mode (quote nil))) (om-load-boxcomment "comment" (om-make-point 232 34) (quote "Tutorial Stereo-1") "" (om-make-point 54 0) nil (om-make-color 1.0 0.0 0.0) (om-make-font "Verdana" 14.0 :family "Verdana" :style (quote (:bold)) :mode (quote nil))) (om-load-boxcall (quote genfun) "SOUND-DUR" (quote sound-dur) (quote ((om-load-inputfun (quote input-funbox) "a sound object or file pathname" "SOUND" nil))) (om-make-point 66 126) nil nil nil nil 1) (om-load-editor-box1 "gliss.aiff" (quote sound) (quote ((om-load-inputfun (quote input-funbox) "object" "self" nil) (om-load-inputfun (quote input-funbox) "a track index for multichannel mixing" "tracknum" 1) (om-load-inputfun (quote input-funbox) "a list of markers (s)" "markers" nil))) (om-make-point 30 47) (om-make-point 111 52) (let ((newobj (let ((thesound (load-sound (om-make-pathname :directory (quote (:relative "in-files")) :device :unspecific :host :unspecific :name "gliss" :type "aiff") 1))) (when thesound (setf (markers thesound) (quote nil))) thesound))) (load-port-info newobj (quote nil)) (init-mus-color newobj (quote nil)) (set-extra-pairs newobj (quote nil)) (set-patch-pairs newobj (quote nil)) (set-name newobj "gliss.aiff") (set-tonalite newobj nil) newobj) "x" nil (pairlis (quote (palette-mode scale show-stems obj-mode score-mode winpos winsize mode grillestep notechancolor? zoom player inport outport deltapict cmnpref staff fontsize approx)) (list 0 nil (quote t) 1 0 (om-make-point 400 20) (om-make-point 370 280) 0 1000 nil 1 (quote :libaudio) 0 nil (om-make-point 0 0) (let ((newobj (make-instance (quote edition-values)))) (setf (paper-size newobj) (om-make-point 600 800)) (setf (top-margin newobj) 2) (setf (left-margin newobj) 1) (setf (right-margin newobj) 1) (setf (bottom-margin newobj) 1) (setf (orientation newobj) nil) (setf (scale newobj) nil) (setf (system-space newobj) (quote (1))) (setf (system-color newobj) (quote nil)) (setf (line-space newobj) 1) (setf (title newobj) nil) (setf (show-title? newobj) nil) (setf (show-page? newobj) nil) (setf (sheet-id newobj) nil) (setf (page-mode newobj) nil) newobj) (quote g) 24 2)) t nil nil nil) (om-load-boxcall (quote bastype) "aux 4" (quote t) (quote nil) (om-make-point 146 56) (om-make-point 113 30) (list -1 -0.5 0 0.5 1) "(-1 -0.5 0 0.5 1)" nil) (om-load-editor-box1 "STEREO-1" (quote stereo-1) (quote ((om-load-inputfun (quote input-funbox) "Synthesis event" "self" nil) (om-load-inputfun (quote input-funbox) "Number of components [int]" "numcols" 1) (om-load-inputfun (quote input-funbox) "Event offset [s]" "action-time" 0) (om-load-inputfun (quote input-funbox) "A lambda function applied to each component" "user-fun" nil) (om-load-inputkeyword (quote editor-keyword) "" "afil" (quote :afil) nil nil) (om-load-inputkeyword (quote editor-keyword) "" "bal" (quote :bal) 0 nil) (om-load-inputkeyword (quote editor-keyword) "" "durs" (quote :durs) 1 nil) (om-load-inputkeyword (quote editor-keyword) "" "e-dels" (quote :e-dels) nil nil))) (om-make-point 56 197) (om-make-point 143 65) (let ((rep (if (find-class (quote stereo-1) nil) (let ((rep (make-instance (quote stereo-1) :numcols 5))) (when (member (quote e-dels) (get-init-slots-of-class (quote stereo-1)) :key (quote car)) (setf (slot-value rep (quote e-dels)) (list 0 4.0 8.0 12.0 16.0))) (when (member (quote durs) (get-init-slots-of-class (quote stereo-1)) :key (quote car)) (setf (slot-value rep (quote durs)) 4.0)) (when (member (quote afil) (get-init-slots-of-class (quote stereo-1)) :key (quote car)) (setf (slot-value rep (quote afil)) (let ((newobj (let ((thesound (load-sound (om-make-pathname :directory (quote (:relative "in-files")) :device :unspecific :host :unspecific :name "gliss" :type "aiff") 1))) (when thesound (setf (markers thesound) (quote nil))) thesound))) (load-port-info newobj (quote nil)) (init-mus-color newobj (quote nil)) (set-extra-pairs newobj (quote nil)) (set-patch-pairs newobj (quote nil)) (set-name newobj "gliss.aiff") (set-tonalite newobj nil) newobj))) (when (member (quote bal) (get-init-slots-of-class (quote stereo-1)) :key (quote car)) (setf (slot-value rep (quote bal)) (list -1 -0.5 0 0.5 1))) (setf (lcontrols rep) (list)) (setf (action-time rep) 0) (setf (data rep) (list (list 0 4.0 8.0 12.0 16.0) (list 4.0 4.0 4.0 4.0 4.0) (list (let ((newobj (let ((thesound (load-sound (om-make-pathname :directory (quote (:relative "in-files")) :device :unspecific :host :unspecific :name "gliss" :type "aiff") 1))) (when thesound (setf (markers thesound) (quote nil))) thesound))) (load-port-info newobj (quote nil)) (init-mus-color newobj (quote nil)) (set-extra-pairs newobj (quote nil)) (set-patch-pairs newobj (quote nil)) (set-name newobj "gliss.aiff") (set-tonalite newobj nil) newobj) (let ((newobj (let ((thesound (load-sound (om-make-pathname :directory (quote (:relative "in-files")) :device :unspecific :host :unspecific :name "gliss" :type "aiff") 1))) (when thesound (setf (markers thesound) (quote nil))) thesound))) (load-port-info newobj (quote nil)) (init-mus-color newobj (quote nil)) (set-extra-pairs newobj (quote nil)) (set-patch-pairs newobj (quote nil)) (set-name newobj "gliss.aiff") (set-tonalite newobj nil) newobj) (let ((newobj (let ((thesound (load-sound (om-make-pathname :directory (quote (:relative "in-files")) :device :unspecific :host :unspecific :name "gliss" :type "aiff") 1))) (when thesound (setf (markers thesound) (quote nil))) thesound))) (load-port-info newobj (quote nil)) (init-mus-color newobj (quote nil)) (set-extra-pairs newobj (quote nil)) (set-patch-pairs newobj (quote nil)) (set-name newobj "gliss.aiff") (set-tonalite newobj nil) newobj) (let ((newobj (let ((thesound (load-sound (om-make-pathname :directory (quote (:relative "in-files")) :device :unspecific :host :unspecific :name "gliss" :type "aiff") 1))) (when thesound (setf (markers thesound) (quote nil))) thesound))) (load-port-info newobj (quote nil)) (init-mus-color newobj (quote nil)) (set-extra-pairs newobj (quote nil)) (set-patch-pairs newobj (quote nil)) (set-name newobj "gliss.aiff") (set-tonalite newobj nil) newobj) (let ((newobj (let ((thesound (load-sound (om-make-pathname :directory (quote (:relative "in-files")) :device :unspecific :host :unspecific :name "gliss" :type "aiff") 1))) (when thesound (setf (markers thesound) (quote nil))) thesound))) (load-port-info newobj (quote nil)) (init-mus-color newobj (quote nil)) (set-extra-pairs newobj (quote nil)) (set-patch-pairs newobj (quote nil)) (set-name newobj "gliss.aiff") (set-tonalite newobj nil) newobj)) (list -1 -0.5 0 0.5 1))) rep)))) (put-precision rep (list 3)) rep) nil nil (pairlis (quote (winpos winsize color-list show-opt-fields cur-group-ind panel-list)) (list (om-make-point 10 40) (om-make-point 500 280) (list (om-make-color 0 0 0) (om-make-color 0 0 0) (om-make-color 0 0 0) (om-make-color 0 0 0)) (quote t) 0 (list (list "All open" (list 0 (quote t)) (list 1 (quote t)) (list 2 (quote t)) (list 3 (quote t))) (list "All close" (list 0 nil) (list 1 nil) (list 2 nil) (list 3 nil))))) nil nil nil t) (om-load-editor-box1 "stereo-1_A.aiff" (quote sound) (quote ((om-load-inputfun (quote input-funbox) "object" "self" nil) (om-load-inputfun (quote input-funbox) "a track index for multichannel mixing" "tracknum" 1) (om-load-inputfun (quote input-funbox) "a list of markers (s)" "markers" nil))) (om-make-point 111 269) (om-make-point 107 70) (let ((newobj (let ((thesound (load-sound (om-make-pathname :directory (quote (:relative "out-files")) :device nil :host nil :name "stereo-1_A" :type "aiff") 1))) (when thesound (setf (markers thesound) (quote nil))) thesound))) (load-port-info newobj (quote nil)) (init-mus-color newobj (quote nil)) (set-extra-pairs newobj (quote nil)) (set-patch-pairs newobj (quote nil)) (set-name newobj "stereo-1_A.aiff") (set-tonalite newobj nil) newobj) nil nil (pairlis (quote (palette-mode scale show-stems obj-mode score-mode winpos winsize mode grillestep notechancolor? zoom player inport outport deltapict cmnpref staff fontsize approx)) (list 0 nil (quote t) 1 0 (om-make-point 400 22) (om-make-point 686 477) 0 1000 nil 1 (quote :libaudio) 0 nil (om-make-point 0 0) (let ((newobj (make-instance (quote edition-values)))) (setf (paper-size newobj) (om-make-point 600 800)) (setf (top-margin newobj) 2) (setf (left-margin newobj) 1) (setf (right-margin newobj) 1) (setf (bottom-margin newobj) 1) (setf (orientation newobj) nil) (setf (scale newobj) nil) (setf (system-space newobj) (quote (1))) (setf (system-color newobj) (quote nil)) (setf (line-space newobj) 1) (setf (title newobj) nil) (setf (show-title? newobj) nil) (setf (show-page? newobj) nil) (setf (sheet-id newobj) nil) (setf (page-mode newobj) nil) newobj) (quote g) 24 2)) t nil nil nil))) (quote ((17 0 0 0 nil 2) (19 0 0 1 nil 0) (7 0 1 5 nil 0) (6 0 4 1 nil 0) (8 0 4 4 nil 0) (4 0 5 0 nil 0) (1 0 5 1 nil 0) (5 0 9 0 nil 0) (9 0 10 0 nil 0) (20 0 13 0 nil 0) (18 0 17 0 nil 0) (0 0 20 1 nil 1) (18 0 20 4 nil 0) (19 0 20 5 nil 0) (17 0 20 6 nil 2) (0 1 20 7 nil 3) (13 0 21 0 nil 0))) nil 6.0602))
