; OM File Header - Saved 2025/02/06 18:22:39
; (6.0602 :patc (om-make-point 226 10) (om-make-point 167 176) (om-make-point 1105 559) "" 183 0 nil "2025/02/06 18:22:39")
; End File Header
; External resources 
; (list (list (quote :sound) "../../../out-files/fof-2_D.aiff" "../../../out-files/fof-2_C.aiff" "../../../out-files/fof-2_B.aiff" "../../../out-files/fof-2_A.aiff"))
(in-package :om)(load-lib-for (quote ("OMChroma")))(setf *om-current-persistent* (om-load-patch1 "fof-2" (quote ((om-load-boxcall (quote bastype) "aux 40" (quote t) (quote nil) (om-make-point 984 295) (om-make-point 27 30) 1 "1" nil) (om-load-boxcomment "comment 44" (om-make-point 1113 67) (quote "___________________________________________") "" (om-make-point 12 203) nil (om-make-color 1.0 0.0 0.0) (om-make-font "Verdana" 36.0 :family "Verdana" :style (quote (:plain)) :mode (quote nil))) (om-load-boxcomment "comment 43" (om-make-point 28 253) (quote "|$|$|$|$$$") "" (om-make-point 496 263) nil (om-make-color 1.0 0.0 0.0) (om-make-font "Verdana" 36.0 :family "Verdana" :style (quote (:plain)) :mode (quote nil))) (om-load-boxcall (quote bastype) "aux 39" (quote t) (quote nil) (om-make-point 951 296) (om-make-point 27 30) 4 "4" nil) (om-load-boxcall (quote bastype) "aux 38" (quote t) (quote nil) (om-make-point 895 296) (om-make-point 45 30) 0.01 "0.01" nil) (om-load-boxcall (quote genfun) "ARITHM-SER 4" (quote arithm-ser) (quote ((om-load-inputfun (quote input-funbox) "begin" "BEGIN" 0) (om-load-inputfun (quote input-funbox) "end " "END" 10) (om-load-inputfun (quote input-funbox) "step" "STEP" 1))) (om-make-point 956 330) nil nil nil nil 1) (om-load-boxcall (quote bastype) "aux 37" (quote t) (quote nil) (om-make-point 822 357) (om-make-point 44 29) 0.005 "0.005" nil) (om-load-boxcomment "comment 42" (om-make-point 46 88) (quote "D") "" (om-make-point 523 268) nil (om-make-color 1.0 0.0 0.011788845) (om-make-font "Verdana" 36.0 :family "Verdana" :style (quote (:bold)) :mode (quote nil))) (om-load-boxcomment "comment 41" (om-make-point 51 34) (quote "durs") "" (om-make-point 595 260) nil (om-make-color 1.0 0.0 0.0) (om-make-font "Verdana" 14.0 :family "Verdana" :style (quote (:bold)) :mode (quote nil))) (om-load-boxcall (quote bastype) "aux 36" (quote t) (quote nil) (om-make-point 605 284) (om-make-point 27 30) 1 "1" nil) (om-load-boxcall (quote abstraction) "C#ed" (om-load-patch-abs1 "C#ed" (quote ((om-load-boxout "output 2" 1 (om-make-point 127 369) (quote ((om-load-inputfun (quote input-funbox) "" "out" nil))) "edel" nil) (om-load-boxcall (quote lispfun) "LENGTH" (quote length) (quote ((om-load-inputfun (quote input-funbox) "SEQUENCE" "SEQUENCE" nil))) (om-make-point 45 326) nil nil nil nil 1) (om-load-boxin "length" 1 (om-make-point 111 12) "" "length" nil nil) (om-load-boxcall (quote genfun) "OM*" (quote om*) (quote ((om-load-inputfun (quote input-funbox) "number or list" "ARG1" 0) (om-load-inputfun (quote input-funbox) "number or list" "ARG2" 0))) (om-make-point 137 204) nil nil nil nil 1) (om-load-boxcall (quote bastype) "aux 2" (quote t) (quote nil) (om-make-point 159 94) (om-make-point 27 30) 1 "1" nil) (om-load-boxcall (quote genfun) "OM-" (quote om-) (quote ((om-load-inputfun (quote input-funbox) "number or list" "ARG1" 0) (om-load-inputfun (quote input-funbox) "number or list" "ARG2" 0))) (om-make-point 136 144) nil nil nil nil 1) (om-load-boxcall (quote lispfun) "LENGTH" (quote length) (quote ((om-load-inputfun (quote input-funbox) "SEQUENCE" "SEQUENCE" nil))) (om-make-point 109 80) nil nil nil nil 1) (om-load-boxin "durs" 0 (om-make-point 200 139) "" "durs" nil nil) (om-load-boxout "output" 0 (om-make-point 43 374) (quote ((om-load-inputfun (quote input-funbox) "" "out" nil))) "length" nil) (om-load-boxcall (quote bastype) "aux" (quote t) (quote nil) (om-make-point 103 222) (om-make-point 27 30) 0 "0" nil) (om-load-boxcall (quote genfun) "ARITHM-SER" (quote arithm-ser) (quote ((om-load-inputfun (quote input-funbox) "begin" "BEGIN" 0) (om-load-inputfun (quote input-funbox) "end " "END" 10) (om-load-inputfun (quote input-funbox) "step" "STEP" 1))) (om-make-point 111 265) nil nil nil nil 1))) (quote ((10 0 0 0 nil 0) (10 0 1 0 nil 0) (5 0 3 0 nil 0) (7 0 3 1 nil 0) (6 0 5 0 nil 0) (4 0 5 1 nil 0) (2 0 6 0 nil 0) (1 0 8 0 nil 0) (9 0 10 0 nil 0) (3 0 10 1 nil 0) (7 0 10 2 nil 0))) 6.06001 nil "" (om-make-point 200 200) (om-make-point 500 400)) (quote ((om-load-inputfun (quote input-funbox) "" "durs" nil) (om-load-inputfun (quote input-funbox) "" "length" nil))) (om-make-point 598 322) nil nil nil "C#ed") (om-load-boxcall (quote bastype) "aux 35" (quote t) (quote nil) (om-make-point 739 358) (om-make-point 34 30) 64 "64" nil) (om-load-boxcomment "comment 40" (om-make-point 30 26) (quote "f0") "" (om-make-point 655 333) nil (om-make-color 1.0 0.0 0.0) (om-make-font "Verdana" 14.0 :family "Verdana" :style (quote (:bold)) :mode (quote nil))) (om-load-boxcomment "comment 39" (om-make-point 47 30) (quote "freq") "" (om-make-point 693 332) nil (om-make-color 1.0 0.0 0.0) (om-make-font "Verdana" 14.0 :family "Verdana" :style (quote (:bold)) :mode (quote nil))) (om-load-boxcomment "comment 38" (om-make-point 48 34) (quote "aenv") "" (om-make-point 774 332) nil (om-make-color 1.0 0.0 0.0) (om-make-font "Verdana" 14.0 :family "Verdana" :style (quote (:bold)) :mode (quote nil))) (om-load-boxcomment "comment 37" (om-make-point 40 31) (quote "bw") "" (om-make-point 737 332) nil (om-make-color 1.0 0.0 0.0) (om-make-font "Verdana" 14.0 :family "Verdana" :style (quote (:bold)) :mode (quote nil))) (om-load-editor-box1 "fof-2_D.aiff" (quote sound) (quote ((om-load-inputfun (quote input-funbox) "object" "self" nil) (om-load-inputfun (quote input-funbox) "a track index for multichannel mixing" "tracknum" 1) (om-load-inputfun (quote input-funbox) "a list of markers (s)" "markers" nil))) (om-make-point 525 397) (om-make-point 50 59) (let ((newobj (let ((thesound (load-sound (om-make-pathname :directory (quote (:relative "out-files")) :device :unspecific :host :unspecific :name "fof-2_D" :type "aiff") 1))) (when thesound (setf (markers thesound) (quote nil))) thesound))) (load-port-info newobj (quote nil)) (init-mus-color newobj (quote nil)) (set-extra-pairs newobj (quote nil)) (set-patch-pairs newobj (quote nil)) (set-name newobj "fof-2_D.aiff") (set-tonalite newobj nil) newobj) nil nil (pairlis (quote (approx fontsize staff cmnpref deltapict outport inport player zoom notechancolor? grillestep mode winsize winpos score-mode obj-mode show-stems scale palette-mode)) (list 2 24 (quote g) (let ((newobj (make-instance (quote edition-values)))) (setf (paper-size newobj) (om-make-point 600 800)) (setf (top-margin newobj) 2) (setf (left-margin newobj) 1) (setf (right-margin newobj) 1) (setf (bottom-margin newobj) 1) (setf (orientation newobj) nil) (setf (scale newobj) nil) (setf (system-space newobj) (quote (1))) (setf (system-color newobj) (quote nil)) (setf (line-space newobj) 1) (setf (title newobj) nil) (setf (show-title? newobj) nil) (setf (show-page? newobj) nil) (setf (sheet-id newobj) nil) (setf (page-mode newobj) nil) newobj) (om-make-point 0 0) nil 0 (quote :libaudio) 1 nil 1000 0 (om-make-point 875 640) (om-make-point 410 388) 0 1 (quote t) nil 0)) t nil nil nil) (om-load-boxcall (quote abstraction) "Synt 4" (om-load-patch-abs1 "Synt" (quote ((om-load-boxcall (quote bastype) "aux" (quote t) (quote nil) (om-make-point 91 100) (om-make-point 72 30) "fof-2_D" "\"fof-2_D\"" nil) (om-load-boxin "OMCh" 0 (om-make-point 31 69) "" "OMCh" nil nil) (om-load-boxout "output" 0 (om-make-point 55 205) (quote ((om-load-inputfun (quote input-funbox) "" "out" nil))) nil nil) (om-load-boxcall (quote genfun) "SYNTHESIZE" (quote synthesize) (quote ((om-load-inputfun (quote input-funbox) "something to synthesize..." "ELEMENTS" nil) (om-load-inputkeyword (quote input-keyword) "" "name" (quote :name) nil nil))) (om-make-point 45 143) nil nil nil nil 1))) (quote ((3 0 2 0 nil 0) (1 0 3 0 nil 0) (0 0 3 1 nil 0))) 6.06001 nil "" (om-make-point 200 200) (om-make-point 500 400)) (quote ((om-load-inputfun (quote input-funbox) "" "fm-1" nil))) (om-make-point 518 328) (om-make-point 51 67) nil nil "Synt") (om-load-boxcall (quote bastype) "aux 34" (quote t) (quote nil) (om-make-point 650 358) (om-make-point 41 30) 220 "220" nil) (om-load-boxcall (quote bastype) "aux 33" (quote t) (quote nil) (om-make-point 694 358) (om-make-point 41 30) 500 "500" nil) (om-load-editor-box1 "BPF 3" (quote bpf) (quote ((om-load-inputfun (quote input-funbox) "object" "self" nil) (om-load-inputfun (quote input-funbox) "X coordinates (list)" "x-points" (list 0 100)) (om-load-inputfun (quote input-funbox) "Y coordinates (list)" "y-points" (list 0 100)) (om-load-inputfun (quote input-funbox) "precision (integer) [0 - 10]" "decimals" 0))) (om-make-point 777 355) (om-make-point 41 38) (let ((newobj (when (find-class (quote bpf) nil) (let ((newbpf (simple-bpf-from-list (quote (0 5 95 100)) (quote (0 10 10 0)) (quote bpf) 0))) (setf (bpfcolor newbpf) (om-make-color 0 0 0)) (set-name newbpf nil) newbpf)))) newobj) "x" nil (pairlis (quote (winsize winpos picture)) (list (om-make-point 335 275) (om-make-point 10 40) nil)) t nil nil nil) (om-load-editor-box1 "FOF-2 4" (quote fof-2) (quote ((om-load-inputfun (quote input-funbox) "Synthesis event" "self" nil) (om-load-inputfun (quote input-funbox) "Number of components [int]" "numcols" 1) (om-load-inputfun (quote input-funbox) "Event offset [s]" "action-time" 0) (om-load-inputfun (quote input-funbox) "A lambda function applied to each component" "user-fun" nil) (om-load-inputkeyword (quote editor-keyword) "" "e-dels" (quote :e-dels) nil nil) (om-load-inputkeyword (quote editor-keyword) "" "durs" (quote :durs) nil nil) (om-load-inputkeyword (quote editor-keyword) "" "amp" (quote :amp) nil nil) (om-load-inputkeyword (quote editor-keyword) "" "f0" (quote :f0) nil nil) (om-load-inputkeyword (quote editor-keyword) "" "freq" (quote :freq) nil nil) (om-load-inputkeyword (quote editor-keyword) "" "bw" (quote :bw) nil nil) (om-load-inputkeyword (quote editor-keyword) "" "aenv" (quote :aenv) nil nil) (om-load-inputkeyword (quote editor-keyword) "" "win" (quote :win) nil nil) (om-load-inputkeyword (quote editor-keyword) "" "wdur" (quote :wdur) nil nil) (om-load-inputkeyword (quote editor-keyword) "" "wout" (quote :wout) nil nil) (om-load-inputkeyword (quote editor-keyword) "" "oct" (quote :oct) nil nil))) (om-make-point 583 395) (om-make-point 425 68) (let ((rep (if (find-class (quote fof-2) nil) (let ((rep (make-instance (quote fof-2) :numcols 4))) (when (member (quote e-dels) (get-init-slots-of-class (quote fof-2)) :key (quote car)) (setf (slot-value rep (quote e-dels)) (list 0 1 2 3))) (when (member (quote durs) (get-init-slots-of-class (quote fof-2)) :key (quote car)) (setf (slot-value rep (quote durs)) 1)) (when (member (quote amp) (get-init-slots-of-class (quote fof-2)) :key (quote car)) (setf (slot-value rep (quote amp)) -6.0)) (when (member (quote f0) (get-init-slots-of-class (quote fof-2)) :key (quote car)) (setf (slot-value rep (quote f0)) 220)) (when (member (quote freq) (get-init-slots-of-class (quote fof-2)) :key (quote car)) (setf (slot-value rep (quote freq)) 500)) (when (member (quote bw) (get-init-slots-of-class (quote fof-2)) :key (quote car)) (setf (slot-value rep (quote bw)) 64)) (when (member (quote aenv) (get-init-slots-of-class (quote fof-2)) :key (quote car)) (setf (slot-value rep (quote aenv)) (let ((newobj (when (find-class (quote bpf) nil) (let ((newbpf (simple-bpf-from-list (quote (0 5 95 100)) (quote (0 10 10 0)) (quote bpf) 0))) (setf (bpfcolor newbpf) (om-make-color 0 0 0)) (set-name newbpf nil) newbpf)))) newobj))) (when (member (quote win) (get-init-slots-of-class (quote fof-2)) :key (quote car)) (setf (slot-value rep (quote win)) 0.005)) (when (member (quote wdur) (get-init-slots-of-class (quote fof-2)) :key (quote car)) (setf (slot-value rep (quote wdur)) 0.005)) (when (member (quote wout) (get-init-slots-of-class (quote fof-2)) :key (quote car)) (setf (slot-value rep (quote wout)) 0)) (when (member (quote oct) (get-init-slots-of-class (quote fof-2)) :key (quote car)) (setf (slot-value rep (quote oct)) (list 0.01 1.01 2.01 3.01))) (setf (lcontrols rep) (list)) (setf (action-time rep) 0) (setf (data rep) (list (list 0 1 2 3) (list 1 1 1 1) (list -6.0 -6.0 -6.0 -6.0) (list 220 220 220 220) (list 500 500 500 500) (list 64 64 64 64) (list (let ((newobj (when (find-class (quote gen07) nil) (let ((newbpf (simple-bpf-from-list (quote (0 5 95 100)) (quote (0 10 10 0)) (quote gen07) 0))) (setf (bpfcolor newbpf) (om-make-color 0 0 0)) (set-name newbpf nil) newbpf)))) (setf (stime newobj) 0) (setf (size newobj) 513) (setf (id newobj) "?") newobj) (let ((newobj (when (find-class (quote gen07) nil) (let ((newbpf (simple-bpf-from-list (quote (0 5 95 100)) (quote (0 10 10 0)) (quote gen07) 0))) (setf (bpfcolor newbpf) (om-make-color 0 0 0)) (set-name newbpf nil) newbpf)))) (setf (stime newobj) 0) (setf (size newobj) 513) (setf (id newobj) "?") newobj) (let ((newobj (when (find-class (quote gen07) nil) (let ((newbpf (simple-bpf-from-list (quote (0 5 95 100)) (quote (0 10 10 0)) (quote gen07) 0))) (setf (bpfcolor newbpf) (om-make-color 0 0 0)) (set-name newbpf nil) newbpf)))) (setf (stime newobj) 0) (setf (size newobj) 513) (setf (id newobj) "?") newobj) (let ((newobj (when (find-class (quote gen07) nil) (let ((newbpf (simple-bpf-from-list (quote (0 5 95 100)) (quote (0 10 10 0)) (quote gen07) 0))) (setf (bpfcolor newbpf) (om-make-color 0 0 0)) (set-name newbpf nil) newbpf)))) (setf (stime newobj) 0) (setf (size newobj) 513) (setf (id newobj) "?") newobj)) (list 0.005 0.005 0.005 0.005) (list 0.005 0.005 0.005 0.005) (list 0 0 0 0) (list 0.01 1.01 2.01 3.01))) rep)))) (setf (precision rep) (list 3)) rep) nil nil (pairlis (quote (winpos winsize color-list show-opt-fields cur-group-ind panel-list)) (list (om-make-point 10 40) (om-make-point 500 280) (list (om-make-color 0 0 0) (om-make-color 0 0 0) (om-make-color 0 0 0) (om-make-color 0 0 0) (om-make-color 0 0 0) (om-make-color 0 0 0) (om-make-color 0 0 0) (om-make-color 0 0 0) (om-make-color 0 0 0) (om-make-color 0 0 0) (om-make-color 0 0 0)) (quote t) 0 (list (list "All open" (list 0 (quote t)) (list 1 (quote t)) (list 2 (quote t)) (list 3 (quote t)) (list 4 (quote t)) (list 5 (quote t)) (list 6 (quote t)) (list 7 (quote t)) (list 8 (quote t)) (list 9 (quote t)) (list 10 (quote t))) (list "All close" (list 0 nil) (list 1 nil) (list 2 nil) (list 3 nil) (list 4 nil) (list 5 nil) (list 6 nil) (list 7 nil) (list 8 nil) (list 9 nil) (list 10 nil))))) nil nil nil nil) (om-load-boxcomment "comment 36" (om-make-point 48 34) (quote "win") "" (om-make-point 821 332) nil (om-make-color 1.0 0.0 0.0) (om-make-font "Verdana" 14.0 :family "Verdana" :style (quote (:bold)) :mode (quote nil))) (om-load-boxcomment "comment 35" (om-make-point 48 34) (quote "wdur") "" (om-make-point 871 332) nil (om-make-color 1.0 0.0 0.0) (om-make-font "Verdana" 14.0 :family "Verdana" :style (quote (:bold)) :mode (quote nil))) (om-load-boxcall (quote bastype) "aux 32" (quote t) (quote nil) (om-make-point 871 357) (om-make-point 52 30) 0.005 "0.005" nil) (om-load-boxcomment "comment 34" (om-make-point 48 34) (quote "wout") "" (om-make-point 918 328) nil (om-make-color 1.0 0.0 0.0) (om-make-font "Verdana" 14.0 :family "Verdana" :style (quote (:bold)) :mode (quote nil))) (om-load-boxcall (quote bastype) "aux 31" (quote t) (quote nil) (om-make-point 928 357) (om-make-point 27 30) 0 "0" nil) (om-load-boxcomment "comment 33" (om-make-point 48 34) (quote "oct") "" (om-make-point 944 271) nil (om-make-color 1.0 0.0 0.0) (om-make-font "Verdana" 14.0 :family "Verdana" :style (quote (:bold)) :mode (quote nil))) (om-load-boxcall (quote bastype) "aux 30" (quote t) (quote nil) (om-make-point 435 291) (om-make-point 52 30) 0.001 "0.001" nil) (om-load-boxcall (quote bastype) "aux 29" (quote t) (quote nil) (om-make-point 388 291) (om-make-point 45 30) 0.02 "0.02" nil) (om-load-boxcall (quote bastype) "aux 28" (quote t) (quote nil) (om-make-point 332 291) (om-make-point 52 30) 0.001 "0.001" nil) (om-load-boxcall (quote genfun) "ARITHM-SER 3" (quote arithm-ser) (quote ((om-load-inputfun (quote input-funbox) "begin" "BEGIN" 0) (om-load-inputfun (quote input-funbox) "end " "END" 10) (om-load-inputfun (quote input-funbox) "step" "STEP" 1))) (om-make-point 406 325) nil nil nil nil 1) (om-load-boxcall (quote bastype) "aux 27" (quote t) (quote nil) (om-make-point 302 354) (om-make-point 44 29) 0.005 "0.005" nil) (om-load-boxcomment "comment 32" (om-make-point 43 88) (quote "C") "" (om-make-point 15 265) nil (om-make-color 1.0 0.0 0.011788845) (om-make-font "Verdana" 36.0 :family "Verdana" :style (quote (:bold)) :mode (quote nil))) (om-load-boxcomment "comment 31" (om-make-point 51 34) (quote "durs") "" (om-make-point 75 257) nil (om-make-color 1.0 0.0 0.0) (om-make-font "Verdana" 14.0 :family "Verdana" :style (quote (:bold)) :mode (quote nil))) (om-load-boxcall (quote bastype) "aux 26" (quote t) (quote nil) (om-make-point 85 281) (om-make-point 27 30) 1 "1" nil) (om-load-boxcall (quote abstraction) "C#ed" (om-load-patch-abs1 "C#ed" (quote ((om-load-boxout "output 2" 1 (om-make-point 127 369) (quote ((om-load-inputfun (quote input-funbox) "" "out" nil))) "edel" nil) (om-load-boxcall (quote lispfun) "LENGTH" (quote length) (quote ((om-load-inputfun (quote input-funbox) "SEQUENCE" "SEQUENCE" nil))) (om-make-point 45 326) nil nil nil nil 1) (om-load-boxin "length" 1 (om-make-point 111 12) "" "length" nil nil) (om-load-boxcall (quote genfun) "OM*" (quote om*) (quote ((om-load-inputfun (quote input-funbox) "number or list" "ARG1" 0) (om-load-inputfun (quote input-funbox) "number or list" "ARG2" 0))) (om-make-point 137 204) nil nil nil nil 1) (om-load-boxcall (quote bastype) "aux 2" (quote t) (quote nil) (om-make-point 159 94) (om-make-point 27 30) 1 "1" nil) (om-load-boxcall (quote genfun) "OM-" (quote om-) (quote ((om-load-inputfun (quote input-funbox) "number or list" "ARG1" 0) (om-load-inputfun (quote input-funbox) "number or list" "ARG2" 0))) (om-make-point 136 144) nil nil nil nil 1) (om-load-boxcall (quote lispfun) "LENGTH" (quote length) (quote ((om-load-inputfun (quote input-funbox) "SEQUENCE" "SEQUENCE" nil))) (om-make-point 109 80) nil nil nil nil 1) (om-load-boxin "durs" 0 (om-make-point 200 139) "" "durs" nil nil) (om-load-boxout "output" 0 (om-make-point 43 374) (quote ((om-load-inputfun (quote input-funbox) "" "out" nil))) "length" nil) (om-load-boxcall (quote bastype) "aux" (quote t) (quote nil) (om-make-point 103 222) (om-make-point 27 30) 0 "0" nil) (om-load-boxcall (quote genfun) "ARITHM-SER" (quote arithm-ser) (quote ((om-load-inputfun (quote input-funbox) "begin" "BEGIN" 0) (om-load-inputfun (quote input-funbox) "end " "END" 10) (om-load-inputfun (quote input-funbox) "step" "STEP" 1))) (om-make-point 111 265) nil nil nil nil 1))) (quote ((10 0 0 0 nil 0) (10 0 1 0 nil 0) (5 0 3 0 nil 0) (7 0 3 1 nil 0) (6 0 5 0 nil 0) (4 0 5 1 nil 0) (2 0 6 0 nil 0) (1 0 8 0 nil 0) (9 0 10 0 nil 0) (3 0 10 1 nil 0) (7 0 10 2 nil 0))) 6.06001 nil "" (om-make-point 200 200) (om-make-point 500 400)) (quote ((om-load-inputfun (quote input-funbox) "" "durs" nil) (om-load-inputfun (quote input-funbox) "" "length" nil))) (om-make-point 77 319) nil nil nil "C#ed") (om-load-boxcall (quote bastype) "aux 25" (quote t) (quote nil) (om-make-point 219 355) (om-make-point 34 30) 64 "64" nil) (om-load-boxcomment "comment 30" (om-make-point 30 26) (quote "f0") "" (om-make-point 135 330) nil (om-make-color 1.0 0.0 0.0) (om-make-font "Verdana" 14.0 :family "Verdana" :style (quote (:bold)) :mode (quote nil))) (om-load-boxcomment "comment 29" (om-make-point 47 30) (quote "freq") "" (om-make-point 173 329) nil (om-make-color 1.0 0.0 0.0) (om-make-font "Verdana" 14.0 :family "Verdana" :style (quote (:bold)) :mode (quote nil))) (om-load-boxcomment "comment 28" (om-make-point 48 34) (quote "aenv") "" (om-make-point 254 329) nil (om-make-color 1.0 0.0 0.0) (om-make-font "Verdana" 14.0 :family "Verdana" :style (quote (:bold)) :mode (quote nil))) (om-load-boxcomment "comment 27" (om-make-point 40 31) (quote "bw") "" (om-make-point 217 329) nil (om-make-color 1.0 0.0 0.0) (om-make-font "Verdana" 14.0 :family "Verdana" :style (quote (:bold)) :mode (quote nil))) (om-load-editor-box1 "fof-2_C.aiff" (quote sound) (quote ((om-load-inputfun (quote input-funbox) "object" "self" nil) (om-load-inputfun (quote input-funbox) "a track index for multichannel mixing" "tracknum" 1) (om-load-inputfun (quote input-funbox) "a list of markers (s)" "markers" nil))) (om-make-point 9 394) (om-make-point 50 59) (let ((newobj (let ((thesound (load-sound (om-make-pathname :directory (quote (:relative "out-files")) :device :unspecific :host :unspecific :name "fof-2_C" :type "aiff") 1))) (when thesound (setf (markers thesound) (quote nil))) thesound))) (load-port-info newobj (quote nil)) (init-mus-color newobj (quote nil)) (set-extra-pairs newobj (quote nil)) (set-patch-pairs newobj (quote nil)) (set-name newobj "fof-2_C.aiff") (set-tonalite newobj nil) newobj) nil nil (pairlis (quote (approx fontsize staff cmnpref deltapict outport inport player zoom notechancolor? grillestep mode winsize winpos score-mode obj-mode show-stems scale palette-mode)) (list 2 24 (quote g) (let ((newobj (make-instance (quote edition-values)))) (setf (paper-size newobj) (om-make-point 600 800)) (setf (top-margin newobj) 2) (setf (left-margin newobj) 1) (setf (right-margin newobj) 1) (setf (bottom-margin newobj) 1) (setf (orientation newobj) nil) (setf (scale newobj) nil) (setf (system-space newobj) (quote (1))) (setf (system-color newobj) (quote nil)) (setf (line-space newobj) 1) (setf (title newobj) nil) (setf (show-title? newobj) nil) (setf (show-page? newobj) nil) (setf (sheet-id newobj) nil) (setf (page-mode newobj) nil) newobj) (om-make-point 0 0) nil 0 (quote :libaudio) 1 nil 1000 0 (om-make-point 875 640) (om-make-point 410 388) 0 1 (quote t) nil 0)) t nil nil nil) (om-load-boxcall (quote abstraction) "Synt 3" (om-load-patch-abs1 "Synt" (quote ((om-load-boxcall (quote bastype) "aux" (quote t) (quote nil) (om-make-point 91 100) (om-make-point 72 30) "fof-2_C" "\"fof-2_C\"" nil) (om-load-boxin "OMCh" 0 (om-make-point 31 69) "" "OMCh" nil nil) (om-load-boxout "output" 0 (om-make-point 55 205) (quote ((om-load-inputfun (quote input-funbox) "" "out" nil))) nil nil) (om-load-boxcall (quote genfun) "SYNTHESIZE" (quote synthesize) (quote ((om-load-inputfun (quote input-funbox) "something to synthesize..." "ELEMENTS" nil) (om-load-inputkeyword (quote input-keyword) "" "name" (quote :name) nil nil))) (om-make-point 45 143) nil nil nil nil 1))) (quote ((3 0 2 0 nil 0) (1 0 3 0 nil 0) (0 0 3 1 nil 0))) 6.06001 nil "" (om-make-point 200 200) (om-make-point 500 400)) (quote ((om-load-inputfun (quote input-funbox) "" "fm-1" nil))) (om-make-point 6 325) (om-make-point 51 67) nil nil "Synt") (om-load-boxcall (quote bastype) "aux 24" (quote t) (quote nil) (om-make-point 130 355) (om-make-point 41 30) 220 "220" nil) (om-load-boxcall (quote bastype) "aux 23" (quote t) (quote nil) (om-make-point 174 355) (om-make-point 41 30) 500 "500" nil) (om-load-editor-box1 "BPF 2" (quote bpf) (quote ((om-load-inputfun (quote input-funbox) "object" "self" nil) (om-load-inputfun (quote input-funbox) "X coordinates (list)" "x-points" (list 0 100)) (om-load-inputfun (quote input-funbox) "Y coordinates (list)" "y-points" (list 0 100)) (om-load-inputfun (quote input-funbox) "precision (integer) [0 - 10]" "decimals" 0))) (om-make-point 257 351) (om-make-point 41 38) (let ((newobj (when (find-class (quote bpf) nil) (let ((newbpf (simple-bpf-from-list (quote (0 5 95 100)) (quote (0 10 10 0)) (quote bpf) 0))) (setf (bpfcolor newbpf) (om-make-color 0 0 0)) (set-name newbpf nil) newbpf)))) newobj) "x" nil (pairlis (quote (winsize winpos picture)) (list (om-make-point 335 275) (om-make-point 10 40) nil)) t nil nil nil) (om-load-editor-box1 "FOF-2 3" (quote fof-2) (quote ((om-load-inputfun (quote input-funbox) "Synthesis event" "self" nil) (om-load-inputfun (quote input-funbox) "Number of components [int]" "numcols" 1) (om-load-inputfun (quote input-funbox) "Event offset [s]" "action-time" 0) (om-load-inputfun (quote input-funbox) "A lambda function applied to each component" "user-fun" nil) (om-load-inputkeyword (quote editor-keyword) "" "e-dels" (quote :e-dels) nil nil) (om-load-inputkeyword (quote editor-keyword) "" "durs" (quote :durs) nil nil) (om-load-inputkeyword (quote editor-keyword) "" "amp" (quote :amp) nil nil) (om-load-inputkeyword (quote editor-keyword) "" "f0" (quote :f0) nil nil) (om-load-inputkeyword (quote editor-keyword) "" "freq" (quote :freq) nil nil) (om-load-inputkeyword (quote editor-keyword) "" "bw" (quote :bw) nil nil) (om-load-inputkeyword (quote editor-keyword) "" "aenv" (quote :aenv) nil nil) (om-load-inputkeyword (quote editor-keyword) "" "win" (quote :win) nil nil) (om-load-inputkeyword (quote editor-keyword) "" "wdur" (quote :wdur) nil nil) (om-load-inputkeyword (quote editor-keyword) "" "wout" (quote :wout) nil nil) (om-load-inputkeyword (quote editor-keyword) "" "oct" (quote :oct) nil nil))) (om-make-point 63 392) (om-make-point 425 68) (let ((rep (if (find-class (quote fof-2) nil) (let ((rep (make-instance (quote fof-2) :numcols 19))) (when (member (quote e-dels) (get-init-slots-of-class (quote fof-2)) :key (quote car)) (setf (slot-value rep (quote e-dels)) (list 0 1 2 3 4 5 6 7 8 9 10 11 12 13 14 15 16 17 18))) (when (member (quote durs) (get-init-slots-of-class (quote fof-2)) :key (quote car)) (setf (slot-value rep (quote durs)) 1)) (when (member (quote amp) (get-init-slots-of-class (quote fof-2)) :key (quote car)) (setf (slot-value rep (quote amp)) -6.0)) (when (member (quote f0) (get-init-slots-of-class (quote fof-2)) :key (quote car)) (setf (slot-value rep (quote f0)) 220)) (when (member (quote freq) (get-init-slots-of-class (quote fof-2)) :key (quote car)) (setf (slot-value rep (quote freq)) 500)) (when (member (quote bw) (get-init-slots-of-class (quote fof-2)) :key (quote car)) (setf (slot-value rep (quote bw)) 64)) (when (member (quote aenv) (get-init-slots-of-class (quote fof-2)) :key (quote car)) (setf (slot-value rep (quote aenv)) (let ((newobj (when (find-class (quote bpf) nil) (let ((newbpf (simple-bpf-from-list (quote (0 5 95 100)) (quote (0 10 10 0)) (quote bpf) 0))) (setf (bpfcolor newbpf) (om-make-color 0 0 0)) (set-name newbpf nil) newbpf)))) newobj))) (when (member (quote win) (get-init-slots-of-class (quote fof-2)) :key (quote car)) (setf (slot-value rep (quote win)) 0.005)) (when (member (quote wdur) (get-init-slots-of-class (quote fof-2)) :key (quote car)) (setf (slot-value rep (quote wdur)) 0.005)) (when (member (quote wout) (get-init-slots-of-class (quote fof-2)) :key (quote car)) (setf (slot-value rep (quote wout)) (list 0.001 0.002 0.003 0.004 0.0050000004 0.0060000005 0.0070000007 0.008 0.009000001 0.010000001 0.011000001 0.012000001 0.013000001 0.014000001 0.0150000015 0.016 0.017 0.018000002 0.019000002))) (when (member (quote oct) (get-init-slots-of-class (quote fof-2)) :key (quote car)) (setf (slot-value rep (quote oct)) 0)) (setf (lcontrols rep) (list)) (setf (action-time rep) 0) (setf (data rep) (list (list 0 1 2 3 4 5 6 7 8 9 10 11 12 13 14 15 16 17 18) (list 1 1 1 1 1 1 1 1 1 1 1 1 1 1 1 1 1 1 1) (list -6.0 -6.0 -6.0 -6.0 -6.0 -6.0 -6.0 -6.0 -6.0 -6.0 -6.0 -6.0 -6.0 -6.0 -6.0 -6.0 -6.0 -6.0 -6.0) (list 220 220 220 220 220 220 220 220 220 220 220 220 220 220 220 220 220 220 220) (list 500 500 500 500 500 500 500 500 500 500 500 500 500 500 500 500 500 500 500) (list 64 64 64 64 64 64 64 64 64 64 64 64 64 64 64 64 64 64 64) (list (let ((newobj (when (find-class (quote gen07) nil) (let ((newbpf (simple-bpf-from-list (quote (0 5 95 100)) (quote (0 10 10 0)) (quote gen07) 0))) (setf (bpfcolor newbpf) (om-make-color 0 0 0)) (set-name newbpf nil) newbpf)))) (setf (stime newobj) 0) (setf (size newobj) 513) (setf (id newobj) "?") newobj) (let ((newobj (when (find-class (quote gen07) nil) (let ((newbpf (simple-bpf-from-list (quote (0 5 95 100)) (quote (0 10 10 0)) (quote gen07) 0))) (setf (bpfcolor newbpf) (om-make-color 0 0 0)) (set-name newbpf nil) newbpf)))) (setf (stime newobj) 0) (setf (size newobj) 513) (setf (id newobj) "?") newobj) (let ((newobj (when (find-class (quote gen07) nil) (let ((newbpf (simple-bpf-from-list (quote (0 5 95 100)) (quote (0 10 10 0)) (quote gen07) 0))) (setf (bpfcolor newbpf) (om-make-color 0 0 0)) (set-name newbpf nil) newbpf)))) (setf (stime newobj) 0) (setf (size newobj) 513) (setf (id newobj) "?") newobj) (let ((newobj (when (find-class (quote gen07) nil) (let ((newbpf (simple-bpf-from-list (quote (0 5 95 100)) (quote (0 10 10 0)) (quote gen07) 0))) (setf (bpfcolor newbpf) (om-make-color 0 0 0)) (set-name newbpf nil) newbpf)))) (setf (stime newobj) 0) (setf (size newobj) 513) (setf (id newobj) "?") newobj) (let ((newobj (when (find-class (quote gen07) nil) (let ((newbpf (simple-bpf-from-list (quote (0 5 95 100)) (quote (0 10 10 0)) (quote gen07) 0))) (setf (bpfcolor newbpf) (om-make-color 0 0 0)) (set-name newbpf nil) newbpf)))) (setf (stime newobj) 0) (setf (size newobj) 513) (setf (id newobj) "?") newobj) (let ((newobj (when (find-class (quote gen07) nil) (let ((newbpf (simple-bpf-from-list (quote (0 5 95 100)) (quote (0 10 10 0)) (quote gen07) 0))) (setf (bpfcolor newbpf) (om-make-color 0 0 0)) (set-name newbpf nil) newbpf)))) (setf (stime newobj) 0) (setf (size newobj) 513) (setf (id newobj) "?") newobj) (let ((newobj (when (find-class (quote gen07) nil) (let ((newbpf (simple-bpf-from-list (quote (0 5 95 100)) (quote (0 10 10 0)) (quote gen07) 0))) (setf (bpfcolor newbpf) (om-make-color 0 0 0)) (set-name newbpf nil) newbpf)))) (setf (stime newobj) 0) (setf (size newobj) 513) (setf (id newobj) "?") newobj) (let ((newobj (when (find-class (quote gen07) nil) (let ((newbpf (simple-bpf-from-list (quote (0 5 95 100)) (quote (0 10 10 0)) (quote gen07) 0))) (setf (bpfcolor newbpf) (om-make-color 0 0 0)) (set-name newbpf nil) newbpf)))) (setf (stime newobj) 0) (setf (size newobj) 513) (setf (id newobj) "?") newobj) (let ((newobj (when (find-class (quote gen07) nil) (let ((newbpf (simple-bpf-from-list (quote (0 5 95 100)) (quote (0 10 10 0)) (quote gen07) 0))) (setf (bpfcolor newbpf) (om-make-color 0 0 0)) (set-name newbpf nil) newbpf)))) (setf (stime newobj) 0) (setf (size newobj) 513) (setf (id newobj) "?") newobj) (let ((newobj (when (find-class (quote gen07) nil) (let ((newbpf (simple-bpf-from-list (quote (0 5 95 100)) (quote (0 10 10 0)) (quote gen07) 0))) (setf (bpfcolor newbpf) (om-make-color 0 0 0)) (set-name newbpf nil) newbpf)))) (setf (stime newobj) 0) (setf (size newobj) 513) (setf (id newobj) "?") newobj) (let ((newobj (when (find-class (quote gen07) nil) (let ((newbpf (simple-bpf-from-list (quote (0 5 95 100)) (quote (0 10 10 0)) (quote gen07) 0))) (setf (bpfcolor newbpf) (om-make-color 0 0 0)) (set-name newbpf nil) newbpf)))) (setf (stime newobj) 0) (setf (size newobj) 513) (setf (id newobj) "?") newobj) (let ((newobj (when (find-class (quote gen07) nil) (let ((newbpf (simple-bpf-from-list (quote (0 5 95 100)) (quote (0 10 10 0)) (quote gen07) 0))) (setf (bpfcolor newbpf) (om-make-color 0 0 0)) (set-name newbpf nil) newbpf)))) (setf (stime newobj) 0) (setf (size newobj) 513) (setf (id newobj) "?") newobj) (let ((newobj (when (find-class (quote gen07) nil) (let ((newbpf (simple-bpf-from-list (quote (0 5 95 100)) (quote (0 10 10 0)) (quote gen07) 0))) (setf (bpfcolor newbpf) (om-make-color 0 0 0)) (set-name newbpf nil) newbpf)))) (setf (stime newobj) 0) (setf (size newobj) 513) (setf (id newobj) "?") newobj) (let ((newobj (when (find-class (quote gen07) nil) (let ((newbpf (simple-bpf-from-list (quote (0 5 95 100)) (quote (0 10 10 0)) (quote gen07) 0))) (setf (bpfcolor newbpf) (om-make-color 0 0 0)) (set-name newbpf nil) newbpf)))) (setf (stime newobj) 0) (setf (size newobj) 513) (setf (id newobj) "?") newobj) (let ((newobj (when (find-class (quote gen07) nil) (let ((newbpf (simple-bpf-from-list (quote (0 5 95 100)) (quote (0 10 10 0)) (quote gen07) 0))) (setf (bpfcolor newbpf) (om-make-color 0 0 0)) (set-name newbpf nil) newbpf)))) (setf (stime newobj) 0) (setf (size newobj) 513) (setf (id newobj) "?") newobj) (let ((newobj (when (find-class (quote gen07) nil) (let ((newbpf (simple-bpf-from-list (quote (0 5 95 100)) (quote (0 10 10 0)) (quote gen07) 0))) (setf (bpfcolor newbpf) (om-make-color 0 0 0)) (set-name newbpf nil) newbpf)))) (setf (stime newobj) 0) (setf (size newobj) 513) (setf (id newobj) "?") newobj) (let ((newobj (when (find-class (quote gen07) nil) (let ((newbpf (simple-bpf-from-list (quote (0 5 95 100)) (quote (0 10 10 0)) (quote gen07) 0))) (setf (bpfcolor newbpf) (om-make-color 0 0 0)) (set-name newbpf nil) newbpf)))) (setf (stime newobj) 0) (setf (size newobj) 513) (setf (id newobj) "?") newobj) (let ((newobj (when (find-class (quote gen07) nil) (let ((newbpf (simple-bpf-from-list (quote (0 5 95 100)) (quote (0 10 10 0)) (quote gen07) 0))) (setf (bpfcolor newbpf) (om-make-color 0 0 0)) (set-name newbpf nil) newbpf)))) (setf (stime newobj) 0) (setf (size newobj) 513) (setf (id newobj) "?") newobj) (let ((newobj (when (find-class (quote gen07) nil) (let ((newbpf (simple-bpf-from-list (quote (0 5 95 100)) (quote (0 10 10 0)) (quote gen07) 0))) (setf (bpfcolor newbpf) (om-make-color 0 0 0)) (set-name newbpf nil) newbpf)))) (setf (stime newobj) 0) (setf (size newobj) 513) (setf (id newobj) "?") newobj)) (list 0.005 0.005 0.005 0.005 0.005 0.005 0.005 0.005 0.005 0.005 0.005 0.005 0.005 0.005 0.005 0.005 0.005 0.005 0.005) (list 0.005 0.005 0.005 0.005 0.005 0.005 0.005 0.005 0.005 0.005 0.005 0.005 0.005 0.005 0.005 0.005 0.005 0.005 0.005) (list 0.001 0.002 0.003 0.004 0.0050000004 0.0060000005 0.0070000007 0.008 0.009000001 0.010000001 0.011000001 0.012000001 0.013000001 0.014000001 0.0150000015 0.016 0.017 0.018000002 0.019000002) (list 0 0 0 0 0 0 0 0 0 0 0 0 0 0 0 0 0 0 0))) rep)))) (setf (precision rep) (list 3)) rep) nil nil (pairlis (quote (winpos winsize color-list show-opt-fields cur-group-ind panel-list)) (list (om-make-point 10 40) (om-make-point 500 280) (list (om-make-color 0 0 0) (om-make-color 0 0 0) (om-make-color 0 0 0) (om-make-color 0 0 0) (om-make-color 0 0 0) (om-make-color 0 0 0) (om-make-color 0 0 0) (om-make-color 0 0 0) (om-make-color 0 0 0) (om-make-color 0 0 0) (om-make-color 0 0 0)) (quote t) 0 (list (list "All open" (list 0 (quote t)) (list 1 (quote t)) (list 2 (quote t)) (list 3 (quote t)) (list 4 (quote t)) (list 5 (quote t)) (list 6 (quote t)) (list 7 (quote t)) (list 8 (quote t)) (list 9 (quote t)) (list 10 (quote t))) (list "All close" (list 0 nil) (list 1 nil) (list 2 nil) (list 3 nil) (list 4 nil) (list 5 nil) (list 6 nil) (list 7 nil) (list 8 nil) (list 9 nil) (list 10 nil))))) nil nil nil nil) (om-load-boxcomment "comment 26" (om-make-point 48 34) (quote "win") "" (om-make-point 301 329) nil (om-make-color 1.0 0.0 0.0) (om-make-font "Verdana" 14.0 :family "Verdana" :style (quote (:bold)) :mode (quote nil))) (om-load-boxcomment "comment 25" (om-make-point 48 34) (quote "wdur") "" (om-make-point 351 329) nil (om-make-color 1.0 0.0 0.0) (om-make-font "Verdana" 14.0 :family "Verdana" :style (quote (:bold)) :mode (quote nil))) (om-load-boxcall (quote bastype) "aux 15" (quote t) (quote nil) (om-make-point 351 354) (om-make-point 52 30) 0.005 "0.005" nil) (om-load-boxcomment "comment 24" (om-make-point 48 34) (quote "wout") "" (om-make-point 385 267) nil (om-make-color 1.0 0.0 0.0) (om-make-font "Verdana" 14.0 :family "Verdana" :style (quote (:bold)) :mode (quote nil))) (om-load-boxcall (quote bastype) "aux 11" (quote t) (quote nil) (om-make-point 468 355) (om-make-point 27 30) 0 "0" nil) (om-load-boxcomment "comment 23" (om-make-point 48 34) (quote "oct") "" (om-make-point 464 328) nil (om-make-color 1.0 0.0 0.0) (om-make-font "Verdana" 14.0 :family "Verdana" :style (quote (:bold)) :mode (quote nil))) (om-load-boxcall (quote bastype) "aux 12" (quote t) (quote nil) (om-make-point 880 74) (om-make-point 45 30) 0.02 "0.02" nil) (om-load-boxcall (quote genfun) "ARITHM-SER 2" (quote arithm-ser) (quote ((om-load-inputfun (quote input-funbox) "begin" "BEGIN" 0) (om-load-inputfun (quote input-funbox) "end " "END" 10) (om-load-inputfun (quote input-funbox) "step" "STEP" 1))) (om-make-point 866 108) nil nil nil nil 1) (om-load-boxcomment "comment 22" (om-make-point 44 88) (quote "B") "" (om-make-point 528 53) nil (om-make-color 1.0 0.0 0.011788845) (om-make-font "Verdana" 36.0 :family "Verdana" :style (quote (:bold)) :mode (quote nil))) (om-load-boxcomment "comment 21" (om-make-point 51 34) (quote "durs") "" (om-make-point 589 44) nil (om-make-color 1.0 0.0 0.0) (om-make-font "Verdana" 14.0 :family "Verdana" :style (quote (:bold)) :mode (quote nil))) (om-load-boxcall (quote bastype) "aux 22" (quote t) (quote nil) (om-make-point 599 68) (om-make-point 27 30) 1 "1" nil) (om-load-boxcall (quote abstraction) "C#ed" (om-load-patch-abs1 "C#ed" (quote ((om-load-boxout "output 2" 1 (om-make-point 127 369) (quote ((om-load-inputfun (quote input-funbox) "" "out" nil))) "edel" nil) (om-load-boxcall (quote lispfun) "LENGTH" (quote length) (quote ((om-load-inputfun (quote input-funbox) "SEQUENCE" "SEQUENCE" nil))) (om-make-point 45 326) nil nil nil nil 1) (om-load-boxin "length" 1 (om-make-point 111 12) "" "length" nil nil) (om-load-boxcall (quote genfun) "OM*" (quote om*) (quote ((om-load-inputfun (quote input-funbox) "number or list" "ARG1" 0) (om-load-inputfun (quote input-funbox) "number or list" "ARG2" 0))) (om-make-point 137 204) nil nil nil nil 1) (om-load-boxcall (quote bastype) "aux 2" (quote t) (quote nil) (om-make-point 159 94) (om-make-point 27 30) 1 "1" nil) (om-load-boxcall (quote genfun) "OM-" (quote om-) (quote ((om-load-inputfun (quote input-funbox) "number or list" "ARG1" 0) (om-load-inputfun (quote input-funbox) "number or list" "ARG2" 0))) (om-make-point 136 144) nil nil nil nil 1) (om-load-boxcall (quote lispfun) "LENGTH" (quote length) (quote ((om-load-inputfun (quote input-funbox) "SEQUENCE" "SEQUENCE" nil))) (om-make-point 109 80) nil nil nil nil 1) (om-load-boxin "durs" 0 (om-make-point 200 139) "" "durs" nil nil) (om-load-boxout "output" 0 (om-make-point 43 374) (quote ((om-load-inputfun (quote input-funbox) "" "out" nil))) "length" nil) (om-load-boxcall (quote bastype) "aux" (quote t) (quote nil) (om-make-point 103 222) (om-make-point 27 30) 0 "0" nil) (om-load-boxcall (quote genfun) "ARITHM-SER" (quote arithm-ser) (quote ((om-load-inputfun (quote input-funbox) "begin" "BEGIN" 0) (om-load-inputfun (quote input-funbox) "end " "END" 10) (om-load-inputfun (quote input-funbox) "step" "STEP" 1))) (om-make-point 111 265) nil nil nil nil 1))) (quote ((10 0 0 0 nil 0) (10 0 1 0 nil 0) (5 0 3 0 nil 0) (7 0 3 1 nil 0) (6 0 5 0 nil 0) (4 0 5 1 nil 0) (2 0 6 0 nil 0) (1 0 8 0 nil 0) (9 0 10 0 nil 0) (3 0 10 1 nil 0) (7 0 10 2 nil 0))) 6.06001 nil "" (om-make-point 200 200) (om-make-point 500 400)) (quote ((om-load-inputfun (quote input-funbox) "" "durs" nil) (om-load-inputfun (quote input-funbox) "" "length" nil))) (om-make-point 592 106) nil nil nil "C#ed") (om-load-boxcall (quote bastype) "aux 21" (quote t) (quote nil) (om-make-point 733 142) (om-make-point 34 30) 64 "64" nil) (om-load-boxcomment "comment 20" (om-make-point 30 26) (quote "f0") "" (om-make-point 649 117) nil (om-make-color 1.0 0.0 0.0) (om-make-font "Verdana" 14.0 :family "Verdana" :style (quote (:bold)) :mode (quote nil))) (om-load-boxcomment "comment 19" (om-make-point 47 30) (quote "freq") "" (om-make-point 687 116) nil (om-make-color 1.0 0.0 0.0) (om-make-font "Verdana" 14.0 :family "Verdana" :style (quote (:bold)) :mode (quote nil))) (om-load-boxcomment "comment 18" (om-make-point 48 34) (quote "aenv") "" (om-make-point 768 116) nil (om-make-color 1.0 0.0 0.0) (om-make-font "Verdana" 14.0 :family "Verdana" :style (quote (:bold)) :mode (quote nil))) (om-load-boxcomment "comment 17" (om-make-point 40 31) (quote "bw") "" (om-make-point 731 116) nil (om-make-color 1.0 0.0 0.0) (om-make-font "Verdana" 14.0 :family "Verdana" :style (quote (:bold)) :mode (quote nil))) (om-load-editor-box1 "fof-2_B.aiff" (quote sound) (quote ((om-load-inputfun (quote input-funbox) "object" "self" nil) (om-load-inputfun (quote input-funbox) "a track index for multichannel mixing" "tracknum" 1) (om-load-inputfun (quote input-funbox) "a list of markers (s)" "markers" nil))) (om-make-point 523 181) (om-make-point 50 59) (let ((newobj (let ((thesound (load-sound (om-make-pathname :directory (quote (:relative "out-files")) :device :unspecific :host :unspecific :name "fof-2_B" :type "aiff") 1))) (when thesound (setf (markers thesound) (quote nil))) thesound))) (load-port-info newobj (quote nil)) (init-mus-color newobj (quote nil)) (set-extra-pairs newobj (quote nil)) (set-patch-pairs newobj (quote nil)) (set-name newobj "fof-2_B.aiff") (set-tonalite newobj nil) newobj) nil nil (pairlis (quote (approx fontsize staff cmnpref deltapict outport inport player zoom notechancolor? grillestep mode winsize winpos score-mode obj-mode show-stems scale palette-mode)) (list 2 24 (quote g) (let ((newobj (make-instance (quote edition-values)))) (setf (paper-size newobj) (om-make-point 600 800)) (setf (top-margin newobj) 2) (setf (left-margin newobj) 1) (setf (right-margin newobj) 1) (setf (bottom-margin newobj) 1) (setf (orientation newobj) nil) (setf (scale newobj) nil) (setf (system-space newobj) (quote (1))) (setf (system-color newobj) (quote nil)) (setf (line-space newobj) 1) (setf (title newobj) nil) (setf (show-title? newobj) nil) (setf (show-page? newobj) nil) (setf (sheet-id newobj) nil) (setf (page-mode newobj) nil) newobj) (om-make-point 0 0) nil 0 (quote :libaudio) 1 nil 1000 0 (om-make-point 875 640) (om-make-point 410 388) 0 1 (quote t) nil 0)) t nil nil nil) (om-load-boxcall (quote abstraction) "Synt 2" (om-load-patch-abs1 "Synt" (quote ((om-load-boxcall (quote bastype) "aux" (quote t) (quote nil) (om-make-point 91 100) (om-make-point 72 30) "fof-2_B" "\"fof-2_B\"" nil) (om-load-boxin "OMCh" 0 (om-make-point 31 69) "" "OMCh" nil nil) (om-load-boxout "output" 0 (om-make-point 55 205) (quote ((om-load-inputfun (quote input-funbox) "" "out" nil))) nil nil) (om-load-boxcall (quote genfun) "SYNTHESIZE" (quote synthesize) (quote ((om-load-inputfun (quote input-funbox) "something to synthesize..." "ELEMENTS" nil) (om-load-inputkeyword (quote input-keyword) "" "name" (quote :name) nil nil))) (om-make-point 45 143) nil nil nil nil 1))) (quote ((3 0 2 0 nil 0) (1 0 3 0 nil 0) (0 0 3 1 nil 0))) 6.06001 nil "" (om-make-point 200 200) (om-make-point 304 314)) (quote ((om-load-inputfun (quote input-funbox) "" "fm-1" nil))) (om-make-point 522 112) (om-make-point 51 67) nil nil "Synt") (om-load-boxcall (quote bastype) "aux 20" (quote t) (quote nil) (om-make-point 644 142) (om-make-point 41 30) 220 "220" nil) (om-load-boxcall (quote bastype) "aux 19" (quote t) (quote nil) (om-make-point 688 142) (om-make-point 41 30) 500 "500" nil) (om-load-editor-box1 "BPF" (quote bpf) (quote ((om-load-inputfun (quote input-funbox) "object" "self" nil) (om-load-inputfun (quote input-funbox) "X coordinates (list)" "x-points" (list 0 100)) (om-load-inputfun (quote input-funbox) "Y coordinates (list)" "y-points" (list 0 100)) (om-load-inputfun (quote input-funbox) "precision (integer) [0 - 10]" "decimals" 0))) (om-make-point 771 138) (om-make-point 41 38) (let ((newobj (when (find-class (quote bpf) nil) (let ((newbpf (simple-bpf-from-list (quote (0 5 95 100)) (quote (0 10 10 0)) (quote bpf) 0))) (setf (bpfcolor newbpf) (om-make-color 0 0 0)) (set-name newbpf nil) newbpf)))) newobj) "x" nil (pairlis (quote (winsize winpos picture)) (list (om-make-point 335 275) (om-make-point 10 40) nil)) t nil nil nil) (om-load-editor-box1 "FOF-2 2" (quote fof-2) (quote ((om-load-inputfun (quote input-funbox) "Synthesis event" "self" nil) (om-load-inputfun (quote input-funbox) "Number of components [int]" "numcols" 1) (om-load-inputfun (quote input-funbox) "Event offset [s]" "action-time" 0) (om-load-inputfun (quote input-funbox) "A lambda function applied to each component" "user-fun" nil) (om-load-inputkeyword (quote editor-keyword) "" "e-dels" (quote :e-dels) nil nil) (om-load-inputkeyword (quote editor-keyword) "" "durs" (quote :durs) nil nil) (om-load-inputkeyword (quote editor-keyword) "" "amp" (quote :amp) nil nil) (om-load-inputkeyword (quote editor-keyword) "" "f0" (quote :f0) nil nil) (om-load-inputkeyword (quote editor-keyword) "" "freq" (quote :freq) nil nil) (om-load-inputkeyword (quote editor-keyword) "" "bw" (quote :bw) nil nil) (om-load-inputkeyword (quote editor-keyword) "" "aenv" (quote :aenv) nil nil) (om-load-inputkeyword (quote editor-keyword) "" "win" (quote :win) nil nil) (om-load-inputkeyword (quote editor-keyword) "" "wdur" (quote :wdur) nil nil) (om-load-inputkeyword (quote editor-keyword) "" "wout" (quote :wout) nil nil) (om-load-inputkeyword (quote editor-keyword) "" "oct" (quote :oct) nil nil))) (om-make-point 577 179) (om-make-point 425 68) (let ((rep (if (find-class (quote fof-2) nil) (let ((rep (make-instance (quote fof-2) :numcols 19))) (when (member (quote e-dels) (get-init-slots-of-class (quote fof-2)) :key (quote car)) (setf (slot-value rep (quote e-dels)) (list 0 1 2 3 4 5 6 7 8 9 10 11 12 13 14 15 16 17 18))) (when (member (quote durs) (get-init-slots-of-class (quote fof-2)) :key (quote car)) (setf (slot-value rep (quote durs)) 1)) (when (member (quote amp) (get-init-slots-of-class (quote fof-2)) :key (quote car)) (setf (slot-value rep (quote amp)) -6.0)) (when (member (quote f0) (get-init-slots-of-class (quote fof-2)) :key (quote car)) (setf (slot-value rep (quote f0)) 220)) (when (member (quote freq) (get-init-slots-of-class (quote fof-2)) :key (quote car)) (setf (slot-value rep (quote freq)) 500)) (when (member (quote bw) (get-init-slots-of-class (quote fof-2)) :key (quote car)) (setf (slot-value rep (quote bw)) 64)) (when (member (quote aenv) (get-init-slots-of-class (quote fof-2)) :key (quote car)) (setf (slot-value rep (quote aenv)) (let ((newobj (when (find-class (quote bpf) nil) (let ((newbpf (simple-bpf-from-list (quote (0 5 95 100)) (quote (0 10 10 0)) (quote bpf) 0))) (setf (bpfcolor newbpf) (om-make-color 0 0 0)) (set-name newbpf nil) newbpf)))) newobj))) (when (member (quote win) (get-init-slots-of-class (quote fof-2)) :key (quote car)) (setf (slot-value rep (quote win)) 0.005)) (when (member (quote wdur) (get-init-slots-of-class (quote fof-2)) :key (quote car)) (setf (slot-value rep (quote wdur)) (list 0.001 0.002 0.003 0.004 0.0050000004 0.0060000005 0.0070000007 0.008 0.009000001 0.010000001 0.011000001 0.012000001 0.013000001 0.014000001 0.0150000015 0.016 0.017 0.018000002 0.019000002))) (when (member (quote wout) (get-init-slots-of-class (quote fof-2)) :key (quote car)) (setf (slot-value rep (quote wout)) 0.005)) (when (member (quote oct) (get-init-slots-of-class (quote fof-2)) :key (quote car)) (setf (slot-value rep (quote oct)) 0)) (setf (lcontrols rep) (list)) (setf (action-time rep) 0) (setf (data rep) (list (list 0 1 2 3 4 5 6 7 8 9 10 11 12 13 14 15 16 17 18) (list 1 1 1 1 1 1 1 1 1 1 1 1 1 1 1 1 1 1 1) (list -6.0 -6.0 -6.0 -6.0 -6.0 -6.0 -6.0 -6.0 -6.0 -6.0 -6.0 -6.0 -6.0 -6.0 -6.0 -6.0 -6.0 -6.0 -6.0) (list 220 220 220 220 220 220 220 220 220 220 220 220 220 220 220 220 220 220 220) (list 500 500 500 500 500 500 500 500 500 500 500 500 500 500 500 500 500 500 500) (list 64 64 64 64 64 64 64 64 64 64 64 64 64 64 64 64 64 64 64) (list (let ((newobj (when (find-class (quote gen07) nil) (let ((newbpf (simple-bpf-from-list (quote (0 5 95 100)) (quote (0 10 10 0)) (quote gen07) 0))) (setf (bpfcolor newbpf) (om-make-color 0 0 0)) (set-name newbpf nil) newbpf)))) (setf (stime newobj) 0) (setf (size newobj) 513) (setf (id newobj) "?") newobj) (let ((newobj (when (find-class (quote gen07) nil) (let ((newbpf (simple-bpf-from-list (quote (0 5 95 100)) (quote (0 10 10 0)) (quote gen07) 0))) (setf (bpfcolor newbpf) (om-make-color 0 0 0)) (set-name newbpf nil) newbpf)))) (setf (stime newobj) 0) (setf (size newobj) 513) (setf (id newobj) "?") newobj) (let ((newobj (when (find-class (quote gen07) nil) (let ((newbpf (simple-bpf-from-list (quote (0 5 95 100)) (quote (0 10 10 0)) (quote gen07) 0))) (setf (bpfcolor newbpf) (om-make-color 0 0 0)) (set-name newbpf nil) newbpf)))) (setf (stime newobj) 0) (setf (size newobj) 513) (setf (id newobj) "?") newobj) (let ((newobj (when (find-class (quote gen07) nil) (let ((newbpf (simple-bpf-from-list (quote (0 5 95 100)) (quote (0 10 10 0)) (quote gen07) 0))) (setf (bpfcolor newbpf) (om-make-color 0 0 0)) (set-name newbpf nil) newbpf)))) (setf (stime newobj) 0) (setf (size newobj) 513) (setf (id newobj) "?") newobj) (let ((newobj (when (find-class (quote gen07) nil) (let ((newbpf (simple-bpf-from-list (quote (0 5 95 100)) (quote (0 10 10 0)) (quote gen07) 0))) (setf (bpfcolor newbpf) (om-make-color 0 0 0)) (set-name newbpf nil) newbpf)))) (setf (stime newobj) 0) (setf (size newobj) 513) (setf (id newobj) "?") newobj) (let ((newobj (when (find-class (quote gen07) nil) (let ((newbpf (simple-bpf-from-list (quote (0 5 95 100)) (quote (0 10 10 0)) (quote gen07) 0))) (setf (bpfcolor newbpf) (om-make-color 0 0 0)) (set-name newbpf nil) newbpf)))) (setf (stime newobj) 0) (setf (size newobj) 513) (setf (id newobj) "?") newobj) (let ((newobj (when (find-class (quote gen07) nil) (let ((newbpf (simple-bpf-from-list (quote (0 5 95 100)) (quote (0 10 10 0)) (quote gen07) 0))) (setf (bpfcolor newbpf) (om-make-color 0 0 0)) (set-name newbpf nil) newbpf)))) (setf (stime newobj) 0) (setf (size newobj) 513) (setf (id newobj) "?") newobj) (let ((newobj (when (find-class (quote gen07) nil) (let ((newbpf (simple-bpf-from-list (quote (0 5 95 100)) (quote (0 10 10 0)) (quote gen07) 0))) (setf (bpfcolor newbpf) (om-make-color 0 0 0)) (set-name newbpf nil) newbpf)))) (setf (stime newobj) 0) (setf (size newobj) 513) (setf (id newobj) "?") newobj) (let ((newobj (when (find-class (quote gen07) nil) (let ((newbpf (simple-bpf-from-list (quote (0 5 95 100)) (quote (0 10 10 0)) (quote gen07) 0))) (setf (bpfcolor newbpf) (om-make-color 0 0 0)) (set-name newbpf nil) newbpf)))) (setf (stime newobj) 0) (setf (size newobj) 513) (setf (id newobj) "?") newobj) (let ((newobj (when (find-class (quote gen07) nil) (let ((newbpf (simple-bpf-from-list (quote (0 5 95 100)) (quote (0 10 10 0)) (quote gen07) 0))) (setf (bpfcolor newbpf) (om-make-color 0 0 0)) (set-name newbpf nil) newbpf)))) (setf (stime newobj) 0) (setf (size newobj) 513) (setf (id newobj) "?") newobj) (let ((newobj (when (find-class (quote gen07) nil) (let ((newbpf (simple-bpf-from-list (quote (0 5 95 100)) (quote (0 10 10 0)) (quote gen07) 0))) (setf (bpfcolor newbpf) (om-make-color 0 0 0)) (set-name newbpf nil) newbpf)))) (setf (stime newobj) 0) (setf (size newobj) 513) (setf (id newobj) "?") newobj) (let ((newobj (when (find-class (quote gen07) nil) (let ((newbpf (simple-bpf-from-list (quote (0 5 95 100)) (quote (0 10 10 0)) (quote gen07) 0))) (setf (bpfcolor newbpf) (om-make-color 0 0 0)) (set-name newbpf nil) newbpf)))) (setf (stime newobj) 0) (setf (size newobj) 513) (setf (id newobj) "?") newobj) (let ((newobj (when (find-class (quote gen07) nil) (let ((newbpf (simple-bpf-from-list (quote (0 5 95 100)) (quote (0 10 10 0)) (quote gen07) 0))) (setf (bpfcolor newbpf) (om-make-color 0 0 0)) (set-name newbpf nil) newbpf)))) (setf (stime newobj) 0) (setf (size newobj) 513) (setf (id newobj) "?") newobj) (let ((newobj (when (find-class (quote gen07) nil) (let ((newbpf (simple-bpf-from-list (quote (0 5 95 100)) (quote (0 10 10 0)) (quote gen07) 0))) (setf (bpfcolor newbpf) (om-make-color 0 0 0)) (set-name newbpf nil) newbpf)))) (setf (stime newobj) 0) (setf (size newobj) 513) (setf (id newobj) "?") newobj) (let ((newobj (when (find-class (quote gen07) nil) (let ((newbpf (simple-bpf-from-list (quote (0 5 95 100)) (quote (0 10 10 0)) (quote gen07) 0))) (setf (bpfcolor newbpf) (om-make-color 0 0 0)) (set-name newbpf nil) newbpf)))) (setf (stime newobj) 0) (setf (size newobj) 513) (setf (id newobj) "?") newobj) (let ((newobj (when (find-class (quote gen07) nil) (let ((newbpf (simple-bpf-from-list (quote (0 5 95 100)) (quote (0 10 10 0)) (quote gen07) 0))) (setf (bpfcolor newbpf) (om-make-color 0 0 0)) (set-name newbpf nil) newbpf)))) (setf (stime newobj) 0) (setf (size newobj) 513) (setf (id newobj) "?") newobj) (let ((newobj (when (find-class (quote gen07) nil) (let ((newbpf (simple-bpf-from-list (quote (0 5 95 100)) (quote (0 10 10 0)) (quote gen07) 0))) (setf (bpfcolor newbpf) (om-make-color 0 0 0)) (set-name newbpf nil) newbpf)))) (setf (stime newobj) 0) (setf (size newobj) 513) (setf (id newobj) "?") newobj) (let ((newobj (when (find-class (quote gen07) nil) (let ((newbpf (simple-bpf-from-list (quote (0 5 95 100)) (quote (0 10 10 0)) (quote gen07) 0))) (setf (bpfcolor newbpf) (om-make-color 0 0 0)) (set-name newbpf nil) newbpf)))) (setf (stime newobj) 0) (setf (size newobj) 513) (setf (id newobj) "?") newobj) (let ((newobj (when (find-class (quote gen07) nil) (let ((newbpf (simple-bpf-from-list (quote (0 5 95 100)) (quote (0 10 10 0)) (quote gen07) 0))) (setf (bpfcolor newbpf) (om-make-color 0 0 0)) (set-name newbpf nil) newbpf)))) (setf (stime newobj) 0) (setf (size newobj) 513) (setf (id newobj) "?") newobj)) (list 0.005 0.005 0.005 0.005 0.005 0.005 0.005 0.005 0.005 0.005 0.005 0.005 0.005 0.005 0.005 0.005 0.005 0.005 0.005) (list 0.001 0.002 0.003 0.004 0.0050000004 0.0060000005 0.0070000007 0.008 0.009000001 0.010000001 0.011000001 0.012000001 0.013000001 0.014000001 0.0150000015 0.016 0.017 0.018000002 0.019000002) (list 0.005 0.005 0.005 0.005 0.005 0.005 0.005 0.005 0.005 0.005 0.005 0.005 0.005 0.005 0.005 0.005 0.005 0.005 0.005) (list 0 0 0 0 0 0 0 0 0 0 0 0 0 0 0 0 0 0 0))) rep)))) (setf (precision rep) (list 3)) rep) nil nil (pairlis (quote (winpos winsize color-list show-opt-fields cur-group-ind panel-list)) (list (om-make-point 10 40) (om-make-point 500 280) (list (om-make-color 0 0 0) (om-make-color 0 0 0) (om-make-color 0 0 0) (om-make-color 0 0 0) (om-make-color 0 0 0) (om-make-color 0 0 0) (om-make-color 0 0 0) (om-make-color 0 0 0) (om-make-color 0 0 0) (om-make-color 0 0 0) (om-make-color 0 0 0)) (quote t) 0 (list (list "All open" (list 0 (quote t)) (list 1 (quote t)) (list 2 (quote t)) (list 3 (quote t)) (list 4 (quote t)) (list 5 (quote t)) (list 6 (quote t)) (list 7 (quote t)) (list 8 (quote t)) (list 9 (quote t)) (list 10 (quote t))) (list "All close" (list 0 nil) (list 1 nil) (list 2 nil) (list 3 nil) (list 4 nil) (list 5 nil) (list 6 nil) (list 7 nil) (list 8 nil) (list 9 nil) (list 10 nil))))) nil nil nil nil) (om-load-boxcomment "comment 16" (om-make-point 48 34) (quote "win") "" (om-make-point 815 116) nil (om-make-color 1.0 0.0 0.0) (om-make-font "Verdana" 14.0 :family "Verdana" :style (quote (:bold)) :mode (quote nil))) (om-load-boxcall (quote bastype) "aux 18" (quote t) (quote nil) (om-make-point 927 74) (om-make-point 52 30) 0.001 "0.001" nil) (om-load-boxcall (quote bastype) "aux 17" (quote t) (quote nil) (om-make-point 824 74) (om-make-point 52 30) 0.001 "0.001" nil) (om-load-boxcall (quote bastype) "aux 16" (quote t) (quote nil) (om-make-point 816 141) (om-make-point 44 29) 0.005 "0.005" nil) (om-load-boxcomment "comment 15" (om-make-point 48 34) (quote "wdur") "" (om-make-point 878 50) nil (om-make-color 1.0 0.0 0.0) (om-make-font "Verdana" 14.0 :family "Verdana" :style (quote (:bold)) :mode (quote nil))) (om-load-boxcall (quote bastype) "aux 14" (quote t) (quote nil) (om-make-point 939 142) (om-make-point 52 30) 0.005 "0.005" nil) (om-load-boxcomment "comment 14" (om-make-point 48 34) (quote "wout") "" (om-make-point 940 116) nil (om-make-color 1.0 0.0 0.0) (om-make-font "Verdana" 14.0 :family "Verdana" :style (quote (:bold)) :mode (quote nil))) (om-load-boxcall (quote bastype) "aux 13" (quote t) (quote nil) (om-make-point 995 142) (om-make-point 27 30) 0 "0" nil) (om-load-boxcomment "comment 13" (om-make-point 48 34) (quote "oct") "" (om-make-point 991 115) nil (om-make-color 1.0 0.0 0.0) (om-make-font "Verdana" 14.0 :family "Verdana" :style (quote (:bold)) :mode (quote nil))) (om-load-boxcomment "comment 12" (om-make-point 48 34) (quote "oct") "" (om-make-point 464 115) nil (om-make-color 1.0 0.0 0.0) (om-make-font "Verdana" 14.0 :family "Verdana" :style (quote (:bold)) :mode (quote nil))) (om-load-boxcall (quote bastype) "aux 10" (quote t) (quote nil) (om-make-point 468 142) (om-make-point 27 30) 0 "0" nil) (om-load-boxcomment "comment 11" (om-make-point 48 34) (quote "wout") "" (om-make-point 413 116) nil (om-make-color 1.0 0.0 0.0) (om-make-font "Verdana" 14.0 :family "Verdana" :style (quote (:bold)) :mode (quote nil))) (om-load-boxcall (quote bastype) "aux 9" (quote t) (quote nil) (om-make-point 412 142) (om-make-point 52 30) 0.005 "0.005" nil) (om-load-boxcomment "comment 10" (om-make-point 48 34) (quote "wdur") "" (om-make-point 365 117) nil (om-make-color 1.0 0.0 0.0) (om-make-font "Verdana" 14.0 :family "Verdana" :style (quote (:bold)) :mode (quote nil))) (om-load-boxcall (quote bastype) "aux 5" (quote t) (quote nil) (om-make-point 369 142) (om-make-point 38 30) 0.1 "0.1" nil) (om-load-boxcall (quote genfun) "ARITHM-SER" (quote arithm-ser) (quote ((om-load-inputfun (quote input-funbox) "begin" "BEGIN" 0) (om-load-inputfun (quote input-funbox) "end " "END" 10) (om-load-inputfun (quote input-funbox) "step" "STEP" 1))) (om-make-point 305 116) nil nil nil nil 1) (om-load-boxcall (quote bastype) "aux 8" (quote t) (quote nil) (om-make-point 263 79) (om-make-point 52 30) 0.001 "0.001" nil) (om-load-boxcall (quote bastype) "aux 7" (quote t) (quote nil) (om-make-point 319 79) (om-make-point 45 30) 0.02 "0.02" nil) (om-load-boxcall (quote bastype) "aux 6" (quote t) (quote nil) (om-make-point 368 79) (om-make-point 52 30) 0.001 "0.001" nil) (om-load-boxcomment "comment 7" (om-make-point 48 34) (quote "win") "" (om-make-point 319 56) nil (om-make-color 1.0 0.0 0.0) (om-make-font "Verdana" 14.0 :family "Verdana" :style (quote (:bold)) :mode (quote nil))) (om-load-editor-box1 "FOF-2" (quote fof-2) (quote ((om-load-inputfun (quote input-funbox) "Synthesis event" "self" nil) (om-load-inputfun (quote input-funbox) "Number of components [int]" "numcols" 1) (om-load-inputfun (quote input-funbox) "Event offset [s]" "action-time" 0) (om-load-inputfun (quote input-funbox) "A lambda function applied to each component" "user-fun" nil) (om-load-inputkeyword (quote editor-keyword) "" "e-dels" (quote :e-dels) nil nil) (om-load-inputkeyword (quote editor-keyword) "" "durs" (quote :durs) nil nil) (om-load-inputkeyword (quote editor-keyword) "" "amp" (quote :amp) nil nil) (om-load-inputkeyword (quote editor-keyword) "" "f0" (quote :f0) nil nil) (om-load-inputkeyword (quote editor-keyword) "" "freq" (quote :freq) nil nil) (om-load-inputkeyword (quote editor-keyword) "" "bw" (quote :bw) nil nil) (om-load-inputkeyword (quote editor-keyword) "" "aenv" (quote :aenv) nil nil) (om-load-inputkeyword (quote editor-keyword) "" "win" (quote :win) nil nil) (om-load-inputkeyword (quote editor-keyword) "" "wdur" (quote :wdur) nil nil) (om-load-inputkeyword (quote editor-keyword) "" "wout" (quote :wout) nil nil) (om-load-inputkeyword (quote editor-keyword) "" "oct" (quote :oct) nil nil))) (om-make-point 65 179) (om-make-point 425 68) (let ((rep (if (find-class (quote fof-2) nil) (let ((rep (make-instance (quote fof-2) :numcols 19))) (when (member (quote e-dels) (get-init-slots-of-class (quote fof-2)) :key (quote car)) (setf (slot-value rep (quote e-dels)) (list 0 1 2 3 4 5 6 7 8 9 10 11 12 13 14 15 16 17 18))) (when (member (quote durs) (get-init-slots-of-class (quote fof-2)) :key (quote car)) (setf (slot-value rep (quote durs)) 1)) (when (member (quote amp) (get-init-slots-of-class (quote fof-2)) :key (quote car)) (setf (slot-value rep (quote amp)) -6.0)) (when (member (quote f0) (get-init-slots-of-class (quote fof-2)) :key (quote car)) (setf (slot-value rep (quote f0)) 220)) (when (member (quote freq) (get-init-slots-of-class (quote fof-2)) :key (quote car)) (setf (slot-value rep (quote freq)) 500)) (when (member (quote bw) (get-init-slots-of-class (quote fof-2)) :key (quote car)) (setf (slot-value rep (quote bw)) 64)) (when (member (quote aenv) (get-init-slots-of-class (quote fof-2)) :key (quote car)) (setf (slot-value rep (quote aenv)) (let ((newobj (when (find-class (quote bpf) nil) (let ((newbpf (simple-bpf-from-list (quote (0 5 95 100)) (quote (0 10 10 0)) (quote bpf) 0))) (setf (bpfcolor newbpf) (om-make-color 0 0 0)) (set-name newbpf nil) newbpf)))) newobj))) (when (member (quote win) (get-init-slots-of-class (quote fof-2)) :key (quote car)) (setf (slot-value rep (quote win)) (list 0.001 0.002 0.003 0.004 0.0050000004 0.0060000005 0.0070000007 0.008 0.009000001 0.010000001 0.011000001 0.012000001 0.013000001 0.014000001 0.0150000015 0.016 0.017 0.018000002 0.019000002))) (when (member (quote wdur) (get-init-slots-of-class (quote fof-2)) :key (quote car)) (setf (slot-value rep (quote wdur)) 0.1)) (when (member (quote wout) (get-init-slots-of-class (quote fof-2)) :key (quote car)) (setf (slot-value rep (quote wout)) 0.005)) (when (member (quote oct) (get-init-slots-of-class (quote fof-2)) :key (quote car)) (setf (slot-value rep (quote oct)) 0)) (setf (lcontrols rep) (list)) (setf (action-time rep) 0) (setf (data rep) (list (list 0 1 2 3 4 5 6 7 8 9 10 11 12 13 14 15 16 17 18) (list 1 1 1 1 1 1 1 1 1 1 1 1 1 1 1 1 1 1 1) (list -6.0 -6.0 -6.0 -6.0 -6.0 -6.0 -6.0 -6.0 -6.0 -6.0 -6.0 -6.0 -6.0 -6.0 -6.0 -6.0 -6.0 -6.0 -6.0) (list 220 220 220 220 220 220 220 220 220 220 220 220 220 220 220 220 220 220 220) (list 500 500 500 500 500 500 500 500 500 500 500 500 500 500 500 500 500 500 500) (list 64 64 64 64 64 64 64 64 64 64 64 64 64 64 64 64 64 64 64) (list (let ((newobj (when (find-class (quote gen07) nil) (let ((newbpf (simple-bpf-from-list (quote (0 5 95 100)) (quote (0 10 10 0)) (quote gen07) 0))) (setf (bpfcolor newbpf) (om-make-color 0 0 0)) (set-name newbpf nil) newbpf)))) (setf (stime newobj) 0) (setf (size newobj) 513) (setf (id newobj) "?") newobj) (let ((newobj (when (find-class (quote gen07) nil) (let ((newbpf (simple-bpf-from-list (quote (0 5 95 100)) (quote (0 10 10 0)) (quote gen07) 0))) (setf (bpfcolor newbpf) (om-make-color 0 0 0)) (set-name newbpf nil) newbpf)))) (setf (stime newobj) 0) (setf (size newobj) 513) (setf (id newobj) "?") newobj) (let ((newobj (when (find-class (quote gen07) nil) (let ((newbpf (simple-bpf-from-list (quote (0 5 95 100)) (quote (0 10 10 0)) (quote gen07) 0))) (setf (bpfcolor newbpf) (om-make-color 0 0 0)) (set-name newbpf nil) newbpf)))) (setf (stime newobj) 0) (setf (size newobj) 513) (setf (id newobj) "?") newobj) (let ((newobj (when (find-class (quote gen07) nil) (let ((newbpf (simple-bpf-from-list (quote (0 5 95 100)) (quote (0 10 10 0)) (quote gen07) 0))) (setf (bpfcolor newbpf) (om-make-color 0 0 0)) (set-name newbpf nil) newbpf)))) (setf (stime newobj) 0) (setf (size newobj) 513) (setf (id newobj) "?") newobj) (let ((newobj (when (find-class (quote gen07) nil) (let ((newbpf (simple-bpf-from-list (quote (0 5 95 100)) (quote (0 10 10 0)) (quote gen07) 0))) (setf (bpfcolor newbpf) (om-make-color 0 0 0)) (set-name newbpf nil) newbpf)))) (setf (stime newobj) 0) (setf (size newobj) 513) (setf (id newobj) "?") newobj) (let ((newobj (when (find-class (quote gen07) nil) (let ((newbpf (simple-bpf-from-list (quote (0 5 95 100)) (quote (0 10 10 0)) (quote gen07) 0))) (setf (bpfcolor newbpf) (om-make-color 0 0 0)) (set-name newbpf nil) newbpf)))) (setf (stime newobj) 0) (setf (size newobj) 513) (setf (id newobj) "?") newobj) (let ((newobj (when (find-class (quote gen07) nil) (let ((newbpf (simple-bpf-from-list (quote (0 5 95 100)) (quote (0 10 10 0)) (quote gen07) 0))) (setf (bpfcolor newbpf) (om-make-color 0 0 0)) (set-name newbpf nil) newbpf)))) (setf (stime newobj) 0) (setf (size newobj) 513) (setf (id newobj) "?") newobj) (let ((newobj (when (find-class (quote gen07) nil) (let ((newbpf (simple-bpf-from-list (quote (0 5 95 100)) (quote (0 10 10 0)) (quote gen07) 0))) (setf (bpfcolor newbpf) (om-make-color 0 0 0)) (set-name newbpf nil) newbpf)))) (setf (stime newobj) 0) (setf (size newobj) 513) (setf (id newobj) "?") newobj) (let ((newobj (when (find-class (quote gen07) nil) (let ((newbpf (simple-bpf-from-list (quote (0 5 95 100)) (quote (0 10 10 0)) (quote gen07) 0))) (setf (bpfcolor newbpf) (om-make-color 0 0 0)) (set-name newbpf nil) newbpf)))) (setf (stime newobj) 0) (setf (size newobj) 513) (setf (id newobj) "?") newobj) (let ((newobj (when (find-class (quote gen07) nil) (let ((newbpf (simple-bpf-from-list (quote (0 5 95 100)) (quote (0 10 10 0)) (quote gen07) 0))) (setf (bpfcolor newbpf) (om-make-color 0 0 0)) (set-name newbpf nil) newbpf)))) (setf (stime newobj) 0) (setf (size newobj) 513) (setf (id newobj) "?") newobj) (let ((newobj (when (find-class (quote gen07) nil) (let ((newbpf (simple-bpf-from-list (quote (0 5 95 100)) (quote (0 10 10 0)) (quote gen07) 0))) (setf (bpfcolor newbpf) (om-make-color 0 0 0)) (set-name newbpf nil) newbpf)))) (setf (stime newobj) 0) (setf (size newobj) 513) (setf (id newobj) "?") newobj) (let ((newobj (when (find-class (quote gen07) nil) (let ((newbpf (simple-bpf-from-list (quote (0 5 95 100)) (quote (0 10 10 0)) (quote gen07) 0))) (setf (bpfcolor newbpf) (om-make-color 0 0 0)) (set-name newbpf nil) newbpf)))) (setf (stime newobj) 0) (setf (size newobj) 513) (setf (id newobj) "?") newobj) (let ((newobj (when (find-class (quote gen07) nil) (let ((newbpf (simple-bpf-from-list (quote (0 5 95 100)) (quote (0 10 10 0)) (quote gen07) 0))) (setf (bpfcolor newbpf) (om-make-color 0 0 0)) (set-name newbpf nil) newbpf)))) (setf (stime newobj) 0) (setf (size newobj) 513) (setf (id newobj) "?") newobj) (let ((newobj (when (find-class (quote gen07) nil) (let ((newbpf (simple-bpf-from-list (quote (0 5 95 100)) (quote (0 10 10 0)) (quote gen07) 0))) (setf (bpfcolor newbpf) (om-make-color 0 0 0)) (set-name newbpf nil) newbpf)))) (setf (stime newobj) 0) (setf (size newobj) 513) (setf (id newobj) "?") newobj) (let ((newobj (when (find-class (quote gen07) nil) (let ((newbpf (simple-bpf-from-list (quote (0 5 95 100)) (quote (0 10 10 0)) (quote gen07) 0))) (setf (bpfcolor newbpf) (om-make-color 0 0 0)) (set-name newbpf nil) newbpf)))) (setf (stime newobj) 0) (setf (size newobj) 513) (setf (id newobj) "?") newobj) (let ((newobj (when (find-class (quote gen07) nil) (let ((newbpf (simple-bpf-from-list (quote (0 5 95 100)) (quote (0 10 10 0)) (quote gen07) 0))) (setf (bpfcolor newbpf) (om-make-color 0 0 0)) (set-name newbpf nil) newbpf)))) (setf (stime newobj) 0) (setf (size newobj) 513) (setf (id newobj) "?") newobj) (let ((newobj (when (find-class (quote gen07) nil) (let ((newbpf (simple-bpf-from-list (quote (0 5 95 100)) (quote (0 10 10 0)) (quote gen07) 0))) (setf (bpfcolor newbpf) (om-make-color 0 0 0)) (set-name newbpf nil) newbpf)))) (setf (stime newobj) 0) (setf (size newobj) 513) (setf (id newobj) "?") newobj) (let ((newobj (when (find-class (quote gen07) nil) (let ((newbpf (simple-bpf-from-list (quote (0 5 95 100)) (quote (0 10 10 0)) (quote gen07) 0))) (setf (bpfcolor newbpf) (om-make-color 0 0 0)) (set-name newbpf nil) newbpf)))) (setf (stime newobj) 0) (setf (size newobj) 513) (setf (id newobj) "?") newobj) (let ((newobj (when (find-class (quote gen07) nil) (let ((newbpf (simple-bpf-from-list (quote (0 5 95 100)) (quote (0 10 10 0)) (quote gen07) 0))) (setf (bpfcolor newbpf) (om-make-color 0 0 0)) (set-name newbpf nil) newbpf)))) (setf (stime newobj) 0) (setf (size newobj) 513) (setf (id newobj) "?") newobj)) (list 0.001 0.002 0.003 0.004 0.0050000004 0.0060000005 0.0070000007 0.008 0.009000001 0.010000001 0.011000001 0.012000001 0.013000001 0.014000001 0.0150000015 0.016 0.017 0.018000002 0.019000002) (list 0.1 0.1 0.1 0.1 0.1 0.1 0.1 0.1 0.1 0.1 0.1 0.1 0.1 0.1 0.1 0.1 0.1 0.1 0.1) (list 0.005 0.005 0.005 0.005 0.005 0.005 0.005 0.005 0.005 0.005 0.005 0.005 0.005 0.005 0.005 0.005 0.005 0.005 0.005) (list 0 0 0 0 0 0 0 0 0 0 0 0 0 0 0 0 0 0 0))) rep)))) (setf (precision rep) (list 3)) rep) nil nil (pairlis (quote (winpos winsize color-list show-opt-fields cur-group-ind panel-list)) (list (om-make-point 10 40) (om-make-point 500 280) (list (om-make-color 0 0 0) (om-make-color 0 0 0) (om-make-color 0 0 0) (om-make-color 0 0 0) (om-make-color 0 0 0) (om-make-color 0 0 0) (om-make-color 0 0 0) (om-make-color 0 0 0) (om-make-color 0 0 0) (om-make-color 0 0 0) (om-make-color 0 0 0)) (quote t) 0 (list (list "All open" (list 0 (quote t)) (list 1 (quote t)) (list 2 (quote t)) (list 3 (quote t)) (list 4 (quote t)) (list 5 (quote t)) (list 6 (quote t)) (list 7 (quote t)) (list 8 (quote t)) (list 9 (quote t)) (list 10 (quote t))) (list "All close" (list 0 nil) (list 1 nil) (list 2 nil) (list 3 nil) (list 4 nil) (list 5 nil) (list 6 nil) (list 7 nil) (list 8 nil) (list 9 nil) (list 10 nil))))) nil nil nil nil) (om-load-editor-box1 "BPF 13" (quote bpf) (quote ((om-load-inputfun (quote input-funbox) "object" "self" nil) (om-load-inputfun (quote input-funbox) "X coordinates (list)" "x-points" (list 0 100)) (om-load-inputfun (quote input-funbox) "Y coordinates (list)" "y-points" (list 0 100)) (om-load-inputfun (quote input-funbox) "precision (integer) [0 - 10]" "decimals" 0))) (om-make-point 259 140) (om-make-point 41 38) (let ((newobj (when (find-class (quote bpf) nil) (let ((newbpf (simple-bpf-from-list (quote (0 5 95 100)) (quote (0 10 10 0)) (quote bpf) 0))) (setf (bpfcolor newbpf) (om-make-color 0 0 0)) (set-name newbpf nil) newbpf)))) newobj) "x" nil (pairlis (quote (winsize winpos picture)) (list (om-make-point 335 275) (om-make-point 10 40) nil)) t nil nil nil) (om-load-boxcall (quote bastype) "aux 4" (quote t) (quote nil) (om-make-point 176 142) (om-make-point 41 30) 500 "500" nil) (om-load-boxcall (quote bastype) "aux 3" (quote t) (quote nil) (om-make-point 132 142) (om-make-point 41 30) 220 "220" nil) (om-load-boxcomment "comment 9" (om-make-point 28 253) (quote "|$|$|$|$$$") "" (om-make-point 496 49) nil (om-make-color 1.0 0.0 0.0) (om-make-font "Verdana" 36.0 :family "Verdana" :style (quote (:plain)) :mode (quote nil))) (om-load-boxcall (quote abstraction) "Synt" (om-load-patch-abs1 "Synt" (quote ((om-load-boxcall (quote bastype) "aux" (quote t) (quote nil) (om-make-point 91 100) (om-make-point 72 30) "fof-2_A" "\"fof-2_A\"" nil) (om-load-boxin "OMCh" 0 (om-make-point 31 69) "" "OMCh" nil nil) (om-load-boxout "output" 0 (om-make-point 55 205) (quote ((om-load-inputfun (quote input-funbox) "" "out" nil))) nil nil) (om-load-boxcall (quote genfun) "SYNTHESIZE" (quote synthesize) (quote ((om-load-inputfun (quote input-funbox) "something to synthesize..." "ELEMENTS" nil) (om-load-inputkeyword (quote input-keyword) "" "name" (quote :name) nil nil))) (om-make-point 45 143) nil nil nil nil 1))) (quote ((3 0 2 0 nil 0) (1 0 3 0 nil 0) (0 0 3 1 nil 0))) 6.06001 nil "" (om-make-point 453 367) (om-make-point 289 323)) (quote ((om-load-inputfun (quote input-funbox) "" "fm-1" nil))) (om-make-point 9 112) (om-make-point 51 67) nil nil "Synt") (om-load-editor-box1 "fof-2_A.aiff" (quote sound) (quote ((om-load-inputfun (quote input-funbox) "object" "self" nil) (om-load-inputfun (quote input-funbox) "a track index for multichannel mixing" "tracknum" 1) (om-load-inputfun (quote input-funbox) "a list of markers (s)" "markers" nil))) (om-make-point 13 182) (om-make-point 50 59) (let ((newobj (let ((thesound (load-sound (om-make-pathname :directory (quote (:relative "out-files")) :device :unspecific :host :unspecific :name "fof-2_A" :type "aiff") 1))) (when thesound (setf (markers thesound) (quote nil))) thesound))) (load-port-info newobj (quote nil)) (init-mus-color newobj (quote nil)) (set-extra-pairs newobj (quote nil)) (set-patch-pairs newobj (quote nil)) (set-name newobj "fof-2_A.aiff") (set-tonalite newobj nil) newobj) nil nil (pairlis (quote (approx fontsize staff cmnpref deltapict outport inport player zoom notechancolor? grillestep mode winsize winpos score-mode obj-mode show-stems scale palette-mode)) (list 2 24 (quote g) (let ((newobj (make-instance (quote edition-values)))) (setf (paper-size newobj) (om-make-point 600 800)) (setf (top-margin newobj) 2) (setf (left-margin newobj) 1) (setf (right-margin newobj) 1) (setf (bottom-margin newobj) 1) (setf (orientation newobj) nil) (setf (scale newobj) nil) (setf (system-space newobj) (quote (1))) (setf (system-color newobj) (quote nil)) (setf (line-space newobj) 1) (setf (title newobj) nil) (setf (show-title? newobj) nil) (setf (show-page? newobj) nil) (setf (sheet-id newobj) nil) (setf (page-mode newobj) nil) newobj) (om-make-point 0 0) nil 0 (quote :libaudio) 1 nil 1000 0 (om-make-point 875 640) (om-make-point 410 388) 0 1 (quote t) nil 0)) t nil nil nil) (om-load-boxcomment "comment 8" (om-make-point 40 31) (quote "bw") "" (om-make-point 219 116) nil (om-make-color 1.0 0.0 0.0) (om-make-font "Verdana" 14.0 :family "Verdana" :style (quote (:bold)) :mode (quote nil))) (om-load-boxcomment "comment 6" (om-make-point 48 34) (quote "aenv") "" (om-make-point 256 116) nil (om-make-color 1.0 0.0 0.0) (om-make-font "Verdana" 14.0 :family "Verdana" :style (quote (:bold)) :mode (quote nil))) (om-load-boxcomment "comment 5" (om-make-point 47 30) (quote "freq") "" (om-make-point 175 116) nil (om-make-color 1.0 0.0 0.0) (om-make-font "Verdana" 14.0 :family "Verdana" :style (quote (:bold)) :mode (quote nil))) (om-load-boxcomment "comment 4" (om-make-point 30 26) (quote "f0") "" (om-make-point 137 117) nil (om-make-color 1.0 0.0 0.0) (om-make-font "Verdana" 14.0 :family "Verdana" :style (quote (:bold)) :mode (quote nil))) (om-load-boxcall (quote bastype) "aux 2" (quote t) (quote nil) (om-make-point 221 142) (om-make-point 34 30) 64 "64" nil) (om-load-boxcall (quote abstraction) "C#ed" (om-load-patch-abs1 "C#ed" (quote ((om-load-boxout "output 2" 1 (om-make-point 127 369) (quote ((om-load-inputfun (quote input-funbox) "" "out" nil))) "edel" nil) (om-load-boxcall (quote lispfun) "LENGTH" (quote length) (quote ((om-load-inputfun (quote input-funbox) "SEQUENCE" "SEQUENCE" nil))) (om-make-point 45 326) nil nil nil nil 1) (om-load-boxin "length" 1 (om-make-point 111 12) "" "length" nil nil) (om-load-boxcall (quote genfun) "OM*" (quote om*) (quote ((om-load-inputfun (quote input-funbox) "number or list" "ARG1" 0) (om-load-inputfun (quote input-funbox) "number or list" "ARG2" 0))) (om-make-point 137 204) nil nil nil nil 1) (om-load-boxcall (quote bastype) "aux 2" (quote t) (quote nil) (om-make-point 159 94) (om-make-point 27 30) 1 "1" nil) (om-load-boxcall (quote genfun) "OM-" (quote om-) (quote ((om-load-inputfun (quote input-funbox) "number or list" "ARG1" 0) (om-load-inputfun (quote input-funbox) "number or list" "ARG2" 0))) (om-make-point 136 144) nil nil nil nil 1) (om-load-boxcall (quote lispfun) "LENGTH" (quote length) (quote ((om-load-inputfun (quote input-funbox) "SEQUENCE" "SEQUENCE" nil))) (om-make-point 109 80) nil nil nil nil 1) (om-load-boxin "durs" 0 (om-make-point 200 139) "" "durs" nil nil) (om-load-boxout "output" 0 (om-make-point 43 374) (quote ((om-load-inputfun (quote input-funbox) "" "out" nil))) "length" nil) (om-load-boxcall (quote bastype) "aux" (quote t) (quote nil) (om-make-point 103 222) (om-make-point 27 30) 0 "0" nil) (om-load-boxcall (quote genfun) "ARITHM-SER" (quote arithm-ser) (quote ((om-load-inputfun (quote input-funbox) "begin" "BEGIN" 0) (om-load-inputfun (quote input-funbox) "end " "END" 10) (om-load-inputfun (quote input-funbox) "step" "STEP" 1))) (om-make-point 111 265) nil nil nil nil 1))) (quote ((10 0 0 0 nil 0) (10 0 1 0 nil 0) (5 0 3 0 nil 0) (7 0 3 1 nil 0) (6 0 5 0 nil 0) (4 0 5 1 nil 0) (2 0 6 0 nil 0) (1 0 8 0 nil 0) (9 0 10 0 nil 0) (3 0 10 1 nil 0) (7 0 10 2 nil 0))) 6.06001 nil "" (om-make-point 200 200) (om-make-point 500 400)) (quote ((om-load-inputfun (quote input-funbox) "" "durs" nil) (om-load-inputfun (quote input-funbox) "" "length" nil))) (om-make-point 79 106) nil nil nil "C#ed") (om-load-boxcall (quote bastype) "aux" (quote t) (quote nil) (om-make-point 87 68) (om-make-point 27 30) 1 "1" nil) (om-load-boxcomment "comment 3" (om-make-point 51 34) (quote "durs") "" (om-make-point 77 44) nil (om-make-color 1.0 0.0 0.0) (om-make-font "Verdana" 14.0 :family "Verdana" :style (quote (:bold)) :mode (quote nil))) (om-load-boxcomment "comment 2" (om-make-point 298 34) (quote "Tutorial FOF-2") "" (om-make-point 56 2) nil (om-make-color 1.0 0.0 0.0) (om-make-font "Verdana" 14.0 :family "Verdana" :style (quote (:bold)) :mode (quote nil))) (om-load-boxcomment "comment" (om-make-point 44 88) (quote "A") "" (om-make-point 16 52) nil (om-make-color 1.0 0.0 0.011788845) (om-make-font "Verdana" 36.0 :family "Verdana" :style (quote (:bold)) :mode (quote nil))))) (quote ((4 0 5 0 nil 0) (3 0 5 1 nil 0) (0 0 5 2 nil 0) (9 0 10 0 nil 3) (5 0 10 1 nil 1) (17 0 16 0 nil 0) (21 0 17 0 nil 2) (10 0 21 1 nil 1) (10 1 21 4 nil 2) (9 0 21 5 nil 3) (18 0 21 7 nil 4) (19 0 21 8 nil 5) (11 0 21 9 nil 2) (20 0 21 10 nil 4) (6 0 21 11 nil 0) (24 0 21 12 nil 0) (26 0 21 13 nil 0) (5 0 21 14 nil 1) (30 0 31 0 nil 0) (29 0 31 1 nil 0) (28 0 31 2 nil 0) (35 0 36 0 nil 3) (31 0 36 1 nil 1) (43 0 42 0 nil 0) (47 0 43 0 nil 2) (36 0 47 1 nil 1) (36 1 47 4 nil 2) (35 0 47 5 nil 3) (44 0 47 7 nil 4) (45 0 47 8 nil 5) (37 0 47 9 nil 2) (46 0 47 10 nil 4) (32 0 47 11 nil 0) (50 0 47 12 nil 0) (31 0 47 13 nil 1) (52 0 47 14 nil 0) (73 0 55 0 nil 0) (54 0 55 1 nil 0) (72 0 55 2 nil 0) (58 0 59 0 nil 3) (55 0 59 1 nil 1) (66 0 65 0 nil 0) (70 0 66 0 nil 2) (59 0 70 1 nil 1) (59 1 70 4 nil 2) (58 0 70 5 nil 3) (67 0 70 7 nil 4) (68 0 70 8 nil 5) (60 0 70 9 nil 2) (69 0 70 10 nil 4) (74 0 70 11 nil 0) (55 0 70 12 nil 1) (76 0 70 13 nil 0) (78 0 70 14 nil 0) (87 0 86 0 nil 0) (88 0 86 1 nil 0) (89 0 86 2 nil 0) (103 0 91 1 nil 1) (103 1 91 4 nil 2) (104 0 91 5 nil 3) (94 0 91 7 nil 4) (93 0 91 8 nil 5) (102 0 91 9 nil 2) (92 0 91 10 nil 4) (86 0 91 11 nil 1) (85 0 91 12 nil 0) (83 0 91 13 nil 0) (81 0 91 14 nil 0) (91 0 96 0 nil 2) (96 0 97 0 nil 0) (104 0 103 0 nil 3) (86 0 103 1 nil 1))) nil 6.06001))
